<svg width="296" height="71" viewBox="0 0 296 71" fill="none" xmlns="http://www.w3.org/2000/svg">
<path fill-rule="evenodd" clip-rule="evenodd" d="M0 32.2147C0 44.5347 0.646087 51.9267 9.96819 61.144C15.9676 67.1671 24.2744 70.3612 32.7658 71H39.0421C48.918 70.2699 58.3324 66.072 64.2395 58.6799C65.7162 56.6722 68.5775 53.1131 68.7621 50.3753C65.1625 49.4627 63.0396 45.5386 59.5323 45.5386C56.3941 45.5386 52.7022 59.5013 36.2732 59.5013C8.12223 59.5013 4.24571 22.9062 25.5666 13.7802C33.5965 10.4036 42.2725 10.9512 49.1949 15.6967C51.2254 17.0656 52.6099 18.1607 53.9944 20.0771C57.6863 25.2789 55.3789 22.6324 58.9785 24.2751C61.8397 22.3586 64.6087 20.1684 67.5622 18.2519C61.7474 7.30077 50.8563 0 37.473 0H33.135C15.9676 0 0 15.2404 0 32.2147Z" fill="#363D44"/>
<path fill-rule="evenodd" clip-rule="evenodd" d="M0 32.2147C0 44.5347 0.646087 51.9267 9.96819 61.144C15.9676 67.1671 24.2744 70.3612 32.7658 71H39.0421C48.918 70.2699 58.3324 66.072 64.2395 58.6799C65.7162 56.6722 68.5775 53.1131 68.7621 50.3753C65.1625 49.4627 63.0396 45.5386 59.5323 45.5386C56.3941 45.5386 52.7022 59.5013 36.2732 59.5013C8.12223 59.5013 4.24571 22.9062 25.5666 13.7802C33.5965 10.4036 42.2725 10.9512 49.1949 15.6967C51.2254 17.0656 52.6099 18.1607 53.9944 20.0771C57.6863 25.2789 55.3789 22.6324 58.9785 24.2751C61.8397 22.3586 64.6087 20.1684 67.5622 18.2519C61.7474 7.30077 50.8563 0 37.473 0H33.135C15.9676 0 0 15.2404 0 32.2147Z" fill="url(#paint0_linear_147_3617)"/>
<path fill-rule="evenodd" clip-rule="evenodd" d="M167.06 30.937C167.06 37.0514 167.521 38.0553 175.828 39.2416C181.92 40.063 184.412 38.2378 187.273 42.527C185.796 47.82 178.228 46.9987 173.797 44.8997C171.859 44.0784 165.952 40.063 165.767 48.0026C168.167 48.5501 170.105 49.7365 172.505 50.3753C195.118 56.6722 199.272 37.599 186.35 34.9524C180.258 33.6748 178.689 35.6825 173.151 32.7622C173.613 30.937 173.336 31.0283 174.72 30.1157C177.489 28.2905 181.92 29.3856 184.596 30.572C186.996 31.6671 187.088 32.6709 190.319 32.7622C190.872 30.4807 191.611 30.2069 192.165 27.9254C184.412 23.8188 184.781 24.2751 175.643 24.2751C171.398 24.2751 167.06 26.9216 167.06 30.937Z" fill="#363D44"/>
<path fill-rule="evenodd" clip-rule="evenodd" d="M167.06 30.937C167.06 37.0514 167.521 38.0553 175.828 39.2416C181.92 40.063 184.412 38.2378 187.273 42.527C185.796 47.82 178.228 46.9987 173.797 44.8997C171.859 44.0784 165.952 40.063 165.767 48.0026C168.167 48.5501 170.105 49.7365 172.505 50.3753C195.118 56.6722 199.272 37.599 186.35 34.9524C180.258 33.6748 178.689 35.6825 173.151 32.7622C173.613 30.937 173.336 31.0283 174.72 30.1157C177.489 28.2905 181.92 29.3856 184.596 30.572C186.996 31.6671 187.088 32.6709 190.319 32.7622C190.872 30.4807 191.611 30.2069 192.165 27.9254C184.412 23.8188 184.781 24.2751 175.643 24.2751C171.398 24.2751 167.06 26.9216 167.06 30.937Z" fill="url(#paint1_linear_147_3617)"/>
<path fill-rule="evenodd" clip-rule="evenodd" d="M136.324 51.0141H163.368V46.1774H142.508V38.8766H155.338V34.0398H142.508V29.1118H162.075V24.2751H136.324V51.0141Z" fill="#363D44"/>
<path fill-rule="evenodd" clip-rule="evenodd" d="M136.324 51.0141H163.368V46.1774H142.508V38.8766H155.338V34.0398H142.508V29.1118H162.075V24.2751H136.324V51.0141Z" fill="url(#paint2_linear_147_3617)"/>
<path fill-rule="evenodd" clip-rule="evenodd" d="M74.3 51.0141H101.343V46.1774H80.4839V38.8766H93.3134V34.0398H80.4839V29.1118H100.051V24.2751H74.3V51.0141Z" fill="#363D44"/>
<path fill-rule="evenodd" clip-rule="evenodd" d="M74.3 51.0141H101.343V46.1774H80.4839V38.8766H93.3134V34.0398H80.4839V29.1118H100.051V24.2751H74.3V51.0141Z" fill="url(#paint3_linear_147_3617)"/>
<path fill-rule="evenodd" clip-rule="evenodd" d="M251.789 34.0398C253.635 35.3175 254.374 38.0553 255.481 40.063H249.297C249.943 37.4165 251.143 36.6864 251.789 34.0398ZM237.021 51.0141C244.405 51.0141 242.744 51.3792 244.498 48.6414C245.236 47.455 245.79 46.6337 246.251 44.8997H257.881C259.081 47.09 260.373 48.3676 261.019 51.0141H267.757C267.388 47.09 255.573 27.0129 254.835 24.2751H249.943C247.636 27.7429 237.114 47.7288 237.021 51.0141Z" fill="#363D44"/>
<path fill-rule="evenodd" clip-rule="evenodd" d="M251.789 34.0398C253.635 35.3175 254.374 38.0553 255.481 40.063H249.297C249.943 37.4165 251.143 36.6864 251.789 34.0398ZM237.021 51.0141C244.405 51.0141 242.744 51.3792 244.498 48.6414C245.236 47.455 245.79 46.6337 246.251 44.8997H257.881C259.081 47.09 260.373 48.3676 261.019 51.0141H267.757C267.388 47.09 255.573 27.0129 254.835 24.2751H249.943C247.636 27.7429 237.114 47.7288 237.021 51.0141Z" fill="url(#paint4_linear_147_3617)"/>
<path fill-rule="evenodd" clip-rule="evenodd" d="M195.857 29.1118H206.932V51.0141H213.116V29.1118H223.546V24.2751H195.857V29.1118Z" fill="#363D44"/>
<path fill-rule="evenodd" clip-rule="evenodd" d="M195.857 29.1118H206.932V51.0141H213.116V29.1118H223.546V24.2751H195.857V29.1118Z" fill="url(#paint5_linear_147_3617)"/>
<path fill-rule="evenodd" clip-rule="evenodd" d="M106.881 51.0141H131.986V46.1774H112.973V24.2751H106.881V51.0141Z" fill="#363D44"/>
<path fill-rule="evenodd" clip-rule="evenodd" d="M106.881 51.0141H131.986V46.1774H112.973V24.2751H106.881V51.0141Z" fill="url(#paint6_linear_147_3617)"/>
<path fill-rule="evenodd" clip-rule="evenodd" d="M270.803 51.0141H296V46.1774H276.987V24.2751H270.803V51.0141Z" fill="#363D44"/>
<path fill-rule="evenodd" clip-rule="evenodd" d="M270.803 51.0141H296V46.1774H276.987V24.2751H270.803V51.0141Z" fill="url(#paint7_linear_147_3617)"/>
<path fill-rule="evenodd" clip-rule="evenodd" d="M73.6539 69.8136C99.4974 69.8136 88.7908 70.3612 95.1593 66.1632C96.7284 67.1671 97.2822 68.3535 98.2052 69.8136H102.543C101.897 67.5321 100.143 66.8933 97.6514 63.1517C99.9588 59.6838 101.989 58.6799 102.543 56.4897C95.2516 56.4897 98.759 57.4936 95.1593 60.1401C93.6826 59.1362 93.1288 57.9499 92.1135 56.4897H87.7755C88.4216 58.7712 90.1752 59.41 92.7596 63.1517C91.9289 64.338 89.5292 67.2584 88.4216 67.9884C88.3293 67.9884 88.237 67.8972 88.237 67.9884L84.1759 67.3496C81.9607 67.3496 79.6533 67.3496 77.3458 67.3496V63.7905H83.5298V61.3265H77.3458V58.8625H87.2217V56.4897H73.6539V69.8136Z" fill="#363D44"/>
<path fill-rule="evenodd" clip-rule="evenodd" d="M73.6539 69.8136C99.4974 69.8136 88.7908 70.3612 95.1593 66.1632C96.7284 67.1671 97.2822 68.3535 98.2052 69.8136H102.543C101.897 67.5321 100.143 66.8933 97.6514 63.1517C99.9588 59.6838 101.989 58.6799 102.543 56.4897C95.2516 56.4897 98.759 57.4936 95.1593 60.1401C93.6826 59.1362 93.1288 57.9499 92.1135 56.4897H87.7755C88.4216 58.7712 90.1752 59.41 92.7596 63.1517C91.9289 64.338 89.5292 67.2584 88.4216 67.9884C88.3293 67.9884 88.237 67.8972 88.237 67.9884L84.1759 67.3496C81.9607 67.3496 79.6533 67.3496 77.3458 67.3496V63.7905H83.5298V61.3265H77.3458V58.8625H87.2217V56.4897H73.6539V69.8136Z" fill="url(#paint8_linear_147_3617)"/>
<path fill-rule="evenodd" clip-rule="evenodd" d="M227.238 51.0141H233.33V24.2751H227.238V51.0141Z" fill="#363D44"/>
<path fill-rule="evenodd" clip-rule="evenodd" d="M227.238 51.0141H233.33V24.2751H227.238V51.0141Z" fill="url(#paint9_linear_147_3617)"/>
<path fill-rule="evenodd" clip-rule="evenodd" d="M146.108 61.9653H141.862V58.8625C146.569 58.8625 145.277 58.5887 149.246 59.5013V61.3265C147.862 61.6003 147.769 61.9653 146.108 61.9653ZM138.17 69.8136H141.862V64.3381H146.108C146.662 66.2545 148.231 67.9884 149.246 69.8136H152.938C152.384 67.7147 151.369 66.7108 150.446 64.9769C152.661 61.6915 153.769 61.4177 151.646 57.0373C147.031 56.0334 143.708 56.4897 138.17 56.4897V69.8136Z" fill="#363D44"/>
<path fill-rule="evenodd" clip-rule="evenodd" d="M146.108 61.9653H141.862V58.8625C146.569 58.8625 145.277 58.5887 149.246 59.5013V61.3265C147.862 61.6003 147.769 61.9653 146.108 61.9653ZM138.17 69.8136H141.862V64.3381H146.108C146.662 66.2545 148.231 67.9884 149.246 69.8136H152.938C152.384 67.7147 151.369 66.7108 150.446 64.9769C152.661 61.6915 153.769 61.4177 151.646 57.0373C147.031 56.0334 143.708 56.4897 138.17 56.4897V69.8136Z" fill="url(#paint10_linear_147_3617)"/>
<path fill-rule="evenodd" clip-rule="evenodd" d="M121.557 69.8136H135.678V67.3496H125.249V63.7905H131.432V61.3265H125.249V58.8625H135.124V56.4897H121.557V69.8136Z" fill="#363D44"/>
<path fill-rule="evenodd" clip-rule="evenodd" d="M121.557 69.8136H135.678V67.3496H125.249V63.7905H131.432V61.3265H125.249V58.8625H135.124V56.4897H121.557V69.8136Z" fill="url(#paint11_linear_147_3617)"/>
<path fill-rule="evenodd" clip-rule="evenodd" d="M113.619 61.9653H108.081V58.8625H113.619C115.28 58.8625 115.373 59.7751 116.019 60.6877C114.911 61.4177 115.003 61.9653 113.619 61.9653ZM104.389 69.8136H108.081V64.338C113.342 64.338 114.08 64.7943 118.511 63.7905C120.634 54.9383 118.418 56.4897 104.389 56.4897V69.8136Z" fill="#363D44"/>
<path fill-rule="evenodd" clip-rule="evenodd" d="M113.619 61.9653H108.081V58.8625H113.619C115.28 58.8625 115.373 59.7751 116.019 60.6877C114.911 61.4177 115.003 61.9653 113.619 61.9653ZM104.389 69.8136H108.081V64.338C113.342 64.338 114.08 64.7943 118.511 63.7905C120.634 54.9383 118.418 56.4897 104.389 56.4897V69.8136Z" fill="url(#paint12_linear_147_3617)"/>
<path fill-rule="evenodd" clip-rule="evenodd" d="M152.938 58.8625H158.384V69.8136H162.075V58.8625H167.06V56.4897H152.938V58.8625Z" fill="#363D44"/>
<path fill-rule="evenodd" clip-rule="evenodd" d="M152.938 58.8625H158.384V69.8136H162.075V58.8625H167.06V56.4897H152.938V58.8625Z" fill="url(#paint13_linear_147_3617)"/>
<defs>
<linearGradient id="paint0_linear_147_3617" x1="296" y1="112.336" x2="-20.4345" y2="96.6034" gradientUnits="userSpaceOnUse">
<stop stop-color="#95803D"/>
<stop offset="0.0860879" stop-color="#A28B45"/>
<stop offset="0.213542" stop-color="#C9AE5F"/>
<stop offset="0.489583" stop-color="#C9AE5F"/>
<stop offset="0.822917" stop-color="#D8B154"/>
<stop offset="1" stop-color="#8C6D3B"/>
</linearGradient>
<linearGradient id="paint1_linear_147_3617" x1="296" y1="112.336" x2="-20.4345" y2="96.6034" gradientUnits="userSpaceOnUse">
<stop stop-color="#95803D"/>
<stop offset="0.0860879" stop-color="#A28B45"/>
<stop offset="0.213542" stop-color="#C9AE5F"/>
<stop offset="0.489583" stop-color="#C9AE5F"/>
<stop offset="0.822917" stop-color="#D8B154"/>
<stop offset="1" stop-color="#8C6D3B"/>
</linearGradient>
<linearGradient id="paint2_linear_147_3617" x1="296" y1="112.336" x2="-20.4345" y2="96.6034" gradientUnits="userSpaceOnUse">
<stop stop-color="#95803D"/>
<stop offset="0.0860879" stop-color="#A28B45"/>
<stop offset="0.213542" stop-color="#C9AE5F"/>
<stop offset="0.489583" stop-color="#C9AE5F"/>
<stop offset="0.822917" stop-color="#D8B154"/>
<stop offset="1" stop-color="#8C6D3B"/>
</linearGradient>
<linearGradient id="paint3_linear_147_3617" x1="296" y1="112.336" x2="-20.4345" y2="96.6034" gradientUnits="userSpaceOnUse">
<stop stop-color="#95803D"/>
<stop offset="0.0860879" stop-color="#A28B45"/>
<stop offset="0.213542" stop-color="#C9AE5F"/>
<stop offset="0.489583" stop-color="#C9AE5F"/>
<stop offset="0.822917" stop-color="#D8B154"/>
<stop offset="1" stop-color="#8C6D3B"/>
</linearGradient>
<linearGradient id="paint4_linear_147_3617" x1="296" y1="112.336" x2="-20.4345" y2="96.6034" gradientUnits="userSpaceOnUse">
<stop stop-color="#95803D"/>
<stop offset="0.0860879" stop-color="#A28B45"/>
<stop offset="0.213542" stop-color="#C9AE5F"/>
<stop offset="0.489583" stop-color="#C9AE5F"/>
<stop offset="0.822917" stop-color="#D8B154"/>
<stop offset="1" stop-color="#8C6D3B"/>
</linearGradient>
<linearGradient id="paint5_linear_147_3617" x1="296" y1="112.336" x2="-20.4345" y2="96.6034" gradientUnits="userSpaceOnUse">
<stop stop-color="#95803D"/>
<stop offset="0.0860879" stop-color="#A28B45"/>
<stop offset="0.213542" stop-color="#C9AE5F"/>
<stop offset="0.489583" stop-color="#C9AE5F"/>
<stop offset="0.822917" stop-color="#D8B154"/>
<stop offset="1" stop-color="#8C6D3B"/>
</linearGradient>
<linearGradient id="paint6_linear_147_3617" x1="296" y1="112.336" x2="-20.4345" y2="96.6034" gradientUnits="userSpaceOnUse">
<stop stop-color="#95803D"/>
<stop offset="0.0860879" stop-color="#A28B45"/>
<stop offset="0.213542" stop-color="#C9AE5F"/>
<stop offset="0.489583" stop-color="#C9AE5F"/>
<stop offset="0.822917" stop-color="#D8B154"/>
<stop offset="1" stop-color="#8C6D3B"/>
</linearGradient>
<linearGradient id="paint7_linear_147_3617" x1="296" y1="112.336" x2="-20.4345" y2="96.6034" gradientUnits="userSpaceOnUse">
<stop stop-color="#95803D"/>
<stop offset="0.0860879" stop-color="#A28B45"/>
<stop offset="0.213542" stop-color="#C9AE5F"/>
<stop offset="0.489583" stop-color="#C9AE5F"/>
<stop offset="0.822917" stop-color="#D8B154"/>
<stop offset="1" stop-color="#8C6D3B"/>
</linearGradient>
<linearGradient id="paint8_linear_147_3617" x1="296" y1="112.336" x2="-20.4345" y2="96.6034" gradientUnits="userSpaceOnUse">
<stop stop-color="#95803D"/>
<stop offset="0.0860879" stop-color="#A28B45"/>
<stop offset="0.213542" stop-color="#C9AE5F"/>
<stop offset="0.489583" stop-color="#C9AE5F"/>
<stop offset="0.822917" stop-color="#D8B154"/>
<stop offset="1" stop-color="#8C6D3B"/>
</linearGradient>
<linearGradient id="paint9_linear_147_3617" x1="296" y1="112.336" x2="-20.4345" y2="96.6034" gradientUnits="userSpaceOnUse">
<stop stop-color="#95803D"/>
<stop offset="0.0860879" stop-color="#A28B45"/>
<stop offset="0.213542" stop-color="#C9AE5F"/>
<stop offset="0.489583" stop-color="#C9AE5F"/>
<stop offset="0.822917" stop-color="#D8B154"/>
<stop offset="1" stop-color="#8C6D3B"/>
</linearGradient>
<linearGradient id="paint10_linear_147_3617" x1="296" y1="112.336" x2="-20.4345" y2="96.6034" gradientUnits="userSpaceOnUse">
<stop stop-color="#95803D"/>
<stop offset="0.0860879" stop-color="#A28B45"/>
<stop offset="0.213542" stop-color="#C9AE5F"/>
<stop offset="0.489583" stop-color="#C9AE5F"/>
<stop offset="0.822917" stop-color="#D8B154"/>
<stop offset="1" stop-color="#8C6D3B"/>
</linearGradient>
<linearGradient id="paint11_linear_147_3617" x1="296" y1="112.336" x2="-20.4345" y2="96.6034" gradientUnits="userSpaceOnUse">
<stop stop-color="#95803D"/>
<stop offset="0.0860879" stop-color="#A28B45"/>
<stop offset="0.213542" stop-color="#C9AE5F"/>
<stop offset="0.489583" stop-color="#C9AE5F"/>
<stop offset="0.822917" stop-color="#D8B154"/>
<stop offset="1" stop-color="#8C6D3B"/>
</linearGradient>
<linearGradient id="paint12_linear_147_3617" x1="296" y1="112.336" x2="-20.4345" y2="96.6034" gradientUnits="userSpaceOnUse">
<stop stop-color="#95803D"/>
<stop offset="0.0860879" stop-color="#A28B45"/>
<stop offset="0.213542" stop-color="#C9AE5F"/>
<stop offset="0.489583" stop-color="#C9AE5F"/>
<stop offset="0.822917" stop-color="#D8B154"/>
<stop offset="1" stop-color="#8C6D3B"/>
</linearGradient>
<linearGradient id="paint13_linear_147_3617" x1="296" y1="112.336" x2="-20.4345" y2="96.6034" gradientUnits="userSpaceOnUse">
<stop stop-color="#95803D"/>
<stop offset="0.0860879" stop-color="#A28B45"/>
<stop offset="0.213542" stop-color="#C9AE5F"/>
<stop offset="0.489583" stop-color="#C9AE5F"/>
<stop offset="0.822917" stop-color="#D8B154"/>
<stop offset="1" stop-color="#8C6D3B"/>
</linearGradient>
</defs>
</svg>
