<svg width="176" height="80" viewBox="0 0 176 80" fill="none" xmlns="http://www.w3.org/2000/svg">
<rect width="176" height="80" fill="white"/>
<path fill-rule="evenodd" clip-rule="evenodd" d="M99.5696 34.8813C98.9615 37.7222 96.9478 41.494 95.4919 43.1786C93.3077 45.7058 89.1994 45.433 84.9949 45.2206C79.5583 44.946 73.8729 44.1739 68.6746 42.8027C66.6998 42.2817 64.5679 42.0382 66.5367 40.3241C71.2575 36.2143 86.6552 30.2097 93.1089 29.3337C97.8463 28.6906 100.589 30.1186 99.5696 34.8813L99.5696 34.8813ZM132.728 75.9193C133.024 75.4242 132.937 75.2843 132.929 74.5408C132.924 74.0908 132.925 73.6413 132.925 73.1913C132.925 72.2578 132.946 71.3259 132.898 70.4235L140.824 70.3935C140.796 71.3895 140.799 72.3868 140.797 73.3838C140.796 73.8344 140.789 74.2876 140.79 74.7377L140.988 75.9036L145.394 75.8719L145.398 57.9471C142.492 57.8023 139.286 57.9183 136.348 57.9183C133.519 57.9183 130.186 57.4547 128.961 59.386C127.973 60.9454 128.321 65.2569 128.321 67.4159C128.321 70.223 128.279 73.0595 128.332 75.89L132.728 75.9193V75.9193ZM76.9469 71.8316L69.4478 71.9592L69.4908 58.5486C69.4396 58.0283 69.5345 58.7244 69.4278 58.2013L69.2924 57.9111L64.8768 57.94L64.8796 75.879C67.846 75.979 70.9472 75.9005 73.9283 75.9003C83.7447 75.8998 81.8385 76.3568 81.9304 57.9266L77.4686 57.9162L77.4644 68.9562C77.4653 70.0151 77.721 71.5535 76.9469 71.8316V71.8316ZM154.188 58.1507C153.888 57.7483 154.257 57.8789 153.278 57.848L149.781 57.9226C149.707 58.1623 149.411 75.1475 149.841 75.9062L154.209 75.8593L154.188 58.1507V58.1507ZM43.2488 57.9183L48.3076 65.7351C48.7636 66.4565 50.6775 69.1683 50.8144 69.7446C51.0534 70.7513 50.8722 74.5087 50.881 75.8876L55.3396 75.8459C55.3991 67.1233 54.5578 71.1712 60.4799 61.882C61.2006 60.7515 62.5359 59.0409 62.9802 57.9181L58.0214 57.9186C57.4597 58.2383 53.5076 64.3024 53.2643 64.9788L48.3564 57.9234L43.2488 57.9183V57.9183ZM90.5653 61.8021C92.0575 61.8305 97.3561 61.5708 98.2921 61.9893C99.0949 62.5653 98.6753 74.2074 98.6979 75.8938L103.159 75.8974C103.198 73.0925 103.669 60.8182 102.505 59.3413C100.978 57.4045 97.6189 57.9183 94.8691 57.9183C92.5532 57.9183 88.1618 57.6792 86.0902 57.9897L86.0921 75.8937L90.555 75.8257L90.5652 61.8022L90.5653 61.8021ZM41.3012 75.9057L41.3163 58.0202L36.9216 58.0142L36.9155 64.764L28.7993 64.7836L28.7969 57.8675L24.5966 57.9194L24.3047 57.9164L24.3144 75.9022L28.7769 75.8754L28.773 68.6704L36.9258 68.6568L36.9184 75.8912L41.3012 75.9057H41.3012ZM118.226 71.9963L111.827 71.9909L111.785 61.834C114.141 61.7767 117.345 61.6739 119.674 61.9804C120.121 63.3652 119.906 68.8986 119.906 70.6886C119.906 71.8641 119.358 71.9965 118.226 71.9963L118.226 71.9963ZM107.3 75.8985C125.491 75.9379 124.366 77.4996 124.366 66.8383C124.366 62.6579 125.451 58.0852 120.45 57.9202C116.187 57.7795 111.598 57.9048 107.297 57.9207L107.3 75.8985V75.8985ZM132.805 64.3357L132.806 63.3731L132.968 61.94L134.331 61.787L139.368 61.8151L140.905 61.8507L140.906 66.3893L132.803 66.4532L132.805 64.3357V64.3357ZM121.949 14.7987C124.519 14.6502 136.184 22.8104 130.445 31.5338C127.079 36.6486 120.695 40.0136 112.871 42.277C110.989 42.8214 109.209 43.2681 107.281 43.6609C103.07 44.519 105.105 42.7236 106.33 41.2204C108.529 38.5202 110.257 36.1308 112.25 33.0213C115.478 27.9851 117.039 24.6286 119.656 19.5024C120.421 18.002 121.222 15.8701 121.949 14.7987ZM114.094 11.3948C113.89 12.5548 111.781 13.7232 110.688 14.3927C105.431 17.6137 80.1048 29.6041 80.048 19.8699C80.0321 17.1222 82.1842 12.7946 83.4603 10.886C85.4716 7.87762 87.7615 7.4655 92.6598 7.58795C96.5487 7.68519 112.414 9.11167 114.094 11.3948V11.3948ZM74.735 10.0472L71.6532 13.8317C69.9455 15.9572 67.4139 19.8543 65.9922 22.2875C63.3486 26.8117 61.0619 31.2144 58.819 36.0145C57.5923 38.6396 57.6085 38.8484 54.9398 37.0642C53.2303 35.9211 52.3422 35.0631 51.0642 33.8278C50.6368 33.4148 50.6658 33.4998 50.2933 33.0276C50.0151 32.6749 49.7815 32.3819 49.5365 32.0158C42.7889 21.9378 55.634 14.3587 64.1673 11.4817C64.8494 11.2517 76.7093 7.31486 74.7351 10.0473L74.735 10.0472ZM44.0275 27.7584C44.9055 35.8177 54.1993 41.3047 61.5838 44.1769C70.2066 47.5308 81.1429 49.1094 91.2448 48.926C101.462 48.7404 111.631 47.0595 120.068 43.3706C126.941 40.3652 136.543 34.478 135.673 25.2718C135.421 22.6128 133.971 19.7646 132.314 17.9457C130.296 15.7303 131.675 17.0188 129.112 14.8487C119.612 6.80555 101.484 3.77405 88.4258 4.01315C75.8472 4.24338 58.39 7.42015 49.0562 16.1068C45.947 19.0004 43.5331 23.2203 44.0275 27.7584H44.0275Z" fill="#9D9D9D"/>
</svg>
