<svg width="176" height="80" viewBox="0 0 176 80" fill="none" xmlns="http://www.w3.org/2000/svg">
<rect width="176" height="80" fill="white"/>
<path fill-rule="evenodd" clip-rule="evenodd" d="M63.9352 29.7074C64.4494 29.2694 64.7018 28.8662 65.1231 28.3977C65.5031 28.5754 65.5989 28.7582 66.013 29.2685C66.8082 30.2484 67.3012 31.1248 67.8504 32.263C68.5922 33.8001 68.938 35.8061 68.938 37.7317C67.222 37.5123 62.3976 37.2892 61.153 36.8724C60.984 35.3 60.6673 34.9658 60.0472 33.8598L63.9352 29.7074L63.9352 29.7074ZM68.2108 25.3204C68.4798 24.959 68.9952 24.3808 69.3367 24.0705L71.0882 22.3083C71.2765 22.1075 71.3911 21.9264 71.5808 21.7032C71.9284 21.2946 72.3519 21.0031 72.708 20.624C73.2626 21.9913 73.633 23.8967 74.0432 25.2744L76.6675 34.5227C77.0362 35.8083 77.2195 35.7301 76.3105 36.5365C75.8673 36.9298 75.4503 37.6977 75.262 38.3609L73.3297 38.177C73.0636 37.2412 73.6252 36.7089 72.9288 36.0718C72.5865 35.7587 72.4636 35.2666 72.518 34.6942C72.5853 33.9844 73.0942 34.4518 72.7515 33.2773C72.6673 32.9885 72.5657 32.6374 72.4762 32.3386C72.3004 31.7517 72.3735 31.9196 71.9561 31.6801C71.5946 31.4725 71.8728 31.7778 71.6041 31.409C70.7649 30.2567 71.4714 29.9774 71.2282 29.3991C71.1685 29.2569 70.3403 27.8979 70.325 27.8832C69.9832 27.5528 70.187 27.7817 69.78 27.6849C69.4129 27.5976 69.5802 27.7069 69.3575 27.4967C68.2615 26.4626 68.6957 26.2764 68.6706 26.0364C68.6162 25.5154 68.5178 25.8034 68.2108 25.3204H68.2108ZM102.951 11.5878C103.336 11.9903 103.796 13.3453 103.877 13.9876L93.0226 24.738C91.8223 25.7514 91.3121 26.6155 90.2914 27.4674C89.1664 28.4064 85.589 32.2768 84.8798 32.8572C83.6718 33.8459 83.0265 34.8709 82.2012 35.4996C81.3595 35.3709 81.5864 35.0625 79.6413 34.9812L75.1455 19.036L102.951 11.5878L102.951 11.5878ZM106.788 3.26015C107.367 2.90761 107.837 2.62184 108.418 2.30919C108.962 2.01617 109.575 1.72267 109.357 0.820414C108.934 -0.932163 106.93 0.584241 106.071 1.13795C105.036 1.80554 103.726 2.24747 104.018 4.03028C104.198 5.12851 105.113 6.5353 105.299 7.64343L74.2491 16.5313C74.0276 16.2315 71.7827 8.48946 71.6899 7.81483C73.1165 7.49385 75.4798 7.46458 76.616 7.06128C76.7722 6.03664 76.423 5.40033 75.5153 5.25489C72.974 4.84757 69.8699 5.35798 67.1554 5.05719C66.3141 4.9639 65.2328 4.76223 64.694 5.28832C64.159 5.81069 64.5009 6.84953 64.8883 7.33773C65.9469 8.67161 67.4848 8.4076 69.4033 8.23826C69.7475 8.83432 70.0736 10.4257 70.3014 11.1822C72.8202 19.5465 72.3862 17.2856 70.6621 19.405L68.7972 21.4228C67.783 22.448 65.8297 24.3524 64.9847 25.3742C64.6538 25.7743 64.3499 25.9485 64.0018 26.3278C63.6183 26.7454 63.527 26.9574 63.0715 27.3398L59.2857 31.322C58.873 31.7258 58.6523 31.8591 58.3085 32.2833C57.9299 32.7507 57.7302 32.8454 57.3447 33.256C55.6109 35.1027 56.7521 34.3914 54.8641 34.4072C52.6185 34.4259 51.0383 36.8605 52.4476 38.8948C53.8031 40.8514 56.1178 40.4066 57.5991 38.8336L58.3673 38.8665C58.2268 39.9242 56.5592 40.9594 55.1174 41.004C49.6899 41.1719 49.6708 33.0761 55.6614 33.6285L57.2767 31.8436C56.9846 31.6511 56.2835 31.4294 55.3678 31.3743C50.1024 31.0581 47.2913 36.4799 49.5135 40.1609C50.5174 41.8237 52.6354 43.5462 55.7067 43.1855C58.081 42.9066 60.3593 41.0998 60.8014 39.1374L68.6562 39.9339C68.4094 42.5952 66.0159 45.866 64.708 47.0486C63.0559 48.5425 60.2838 50.1627 57.1403 50.6175C45.2417 52.3392 36.9982 40.4698 43.1037 30.3431C43.7932 29.1995 44.7682 28.3614 45.671 27.4548C47.4748 25.6435 50.8218 24.4285 53.5166 24.1549C59.0648 23.5916 61.3427 25.9412 62.7437 26.1983C63.3092 25.19 65.2198 23.9274 65.1721 22.9229C64.9084 22.6954 64.3582 22.4345 63.9657 22.2111C62.8048 21.55 63.1901 21.8925 62.525 21.9907C62.3815 22.0119 61.4959 21.74 61.2136 21.508C61.1935 21.4914 61.1674 21.4667 61.1494 21.4481C61.1314 21.4295 61.1102 21.4007 61.0942 21.3805C60.9339 21.1782 61.0968 21.2008 60.8197 20.9392C60.6518 20.7808 60.4743 20.7553 60.2238 20.6891C57.9181 20.0797 58.8092 20.5344 57.9531 20.6697C57.8579 20.6847 57.2094 20.612 57.0855 20.592C55.9137 20.4025 56.9053 19.7253 53.8468 20.0011C53.3178 20.6119 53.7383 20.4688 52.7676 20.5957C51.1288 20.81 52.1537 20.0853 50.0625 20.6129C48.8772 20.912 49.2949 20.7421 48.9802 21.2494C48.7726 21.5839 49.145 21.3688 48.504 21.622C48.3354 21.6886 48.0468 21.8035 47.8753 21.8632C47.1387 22.1198 47.3522 21.654 46.6804 21.8883C46.3711 21.9962 45.9148 22.3189 45.5687 22.4928C44.6649 22.9471 45.1089 22.6242 44.7696 23.3826C44.6497 23.6506 44.8952 23.3576 44.5666 23.6733C43.6226 24.5803 43.0599 24.1353 42.5371 24.5825C42.2815 24.8011 41.9866 25.163 41.6928 25.4365C41.0069 26.0748 41.5625 25.9513 41.2307 26.6474C41.2017 26.7083 40.5099 27.5111 40.4404 27.5565C39.8947 27.9127 39.8727 27.5619 39.4465 28.2716C38.2143 30.3234 39.0842 29.5778 38.67 30.6041C37.9026 32.5052 37.9985 31.1684 37.5922 32.0791C37.5002 32.2851 37.4632 32.5181 37.4054 32.7373C36.9326 34.5294 37.5472 33.8787 37.3353 35.2655C37.1189 36.6805 36.6425 35.5382 36.7503 38.0165C36.7981 39.1169 37.0496 38.3161 37.2676 39.1581C37.3968 39.6571 37.4112 40.2216 37.2503 40.6338C37.0394 41.1743 37.2213 41.2877 37.3843 41.8921C37.8277 43.5353 37.9768 42.6699 38.598 44.0603C39.1077 45.2008 38.2031 44.487 39.3713 46.4007C39.8542 47.1916 39.5907 46.8509 40.2786 47.1857C41.2313 47.6493 41.2201 48.8522 41.6061 49.2451C41.8738 49.5177 42.1885 49.7812 42.4863 50.0654C43.05 50.6034 43.025 50.2678 43.6776 50.5827C45.1286 51.2829 44.4601 52.0505 46.5189 52.8628C47.3052 53.1731 47.0095 52.676 47.8593 52.9876C49.1633 53.4656 48.7658 53.703 49.428 53.9974C49.5834 54.0664 49.923 54.134 50.1028 54.1768C52.0978 54.6515 51.098 54.3165 51.9922 54.1958C52.106 54.1805 52.6062 54.2432 52.7564 54.2599C54.2429 54.4252 52.9876 54.9303 55.6182 54.8287C56.6438 54.7891 56.1244 54.5032 56.7584 54.3171C58.3481 53.8502 58.0671 54.6919 59.4964 54.2885C59.8501 54.1887 60.6101 54.0508 60.8089 53.8813C61.3071 53.4568 60.5624 53.5952 61.7531 53.1188C63.342 52.4832 62.458 53.3577 64.2502 52.425C65.445 51.803 64.8626 51.601 65.4722 51.0953C66.6876 50.0872 66.394 50.6135 67.1042 50.4107C67.5524 50.2828 68.6715 49.1608 68.6929 48.6922C68.73 47.884 68.6 48.2968 69.1589 47.6219C69.2521 47.5094 69.5292 47.2259 69.5951 47.1923C70.4961 46.7332 69.8394 47.5847 70.9045 45.9733C71.7316 44.7219 70.8729 45.082 71.4766 43.6677C71.9342 42.5956 71.897 43.5544 72.3537 42.8464C72.6319 42.4153 72.9773 41.061 72.7475 40.6118C72.7309 40.5792 72.6347 40.4833 72.6229 40.4248C72.6114 40.3676 72.5743 40.363 72.5545 40.3223L75.2497 40.59C75.6527 42.222 76.6774 42.3471 76.22 43.3209C75.8991 44.004 75.2433 45.6937 74.8705 46.1949L72.932 46.201L72.9211 48.2587H77.9818L77.958 46.2131L76.923 46.1994L77.9449 43.7695C79.8755 44.0248 81.7166 44.348 83.3886 42.5865C84.7939 41.1062 84.8829 39.4824 84.0915 37.4195L88.6476 33.3735C89.2024 32.9249 89.558 32.4347 90.0814 32.015C91.6279 30.7749 93.1257 29.2629 94.6784 27.9813C95.2113 27.5414 95.5961 27.0349 96.1131 26.6219C96.7948 26.0774 96.9997 25.9286 97.6498 25.242C98.0907 24.7764 98.6787 24.4309 99.1811 23.973C99.4467 23.731 99.6208 23.4665 99.8882 23.2293C100.167 22.9815 100.413 22.842 100.707 22.5873C101.206 22.1555 101.643 21.6237 102.146 21.231L106.732 17.1872C107.445 16.5761 107.343 16.3774 108.598 16.1114C108.778 16.9682 109.521 18.3025 109.608 18.9645C109.665 19.3962 109.234 19.6471 109.199 20.3533C109.171 20.8966 109.411 21.3648 109.53 21.8033C109.048 21.9356 107.688 22.6042 107.508 22.9088C107.12 23.5626 107.748 23.2329 106.851 23.8256C105.164 24.9399 106.028 23.8058 104.959 24.8638C103.333 26.4722 104.283 25.6679 103.784 26.5818C103.082 27.8682 102.53 27.4306 102.126 28.0907C100.69 30.4343 101.823 29.0707 100.977 31.1434C100.632 31.9891 100.618 31.4319 100.245 31.9886C100.094 32.2153 99.9586 32.8929 99.8726 33.1767C99.5307 34.3047 100.123 34.296 99.8166 35.6294C99.6896 36.1827 99.0016 36.3687 99.3549 38.2454C99.4971 39.0013 99.6878 38.3155 99.8362 39.3131C100.01 40.4793 99.9867 40.1399 99.8338 40.6138C99.6783 41.096 100.044 42.6632 100.349 42.9855C100.672 43.3266 100.478 42.901 100.815 43.3723C101.206 43.9201 101.285 44.4621 101.289 45.0269C101.291 45.4102 102.124 46.7678 102.393 46.9635C102.924 47.3505 102.772 47.049 103.285 47.6558C104.089 48.607 103.709 48.822 104.381 49.4552C105.942 50.9269 105.504 50.1068 106.359 50.6527C107.824 51.5881 106.856 51.6513 108.896 52.7366C109.712 53.1709 110.139 52.6819 111.269 53.3205C111.905 53.68 111.355 53.3868 111.675 53.7639C112.013 54.1605 112.846 54.2093 113.412 54.3604C114.271 54.5895 114.706 53.8649 115.939 54.3446C116.418 54.5311 116.157 54.7971 116.985 54.8289C119.664 54.932 118.524 54.4328 119.582 54.239C120.183 54.129 120.437 54.0712 120.927 54.301C121.614 54.6225 123.205 54.0086 123.333 53.9112C123.935 53.4512 123.132 53.5316 124.143 53.1335C124.382 53.0395 124.896 52.7769 125.15 52.8083C126.024 52.9165 125.541 53.217 127.336 52.1525C127.95 51.7885 127.617 51.6227 127.828 51.2713C127.833 51.2627 128.545 50.6736 128.676 50.5801C129.524 49.9722 128.894 51.194 130.606 49.5836C131.774 48.4851 130.797 48.7423 131.558 47.7709C131.755 47.5186 131.941 47.2339 132.183 47.146C132.782 46.9288 132.898 46.9396 133.279 46.3286C134.422 44.4937 133.456 45.0387 133.765 44.1997C133.884 43.8767 134.093 43.3245 134.326 43.1867C134.863 42.8679 134.838 43.2989 135.099 42.3662C135.25 41.829 135.638 41.1116 135.359 40.6482C134.876 39.8444 134.931 40.8094 135.138 38.8233C136.076 38.6926 135.863 38.2779 135.848 37.2966C135.828 36.0463 135.964 36.412 135.146 35.8762L135.005 34.453C135.754 33.9909 135.453 33.7131 135.199 32.8375C135.128 32.5945 135.05 32.1122 134.92 31.9233C134.718 31.6308 134.891 31.8226 134.575 31.6854C134.455 31.6334 134.44 31.6404 134.297 31.5812C133.907 31.4208 133.758 30.67 133.598 30.3018L133.769 30.0595C134.071 29.5114 133.727 29.2006 133.385 28.6485C132.951 27.9478 133.022 27.5814 131.994 27.7457C131.834 27.3094 131.515 26.9252 131.125 26.6783C131.269 26.0091 131.386 25.8957 130.919 25.4279C129.883 24.3893 130.047 24.3287 129.108 24.4064C128.734 24.4374 128.514 24.1171 128.187 23.8802C127.307 23.2423 128.367 23.2117 126.745 22.2998C124.937 21.2823 125.634 22.3039 124.683 21.9173C124.449 21.8226 124.248 21.7579 124.047 21.6742C122.997 21.2352 124.292 21.0634 122.637 20.6558C120.067 20.0231 121.552 20.8005 120.159 20.6576C119.365 20.5761 119.396 20.6893 118.952 20.245C118.494 19.7864 116.702 19.8172 116.254 20.2263C115.706 20.7272 115.895 20.4771 115.053 20.6316L116.272 24.11C118.695 24.1247 119.984 24.1316 122.095 24.8351C124.342 25.584 126.583 26.9286 127.966 28.6037C128.454 29.1949 128.86 29.6598 129.336 30.3834C133.979 37.443 130.787 47.268 121.624 50.1467C116.942 51.6177 112.416 50.397 108.776 47.8731C107.017 46.6537 105.553 44.6593 104.585 42.6132C103.131 39.5406 103.254 35.2459 104.639 32.1581C105.183 30.9472 106.341 29.1235 107.241 28.3483C108.367 27.3782 109.379 26.1406 110.941 25.6837L113.444 32.8227C111.099 34.1243 110.627 37.9557 112.036 40.248C113.165 42.0851 115.917 43.9616 119.206 42.9696C125.239 41.15 125.012 33.0502 118.874 31.5181C118.931 32.0662 119.465 33.4309 119.692 34.0105C119.957 34.6853 120.641 34.9719 121.039 35.9316C122.718 39.9783 117.15 42.5731 114.584 39.8326C113.607 38.7889 113.015 36.5393 114.258 35.1794L114.521 35.6369C114.888 36.6988 113.613 37.849 115.304 39.3834C116.426 40.4017 118.624 40.3308 119.617 39.3332C120.677 38.2677 120.717 36.31 119.613 35.2737C118.635 34.3553 118.962 35.0784 118.423 33.5595L114.665 23.0307C114.272 21.9377 113.65 19.6157 112.96 18.9679C112.413 18.4545 111.992 18.6647 111.72 18.011C111.43 17.3161 111.22 16.082 110.747 15.5529C110.765 15.5204 110.794 15.4829 110.812 15.4623L111.268 15.1205C110.611 12.8812 106.897 4.58435 106.788 3.26015H106.788ZM80.1866 31.6064L80.2028 32.0746L81.201 32.0624L80.1846 34.4176C81.0033 34.4762 81.2975 34.5715 81.9526 34.7785C82.8134 33.8792 82.5337 32.0516 83.8164 32.0625L85.2332 32.0866L85.2139 29.9933L80.1665 30.0167L80.1865 31.6064L80.1866 31.6064Z" fill="#9D9D9D"/>
<path d="M35.7869 79.6798C34.3713 79.6798 33.0026 79.4967 31.6807 79.1304C30.3589 78.764 29.2972 78.2878 28.4956 77.7018L29.9027 74.7224C30.6702 75.2597 31.5827 75.6911 32.6401 76.0167C33.6976 76.3423 34.7551 76.5051 35.8125 76.5051C36.9894 76.5051 37.8593 76.3382 38.4221 76.0045C38.9849 75.6708 39.2663 75.2271 39.2663 74.6736C39.2663 74.2666 39.1001 73.9288 38.7674 73.6601C38.4348 73.3915 38.0084 73.1757 37.4883 73.013C36.9681 72.8501 36.2645 72.671 35.3776 72.4757C34.0132 72.1664 32.896 71.857 32.0262 71.5477C31.1564 71.2384 30.4102 70.7418 29.7876 70.058C29.165 69.3743 28.8538 68.4625 28.8538 67.3229C28.8538 66.3298 29.1353 65.4302 29.698 64.6244C30.2608 63.8184 31.1094 63.1794 32.2436 62.7074C33.3778 62.2352 34.7636 61.9991 36.401 61.9991C37.5437 61.9991 38.6609 62.1293 39.7524 62.3899C40.844 62.6503 41.7992 63.0248 42.6178 63.5132L41.3386 66.517C39.6842 65.6216 38.0298 65.1738 36.3753 65.1738C35.2156 65.1738 34.3585 65.353 33.8042 65.7111C33.2499 66.0693 32.9727 66.5414 32.9727 67.1276C32.9727 67.7136 33.2925 68.1491 33.9321 68.434C34.5717 68.719 35.5481 68.9997 36.8615 69.2765C38.2259 69.5858 39.343 69.8952 40.2129 70.2046C41.0828 70.5139 41.829 71.0023 42.4515 71.6698C43.074 72.3373 43.3853 73.2409 43.3853 74.3805C43.3853 75.3573 43.0996 76.2487 42.5282 77.0545C41.9569 77.8605 41.0998 78.4995 39.9571 78.9716C38.8143 79.4438 37.4243 79.6798 35.7869 79.6798L35.7869 79.6798ZM49.6789 65.5158H43.9482V62.2922H59.5543V65.5158H53.8235V79.3868H49.6789V65.5158ZM75.6464 76.2121V79.3868H61.7801V62.2922H75.3139V65.4669H65.899V69.1789H74.2137V72.2559H65.899V76.2121H75.6465H75.6464ZM78.9468 62.2922H83.0913V76.1632H92.0713V79.3868H78.9468V62.2922V62.2922ZM100.181 79.6798C98.7657 79.6798 97.3969 79.4967 96.0751 79.1304C94.7533 78.764 93.6916 78.2878 92.8899 77.7018L94.297 74.7224C95.0645 75.2597 95.977 75.6911 97.0345 76.0167C98.092 76.3423 99.1495 76.5051 100.207 76.5051C101.384 76.5051 102.254 76.3382 102.816 76.0045C103.379 75.6708 103.661 75.2271 103.661 74.6736C103.661 74.2666 103.494 73.9288 103.162 73.6601C102.829 73.3915 102.403 73.1757 101.883 73.013C101.362 72.8501 100.659 72.671 99.772 72.4757C98.4076 72.1664 97.2904 71.857 96.4205 71.5477C95.5507 71.2384 94.8045 70.7418 94.182 70.058C93.5593 69.3743 93.2482 68.4625 93.2482 67.3229C93.2482 66.3298 93.5296 65.4302 94.0924 64.6244C94.6552 63.8184 95.5038 63.1794 96.638 62.7074C97.7722 62.2352 99.158 61.9991 100.795 61.9991C101.938 61.9991 103.055 62.1293 104.147 62.3899C105.238 62.6503 106.194 63.0248 107.012 63.5132L105.733 66.517C104.079 65.6216 102.424 65.1738 100.77 65.1738C99.61 65.1738 98.7529 65.353 98.1985 65.7111C97.6443 66.0693 97.3671 66.5414 97.3671 67.1276C97.3671 67.7136 97.6869 68.1491 98.3264 68.434C98.966 68.719 99.9425 68.9997 101.256 69.2765C102.62 69.5858 103.737 69.8952 104.607 70.2046C105.477 70.5139 106.223 71.0023 106.846 71.6698C107.468 72.3373 107.78 73.2409 107.78 74.3805C107.78 75.3573 107.494 76.2487 106.923 77.0545C106.351 77.8605 105.494 78.4995 104.351 78.9716C103.209 79.4438 101.819 79.6798 100.181 79.6798L100.181 79.6798ZM125.1 69.2521C126.669 69.4963 127.872 70.054 128.707 70.925C129.543 71.796 129.961 72.8745 129.961 74.1607C129.961 75.1538 129.688 76.0696 129.142 76.9081C128.596 77.7465 127.765 78.4181 126.648 78.9229C125.531 79.4275 124.162 79.6798 122.542 79.6798C121.279 79.6798 120.039 79.5211 118.819 79.2036C117.6 78.8861 116.563 78.4344 115.711 77.8483L117.322 74.8201C118.005 75.3085 118.794 75.6871 119.689 75.9557C120.584 76.2243 121.501 76.3586 122.439 76.3586C123.48 76.3586 124.298 76.1673 124.895 75.7846C125.492 75.4021 125.791 74.8608 125.791 74.1607C125.791 72.7606 124.674 72.0605 122.439 72.0605H120.546V69.4475L124.23 65.4669H116.606V62.2922H129.142V64.8564L125.1 69.2521H125.1ZM140.501 68.666C141.644 68.666 142.684 68.8859 143.623 69.3254C144.561 69.765 145.303 70.3877 145.848 71.1936C146.394 71.9995 146.667 72.9316 146.667 73.9898C146.667 75.1294 146.369 76.1307 145.772 76.9935C145.175 77.8564 144.36 78.5199 143.328 78.9839C142.296 79.4479 141.15 79.6798 139.887 79.6798C137.38 79.6798 135.419 78.9472 134.003 77.482C132.587 76.0167 131.88 73.9246 131.88 71.2058C131.88 69.2684 132.263 67.6078 133.031 66.2239C133.798 64.8401 134.869 63.79 136.242 63.0736C137.615 62.3573 139.205 61.9991 141.013 61.9991C141.968 61.9991 142.885 62.1009 143.763 62.3044C144.642 62.5079 145.388 62.7969 146.002 63.1713L144.467 66.0774C143.58 65.5076 142.463 65.2227 141.115 65.2227C139.597 65.2227 138.395 65.646 137.508 66.4925C136.621 67.3392 136.144 68.5683 136.075 70.1801C137.133 69.1707 138.608 68.666 140.501 68.666H140.501ZM139.657 76.7249C140.544 76.7249 141.265 76.4969 141.819 76.0411C142.373 75.5853 142.65 74.9666 142.65 74.1852C142.65 73.4038 142.373 72.781 141.819 72.317C141.265 71.8529 140.527 71.621 139.606 71.621C138.702 71.621 137.96 71.8611 137.38 72.3414C136.8 72.8216 136.51 73.4363 136.51 74.1852C136.51 74.9341 136.792 75.5446 137.355 76.0167C137.917 76.4889 138.685 76.7249 139.657 76.7249L139.657 76.7249Z" fill="#9D9D9D"/>
<path fill-rule="evenodd" clip-rule="evenodd" d="M28.8528 67.371L28.8525 67.323C28.8525 66.3299 29.134 65.4303 29.6967 64.6245C30.2595 63.8186 31.1081 63.1796 32.2423 62.7075C33.3766 62.2353 34.7623 61.9993 36.3997 61.9993C36.7776 61.9993 37.1527 62.0136 37.525 62.042V65.2462C37.1413 65.198 36.7577 65.1739 36.374 65.1739C35.2143 65.1739 34.3572 65.3531 33.8029 65.7112C33.2486 66.0694 32.9714 66.5415 32.9714 67.1277C32.9714 67.2119 32.9781 67.2931 32.9913 67.371H28.8527H28.8528Z" fill="#9D9D9D"/>
</svg>
