<svg width="176" height="80" viewBox="0 0 176 80" fill="none" xmlns="http://www.w3.org/2000/svg">
<rect width="176" height="80" fill="white"/>
<path fill-rule="evenodd" clip-rule="evenodd" d="M28.4956 53.6709C28.4956 44.3097 28.4956 34.9436 28.4956 25.6002C68.2767 25.6002 108.075 25.6002 147.868 25.6002C147.868 34.9436 147.868 44.3105 147.868 53.6709C108.075 53.6709 68.2767 53.6709 28.4956 53.6709ZM105.557 42.5838C101.51 42.5838 97.4571 42.5838 93.4229 42.5838C93.3744 42.5838 93.3744 42.5838 93.3923 44.179C93.9539 46.2529 96.3049 46.583 98.1258 45.746C98.9917 45.2099 99.5226 44.5724 99.8982 43.6722C101.737 43.6722 103.587 43.6835 105.431 43.7006C102.87 49.6432 93.5239 50.0754 88.2177 47.6715C85.413 45.9739 84.0517 43.9171 84.2726 40.6129C84.6244 39.0346 85.2158 38.0775 86.2779 36.8009C89.0954 34.4253 92.4312 34.0035 96.0908 34.0604C98.006 34.2485 99.6534 34.6419 101.384 35.4505C103.736 36.8691 105.055 38.3508 105.616 40.9316C105.616 42.3955 105.617 42.3955 105.557 42.5838V42.5838ZM93.4229 40.2365C93.411 39.5528 93.3923 38.8747 93.3923 38.1911C93.6191 37.1772 94.5444 36.6241 95.5954 37.0004C96.1681 37.4335 96.2752 37.6104 96.4902 38.2762C96.4783 38.9315 96.4604 39.5812 96.4604 40.2365C95.44 40.2365 94.4255 40.2365 93.4229 40.2365V40.2365ZM143.726 42.5554C139.661 42.5554 135.597 42.5724 131.533 42.5838C131.484 42.5838 131.484 44.179 131.533 44.179C132.015 46.0477 133.759 46.3665 135.537 46.0307C136.737 45.626 137.584 44.8003 138.008 43.6722C139.841 43.6722 141.696 43.6835 143.541 43.7006C143.267 45.0623 141.661 46.3665 140.551 47.1475C140.019 47.4095 139.488 47.6829 138.957 47.9618C137.656 48.4517 136.439 48.7145 135.06 48.9132C130.661 49.1873 126.035 48.7542 123.325 45.0047C122.842 44.0477 122.842 44.0477 122.568 43.3243C122.353 42.3558 122.292 41.3534 122.448 40.3672C122.782 39.0799 123.314 38.1343 124.149 37.0913C126.316 35.0174 128.942 34.2372 131.932 34.049C133.508 34.049 134.982 34.1804 136.546 34.3685C136.605 34.4253 137.609 34.6589 137.668 34.7157C140.658 35.7473 143.267 37.6898 143.732 40.8748C143.726 41.4215 143.726 41.9917 143.726 42.5554H143.726ZM131.533 40.2365C131.533 39.5528 131.533 38.8747 131.533 38.1911C131.759 36.8123 133.323 36.5219 134.296 37.4506C134.385 37.6954 134.493 37.9404 134.6 38.1911C134.588 38.869 134.57 39.5528 134.57 40.2365C133.55 40.2365 132.535 40.2365 131.533 40.2365ZM32.3039 48.3495C32.3157 48.3495 32.3335 48.3495 32.3513 48.3495C35.0015 48.3495 37.6754 48.3495 40.3434 48.3495C40.3434 48.3665 40.3434 48.3779 40.3434 48.4063C37.6577 48.4063 34.9718 48.4063 32.3039 48.4063C32.3039 48.3779 32.3039 48.3665 32.3039 48.3495V48.3495ZM52.3698 48.3495C57.1926 48.3495 62.0153 48.3495 66.8381 48.3495C66.856 48.3495 66.8679 48.3495 66.8856 48.3495C66.8856 48.3665 66.8856 48.3779 66.8856 48.4063C62.051 48.4063 57.2103 48.4063 52.3698 48.4063C52.3698 48.3779 52.3698 48.3665 52.3698 48.3495H52.3698ZM68.8552 48.3495C68.8731 48.3495 68.8858 48.3495 68.9037 48.3495C73.7256 48.3495 78.5483 48.3495 83.3711 48.3495C83.3711 48.3665 83.3711 48.3779 83.3711 48.4063C78.5305 48.4063 73.6958 48.4063 68.8552 48.4063C68.8552 48.3779 68.8552 48.3665 68.8552 48.3495ZM106.572 48.3779C106.572 48.3608 106.572 48.3495 106.572 48.3495C111.531 48.3495 116.503 48.3495 121.481 48.3495C116.503 48.3495 111.531 48.3665 106.572 48.3779ZM106.572 45.381C106.572 45.381 106.572 45.3924 106.572 45.4094C106.572 46.3778 106.572 47.3641 106.572 48.3495C106.572 48.3495 106.572 48.3666 106.572 48.3779C106.542 48.3779 106.524 48.3779 106.511 48.3779C106.511 47.3755 106.511 46.3779 106.511 45.3811C106.524 45.3811 106.542 45.3811 106.572 45.3811V45.381ZM32.3039 48.3495C32.3157 47.3527 32.3335 46.3665 32.3513 45.381C32.3513 45.381 32.3513 45.3924 32.3513 45.4094C32.3513 46.3778 32.3513 47.3641 32.3513 48.3495C32.3335 48.3495 32.3157 48.3495 32.3039 48.3495V48.3495ZM32.3513 48.3495C32.3513 47.3641 32.3513 46.3778 32.3513 45.4094C33.0795 45.3924 33.8077 45.381 34.5359 45.364C34.5359 41.3363 34.5359 37.3078 34.5359 33.2801C33.8077 33.263 33.0795 33.2517 32.3513 33.2346C32.3513 32.2484 32.3513 31.2629 32.3513 30.2945C36.5649 30.2945 40.7853 30.2945 44.9989 30.2945C46.7593 32.5963 48.5327 34.9151 50.3051 37.2396C50.3527 37.2112 50.3944 37.1942 50.4546 37.1828C52.1973 34.8811 53.9399 32.5906 55.7005 30.3002C59.4008 30.3002 63.1199 30.3002 66.8322 30.3002C66.8322 31.2686 66.8322 32.2605 66.8322 33.2403C66.1039 33.2403 65.3758 33.2573 64.6476 33.2687C64.6001 33.2687 64.6001 45.381 64.6476 45.381C65.3758 45.381 66.1039 45.398 66.8322 45.4094C66.8322 46.3778 66.8322 47.364 66.8322 48.3495C62.0094 48.3495 57.1867 48.3495 52.3647 48.3495C52.3647 47.364 52.3647 46.3778 52.3647 45.4094C53.1048 45.3923 53.8508 45.381 54.5908 45.3639C54.5789 42.7832 54.561 40.2024 54.561 37.6273C54.4532 37.684 54.4532 37.684 46.4016 48.2926C46.354 48.2926 46.3124 48.2926 46.2818 48.2926C38.2303 37.7181 38.2303 37.7181 38.1053 37.6102C38.0757 37.5413 38.0578 45.3752 38.1053 45.3752C38.8514 45.3752 39.5914 45.3923 40.3374 45.4036C40.3374 46.3721 40.3374 47.3583 40.3374 48.3437C37.6754 48.3494 35.0015 48.3494 32.3513 48.3494V48.3495ZM52.3698 45.381C52.3698 45.381 52.3698 45.3924 52.3698 45.4094C52.3698 46.3778 52.3698 47.3641 52.3698 48.3495C52.3221 48.3495 52.3221 45.3811 52.3698 45.3811V45.381ZM66.8381 48.3495C66.8381 47.3641 66.8381 46.3778 66.8381 45.4094C66.8381 45.3924 66.8381 45.381 66.8381 45.381C66.856 46.3664 66.8678 47.3527 66.8856 48.3495C66.8678 48.3495 66.85 48.3495 66.8381 48.3495V48.3495ZM68.8552 48.3495C68.8731 47.3527 68.8858 46.3665 68.9036 45.381C68.9036 45.381 68.9036 45.3924 68.9036 45.4094C68.9036 46.3778 68.9036 47.3641 68.9036 48.3495C68.8858 48.3495 68.8671 48.3495 68.8552 48.3495V48.3495ZM68.8976 48.3495C68.8976 47.3641 68.8976 46.3778 68.8976 45.4094C69.6258 45.3924 70.354 45.381 71.0822 45.381C71.1298 45.381 71.1298 37.7579 71.0822 37.7579C70.354 37.7409 69.6258 37.7295 68.8976 37.7295C68.8976 36.7441 68.8976 35.7587 68.8976 34.7894C72.9795 34.7894 77.0562 34.7894 81.1389 34.7894C81.1389 38.311 81.1389 41.8318 81.1389 45.3696C81.879 45.3867 82.625 45.398 83.3651 45.4151C83.3651 46.3835 83.3651 47.3697 83.3651 48.3552C78.5423 48.3495 73.7195 48.3495 68.8976 48.3495V48.3495ZM83.3651 48.3495C83.3651 47.3641 83.3651 46.3778 83.3651 45.4094C83.3651 45.3924 83.3651 45.381 83.3651 45.381C83.4127 45.381 83.4127 48.3495 83.3651 48.3495V48.3495ZM106.572 48.3495C106.572 47.3641 106.572 46.3778 106.572 45.4094C107.282 45.3924 108.016 45.381 108.744 45.381C108.792 45.381 108.792 33.2687 108.744 33.2687C108.016 33.2517 107.288 33.2403 106.572 33.2403C106.572 32.2541 106.572 31.2686 106.572 30.2946C110.773 30.2946 114.987 30.2946 119.207 30.2946C119.225 35.3255 119.237 40.3501 119.255 45.381C120.001 45.381 120.741 45.3924 121.487 45.4094C121.487 46.3778 121.487 47.364 121.487 48.3495C116.503 48.3495 111.531 48.3495 106.572 48.3495V48.3495ZM32.3513 45.4094C32.3513 45.3924 32.3513 45.381 32.3513 45.381C33.0795 45.364 33.8077 45.364 34.5359 45.364C33.8017 45.381 33.0736 45.3924 32.3513 45.4094V45.4094ZM38.1113 45.381C38.1113 45.364 38.1113 45.364 38.1113 45.364C38.8574 45.381 39.5974 45.3924 40.3434 45.4094C39.5974 45.3924 38.8574 45.381 38.1113 45.381V45.381ZM52.3698 45.4094C52.3698 45.3924 52.3698 45.381 52.3698 45.381C53.1166 45.364 53.8566 45.364 54.6026 45.364C53.8566 45.381 53.1106 45.3924 52.3698 45.4094V45.4094ZM64.6535 45.381C64.6535 45.364 64.6535 45.364 64.6535 45.364C65.3817 45.364 66.1098 45.364 66.838 45.381C66.838 45.381 66.838 45.3924 66.838 45.4094C66.1098 45.3924 65.3817 45.381 64.6535 45.381ZM68.8976 45.4094C68.8976 45.3924 68.8976 45.381 68.8976 45.381C69.6258 45.364 70.354 45.364 71.0822 45.364C71.0822 45.364 71.0822 45.364 71.0822 45.381C70.354 45.381 69.6258 45.3924 68.8976 45.4094ZM81.1389 45.364C81.879 45.364 82.625 45.364 83.3651 45.381C83.3651 45.381 83.3651 45.3924 83.3651 45.4094C82.625 45.3924 81.879 45.381 81.1389 45.364V45.364ZM106.572 45.4094C106.572 45.3924 106.572 45.381 106.572 45.381C107.282 45.364 108.016 45.364 108.744 45.364C108.744 45.364 108.744 45.364 108.744 45.381C108.01 45.381 107.282 45.3924 106.572 45.4094ZM119.249 45.381C119.249 45.364 119.249 45.364 119.249 45.364C119.995 45.381 120.735 45.3924 121.481 45.4094C120.735 45.3924 119.995 45.381 119.249 45.381V45.381ZM38.1113 37.616C38.1113 40.1911 38.1113 42.7719 38.1113 45.3696C38.1113 45.3696 38.1113 45.3697 38.1113 45.3867C38.0638 45.381 38.0815 37.5414 38.1113 37.616ZM64.6535 33.2688C64.6535 33.2688 64.6535 33.2688 64.6535 33.2858C64.6535 37.3135 64.6535 41.342 64.6535 45.3697C64.6535 45.3697 64.6535 45.3697 64.6535 45.381C64.606 45.381 64.606 33.2688 64.6535 33.2688ZM71.0822 45.381C71.0822 45.364 71.0822 45.364 71.0822 45.364C71.0822 42.8286 71.0822 40.2933 71.0822 37.7693C71.0822 37.7522 71.0822 37.7522 71.0822 37.7522C71.1298 37.7579 71.1298 45.381 71.0822 45.381V45.381ZM108.744 45.381C108.744 45.364 108.744 45.364 108.744 45.364C108.744 41.3363 108.744 37.3078 108.744 33.2801C108.744 33.2631 108.744 33.2631 108.744 33.2631C108.786 33.2688 108.786 45.381 108.744 45.381V45.381ZM119.201 30.2946C119.201 30.2832 119.201 30.2662 119.201 30.2662C119.219 35.2972 119.231 40.3217 119.249 45.364C119.249 45.364 119.249 45.364 119.249 45.3753C119.237 40.3501 119.219 35.3199 119.201 30.2946ZM93.3922 44.179C93.3744 42.5838 93.3743 42.5838 93.4227 42.5838C93.4227 42.5838 93.4227 42.595 93.4227 42.6121C93.4108 43.1304 93.3922 43.6551 93.3922 44.179ZM131.532 42.5838C131.532 42.5838 131.532 42.595 131.532 42.6121C131.532 43.1304 131.532 43.6551 131.532 44.179C131.49 44.179 131.49 42.5838 131.532 42.5838ZM138.008 43.6722C143.559 43.6722 143.559 43.6722 143.541 43.7006C141.696 43.6835 139.847 43.6722 138.008 43.6722ZM93.4227 42.6121C93.4227 42.6007 93.4227 42.5838 93.4227 42.5838C97.457 42.5838 101.504 42.5838 105.557 42.5838C101.504 42.5838 97.457 42.6007 93.4227 42.6121ZM131.532 42.6121C131.532 42.6007 131.532 42.5838 131.532 42.5838C135.596 42.5667 139.661 42.5554 143.726 42.5554C139.661 42.5667 135.596 42.5838 131.532 42.6121V42.6121ZM93.3922 38.1911C93.3922 38.869 93.4108 39.5528 93.4227 40.2365C93.3743 40.2365 93.3744 40.2365 93.3922 38.1911ZM131.532 38.1911C131.532 38.869 131.532 39.5528 131.532 40.2365C131.49 40.2365 131.49 38.1911 131.532 38.1911ZM68.8552 37.7295C68.873 37.7295 68.8857 37.7295 68.9036 37.7295C69.6317 37.7295 70.3599 37.7409 71.0881 37.7579C71.0881 37.7579 71.0881 37.7579 71.0881 37.775C70.3412 37.7579 69.5952 37.7409 68.8552 37.7295V37.7295ZM68.8552 37.7295C68.873 36.727 68.8857 35.7473 68.9036 34.7554C68.9036 34.7554 68.9036 34.7724 68.9036 34.7838C68.9036 35.753 68.9036 36.7441 68.9036 37.7295C68.8857 37.7295 68.8671 37.7295 68.8552 37.7295ZM68.8976 34.7838C68.8976 34.7724 68.8976 34.7554 68.8976 34.7554C72.9795 34.7554 77.0562 34.7724 81.1389 34.7838C77.0562 34.7838 72.9795 34.7838 68.8976 34.7838ZM74.7408 34.4253C74.2693 33.525 73.7977 32.6418 73.344 31.7586C74.8122 31.018 76.2864 30.2832 77.7547 29.5541C77.8022 29.5541 77.8438 29.5711 77.9101 29.5825C78.3155 30.3344 79.0733 31.366 79.2764 32.1633C77.7547 32.9151 76.2388 33.6734 74.7408 34.4253V34.4253ZM32.3513 33.2687C32.3513 33.2517 32.3513 33.2403 32.3513 33.2403C33.0795 33.2574 33.8076 33.2687 34.5358 33.2858C33.8016 33.2687 33.0735 33.2687 32.3513 33.2687V33.2687ZM64.6535 33.2801C64.6535 33.263 64.6535 33.263 64.6535 33.263C65.3817 33.246 66.1098 33.2346 66.838 33.2346C66.838 33.2346 66.838 33.246 66.838 33.263C66.1098 33.2687 65.3817 33.2687 64.6535 33.2801ZM106.571 33.2687C106.571 33.2517 106.571 33.2403 106.571 33.2403C107.282 33.2403 108.016 33.2574 108.744 33.2687C108.744 33.2687 108.744 33.2687 108.744 33.2858C108.01 33.2687 107.282 33.2687 106.571 33.2687ZM32.3513 30.2662C32.3513 30.2662 32.3513 30.2832 32.3513 30.2946C32.3513 31.263 32.3513 32.2549 32.3513 33.2347C32.3513 33.2347 32.3513 33.2517 32.3513 33.2631C32.3038 33.2688 32.3038 30.2662 32.3513 30.2662V30.2662ZM66.838 33.2687C66.838 33.2517 66.838 33.2403 66.838 33.2403C66.838 32.2541 66.838 31.2686 66.838 30.3002C66.838 30.2889 66.838 30.2718 66.838 30.2718C66.8796 30.2661 66.8796 33.2687 66.838 33.2687V33.2687ZM106.572 30.2662C106.572 30.2662 106.572 30.2832 106.572 30.2946C106.572 31.263 106.572 32.2549 106.572 33.2347C106.572 33.2347 106.572 33.2517 106.572 33.2631C106.542 33.2631 106.524 33.2631 106.511 33.2631C106.511 32.2663 106.511 31.263 106.511 30.2662C106.524 30.2662 106.542 30.2662 106.572 30.2662V30.2662ZM32.3513 30.2946C32.3513 30.2832 32.3513 30.2662 32.3513 30.2662C36.5649 30.2662 40.7852 30.2832 44.9988 30.2946C40.7793 30.2946 36.5649 30.2946 32.3513 30.2946ZM55.7064 30.2946C59.4068 30.2832 63.1258 30.2662 66.838 30.2662C66.838 30.2662 66.838 30.2832 66.838 30.2946C63.1198 30.2946 59.4068 30.2946 55.7064 30.2946ZM106.572 30.2946C106.572 30.2832 106.572 30.2662 106.572 30.2662C110.773 30.2662 114.987 30.2662 119.207 30.2662C119.207 30.2662 119.207 30.2832 119.207 30.2946C114.987 30.2946 110.773 30.2946 106.572 30.2946Z" fill="#9D9D9D"/>
</svg>
