<svg width="176" height="80" viewBox="0 0 176 80" fill="none" xmlns="http://www.w3.org/2000/svg">
<rect width="176" height="80" fill="white"/>
<path fill-rule="evenodd" clip-rule="evenodd" d="M99.2197 25.9715C108.566 25.8025 118.065 25.9673 127.428 25.9676C129.772 25.9676 131.665 25.8664 133.627 26.7197C139.983 29.4842 138.653 35.8646 138.657 41.8312C138.663 53.0748 128.634 51.3269 120.803 51.3269L103.135 51.3144C101.517 51.2839 101.329 51.0579 100.406 52.0675C93.8471 59.2455 83.6914 60.4989 75.3857 55.4839C70.5777 52.5808 65.5279 45.9449 66.5594 37.5656C68.2216 24.0637 82.9739 16.4171 95.441 23.1207C96.5553 23.7199 98.7769 25.1881 99.2198 25.9715L99.2197 25.9715ZM44.6139 35.0201C44.6462 44.1091 44.9385 41.7711 43.5511 42.4068L43.6475 44.2378L51.5416 44.2273L51.5134 40.8628L49.5335 40.8815L49.1319 42.0981L47.4905 42.0866L47.5266 39.3892L50.6527 39.3914L50.5055 37.3067L47.4706 37.204L47.4812 35.0432L49.1319 35.021C49.4744 35.6533 49.0129 35.4378 49.5335 36.0435L51.539 36.0135L51.4647 32.8871C50.0887 32.6928 47.9789 32.8105 46.5221 32.8091C43.5499 32.8064 43.5299 32.1338 43.5596 34.7279C44.2123 34.8615 44.2176 34.7214 44.6139 35.0201V35.0201ZM57.5517 39.0996L57.7787 34.966L59.487 34.9779L59.5092 36.1502L59.4446 42.1192L56.6298 42.107L57.5517 39.0996V39.0996ZM62.2404 36.1298L62.2671 34.896L63.3078 34.6819L63.2522 32.941C62.3191 32.6863 55.3368 32.7077 54.1716 32.8936L54.2219 34.7407C54.7937 34.9125 54.8154 34.8101 55.2324 35.1239C55.2329 36.1681 55.3265 37.9216 54.9359 38.7728C54.8713 39.5177 54.3227 41.6108 53.7634 41.9943C53.2467 42.3484 52.9744 42.111 52.8657 42.5977L52.8617 46.9374L55.3153 46.7924L55.3082 44.2455L60.8708 44.2444L60.8916 46.7274C61.5789 47.0199 62.5723 47.0081 63.3007 46.756L63.2896 42.2499L62.2451 42.0229L62.2404 36.1298H62.2404ZM40.5606 34.9323C41.0227 34.7615 41.1337 34.866 41.56 34.5488L41.4571 32.8223L37.6262 32.8263L35.7018 38.3688C35.0835 36.5904 34.5628 34.5622 33.8989 32.812L30.0101 32.8315L29.9774 34.3574C30.2911 35.2524 29.9583 34.4907 30.3477 34.7933L30.7898 35.0436C30.8176 35.0006 30.9064 35.0875 30.9401 35.1232L30.5289 42.2144L29.5815 42.5988L29.7399 44.2417L32.9838 44.222C33.519 42.6309 32.8226 37.7982 33.2623 36.772L34.7166 41.7942C37.2117 41.9573 36.5431 41.865 37.2136 39.8377C37.4879 39.0086 38.0735 37.4936 38.1822 36.727C38.3411 38.482 37.8751 42.856 38.396 44.2447L41.8356 44.1891L41.8178 42.406C41.3721 42.2009 41.3102 42.3327 40.8735 42.0228L40.5607 34.9323L40.5606 34.9323ZM71.6732 24.5613C71.3454 25.0051 70.7316 25.6864 70.2562 25.962C67.4081 29.542 65.6259 32.2535 65.0138 38.0378C64.619 41.7684 65.5418 45.6259 67.1529 48.7632C67.4644 49.3698 68.5522 50.9344 68.6823 51.3884L69.7544 52.7679C72.1033 54.7253 72.5347 55.9544 76.5115 57.8816C82.5534 60.8095 90.2925 60.7478 96.1469 57.4126C97.3971 56.7003 98.7784 55.8264 99.6667 55.0085C102.126 52.744 101.432 52.662 103.533 52.6737C111.627 52.7189 119.734 52.68 127.83 52.6799C131.525 52.6799 134.105 52.6992 137.098 50.1017C139.425 48.0828 140.141 45.3426 140.14 41.2563C140.138 35.2624 141.436 27.3319 132.888 24.9204C130.272 24.1825 108.11 24.5464 102.935 24.5473C99.1724 24.548 100.585 24.8437 98.3396 23.2188C90.9373 17.8621 80.8738 17.8542 73.4186 23.232C73.0133 23.5244 72.0624 24.3838 71.6733 24.5612L71.6732 24.5613Z" fill="#9D9D9D"/>
<path fill-rule="evenodd" clip-rule="evenodd" d="M69.7545 52.7668L68.6824 51.3872C67.5112 51.1706 41.2675 51.3294 39.2949 51.3294C33.9751 51.3294 30.409 51.9679 26.9511 49.2025C25.9695 48.4175 24.5978 46.452 24.297 44.671C23.8942 42.286 23.7951 33.5652 24.6334 31.4721C27.3272 24.7468 34.2068 25.9601 40.9009 25.9601C50.6775 25.9601 60.4838 25.8881 70.2563 25.9609C70.7317 25.6853 71.3455 25.004 71.6734 24.5601C61.3163 24.3358 50.6862 24.5475 40.2987 24.5475C35.1552 24.5475 30.2367 23.8758 26.6373 26.4894C22.9791 29.1457 22.6588 32.1852 22.6589 37.8057C22.6589 43.4708 22.1177 46.4826 25.6351 49.8849C29.1418 53.2767 32.3924 52.676 38.2911 52.676C40.8814 52.676 67.9594 52.494 69.7545 52.7668V52.7668ZM123.071 34.6012C123.565 34.9866 123.106 34.6115 123.621 34.8692L124.1 35.1228L124.095 42.0217L123.46 42.2903C122.859 42.587 122.909 41.9915 123.117 44.2362L127.813 44.2365L127.856 42.2874L126.853 42.2569L126.896 35.0544L129.491 35.0367L129.538 39.6687L129.532 42.0216C129.062 42.4416 129.244 42.1541 128.58 42.4063L128.706 44.243L133.386 44.2037L133.386 42.3388L132.359 42.2686L132.358 35.1228L132.84 34.8731C132.882 34.8556 132.947 34.8346 132.985 34.8203C133.035 34.802 133.301 34.7593 133.391 34.74C133.393 34.5905 133.396 34.4533 133.398 34.3271L133.415 34.2934C133.548 34.0365 133.511 33.7525 133.411 33.4922C133.421 32.5859 133.371 33.0723 133.051 32.8654L123.089 32.817L123.071 34.6012L123.071 34.6012ZM117.449 42.1393L116.532 42.3464C116.337 44.0631 116.157 44.273 117.771 44.255C118.932 44.2421 120.161 44.2794 121.39 44.2189L121.377 42.3363L120.332 42.2647L120.32 35.1228C121.29 34.3962 120.658 35.2346 121.328 34.5529C121.453 33.965 121.443 33.4132 121.263 32.9356C120.014 32.5532 113.93 32.7826 112.139 32.8323L112.065 34.5477C112.53 34.8654 112.69 34.7749 113.075 34.9312L113.048 39.5914C112.891 41.5953 112.432 41.8906 110.57 42.2898L111.191 44.4735C114.544 44.7023 115.308 42.2776 115.599 39.4027L115.771 35.03L117.459 35.0404L117.449 42.1393L117.449 42.1393ZM106.478 39.344C106.926 41.4905 105.948 42.5439 103.669 42.1779L103.587 40.7842L101.422 40.7675C101.139 41.9472 101.086 43.4998 102.07 44.0018C103.862 44.9169 109.028 45.5008 109.439 40.0032C109.64 36.9802 109.46 33.8968 107.04 32.9168C105.78 32.4068 104.098 32.4549 102.801 32.8745C100.858 33.5026 101.312 34.2347 101.323 36.2971L103.62 36.3056C103.635 35.1556 103.593 34.2753 105.353 34.9241C106.342 35.2885 106.522 36.106 106.607 37.3034L103.856 37.3326L103.673 39.3911L106.478 39.3441L106.478 39.344ZM75.3953 44.4603L73.1549 46.3565C73.5504 47.4859 74.9249 48.3912 75.7678 49.1758C76.5752 49.9275 77.5328 51.211 78.5459 51.6361L85.1585 45.1655L85.5795 44.6154C86.3048 44.7863 85.8075 44.5442 86.3163 44.8696C87.2045 45.9598 88.7825 47.2618 89.889 48.3427C90.7532 49.1869 92.6578 51.1591 93.4999 51.721C94.5604 50.9954 96.1985 49.2067 97.4463 48.0881L98.3132 47.1827C98.5425 46.8835 98.3593 47.1804 98.5593 46.8125C98.1264 46.2322 95.9084 44.1047 95.3327 43.7518C94.9094 43.0178 93.8365 42.2241 93.176 41.5666C92.7685 41.161 92.5003 40.9063 92.0742 40.509C91.6081 40.0745 91.2726 39.9257 91.1692 39.332C91.7817 39.1455 94.2459 36.5584 94.8078 35.9882C95.6927 35.0905 98.0124 33.2281 98.3939 32.44C98.0536 31.8497 93.9151 27.7378 93.0156 27.4296L85.7359 34.4406C84.3759 33.2517 83.1665 32.0163 81.9481 30.8206C81.202 30.0883 78.7253 27.5619 77.9638 27.2424L73.0232 32.026C73.5818 33.246 79.9786 38.2893 80.5167 39.6513C79.5382 40.1001 75.6992 43.9469 75.3953 44.4603L75.3953 44.4603ZM133.411 33.4923C133.317 33.2485 133.168 33.0256 133.051 32.8654L133.411 33.4923Z" fill="#9D9D9D"/>
</svg>
