<svg width="176" height="80" viewBox="0 0 176 80" fill="none" xmlns="http://www.w3.org/2000/svg">
<rect width="176" height="80" fill="white"/>
<path d="M52.7751 61.0905C52.2579 59.6202 51.7532 58.2262 51.258 56.9081C50.7631 55.5901 50.268 54.3339 49.7794 53.1445L46.6377 61.0905H52.7751H52.7751ZM54.1048 64.8256L53.1369 62.0802H46.2569C46.0949 62.4799 45.9013 62.9986 45.6729 63.6408C45.3429 64.5401 45.0954 64.9922 44.9272 64.9922C44.8287 64.9922 44.7401 64.9351 44.6637 64.8162C44.5844 64.7019 44.5464 64.5686 44.5464 64.4211C44.5464 64.2927 44.9113 63.3552 45.6381 61.6186C46.3679 59.882 47.0312 58.2356 47.6342 56.6844L52.8481 43.276L61.0767 64.8256H54.1048ZM61.4353 64.8113C61.4417 64.2071 61.4511 63.5409 61.4607 62.8129C61.4703 62.0849 61.4734 61.6709 61.4734 61.5807V47.9343C61.4734 47.8296 61.4703 47.4156 61.4607 46.6829C61.4511 45.9549 61.4417 45.2887 61.4353 44.6845L67.4712 44.6702C67.4649 45.3601 67.4521 46.0644 67.4363 46.7829C67.4206 47.5012 67.4141 47.8867 67.4141 47.9343V60.686C67.4141 60.7336 67.4206 61.1143 67.4363 61.8233C67.452 62.5322 67.4649 63.2269 67.4712 63.9073H68.5565C70.1496 63.9073 71.6823 63.8502 73.1516 63.7407C73.361 63.7218 73.4848 63.7122 73.5229 63.7122C73.6467 63.7122 73.7388 63.7598 73.7958 63.8502C73.8561 63.9455 73.8847 64.0881 73.8847 64.2833C73.8847 64.4973 73.8467 64.6401 73.7673 64.7161C73.691 64.7877 73.5484 64.8256 73.3356 64.8256L61.4353 64.8114V64.8113ZM74.7035 64.8113C74.7097 64.2071 74.7193 63.5409 74.7289 62.8129C74.7383 62.0849 74.7415 61.6709 74.7415 61.5807V47.9343C74.7415 47.8296 74.7383 47.4156 74.7289 46.6829C74.7193 45.9549 74.7097 45.2887 74.7035 44.6845L80.7394 44.6702C80.7329 45.3601 80.7202 46.0644 80.7043 46.7829C80.6886 47.5012 80.6822 47.8867 80.6822 47.9343V60.686C80.6822 60.7336 80.6886 61.1143 80.7043 61.8233C80.7202 62.5322 80.7329 63.2269 80.7394 63.9073H81.8245C83.4177 63.9073 84.9504 63.8502 86.4197 63.7407C86.6292 63.7218 86.7528 63.7122 86.7909 63.7122C86.9147 63.7122 87.0069 63.7598 87.0638 63.8502C87.1243 63.9455 87.1528 64.0881 87.1528 64.2833C87.1528 64.4973 87.1147 64.6401 87.0354 64.7161C86.9592 64.7877 86.8164 64.8256 86.6037 64.8256L74.7035 64.8114V64.8113ZM87.8986 57.7455V47.9343C87.8986 47.8296 87.8955 47.4156 87.8859 46.6829C87.8763 45.9549 87.8669 45.2887 87.8604 44.6845H93.8963C93.89 45.3555 93.8773 46.0405 93.8614 46.7495C93.8456 47.4538 93.8392 47.825 93.8392 47.8629V64.5783H94.3881C95.6957 64.5783 96.7651 64.3641 97.5998 63.9358C98.4343 63.5076 99.0817 62.8463 99.5483 61.9422C99.9258 61.2095 100.192 60.1294 100.348 58.7067C100.503 57.2888 100.58 54.6957 100.58 50.9319V48.5052C100.58 47.5394 100.561 46.5782 100.522 45.6171C100.516 45.4601 100.516 45.3649 100.516 45.3269C100.516 45.0175 100.548 44.8034 100.611 44.6845C100.678 44.5655 100.792 44.5036 100.96 44.5036C101.11 44.5036 101.214 44.5512 101.271 44.6512C101.332 44.7464 101.36 44.9272 101.36 45.1889C101.36 48.5862 101.322 51.5789 101.249 54.1628C101.173 56.7464 101.084 58.4735 100.979 59.3491C100.732 61.4235 100.062 62.9604 98.9707 63.9692C97.8789 64.9779 96.3398 65.4823 94.3501 65.4823C92.0145 65.4823 90.3548 64.8922 89.3711 63.7122C88.3904 62.5322 87.8986 60.5433 87.8986 57.7455V57.7455ZM109.281 45.5885V58.8636C109.516 59.2063 109.763 59.5298 110.02 59.8248C110.277 60.1246 110.544 60.4005 110.823 60.6623C112.585 60.4957 113.956 59.7488 114.933 58.4165C115.914 57.089 116.402 55.3142 116.402 53.0921C116.402 50.7035 115.86 48.8526 114.774 47.5488C113.692 46.2404 112.15 45.5885 110.154 45.5885H109.281V45.5885ZM103.302 64.8113C103.309 64.2071 103.318 63.5409 103.328 62.8129C103.337 62.0849 103.34 61.6757 103.34 61.5807V47.9295C103.34 47.8296 103.337 47.411 103.328 46.6829C103.318 45.9549 103.309 45.2887 103.302 44.6845L110.154 44.6702C112.331 44.6702 114.022 45.4077 115.231 46.8875C116.44 48.3673 117.043 50.4229 117.043 53.0636C117.043 55.4235 116.561 57.3363 115.599 58.7923C114.634 60.253 113.28 61.1285 111.531 61.4284C112.299 62.0945 113.048 62.6463 113.775 63.0794C114.504 63.5076 115.193 63.8169 115.844 64.0025C116.079 64.0596 116.228 64.1167 116.291 64.1785C116.351 64.2356 116.383 64.3164 116.383 64.4211C116.383 64.6353 116.335 64.8162 116.234 64.9731C116.136 65.1254 116.012 65.2016 115.863 65.2016C115.263 65.2016 114.336 64.7304 113.089 63.7931C111.839 62.8557 110.569 61.6234 109.281 60.0912V64.8256L103.302 64.8113V64.8113ZM130.606 64.8256L118.706 64.8113C118.712 64.2071 118.722 63.5409 118.731 62.8129C118.741 62.0849 118.744 61.6709 118.744 61.5807V47.9295C118.744 47.8296 118.741 47.4156 118.731 46.6829C118.722 45.9549 118.712 45.2887 118.706 44.6845L129.715 44.6702C129.943 44.6702 130.092 44.7082 130.162 44.7797C130.229 44.8558 130.264 44.9889 130.264 45.1841C130.264 45.3887 130.226 45.5315 130.146 45.6076C130.07 45.6884 129.927 45.7266 129.715 45.7266C129.654 45.7266 129.489 45.717 129.223 45.6979C127.915 45.6266 126.624 45.5885 125.354 45.5885H124.685V50.2325H125.542C126.903 50.2325 128.268 50.204 129.632 50.1468C129.886 50.1279 130.035 50.123 130.086 50.123C130.365 50.123 130.546 50.1611 130.629 50.2468C130.714 50.3276 130.756 50.4894 130.756 50.7178C130.756 50.9033 130.721 51.0366 130.654 51.1176C130.584 51.1937 130.473 51.2365 130.318 51.2365C130.264 51.2365 130.08 51.2317 129.769 51.2222C128.096 51.1746 126.402 51.1508 124.685 51.1508V63.9073C125.707 63.9073 126.789 63.9169 127.928 63.9358C128.214 63.9454 128.388 63.9501 128.448 63.9501C129.169 63.9501 129.877 63.9073 130.568 63.8217C130.695 63.8074 130.768 63.798 130.794 63.798C130.905 63.798 130.994 63.8408 131.057 63.9358C131.124 64.0263 131.155 64.1547 131.155 64.3119C131.155 64.5164 131.124 64.6496 131.057 64.721C130.994 64.7923 130.841 64.8256 130.606 64.8256L130.606 64.8256Z" fill="#9D9D9D"/>
<path d="M136.013 68.6234V62.9126V62.6757L136.189 62.5081L140.295 58.588V49.902L136.189 45.9819L136.013 45.8144V45.5774V39.8666H39.8425V45.5774V45.8144L39.6668 45.9819L35.56 49.902V58.588L39.6668 62.5081L39.8425 62.6757V62.9126V68.6234H136.013ZM137.212 63.1496V69.1957V69.7679H136.612H39.243H38.6435V69.1957V63.1496L34.5368 59.2295L34.3611 59.062V58.825V49.6651V49.4281L34.5368 49.2605L38.6435 45.3405V39.2944V38.7222H39.243H136.612H137.212V39.2944V45.3405L141.319 49.2605L141.494 49.4281V49.6651V58.825V59.062L141.319 59.2295L137.212 63.1496Z" fill="#9D9D9D"/>
<path d="M39.2583 51.9696C39.9165 51.9696 40.5127 52.2245 40.944 52.6361C41.3752 53.0477 41.6422 53.6168 41.6422 54.245C41.6422 54.8733 41.3753 55.4423 40.944 55.8539C40.5127 56.2656 39.9165 56.5204 39.2583 56.5204C38.6002 56.5204 38.004 56.2656 37.5728 55.8539C37.1416 55.4423 36.8745 54.8733 36.8745 54.245C36.8745 53.6168 37.1416 53.0477 37.5728 52.6361C38.004 52.2245 38.6002 51.9696 39.2583 51.9696ZM40.0963 53.4452C39.8821 53.2407 39.5856 53.1141 39.2583 53.1141C38.9311 53.1141 38.6346 53.2407 38.4204 53.4452C38.2061 53.6497 38.0735 53.9326 38.0735 54.245C38.0735 54.5574 38.2061 54.8403 38.4204 55.0448C38.6346 55.2493 38.9311 55.376 39.2583 55.376C39.5856 55.376 39.8821 55.2493 40.0963 55.0448C40.3106 54.8403 40.4433 54.5574 40.4433 54.245C40.4433 53.9326 40.3106 53.6497 40.0963 53.4452Z" fill="#9D9D9D"/>
<path d="M136.598 53.1141C136.271 53.1141 135.974 53.2407 135.76 53.4452C135.546 53.6497 135.413 53.9326 135.413 54.245C135.413 54.5574 135.546 54.8403 135.76 55.0448C135.974 55.2493 136.271 55.376 136.598 55.376C136.925 55.376 137.222 55.2493 137.436 55.0448C137.65 54.8403 137.783 54.5574 137.783 54.245C137.783 53.9326 137.65 53.6497 137.436 53.4452C137.222 53.2407 136.925 53.1141 136.598 53.1141ZM134.913 52.6361C135.344 52.2245 135.94 51.9696 136.598 51.9696C137.256 51.9696 137.853 52.2245 138.284 52.6361C138.715 53.0477 138.982 53.6168 138.982 54.245C138.982 54.8733 138.715 55.4423 138.284 55.8539C137.853 56.2656 137.256 56.5204 136.598 56.5204C135.94 56.5204 135.344 56.2656 134.913 55.8539C134.481 55.4423 134.214 54.8733 134.214 54.245C134.214 53.6168 134.481 53.0477 134.913 52.6361Z" fill="#9D9D9D"/>
<path d="M92.1273 28.3524V27.7139C92.2838 27.6542 92.2525 27.4899 92.1273 27.46V26.8026C92.2369 26.7578 92.2211 26.6658 92.0959 26.6658C92.0283 26.6658 91.6994 26.6658 91.4114 26.6658C91.1085 25.8971 90.8187 25.0894 90.534 24.2315C90.2741 23.448 90.0441 22.6087 89.8408 21.7204H90.118L90.2433 21.2124L90.1649 20.9585H89.8206V20.6597H89.6152C88.7618 16.3343 88.4736 10.9842 88.4736 5.23345L88.771 4.80767V3.89634L88.5676 3.77685C88.5676 3.77685 88.5676 3.4033 88.5676 3.19409C88.5676 3.09331 88.5792 3.05967 88.4736 3.05967C88.3673 3.05967 88.437 2.95026 88.321 2.90277C88.2388 2.86914 88.1143 2.84582 88.004 2.83553C88.004 2.83553 87.9275 0.38533 87.9275 0.0514536C87.9275 -0.0173734 87.8604 -0.0169287 87.8604 0.0514536C87.8604 0.385298 87.784 2.83553 87.784 2.83553C87.6736 2.84582 87.5492 2.86917 87.467 2.90277C87.351 2.95026 87.4207 3.05967 87.3143 3.05967C87.2087 3.05967 87.2205 3.09331 87.2205 3.19409C87.2205 3.4033 87.2205 3.77685 87.2205 3.77685L87.0169 3.89634V4.80767L87.3143 5.23345C87.3143 10.9842 87.0261 16.3343 86.1727 20.6597H85.9672V20.9585H85.6229L85.5446 21.2124L85.6698 21.7204H85.9471C85.7438 22.6088 85.5138 23.448 85.2538 24.2315C84.9692 25.0894 84.6794 25.8971 84.3765 26.6658C84.0885 26.6658 83.7596 26.6658 83.6918 26.6658C83.5667 26.6658 83.551 26.7578 83.6606 26.8026V27.46C83.5354 27.4899 83.5041 27.6542 83.6606 27.7139V28.3524C82.76 30.3208 81.7148 32.0552 80.3589 33.7812H83.8571C83.8571 31.4901 85.5667 29.7382 87.8939 29.7382C90.2211 29.7382 91.9308 31.4901 91.9308 33.7812H95.4289C94.073 32.0552 93.0278 30.3207 92.1272 28.3524H92.1273ZM86.4341 26.6658C86.6466 25.9149 86.9728 24.6745 87.2273 23.3138H88.5606C88.8151 24.6745 89.1413 25.9149 89.3539 26.6658H86.4341Z" fill="#9D9D9D"/>
<path d="M63.0961 20.6277L62.93 20.5777V20.5769C62.62 20.4823 62.1891 20.3505 61.8594 20.3501C61.6243 20.3498 61.4424 20.4304 61.4422 20.6898C61.4421 20.9254 61.4866 21.1633 61.5726 21.3839C61.6509 21.5846 61.764 21.7715 61.909 21.9289C62.0797 21.8699 62.2481 21.8155 62.4144 21.7651C62.6245 21.7017 62.8399 21.6416 63.0593 21.5849V21.5848C64.1357 21.306 65.2895 21.2765 66.3954 21.4125C67.6713 21.5693 68.8863 21.9477 69.8476 22.4166L69.848 22.4161C70.6325 22.7981 71.3194 23.2757 71.8302 23.8793C72.3201 24.4585 72.6461 25.1513 72.7382 25.9831C73.5992 26.2006 74.3093 26.1346 74.7412 25.9C74.9116 25.8075 75.0352 25.6892 75.1008 25.5542C75.1643 25.4238 75.1759 25.2725 75.1264 25.1097C75.0102 24.7279 74.5786 24.2856 73.7341 23.8608L73.7241 23.855C73.4387 23.6898 73.3045 23.4461 73.2942 23.2026C73.289 23.0745 73.3184 22.9466 73.3787 22.8314L73.3781 22.831C73.4378 22.7168 73.5279 22.6139 73.6437 22.5349C73.8815 22.3721 74.2283 22.307 74.6394 22.4436L74.6549 22.4489L74.666 22.4544C75.1602 22.7031 75.4967 23.0445 75.7221 23.4092V23.41C76.0234 23.898 76.1234 24.4271 76.1374 24.8284C76.1452 25.0609 76.1153 25.2738 76.0537 25.4664C75.9069 25.9257 75.583 26.2668 75.1633 26.4956C74.7571 26.7171 74.2594 26.8323 73.748 26.8481C73.415 26.8583 73.0745 26.8264 72.7487 26.7541C72.6973 27.5739 72.392 28.243 71.9378 28.7489C71.6029 29.122 71.1865 29.4061 70.7323 29.5961C70.28 29.7855 69.7879 29.8819 69.2988 29.8808C68.5405 29.8793 67.7873 29.6436 67.1939 29.1581C66.8676 28.891 66.6168 28.523 66.4886 28.1245C66.3662 27.7436 66.3536 27.3327 66.4899 26.9513C66.5981 26.6488 66.7753 26.3977 67.0075 26.1934C67.2495 25.9805 67.5515 25.8197 67.8966 25.7049C68.1997 25.6043 68.537 25.5393 68.8966 25.5056C69.2753 25.47 69.6789 25.4683 70.0929 25.4954C70.4246 25.5169 70.7597 25.548 71.0966 25.5942C71.3373 25.6273 71.5801 25.6686 71.8242 25.7203C71.7482 25.4501 71.6116 25.2237 71.4615 24.9747L71.4606 24.9739L71.3625 24.8098L71.3618 24.8091C69.9509 22.4119 67.0753 23.852 65.1295 24.8271L65.1296 24.8274C64.517 25.1343 63.9913 25.3977 63.6078 25.497H63.6071C63.4965 25.5253 63.3865 25.5521 63.2783 25.5762C63.2133 25.5906 63.148 25.6046 63.0833 25.6177C63.0602 25.792 63.0664 25.9721 63.0985 26.1493C63.1393 26.3745 63.2222 26.5946 63.3405 26.7928C63.4752 27.0181 63.6744 27.0025 63.8787 26.8915C64.1645 26.7359 64.471 26.4182 64.6917 26.1896L64.6925 26.1889L64.811 26.0671L64.8185 26.0595L64.8238 26.0548C65.0177 25.89 65.2312 25.8195 65.4404 25.8247C65.6659 25.8302 65.8807 25.9248 66.0562 26.0832C66.0802 26.1047 66.1027 26.1273 66.1224 26.1498L66.122 26.1502C66.2681 26.3163 66.3432 26.5442 66.339 26.7717C66.3347 26.9998 66.2509 27.2321 66.0802 27.4069L66.0796 27.4076C66.0602 27.4272 66.038 27.4478 66.013 27.4684C65.783 27.6994 65.4078 28.0151 64.9674 28.2704L64.9676 28.2708C64.5811 28.495 64.1423 28.6741 63.7011 28.7132C63.2417 28.7542 62.7848 28.6454 62.3877 28.2865C62.2536 28.1653 62.126 28.0142 62.0085 27.8294L62.007 27.8279C61.8623 27.594 61.8177 27.2594 61.8291 26.9019C61.8408 26.5319 61.9113 26.1322 61.9891 25.8015C60.876 25.894 59.729 25.8382 58.6809 25.7873C58.2754 25.7676 57.8841 25.7483 57.5303 25.7392L57.2075 25.7309L57.3665 25.4632C57.8303 24.6829 58.3972 24.0447 59.027 23.5216C59.5854 23.0578 60.1954 22.683 60.8284 22.3793C60.5861 22.116 60.3146 21.7721 60.1061 21.4237L60.1057 21.4239C59.8998 21.0797 59.7528 20.7248 59.7477 20.4244V20.4164C59.7543 20.2015 59.7871 20.0099 59.8413 19.8401C60.0011 19.3401 60.3417 19.0301 60.7624 18.8493C61.1647 18.6761 61.6391 18.6251 62.0917 18.6377C62.6029 18.6522 63.0916 18.7491 63.4121 18.8415C63.4459 18.8478 63.4777 18.8556 63.5069 18.8641C63.7459 18.9355 63.939 19.098 64.0608 19.2942C64.1826 19.4898 64.2348 19.7238 64.1937 19.9372C64.1879 19.968 64.1798 19.9981 64.171 20.026H64.1707C64.0998 20.2477 63.9623 20.4309 63.7701 20.5416C63.5908 20.6449 63.3685 20.684 63.1144 20.632L63.1035 20.6298L63.0962 20.6276L63.0961 20.6277ZM71.8962 26.5042C71.6061 26.4343 71.3196 26.3798 71.0371 26.3379C70.7079 26.2891 70.3746 26.2559 70.0416 26.2342C69.6698 26.2101 69.3127 26.2105 68.985 26.2402C68.68 26.2679 68.3983 26.3212 68.1515 26.403C67.852 26.5025 67.6175 26.6555 67.4523 26.8393C67.3091 26.9986 67.2169 27.182 67.1789 27.3733C67.1411 27.5651 67.1565 27.767 67.2278 27.9631C67.3095 28.1871 67.4651 28.4057 67.6975 28.5959C68.201 29.008 68.8229 29.2062 69.4318 29.1947C69.7679 29.1884 70.1009 29.1179 70.4071 28.9844C70.7122 28.8515 70.9928 28.6549 71.2251 28.3961C71.6247 27.9512 71.8849 27.3196 71.8962 26.5042H71.8962Z" fill="#9D9D9D"/>
<path d="M112.857 20.5776L112.691 20.6276L112.683 20.6298L112.673 20.632C112.419 20.684 112.196 20.6449 112.017 20.5416C111.825 20.4309 111.687 20.2477 111.616 20.026H111.616C111.607 19.9981 111.599 19.968 111.593 19.9372C111.552 19.7238 111.604 19.4898 111.726 19.2942C111.848 19.098 112.041 18.9355 112.28 18.8641C112.309 18.8556 112.341 18.8478 112.375 18.8415C112.696 18.7491 113.184 18.6522 113.695 18.6377C114.148 18.6251 114.622 18.6761 115.025 18.8493C115.445 19.0301 115.786 19.3401 115.946 19.8401C116 20.0099 116.033 20.2015 116.039 20.4164V20.4244C116.034 20.7248 115.887 21.0797 115.681 21.4239L115.681 21.4237C115.472 21.7721 115.201 22.116 114.959 22.3793C115.592 22.683 116.202 23.0578 116.76 23.5216C117.39 24.0447 117.957 24.6829 118.421 25.4633L118.58 25.7309L118.257 25.7392C117.903 25.7483 117.512 25.7676 117.106 25.7873C116.058 25.8382 114.911 25.894 113.798 25.8015C113.876 26.1322 113.946 26.5319 113.958 26.9019C113.969 27.2594 113.925 27.594 113.78 27.8279L113.779 27.8294C113.661 28.0141 113.533 28.1652 113.399 28.2865C113.002 28.6454 112.545 28.7542 112.086 28.7132C111.645 28.6741 111.206 28.495 110.819 28.2708L110.82 28.2704C110.379 28.0151 110.004 27.6995 109.774 27.4684C109.749 27.4479 109.727 27.4272 109.707 27.4076L109.707 27.4069C109.536 27.2321 109.452 26.9998 109.448 26.7717C109.444 26.5442 109.519 26.3163 109.665 26.1502L109.665 26.1498C109.684 26.1273 109.707 26.1047 109.731 26.0832C109.906 25.9248 110.121 25.8302 110.347 25.8247C110.556 25.8195 110.769 25.89 110.963 26.0548L110.968 26.0595L110.976 26.0671L111.095 26.1889L111.095 26.1896C111.316 26.4183 111.623 26.7359 111.908 26.8915C112.113 27.0025 112.312 27.0181 112.447 26.7928C112.565 26.5946 112.648 26.3745 112.689 26.1493C112.721 25.9721 112.727 25.792 112.704 25.6177C112.639 25.6046 112.574 25.5906 112.509 25.5762C112.4 25.5521 112.291 25.5253 112.18 25.497H112.179C111.796 25.3977 111.27 25.1343 110.657 24.8274L110.658 24.8271C108.712 23.852 105.836 22.4119 104.425 24.8091L104.425 24.8098L104.326 24.9739L104.326 24.9747C104.175 25.2237 104.039 25.4501 103.963 25.7203C104.207 25.6686 104.45 25.6272 104.69 25.5942C105.027 25.548 105.362 25.5169 105.694 25.4954C106.108 25.4683 106.512 25.47 106.89 25.5056C107.25 25.5393 107.587 25.6043 107.89 25.7049C108.236 25.8197 108.538 25.9805 108.78 26.1934C109.012 26.3977 109.189 26.6488 109.297 26.9513C109.433 27.3327 109.421 27.7436 109.299 28.1245C109.17 28.523 108.919 28.8909 108.593 29.1581C108 29.6436 107.247 29.8793 106.488 29.8808C105.999 29.8819 105.507 29.7855 105.055 29.5961C104.601 29.4061 104.184 29.122 103.849 28.7489C103.395 28.243 103.09 27.5739 103.038 26.7541C102.713 26.8264 102.372 26.8583 102.039 26.8481C101.528 26.8323 101.03 26.7171 100.624 26.4956C100.204 26.2668 99.8803 25.9257 99.7334 25.4664C99.6718 25.2738 99.6419 25.0609 99.6496 24.8284C99.6636 24.4271 99.7637 23.898 100.065 23.41V23.4092C100.29 23.0444 100.627 22.7031 101.121 22.4544L101.132 22.4489L101.148 22.4437C101.559 22.307 101.906 22.3721 102.143 22.5349C102.259 22.6139 102.349 22.7168 102.409 22.831L102.408 22.8314C102.469 22.9466 102.498 23.0745 102.493 23.2026C102.483 23.4461 102.348 23.6898 102.063 23.855L102.053 23.8608C101.208 24.2856 100.777 24.7279 100.661 25.1097C100.611 25.2725 100.623 25.4238 100.686 25.5542C100.752 25.6892 100.875 25.8075 101.046 25.9C101.478 26.1346 102.188 26.2006 103.049 25.9831C103.141 25.1512 103.467 24.4584 103.957 23.8793C104.468 23.2757 105.155 22.7981 105.939 22.4161L105.939 22.4166C106.901 21.9477 108.116 21.5693 109.392 21.4125C110.498 21.2766 111.651 21.306 112.728 21.5848V21.5849C112.947 21.6416 113.163 21.7017 113.373 21.7651C113.539 21.8154 113.707 21.8699 113.878 21.9289C114.023 21.7715 114.136 21.5845 114.214 21.3839C114.3 21.1633 114.345 20.9254 114.345 20.6898C114.345 20.4304 114.163 20.3498 113.928 20.3501C113.598 20.3505 113.167 20.4823 112.857 20.5769V20.5777L112.857 20.5776ZM104.75 26.3378C104.467 26.3797 104.181 26.4342 103.891 26.5041C103.902 27.3195 104.162 27.9511 104.562 28.396C104.794 28.6548 105.075 28.8514 105.38 28.9844C105.686 29.1179 106.019 29.1884 106.355 29.1947C106.964 29.2062 107.586 29.0079 108.089 28.5959C108.322 28.4056 108.477 28.187 108.559 27.963C108.631 27.767 108.646 27.565 108.608 27.3732C108.57 27.1819 108.478 26.9985 108.335 26.8393C108.169 26.6555 107.935 26.5025 107.635 26.4029C107.389 26.3211 107.107 26.2679 106.802 26.2401C106.474 26.2104 106.117 26.2101 105.745 26.2342C105.412 26.2559 105.079 26.2891 104.75 26.3378H104.75Z" fill="#9D9D9D"/>
<path d="M42.6989 75.6361L42.2961 75.8751C41.9466 75.4349 41.4694 75.2149 40.8645 75.2149C40.3811 75.2149 39.9796 75.3628 39.6598 75.6573C39.3413 75.9519 39.1814 76.3093 39.1814 76.7304C39.1814 77.0048 39.2545 77.2628 39.402 77.5041C39.5482 77.7455 39.7502 77.9336 40.0068 78.0672C40.2622 78.2009 40.5497 78.2672 40.8682 78.2672C41.4508 78.2672 41.9268 78.0471 42.2961 77.607L42.6989 77.8602C42.5093 78.1311 42.2552 78.3405 41.9366 78.4907C41.6169 78.6399 41.2537 78.7144 40.8459 78.7144C40.2188 78.7144 39.6995 78.5251 39.2867 78.1477C38.874 77.7691 38.6682 77.31 38.6682 76.7682C38.6682 76.405 38.7649 76.0667 38.9583 75.7543C39.1504 75.442 39.4156 75.1983 39.7528 75.0232C40.0911 74.8481 40.4679 74.7606 40.8856 74.7606C41.1484 74.7606 41.4012 74.7984 41.6453 74.8741C41.8883 74.9499 42.0953 75.0492 42.2651 75.1711C42.4362 75.2929 42.5799 75.4479 42.6989 75.636L42.6989 75.6361ZM48.1601 77.3728L48.589 77.5881C48.4477 77.8495 48.2853 78.0613 48.1007 78.2222C47.916 78.3819 47.7089 78.5049 47.4785 78.5889C47.2466 78.6729 46.9864 78.7144 46.6951 78.7144C46.0481 78.7144 45.5436 78.5132 45.1792 78.111C44.8149 77.7088 44.6327 77.2544 44.6327 76.7481C44.6327 76.2713 44.7876 75.8454 45.0962 75.4728C45.4866 74.9983 46.011 74.7606 46.6666 74.7606C47.3421 74.7606 47.8825 75.0043 48.2853 75.4905C48.5717 75.8336 48.7179 76.2619 48.7228 76.7765H45.1532C45.1632 77.213 45.3106 77.5704 45.5945 77.8483C45.8795 78.1276 46.2316 78.2672 46.6492 78.2672C46.8513 78.2672 47.0484 78.234 47.2393 78.1678C47.4301 78.1015 47.5924 78.014 47.7263 77.9039C47.8602 77.7939 48.0052 77.6177 48.1601 77.3728V77.3728ZM48.1651 76.3577C48.0969 76.0986 47.9978 75.8928 47.8677 75.7378C47.7363 75.5828 47.564 75.4586 47.3496 75.364C47.1351 75.2693 46.9096 75.222 46.6741 75.222C46.2837 75.222 45.9491 75.3403 45.6689 75.5781C45.4632 75.752 45.3095 76.0111 45.2041 76.3578H48.1652L48.1651 76.3577ZM50.3729 74.8529H52.9682V75.2717H51.9196V78.6221H51.414V75.2717H50.3729V74.8529V74.8529ZM55.3135 76.3435H55.7981C56.1835 76.3435 56.4848 76.3719 56.7029 76.4299C56.9211 76.4878 57.1094 76.6156 57.2669 76.8132C57.4243 77.0108 57.5036 77.2379 57.5036 77.4947C57.5036 77.8046 57.3896 78.0696 57.1615 78.2908C56.9346 78.5121 56.5889 78.6221 56.1265 78.6221H54.8115V74.8529H55.3134V76.3435H55.3135ZM55.3321 76.7907V78.2104H55.9184C56.6087 78.2104 56.9533 77.9797 56.9533 77.5195C56.9533 77.3882 56.9161 77.2593 56.8417 77.1326C56.7686 77.0061 56.6596 76.9174 56.5182 76.8665C56.3757 76.8156 56.1253 76.7907 55.7659 76.7907H55.3321V76.7907ZM104.493 78.6221H100.797V74.8529H101.303V78.1678H103.601V74.8529H104.107V78.1678H104.969V79.2183H104.493V78.6221H104.493ZM110.139 77.3728L110.568 77.5881C110.427 77.8495 110.264 78.0613 110.08 78.2222C109.895 78.3819 109.688 78.5049 109.458 78.5889C109.226 78.6729 108.966 78.7144 108.674 78.7144C108.027 78.7144 107.523 78.5132 107.158 78.111C106.794 77.7088 106.612 77.2544 106.612 76.7481C106.612 76.2713 106.767 75.8454 107.075 75.4728C107.466 74.9983 107.99 74.7606 108.646 74.7606C109.321 74.7606 109.862 75.0043 110.264 75.4905C110.551 75.8336 110.697 76.2619 110.702 76.7765H107.132C107.142 77.213 107.29 77.5704 107.574 77.8483C107.859 78.1276 108.211 78.2672 108.628 78.2672C108.83 78.2672 109.027 78.234 109.218 78.1678C109.409 78.1015 109.572 78.014 109.705 77.9039C109.839 77.7939 109.984 77.6177 110.139 77.3728V77.3728ZM110.144 76.3577C110.076 76.0986 109.977 75.8928 109.847 75.7378C109.715 75.5828 109.543 75.4586 109.329 75.364C109.114 75.2693 108.889 75.222 108.653 75.222C108.263 75.222 107.928 75.3403 107.648 75.5781C107.442 75.752 107.289 76.0111 107.183 76.3578H110.144L110.144 76.3577ZM115.602 76.8049H113.296V78.6221H112.791V74.8529H113.296V76.3507H115.602V74.8529H116.107V78.6221H115.602V76.8049ZM117.953 74.8529H120.549V75.2717H119.5V78.6221H118.994V75.2717H117.953V74.8529V74.8529ZM122.399 74.8529H122.905V75.5461C123.106 75.2823 123.336 75.0859 123.598 74.9558C123.86 74.8256 124.151 74.7606 124.473 74.7606C125.035 74.7606 125.514 74.9534 125.913 75.3379C126.312 75.7224 126.512 76.1861 126.512 76.7268C126.512 77.2805 126.314 77.7489 125.918 78.1358C125.523 78.5215 125.046 78.7144 124.487 78.7144C124.173 78.7144 123.884 78.6516 123.62 78.5274C123.356 78.402 123.118 78.2163 122.905 77.969V79.9991H122.399V74.8529V74.8529ZM124.436 75.2291C123.996 75.2291 123.627 75.3746 123.327 75.6668C123.025 75.9591 122.875 76.3222 122.875 76.7565C122.875 77.0416 122.942 77.2983 123.076 77.5255C123.21 77.7538 123.402 77.9336 123.651 78.0673C123.902 78.201 124.166 78.2672 124.442 78.2672C124.715 78.2672 124.971 78.1998 125.212 78.0649C125.452 77.9313 125.643 77.7431 125.786 77.5018C125.928 77.2604 125.999 77.0073 125.999 76.7434C125.999 76.476 125.928 76.2229 125.787 75.9839C125.646 75.7449 125.456 75.5591 125.217 75.4279C124.979 75.2953 124.717 75.2291 124.436 75.2291L124.436 75.2291ZM130.491 74.7606C131.099 74.7606 131.605 74.97 132.005 75.39C132.37 75.7721 132.552 76.2253 132.552 76.7482C132.552 77.2734 132.36 77.7324 131.974 78.1252C131.59 78.518 131.094 78.7144 130.491 78.7144C129.883 78.7144 129.386 78.518 129.002 78.1252C128.617 77.7324 128.425 77.2734 128.425 76.7482C128.425 76.2276 128.607 75.7757 128.971 75.3935C129.372 74.9712 129.879 74.7606 130.491 74.7606V74.7606ZM130.488 75.2362C130.066 75.2362 129.704 75.3841 129.4 75.681C129.096 75.978 128.945 76.3376 128.945 76.7588C128.945 77.0297 129.015 77.2829 129.152 77.5183C129.291 77.7525 129.478 77.9336 129.714 78.0613C129.948 78.1891 130.207 78.253 130.488 78.253C130.77 78.253 131.029 78.1891 131.263 78.0613C131.498 77.9336 131.686 77.7525 131.824 77.5183C131.962 77.2829 132.031 77.0297 132.031 76.7588C132.031 76.3376 131.879 75.978 131.574 75.681C131.27 75.3841 130.908 75.2362 130.488 75.2362V75.2362ZM135.79 78.6221H134.641V74.8529H135.772C136.204 74.8529 136.515 74.9475 136.706 75.1356C136.895 75.3249 136.991 75.5461 136.991 75.7993C136.991 76.1814 136.813 76.4394 136.459 76.5754C136.972 76.7493 137.229 77.0842 137.229 77.5798C137.229 78.2743 136.749 78.6221 135.79 78.6221ZM135.146 75.2717V76.4429H135.478C135.781 76.4429 135.979 76.4311 136.071 76.4086C136.164 76.3849 136.251 76.3282 136.333 76.2382C136.414 76.1471 136.455 76.0276 136.455 75.8774C136.455 75.7212 136.413 75.5911 136.328 75.4858C136.242 75.3793 136.153 75.3177 136.059 75.2988C135.964 75.2811 135.771 75.2716 135.478 75.2716H135.146V75.2717ZM135.146 76.8901V78.2104H135.693C135.951 78.2104 136.135 78.195 136.246 78.1631C136.356 78.1323 136.452 78.0649 136.53 77.9608C136.609 77.8567 136.649 77.7254 136.649 77.5656C136.649 77.3598 136.58 77.1965 136.444 77.0735C136.308 76.9516 136.128 76.8901 135.905 76.8901H135.146ZM62.4701 78.6221V73.3977H62.9758V75.506C63.189 75.2563 63.4269 75.0694 63.691 74.9464C63.955 74.8221 64.2438 74.7606 64.5574 74.7606C65.1164 74.7606 65.5935 74.9535 65.9889 75.3392C66.3842 75.726 66.5826 76.1933 66.5826 76.7447C66.5826 77.2876 66.3831 77.7526 65.984 78.1371C65.5849 78.5216 65.1052 78.7144 64.5437 78.7144C64.2214 78.7144 63.9302 78.6493 63.6686 78.5192C63.4071 78.3891 63.1766 78.1927 62.9758 77.9289V78.6221H62.4701V78.6221ZM64.5065 78.2459C64.7879 78.2459 65.0494 78.1796 65.2874 78.0484C65.5266 77.9158 65.7163 77.7301 65.8575 77.4911C65.9989 77.2534 66.0695 77.0002 66.0695 76.734C66.0695 76.4677 65.9989 76.2134 65.8563 75.9721C65.7138 75.7319 65.5229 75.5438 65.2825 75.409C65.042 75.2753 64.7855 75.2078 64.5128 75.2078C64.2364 75.2078 63.9724 75.2753 63.722 75.409C63.4729 75.5438 63.2808 75.7248 63.1469 75.952C63.0131 76.1791 62.9461 76.4346 62.9461 76.7198C62.9461 77.1539 63.0961 77.5172 63.3973 77.8082C63.6972 78.1004 64.0666 78.2459 64.5065 78.2459V78.2459ZM71.993 77.3728L72.4219 77.5881C72.2806 77.8496 72.1182 78.0614 71.9336 78.2222C71.7489 78.3819 71.5418 78.505 71.3113 78.589C71.0795 78.673 70.8193 78.7144 70.528 78.7144C69.881 78.7144 69.3765 78.5132 69.0121 78.111C68.6478 77.7088 68.4655 77.2544 68.4655 76.7481C68.4655 76.2713 68.6205 75.8454 68.9291 75.4728C69.3195 74.9984 69.8439 74.7606 70.4995 74.7606C71.1749 74.7606 71.7154 75.0043 72.1182 75.4905C72.4045 75.8337 72.5508 76.2619 72.5557 76.7765H68.9861C68.9961 77.2131 69.1435 77.5704 69.4274 77.8484C69.7124 78.1276 70.0644 78.2672 70.4821 78.2672C70.6842 78.2672 70.8812 78.2341 71.0721 78.1679C71.263 78.1015 71.4253 78.014 71.5592 77.904C71.693 77.794 71.8381 77.6177 71.993 77.3728V77.3728ZM71.998 76.3578C71.9298 76.0987 71.8306 75.8928 71.7005 75.7378C71.5691 75.5829 71.3969 75.4587 71.1825 75.364C70.968 75.2694 70.7425 75.222 70.507 75.222C70.1166 75.222 69.7819 75.3403 69.5018 75.5782C69.296 75.7521 69.1424 76.0111 69.037 76.3578H71.9981L71.998 76.3578ZM78.5785 74.8529V78.6221H78.0727V77.9738C77.8595 78.221 77.6216 78.4068 77.3564 78.5298C77.0924 78.6529 76.8023 78.7144 76.4888 78.7144C75.931 78.7144 75.4538 78.5215 75.0584 78.1359C74.663 77.749 74.466 77.2806 74.466 76.7268C74.466 76.1862 74.6655 75.7225 75.0646 75.3379C75.4625 74.9535 75.9422 74.7606 76.5036 74.7606C76.8271 74.7606 77.1196 74.8256 77.3824 74.9559C77.6439 75.086 77.8744 75.2824 78.0727 75.5462V74.853H78.5785V74.8529ZM76.5432 75.2291C76.2607 75.2291 75.9991 75.2953 75.7611 75.4279C75.5219 75.5591 75.3323 75.7449 75.191 75.9839C75.0498 76.2229 74.9791 76.476 74.9791 76.7434C74.9791 77.0073 75.0498 77.2604 75.1923 77.5018C75.3349 77.7431 75.5257 77.9313 75.7661 78.0649C76.0066 78.1998 76.2644 78.2672 76.5396 78.2672C76.816 78.2672 77.08 78.201 77.3279 78.0673C77.577 77.9336 77.7679 77.7538 77.9017 77.5255C78.0356 77.2983 78.1025 77.0416 78.1025 76.7565C78.1025 76.3223 77.9525 75.9591 77.6514 75.6668C77.3514 75.3746 76.9821 75.2291 76.5433 75.2291L76.5432 75.2291ZM80.8109 74.8529H81.3165V76.6121C81.3165 77.0416 81.3414 77.3362 81.3897 77.4983C81.4616 77.729 81.6016 77.9111 81.8061 78.0448C82.0107 78.1785 82.256 78.2459 82.5399 78.2459C82.8237 78.2459 83.0642 78.1809 83.2625 78.0507C83.4595 77.9194 83.5971 77.749 83.6714 77.5361C83.7223 77.3905 83.7483 77.083 83.7483 76.6121V74.8529H84.2689V76.7009C84.2689 77.2203 84.2056 77.6106 84.078 77.8733C83.9516 78.1371 83.7595 78.3429 83.5041 78.4908C83.2488 78.64 82.929 78.7144 82.5436 78.7144C82.1581 78.7144 81.8371 78.64 81.5793 78.4908C81.3215 78.3429 81.1281 78.1347 81.0017 77.8685C80.874 77.6024 80.8108 77.2013 80.8108 76.6666V74.853L80.8109 74.8529ZM86.9897 73.4474H87.4954V74.8529H88.2986V75.2717H87.4954V78.6221H86.9897V75.2717H86.2982V74.8529H86.9897V73.4474ZM89.7998 74.8529H90.3278L91.6899 77.7431L93.0137 74.8529H93.5553L91.1978 79.9992H90.6562L91.4296 78.3122L89.7998 74.8529V74.8529ZM95.9425 76.4926H97.9355V76.9185H95.9425V76.4926Z" fill="#9D9D9D"/>
</svg>
