<svg width="176" height="80" viewBox="0 0 176 80" fill="none" xmlns="http://www.w3.org/2000/svg">
<rect width="176" height="80" fill="white"/>
<path fill-rule="evenodd" clip-rule="evenodd" d="M23.3408 50.7585H21.7896V57.8836H23.3408V55.1896L23.3618 55.1705L24.9225 57.8836H26.7317L24.8287 55.0418L26.618 52.8706H24.8909L23.3607 54.9534L23.3408 54.9333V50.7596V50.7586V50.7585ZM137.288 38.313H121.202C121.202 41.4081 121.642 44.3131 125.407 44.3131C127.95 44.3131 129.221 43.4084 129.905 41.217H136.506C135.871 47.1227 131.128 49.0749 125.407 49.0749C116.997 49.0749 113.623 44.4558 113.623 36.4554C113.623 29.264 117.925 23.7404 125.407 23.7404C130.003 23.7404 133.816 25.2643 135.871 29.4551C136.556 30.788 136.898 32.2174 137.094 33.7413C137.288 35.2169 137.288 36.7408 137.288 38.313L137.288 38.313ZM61.2665 52.9298H59.7258V57.8835H61.277V54.904C61.2981 54.1833 61.7214 53.7691 62.2068 53.7691C62.9724 53.7691 63.1272 54.3702 63.1378 54.904V57.8835H64.6879V54.6567C64.6879 54.4889 64.6679 54.1732 64.5847 53.8677C64.3994 53.1469 63.3958 52.782 62.8787 52.782C62.0931 52.782 61.6077 53.0775 61.2876 53.532L61.2665 53.5028V52.9298L61.2665 52.9298ZM72.9251 55.288C72.9251 54.509 73.2347 53.4626 74.3826 53.4626C75.4473 53.4626 75.84 54.331 75.84 55.288C75.84 56.246 75.4472 57.1145 74.3826 57.1145C73.2347 57.1145 72.9251 56.0681 72.9251 55.288ZM138.159 24.5365C138.257 26.2605 138.406 28.2166 138.406 29.1947L138.455 47.9238H145.798V36.3237C145.848 34.7857 145.995 33.4809 146.784 32.1772C147.523 31.1982 149.15 30.5457 150.382 30.4532H153.586V24.2571C149.89 24.1636 146.735 25.0954 145.158 28.7755H145.059L144.912 24.5366H138.159V24.5365ZM99.8904 34.1383L107.027 24.616H115.912L107.224 34.8983L116.302 47.9621H107.032L99.8904 36.4262V47.9621H92.2966V24.616H99.8904V34.1383V34.1383ZM64.7006 22.0828V20H58.5905V22.0828H64.7006ZM56.12 22.0828V20H50.009V22.0828H56.12ZM60.961 36.7228C58.3925 36.6756 53.1071 36.6273 53.1071 40.4853C53.1071 42.4847 54.6383 43.9141 56.7129 43.9141C60.8126 43.9141 60.961 39.5324 60.961 36.7228ZM54.2434 30.8181H47.1309C47.1804 27.8176 48.5146 25.9609 50.4902 24.8653C52.5142 23.7223 55.1322 23.3414 57.7997 23.3414C62.7881 23.3414 68.3695 25.1035 68.3695 32.2938V45.3425C68.419 46.5327 68.6159 47.2473 68.7149 47.9621H62.0468C61.8993 46.8664 61.8003 45.7707 61.8003 44.7715H61.7013C60.0217 47.5329 57.4543 48.6758 54.0949 48.6758C49.453 48.6758 45.9956 46.1044 45.9956 41.4372C45.9956 39.7706 46.7854 35.7226 51.28 33.866C54.2434 32.6275 57.9976 32.4848 60.961 32.5803V30.3417C60.961 29.3415 60.1701 27.3893 57.5521 27.3893C54.9837 27.3893 54.1444 29.7225 54.2434 30.8181H54.2434ZM29.3843 47.9269V38.6498H37.3509V47.9269H44.9447V24.5808H37.3509V33.8288H29.4191V24.5808H21.7896V47.9269H29.3843V47.9269ZM91.3035 32.4365C91.353 26.8173 86.6615 23.3414 80.3387 23.3414C72.9799 23.3414 69.2762 29.6752 69.2762 36.0091C69.2762 42.3419 72.9799 48.6758 80.3387 48.6758C87.1554 48.6758 91.057 45.3425 91.3035 39.2468H84.0931C84.0436 41.199 83.2032 43.9141 80.3388 43.9141C77.1775 43.9141 77.1291 37.8657 76.931 35.6753C77.0301 33.8177 77.0795 28.103 80.2398 28.103C83.1053 28.103 83.9446 30.4844 83.994 32.4366H91.3036L91.3035 32.4365ZM121.202 33.5503H129.709C129.709 30.9317 128.976 28.5031 125.407 28.5031C122.032 28.5031 121.3 30.9317 121.202 33.5503ZM69.0107 57.8836V56.5707H67.6986V57.8836H69.0107ZM57.389 55.8017C57.389 55.4761 57.389 55.1604 57.3469 54.8538C57.3058 54.5382 57.2331 54.2426 57.0888 53.9662C56.655 53.0978 55.8483 52.7821 54.8763 52.7821C53.2946 52.7821 52.3847 53.927 52.3847 55.4168C52.3847 57.0744 53.0987 58.0323 54.8763 58.0323C56.0863 58.0323 57.0888 57.6273 57.2236 56.4039H55.8272C55.683 56.8573 55.4145 57.0452 54.8763 57.0452C54.0812 57.0452 53.9875 56.4431 53.9875 55.8018H57.389V55.8017ZM53.9875 54.8146C54.0085 54.2718 54.1633 53.7692 54.8763 53.7692C55.6313 53.7692 55.7861 54.2718 55.7861 54.8146H53.9875H53.9875ZM46.5222 57.8836V54.9041C46.5432 54.1834 46.9665 53.7692 47.452 53.7692C48.2177 53.7692 48.3725 54.3703 48.383 54.9041V57.8836H49.9341V54.6568C49.9341 54.489 49.9131 54.1733 49.8299 53.8678C49.6446 53.1469 48.641 52.7821 48.125 52.7821C47.3394 52.7821 46.8528 53.0776 46.5328 53.532L46.5117 53.5119V50.7586H44.971V57.8836H46.5222L46.5222 57.8836ZM42.7258 54.6669C42.7363 53.5028 41.7538 52.7821 40.43 52.7821C38.8905 52.7821 38.1143 54.0939 38.1143 55.4067C38.1143 56.7195 38.8905 58.0323 40.43 58.0323C41.857 58.0323 42.6742 57.3407 42.7258 56.0782H41.2167C41.2062 56.4823 41.0303 57.0452 40.43 57.0452C39.7687 57.0452 39.7582 55.7917 39.7171 55.3374C39.7382 54.9534 39.7476 53.7692 40.41 53.7692C41.0092 53.7692 41.1851 54.2618 41.1957 54.6669H42.7258ZM32.4182 52.9299V53.917H33.4629V56.3546C33.4629 57.4302 33.7209 58.0323 34.9308 58.0323C35.1478 58.0323 35.9745 57.9629 36.1504 57.8836V57.015C35.985 57.0251 35.8197 57.0452 35.6544 57.0452C35.1163 57.0452 35.0131 56.8673 35.0131 56.2159V53.917H36.1808V52.9299H35.0131V51.42L33.4629 51.9528V52.9299H32.4182ZM28.8514 52.9299V57.8836H30.4026V52.9299H28.8514ZM28.7999 50.7586V52.0323H30.4542V50.7586H28.7999ZM126.05 57.8836H127.076V51.6714H125.362L123.269 56.7909H123.249L121.115 51.6724L119.277 51.6714V57.8836H120.304V52.2916H120.324L122.695 57.8836H123.659L126.029 52.2916H126.05V57.8836ZM153.586 57.8836V56.5708H152.273V57.8836H153.586ZM149.615 55.5847V55.1203C149.615 53.7492 148.881 52.8113 147.331 52.7821C145.687 52.7821 144.922 53.9954 144.922 55.4459C144.922 56.9065 145.583 58.0323 147.247 58.0323C148.488 58.0323 149.398 57.4694 149.553 56.3445H148.519C148.406 57.0643 148.022 57.3508 147.258 57.3508C146.255 57.3508 145.883 56.4531 145.955 55.5846H149.615L149.615 55.5847ZM145.955 54.9333C145.955 54.1241 146.442 53.4627 147.258 53.4627C148.21 53.4627 148.602 54.104 148.582 54.9333H145.955ZM138.325 55.3967C138.325 54.4699 138.614 53.4335 139.793 53.4335C140.909 53.4335 141.261 54.499 141.261 55.3967C141.261 56.3245 140.982 57.381 139.793 57.381C138.686 57.381 138.325 56.3245 138.325 55.3967ZM141.25 53.6014H141.229C140.93 53.0093 140.279 52.7821 139.617 52.7821C138.004 52.7821 137.292 54.0648 137.292 55.4068C137.292 56.6794 137.901 58.0324 139.441 58.0324C140.196 58.0324 140.878 57.7851 141.229 57.0945H141.25V57.1438L141.282 57.8836H142.284C142.263 57.5972 142.233 57.3016 142.233 57.0061V50.7586H141.25V53.6014V53.6014ZM133.599 55.4761C133.619 56.3939 133.403 57.3508 132.245 57.3508C131.666 57.3508 131.221 57.0452 131.221 56.4331C131.221 55.7124 132.018 55.5052 132.617 55.4761H133.599H133.599ZM132.71 54.8248C131.48 54.8248 130.187 55.2288 130.187 56.6211C130.187 57.5881 131.097 58.0314 131.997 58.0314C132.71 58.0314 133.289 57.765 133.61 57.1438H133.63C133.64 57.3709 133.662 57.5881 133.682 57.8143C133.692 57.9328 133.868 57.8836 133.961 57.8836H134.623C134.591 57.4695 134.581 57.0553 134.581 56.8382V54.4699C134.581 53.0878 133.527 52.7821 132.462 52.7821C131.439 52.7821 130.55 53.1672 130.498 54.2528H131.531C131.542 53.7391 132.007 53.4627 132.503 53.4627C133.548 53.4627 133.599 53.9663 133.599 54.8248H132.71H132.71ZM111.936 52.9299H110.975V57.8836H111.957V55.1896C111.957 54.2226 112.226 54.0055 112.371 53.8678C112.784 53.4727 113.322 53.5028 113.322 53.5028C114.149 53.5028 114.511 53.9462 114.511 54.7654V57.8836H115.493V54.4599C115.493 52.8706 113.891 52.7821 113.529 52.7821C113.012 52.7821 112.288 53.0384 111.958 53.6607H111.936V52.9299L111.936 52.9299ZM106.602 55.4761C106.621 56.3939 106.405 57.3508 105.246 57.3508C104.668 57.3508 104.224 57.0452 104.224 56.4331C104.224 55.7124 105.02 55.5052 105.619 55.4761H106.602ZM105.712 54.8248C104.482 54.8248 103.189 55.2288 103.189 56.6211C103.189 57.5881 104.099 58.0314 104.999 58.0314C105.713 58.0314 106.291 57.765 106.611 57.1438H106.632C106.643 57.3709 106.663 57.5881 106.684 57.8143C106.694 57.9328 106.87 57.8836 106.963 57.8836H107.624C107.594 57.4695 107.583 57.0553 107.583 56.8382V54.4699C107.583 53.0878 106.529 52.7821 105.464 52.7821C104.441 52.7821 103.552 53.1672 103.499 54.2528H104.533C104.544 53.7391 105.009 53.4627 105.505 53.4627C106.549 53.4627 106.602 53.9663 106.602 54.8248H105.712V54.8248ZM93.4064 52.9299H92.4449V57.8836H93.4275V55.3374C93.4275 55.2198 93.3864 54.5684 93.5001 54.3111C93.7992 53.6507 94.3784 53.5028 94.7817 53.5028C95.7232 53.5028 95.9296 54.094 95.9296 54.9534V57.8836H96.9121V55.3374C96.9121 55.2198 96.8805 54.7262 97.0153 54.2719C97.2007 53.6607 97.862 53.5019 98.1621 53.5019C99.3099 53.5019 99.4131 54.2719 99.4131 54.9524V57.8836H100.396V54.3905C100.396 53.5028 99.6617 52.7821 98.4622 52.7821C97.6966 52.7821 97.1079 53.0978 96.7362 53.71C96.4666 53.0978 95.8875 52.7821 94.906 52.7821C94.3784 52.7821 93.7381 53.0184 93.4275 53.6406H93.4064V52.9299V52.9299ZM87.8546 55.4268C87.8546 54.3804 88.0725 53.7492 89.313 53.71C89.4478 53.71 89.6015 53.71 89.7364 53.7592V52.8706C89.6227 52.8706 89.5194 52.8605 89.3951 52.8605C88.6822 52.8605 88.0209 53.2064 87.8755 53.8868H87.8545V52.9299H86.8731V57.8836H87.8545V55.4268L87.8546 55.4268ZM84.2456 55.5847V55.1203C84.2456 53.7492 83.5117 52.8113 81.9615 52.7821C80.3176 52.7821 79.5531 53.9954 79.5531 55.4459C79.5531 56.9065 80.2134 58.0323 81.8783 58.0323C83.1189 58.0323 84.0287 57.4694 84.1846 56.3445H83.1505C83.0368 57.0643 82.6544 57.3508 81.8889 57.3508C80.8863 57.3508 80.5135 56.4531 80.5861 55.5846H84.2456L84.2456 55.5847ZM80.5861 54.9333C80.5861 54.1241 81.0727 53.4627 81.8889 53.4627C82.8398 53.4627 83.2326 54.104 83.2115 54.9333H80.5861V54.9333ZM75.8399 53.6697C75.8399 53.7391 75.7051 53.4526 75.6851 53.4335C75.3639 52.9792 74.8059 52.7821 74.2993 52.7821C72.7281 52.7821 71.8909 53.907 71.8909 55.3374C71.8909 56.7296 72.5217 57.7951 74.1034 57.7951C74.7447 57.7951 75.4988 57.5478 75.8083 56.9558H75.8399C75.8083 58.0715 75.8084 59.1763 74.413 59.1763C73.7201 59.1763 73.2452 58.92 73.2041 58.2586H72.1699C72.1805 59.4034 72.9755 59.8579 74.0929 59.8579C75.9948 59.8579 76.8225 59.117 76.8225 57.3016V53.8185C76.8225 53.522 76.853 53.2265 76.8835 52.9299H75.8705L75.84 53.6697L75.8399 53.6697Z" fill="#9D9D9D"/>
</svg>
