<svg width="176" height="80" viewBox="0 0 176 80" fill="none" xmlns="http://www.w3.org/2000/svg">
<rect width="176" height="80" fill="white"/>
<g opacity="0.5">
<path fill-rule="evenodd" clip-rule="evenodd" d="M36.4265 17.5328C37.7105 18.8504 41.8991 19.1563 40.4912 21.7785C39.8765 22.9234 38.3009 24.2421 37.3883 25.2356L34.2631 28.8117C29.2384 35.0965 26.7007 44.0735 26.8236 52.1675C26.8656 54.9332 27.0691 57.6795 27.2026 60.4339C27.3602 63.686 27.266 65.7483 26.9224 68.8613C29.1421 66.4027 28.8596 59.6195 28.976 55.8481C29.2532 46.8728 31.5668 40.5463 37.6729 34.2017C40.054 31.7276 42.858 29.5427 46.4741 27.6354C53.0561 24.1638 65.6416 21.2801 72.5403 26.591C73.7652 27.5339 73.7418 27.8689 75.9246 28.9132C77.7144 29.7695 79.6691 30.3401 81.5959 31.0499C86.7365 32.9434 88.4173 37.5389 90.9734 37.0337C91.396 35.2605 87.7865 32.1668 87.5856 30.7623C87.3145 28.867 87.7658 28.5959 86.8092 26.8007C86.1491 25.5619 85.4853 24.842 84.6427 24.0147C81.6564 21.0823 76.8647 18.7613 71.6538 17.1727C65.2746 15.2277 60.5856 15.4178 53.7635 16.2057C47.6025 16.9173 50.4319 16.7019 44.8034 16.1391C42.8053 15.9394 37.4715 15.8937 36.4264 17.5327L36.4265 17.5328Z" fill="#9D9D9D"/>
<path fill-rule="evenodd" clip-rule="evenodd" d="M71.8768 66.685C72.1113 66.1711 72.9504 65.4581 73.407 65.0349C74.0589 64.4306 74.3688 63.8811 75.453 63.8995L75.2935 66.6873C73.7356 66.7944 75.1284 66.5141 74.2611 66.1743C72.8405 65.9069 73.0808 66.7639 71.8768 66.685V66.685ZM106.492 66.7021C106.775 66.1367 107.709 65.4453 108.088 65.072C108.675 64.4919 108.974 63.8475 110.029 63.91C110.114 64.6486 110.196 66.1381 109.799 66.6965C108.233 66.7458 110.145 65.9907 108.167 66.1606C106.968 66.2636 107.904 66.7383 106.492 66.7021V66.7021ZM87.2126 66.597C86.6257 64.5476 89.8887 63.0432 90.913 64.0761C91.6611 64.8305 90.042 67.4387 87.2126 66.597ZM46.9392 66.6861C47.217 65.8442 48.0015 64.6448 48.4349 63.8701C49.175 63.8133 50.1874 63.6373 50.8183 63.8991C51.3599 64.452 50.8582 65.2148 50.4053 65.6006C49.7508 66.1581 49.0754 65.97 48.1307 66.0403C47.74 66.7281 47.8727 66.7825 46.9392 66.6861ZM93.3885 66.6753C93.5858 66.1642 93.8857 65.6929 94.1724 65.1811C94.4016 64.7717 94.6772 63.8945 95.1655 63.8951C95.9019 63.896 95.7048 64.4251 95.9295 65.2584C96.7092 64.8183 97.1985 63.8578 98.442 63.9358L97.0227 66.7181L96.2228 66.666L96.9161 65.2017C96.4904 65.54 95.9617 66.0766 95.295 66.1322L94.9733 65.1858L94.1793 66.71L93.3885 66.6753V66.6753ZM60.8664 63.8977L63.7701 63.9066C63.6821 64.3915 63.2117 65.1797 62.969 65.6098C62.5196 66.406 62.6373 66.7989 61.5903 66.6469L62.6677 64.5793L61.2467 64.5829C61.0329 65.0787 60.8673 65.348 60.5734 65.8928C60.2373 66.5158 60.2808 66.7839 59.3609 66.6499L60.8664 63.8977V63.8977ZM125.927 66.692C126.145 66.0534 127.057 64.427 127.438 63.8931L128.145 63.9264L127.421 65.4689C128.507 64.9913 129.097 63.9002 130.396 63.8956C130.337 64.404 129.868 65.0832 129.634 65.545C129.205 66.3887 129.389 66.7031 128.232 66.6972L129.013 65.0615C127.791 65.9025 127.04 66.7361 125.927 66.692L125.927 66.692ZM120.937 63.9165L121.686 63.9396L120.972 65.4602C122.004 64.97 122.65 63.8876 123.953 63.8996C123.907 64.4591 123.535 64.8799 123.241 65.4288C122.56 66.6998 122.728 66.7693 121.804 66.656L122.52 65.141C120.959 65.8716 121.027 66.7248 119.447 66.691L120.937 63.9166V63.9165ZM113.02 66.7084C113.23 66.0939 113.602 65.5861 113.879 65.0419C114.288 64.2361 114.192 63.9048 115.213 63.9142L114.782 64.9669L116.229 64.9827C116.642 64.2227 116.527 63.8778 117.568 63.9337L116.137 66.7174L115.326 66.6721L115.797 65.6717C114.52 65.6612 114.512 65.5341 114.162 66.0255C113.64 66.761 114.093 66.7 113.02 66.7085V66.7084ZM100.354 66.7051C100.556 66.1499 101.267 64.8334 101.593 64.291C102.025 63.5717 103.965 63.8386 104.784 63.9319C104.625 64.4614 104.259 65.0373 103.971 65.5572C103.197 66.9563 103.519 66.7208 102.551 66.6805L103.65 64.5925C102.037 64.5712 102.355 64.3856 101.577 65.8411C101.143 66.6532 101.364 66.7142 100.354 66.7051L100.354 66.7051ZM80.6813 66.6949C80.9039 66.0339 81.7971 64.4493 82.1957 63.8934L82.8844 63.918L82.4643 64.9764C83.5505 64.9136 84.2008 63.4967 85.0854 63.9974C84.7366 64.4304 83.929 64.8789 83.3814 65.289L83.7073 66.7029C82.0769 66.7202 83.2434 66.2568 82.3243 65.6627C81.1595 65.9815 82.3366 66.7522 80.6813 66.6948L80.6813 66.6949ZM65.7373 66.7015C65.967 66.1511 66.269 65.6654 66.52 65.1603C67.1637 63.8648 66.7702 63.7256 70.1558 63.9198C70.0309 64.4854 69.6602 64.9654 69.3373 65.5705C68.863 66.4591 69.0778 66.725 67.9594 66.6938L69.0327 64.588L67.6912 64.605C66.4831 66.0203 67.2797 66.7308 65.7373 66.7015V66.7015ZM54.6528 65.9554C54.6391 65.2471 54.3337 64.6215 54.4703 63.9064L55.2443 63.9198L55.4421 65.1302C56.3677 64.7554 56.2882 63.8143 57.6208 63.9217C57.4749 64.3861 56.2942 65.1778 55.8259 65.6431C55.4899 65.9769 54.4541 67.0486 53.559 66.7055C53.9465 65.6507 53.682 66.3255 54.6528 65.9554V65.9554ZM41.1902 66.7084C41.408 66.1392 41.72 65.6006 41.9804 65.1144C42.813 63.5595 42.5073 63.8851 45.2291 63.9262L44.9783 64.5463L43.0566 64.5836C42.8751 65.0669 42.6323 65.4016 42.369 65.9111C41.972 66.6792 42.2168 66.7029 41.1903 66.7084L41.1902 66.7084ZM138.166 61.6787L137.572 61.6515L37.5291 61.6497L36.9168 61.6855L33.4863 68.3009L34.0949 68.3078L134.137 68.3089L134.732 68.2854L138.166 61.6787L138.166 61.6787Z" fill="#9D9D9D"/>
<path fill-rule="evenodd" clip-rule="evenodd" d="M78.0361 16.535C78.3692 16.7981 81.7718 18.4037 83.5939 19.6021C84.1452 19.9648 84.7818 20.5199 85.312 20.8025C86.5719 20.4091 88.1954 19.5536 89.5633 19.0317C91.0777 18.4538 92.5066 17.9596 94.0587 17.4739C97.2429 16.4776 100.553 15.764 103.986 15.2754C111.302 14.234 119.267 14.5687 126.016 16.5846C137.43 19.9939 145.054 27.6532 145.597 38.7656C145.694 40.7534 145.295 42.7574 145.372 44.4708L147.682 44.9192C149.537 35.7697 148.508 29.2589 143.639 23.0029C134.43 11.1693 115.791 8.14226 100.3 10.1931C96.1514 10.7423 92.2586 11.583 88.4329 12.6868C86.2175 13.326 79.4753 15.5058 78.0361 16.535V16.535Z" fill="#9D9D9D"/>
<path fill-rule="evenodd" clip-rule="evenodd" d="M79.888 60.4253L88.4467 60.4273C89.0657 60.1449 90.4833 57.0493 90.94 56.2494C91.414 55.4191 92.7744 52.5222 93.3742 51.9097L96.968 56.1476C98.191 57.621 99.4221 59.0011 100.497 60.4238L109.052 60.4274C109.457 60.3342 112.581 54.3524 112.958 53.6141C113.663 52.2311 116.459 47.6444 116.656 46.644L107.709 46.6376L103.144 54.9223C102.494 54.4578 100.145 51.5709 99.4584 50.7797C98.2711 49.4104 96.9741 47.9901 95.9077 46.6385L87.5508 46.6361C87.0078 46.8601 85.8813 49.3212 85.536 49.9561L81.7582 56.8986C81.2689 57.7893 80.1493 59.5353 79.8879 60.4254L79.888 60.4253Z" fill="#9D9D9D"/>
<path fill-rule="evenodd" clip-rule="evenodd" d="M37.4155 60.3756L46.3858 60.4286L52.1231 49.854C53.4129 49.6991 55.5872 49.8198 56.9413 49.8198C58.1528 49.8198 60.6412 49.5442 61.4337 50.1717C61.8009 50.651 61.4081 52.3726 58.2856 52.3639C56.5715 52.3592 54.186 52.2329 52.5498 52.3936L58.1483 60.3991L67.2287 60.3987C66.9887 59.797 65.7614 58.3494 65.2901 57.7376C64.5854 56.8229 63.8536 55.9847 63.3024 55.1047C65.519 54.8446 65.8995 55.2335 67.9348 54.251C70.2928 53.1128 73.0947 50.0005 71.8246 47.7952C71.069 46.4832 69.1645 46.6357 67.3934 46.6357C63.6605 46.636 59.9276 46.6357 56.1946 46.6357C52.6406 46.6358 48.3614 46.4303 44.8963 46.6601L37.4155 60.3756V60.3756Z" fill="#9D9D9D"/>
<path fill-rule="evenodd" clip-rule="evenodd" d="M29.2453 64.3633C29.354 63.4683 30.2035 61.0784 30.5078 60.0008C30.8168 58.9065 31.3016 56.1381 31.9401 55.5271C32.9069 55.1392 33.2835 55.5672 34.2855 54.7739C34.6453 54.4891 35.5534 53.5726 35.5648 52.9278C33.7598 52.4296 30.7071 53.5772 30.8188 51.3216C30.8981 49.7189 31.7624 47.7709 32.4468 46.6021C36.8715 39.0455 48.4292 32.8897 57.5401 32.9423C56.8355 34.6359 54.0517 35.9648 52.3203 36.9224C51.7044 37.2631 51.8049 37.1124 51.657 37.6824C55.4065 38.2902 61.6228 36.2718 64.398 34.2006C65.0139 33.7409 64.9424 33.58 65.452 32.9727C83.7834 32.1798 85.2136 36.8955 88.4204 37.3107C88.2796 36.7347 87.3219 36.2084 86.7529 35.8254C81.3321 32.1769 77.8375 30.4067 70.6052 29.1731C59.1226 27.2144 47.6271 29.0362 38.8271 35.5888C36.7641 37.1249 34.1906 39.8242 32.7782 42.4975C30.2571 47.2695 29.8266 52.8471 29.5441 58.309C29.4628 59.8815 29.0919 62.9843 29.2453 64.3633H29.2453Z" fill="#9D9D9D"/>
<path fill-rule="evenodd" clip-rule="evenodd" d="M144.294 52.3365L131.765 52.3344L130.15 55.2922L134.922 55.3236C134.791 55.7768 134.212 56.8754 133.859 57.2055C133.132 57.6304 120.975 58.2554 124.328 53.2111C126.886 49.362 136.051 49.2447 140.842 49.8873C142.286 50.0809 143.96 50.6132 145.187 50.7284C145.621 50.1324 146.733 48.2368 146.834 47.6075C145.136 46.9087 139.399 46.6344 137.273 46.6087C131.53 46.539 124.288 47.1917 119.382 49.9121C113.43 53.2125 112.809 58.4062 121.161 60.0218C125.97 60.9522 133.433 60.2606 138.595 59.6707C139.268 59.5938 140.287 59.654 140.685 59.1249C141.004 58.7024 144.17 52.7662 144.294 52.3365V52.3365Z" fill="#9D9D9D"/>
<path fill-rule="evenodd" clip-rule="evenodd" d="M68.5618 60.4154L77.248 60.428C77.6885 60.3303 80.7319 54.3848 81.1513 53.6174C81.8003 52.4302 84.6934 47.4858 84.8542 46.6368L76.0534 46.6384C75.5631 47.2435 74.6038 49.203 74.1935 49.9643C73.5515 51.1556 72.9689 52.2513 72.3019 53.4349C71.6598 54.5744 71.0906 55.7235 70.4182 56.9066C69.9341 57.7585 68.8466 59.5684 68.5618 60.4154H68.5618Z" fill="#9D9D9D"/>
<path fill-rule="evenodd" clip-rule="evenodd" d="M90.1513 64.6542C88.5832 64.0061 87.7194 65.603 88.1425 65.9816C88.8096 66.5783 90.2307 65.7363 90.1513 64.6542Z" fill="#9D9D9D"/>
</g>
</svg>
