<svg width="176" height="80" viewBox="0 0 176 80" fill="none" xmlns="http://www.w3.org/2000/svg">
<rect width="176" height="80" fill="white"/>
<path d="M108.892 59.4915V65.6341H103.871L108.892 59.4915L106.926 59.4932L98.1963 70.1628L100.177 70.1524L103.379 66.2361H108.892V66.8547L108.862 70.4387L114.239 70.4593V59.4915H108.892Z" fill="#9D9D9D"/>
<path d="M114.24 70.46L114.252 70.4598L114.24 70.4597V70.46Z" fill="#9D9D9D"/>
<path d="M95.6564 64.1198C95.2705 63.9288 94.3369 63.7398 93.9047 63.6103C95.0224 63.3345 95.126 62.5065 95.1606 62.1243L95.1952 61.19C95.0915 60.4893 94.7458 60.1498 94.3653 59.8738C93.6682 59.3429 92.1356 59.3221 92.1356 59.3221L88.4537 59.3112L81.6431 59.3088V59.9296H81.6892V59.9306H82.5038V69.8095H81.6892V70.3756H92.199H92.2336C94.7952 70.3405 97.2175 68.9448 97.2175 67.3701V66.1663C97.1312 65.4217 96.7129 64.6445 95.6563 64.1197L95.6564 64.1198ZM87.8509 59.9306H90.5359C91.375 60.0271 91.8345 60.447 91.8345 61.0284V62.1954C91.8345 62.1954 91.9801 63.2388 90.8161 63.2707C90.738 63.2732 90.6638 63.2758 90.5914 63.2777H90.5304C90.24 63.2777 89.8763 63.2854 89.4772 63.303C88.8456 63.3106 88.4444 63.3022 87.8508 63.2998V59.9306H87.8509ZM93.1711 68.5735C93.1711 69.2383 92.5702 69.6924 91.4877 69.6924H88.7903L87.8546 69.6819L87.8312 63.9288H91.738C92.8205 63.9288 93.171 64.2982 93.171 64.963V68.5735H93.1711Z" fill="#9D9D9D"/>
<path d="M137.604 68.3734C137.604 68.3734 137.407 68.2907 137.212 68.3061C136.975 68.3243 136.714 68.3995 136.482 68.7702C136.482 68.7702 136.352 69.2492 135.714 69.5146C134.977 69.8208 134.585 69.5423 134.585 69.5423C133.663 69.3197 133.156 68.4554 132.741 66.8117C132.454 65.6769 132.28 65.5577 132.28 65.5577C131.771 64.3274 130.688 64.2429 129.278 63.9576C129.742 63.9071 130.691 63.8288 130.987 63.7184C132.062 63.3176 132.637 62.743 132.672 62.3668L132.693 61.336C132.589 60.6464 131.829 60.3119 131.448 60.0403C130.751 59.5176 128.804 59.4968 128.804 59.4968L125.121 59.4866L118.311 59.4839V60.0951H118.357V60.0959H119.172V69.8505L118.311 69.849V70.4064L124.513 70.42V70.1975L124.522 70.1969L124.499 64.0319H126.983L127.163 64.0526C128.546 64.387 128.598 66.3093 128.598 66.3093C128.598 66.3093 128.829 68.3697 129.328 68.966C129.328 68.966 130.273 70.4112 132.637 70.5086C132.637 70.5086 134.101 70.615 134.884 70.4896C134.884 70.4896 136.429 70.3364 137.42 69.3053C137.42 69.3053 137.788 68.957 137.77 68.5952C137.767 68.5281 137.709 68.4355 137.604 68.3734V68.3734ZM127.484 63.3839C127.406 63.3865 127.332 63.3889 127.259 63.3911H127.198C126.908 63.3911 126.544 63.3984 126.145 63.4158C125.514 63.4233 125.112 63.4151 124.519 63.4129V60.0958H127.204C128.043 60.1909 128.502 60.6043 128.502 61.1767V62.3252C128.502 62.3252 128.648 63.3526 127.484 63.3839V63.3839Z" fill="#9D9D9D"/>
<path d="M51.0713 48.1455L59.8954 44.4654V25.5449C60.3294 25.5313 60.7119 25.5622 61.0092 25.6568L62.6369 22.7947C62.6369 22.7947 61.6656 22.2674 59.8954 21.9318V9.38316C59.8954 9.38316 59.9453 9.27453 62.2085 10.2827C66.0638 12 69.0622 12.6542 69.0622 12.6542C75.5733 14.4534 79.0858 11.4276 79.0858 11.4276C79.0858 11.4276 81.6559 9.46493 82.5984 7.58405C83.0614 6.65957 82.0843 7.01158 82.0843 7.01158C82.0843 7.01158 80.8692 7.58735 77.8008 8.23832C72.4034 9.38318 66.1494 7.01158 66.1494 7.01158C56.7256 4.06757 53.1274 4.91255 53.1274 4.91255C45.4169 5.78496 44.7316 9.92847 44.7316 9.92847C44.6745 10.9097 45.3028 10.2556 45.3028 10.2556L46.5307 9.21956C48.8438 7.17516 51.0713 7.66581 51.0713 7.66581V22.5718C49.7607 22.9695 48.3582 23.5199 46.8734 24.2667C46.8734 24.2667 40.9621 27.3741 38.3348 24.7573C38.3348 24.7573 36.8499 22.6857 39.5056 21.568C39.5056 21.568 40.391 21.1044 42.1615 21.6498C42.1615 21.6498 42.4471 20.8866 40.2767 20.7502C40.2767 20.7502 38.9849 20.7599 37.8208 21.3772C36.7928 21.9223 36.0985 22.9379 36.0502 24.1577C36.0502 24.1577 35.4791 28.3555 42.3327 29.4186C42.3327 29.4186 47.5745 30.3655 51.0713 28.6733V48.1455H51.0713Z" fill="#9D9D9D"/>
<path d="M66.9055 32.6618H73.531V22.8485H66.9055V32.6618Z" fill="#9D9D9D"/>
<path d="M97.0612 22.8485H90.436V32.6618H97.0612V22.8485Z" fill="#9D9D9D"/>
<path d="M76.6438 26.3111C76.6466 26.3648 76.6511 26.4166 76.6548 26.4693L75.3159 27.3333L75.7014 28.3964L76.8332 27.7285C77.0254 28.6171 77.2863 29.1733 77.2863 29.1733C78.3145 32.1173 80.799 32.6488 80.799 32.6488C85.2966 33.8754 87.3956 30.6862 87.3956 30.6862C88.9804 27.9466 87.824 27.088 87.824 27.088C87.31 26.5565 86.4532 27.0062 86.4532 27.0062C85.4252 27.8648 86.3247 29.3368 86.3247 29.3368C86.5817 29.6231 86.3247 30.1137 86.3247 30.1137C85.1253 31.7902 83.1978 31.5857 83.1978 31.5857C80.8417 31.1768 80.4134 28.6417 80.4134 28.6417C80.1316 27.818 79.9812 26.8782 79.9228 25.8947C88.6151 20.0903 90.0514 16.9476 90.0514 16.9476C94.6347 9.99646 90.4368 8.72893 90.4368 8.72893C86.8387 7.33871 82.855 10.8552 82.855 10.8552C74.8308 18.1604 76.6438 26.3111 76.6438 26.3111V26.3111ZM84.1401 11.3867C84.1401 11.3867 85.6611 9.81694 86.9243 9.50583C88.2522 9.17871 88.5093 10.0373 88.5093 10.0373C89.2374 13.2676 86.9673 17.4383 86.496 18.1333C86.0249 18.8284 83.7118 21.1592 83.7118 21.1592L79.9023 24.2978C79.9628 22.1859 80.3362 20.0486 80.6703 18.5422C80.8926 17.5404 81.3986 16.1707 81.3986 16.1707C82.9835 12.3272 84.1401 11.3867 84.1401 11.3867V11.3867Z" fill="#9D9D9D"/>
<path d="M72.1603 20.1774C72.1603 19.154 71.291 18.3241 70.2183 18.3241C69.1458 18.3241 68.2764 19.154 68.2764 20.1774C68.2764 21.2013 69.1458 22.0312 70.2183 22.0312C71.291 22.0312 72.1603 21.2013 72.1603 20.1774Z" fill="#9D9D9D"/>
<path d="M93.7491 22.0312C94.8215 22.0312 95.6909 21.2013 95.6909 20.1774C95.6909 19.154 94.8215 18.3241 93.7491 18.3241C92.6766 18.3241 91.8071 19.154 91.8071 20.1774C91.8071 21.2013 92.6766 22.0312 93.7491 22.0312Z" fill="#9D9D9D"/>
<path d="M100.832 20.3003C100.832 20.3003 101.232 20.5728 101.703 19.796C101.703 19.796 102.098 19.3321 102.545 19.4417C103.036 19.5622 102.949 20.2212 102.959 20.7226H102.945V32.662H109.57V22.4689C109.939 21.8921 111.127 20.3257 113.44 19.796C113.44 19.796 114.839 19.3871 115.039 20.532V27.3195C115.039 27.3195 114.468 31.899 118.894 32.7167C118.894 32.7167 120.008 32.9895 121.065 32.4989C121.065 32.4989 122.778 31.8445 123.949 30.1816C123.949 30.1816 124.42 29.6241 124.321 29.0641C124.298 28.9346 124.249 28.7506 124.12 28.6279C124.12 28.6279 123.877 28.4643 123.635 28.4919C123.342 28.5247 123.017 28.6688 122.721 29.3913C122.721 29.3913 122.036 31.0541 120.608 30.4544C120.608 30.4544 119.608 30.2909 119.808 28.3283L120.293 22.2493C120.293 22.2493 120.75 18.5966 117.409 18.1604C117.409 18.1604 114.868 17.6697 110.984 19.9052L109.562 20.6713L109.556 20.2048C109.213 18.6511 107.514 18.0106 107.514 18.0106C105.458 17.1928 103.773 17.6698 103.773 17.6698C101.46 18.2014 100.875 19.4417 100.875 19.4417C100.875 19.4417 100.446 20.0141 100.832 20.3004L100.832 20.3003Z" fill="#9D9D9D"/>
<path d="M79.2566 52.535V38.0466H76.0625C75.1966 37.5959 74.2086 37.3378 73.1746 37.3378H71.2317C68.0127 37.3378 65.0606 39.8286 65.0606 42.9011V45.2193C65.0606 48.2919 68.0128 50.7827 71.2317 50.7827H73.1746C73.7349 50.7827 74.2813 50.7057 74.8028 50.5648C74.7962 51.1151 74.7823 51.7823 74.7551 52.535C71.7864 52.535 69.8397 52.535 69.3903 52.535C66.4774 52.535 64.0928 52.562 64.0928 52.562C57.9245 53.2163 54.7546 55.3425 52.4415 58.2864C51.2414 59.814 50.6424 61.3122 50.2997 63.1113C49.9212 65.0987 50.111 66.3761 50.5567 67.9361C51.0708 69.7353 52.4826 71.2908 53.2982 71.8614C54.5833 72.761 56.8997 73.6243 58.0958 73.7423C63.0648 74.2329 65.892 73.497 68.3764 72.5157C72.6282 70.8365 76.0013 67.609 77.686 61.6667C78.4446 58.9915 78.8961 56.0237 79.1086 54.3886H138.042V52.535C138.042 52.535 98.312 52.535 79.2566 52.535H79.2566ZM74.5305 56.2968C74.1878 60.3312 73.4478 63.6342 72.403 65.7282C70.6895 69.1628 70.0042 70.2259 67.434 71.3708C65.872 72.0668 64.5008 72.0026 63.4075 72.1068C59.124 72.5157 57.3536 69.5173 57.3536 69.5173C56.0972 67.9908 56.0783 65.7025 55.9829 64.9378C55.4118 60.3583 59.8667 56.7602 59.8667 56.7602C63.6363 53.9251 68.6478 54.3886 68.6478 54.3886H74.6672C74.6312 54.9987 74.5865 55.6381 74.5306 56.2967L74.5305 56.2968ZM75.0178 43.0047L74.9302 46.4288L74.8203 48.5641C74.5172 49.2616 73.8716 49.692 72.9316 49.692H71.4745C70.1333 49.692 69.3888 48.8178 69.3888 47.5373V40.5832C69.3888 39.3028 70.1332 38.4284 71.4745 38.4284H72.9316C74.273 38.4284 75.0178 39.3028 75.0178 40.5832V43.0048V43.0047Z" fill="#9D9D9D"/>
<path d="M106.01 50.7827H107.953C111.172 50.7827 114.124 48.2919 114.124 45.2194V42.9011C114.124 39.8286 111.172 37.3378 107.953 37.3378H106.01C102.791 37.3378 99.8389 39.8286 99.8389 42.9011V45.2194C99.8389 48.2919 102.791 50.7827 106.01 50.7827ZM104.167 40.5831C104.167 39.3027 104.912 38.4283 106.253 38.4283H107.71C109.051 38.4283 109.796 39.3027 109.796 40.5831V47.5373C109.796 48.8177 109.051 49.6919 107.71 49.6919H106.253C104.912 49.6919 104.167 48.8177 104.167 47.5373V40.5831Z" fill="#9D9D9D"/>
<path d="M122.344 37.3366C119.126 37.3366 116.173 39.8274 116.173 42.8999V45.2182C116.173 48.2907 119.126 50.7816 122.344 50.7816H124.287C125.66 50.7816 126.952 50.3274 127.984 49.5694C128.555 50.2769 129.469 50.9843 130.874 51.0888C130.874 51.0888 132.402 51.4159 134.358 50.8435C134.358 50.8435 136.072 50.1893 137.242 48.5268C137.242 48.5268 137.713 47.969 137.615 47.4088C137.592 47.2796 137.542 47.0956 137.414 46.973C137.414 46.973 137.171 46.8094 136.928 46.8364C136.635 46.8695 136.31 47.0139 136.014 47.736C136.014 47.736 135.329 49.3991 133.901 48.7991C133.901 48.7991 132.887 48.7582 132.973 46.632L132.959 46.6324V22.1124H126.333V37.6818C125.69 37.4588 124.999 37.3365 124.287 37.3365H122.344V37.3366ZM126.13 40.5819V47.5361C126.13 48.8165 125.386 49.6908 124.044 49.6908H122.587C121.246 49.6908 120.501 48.8165 120.501 47.5361V40.5819C120.501 39.3015 121.246 38.4272 122.587 38.4272H124.044C125.386 38.4272 126.13 39.3016 126.13 40.5819Z" fill="#9D9D9D"/>
<path d="M88.88 37.3378C85.6611 37.3378 82.709 39.8286 82.709 42.9011V45.2194C82.709 48.2919 85.6611 50.7827 88.88 50.7827H90.8229C94.0417 50.7827 96.994 48.2919 96.994 45.2194V42.9011C96.994 39.8286 94.0417 37.3378 90.8229 37.3378H88.88ZM92.666 40.5831V47.5373C92.666 48.8177 91.9213 49.692 90.58 49.692H89.1229C87.7816 49.692 87.0371 48.8177 87.0371 47.5373V40.5831C87.0371 39.3027 87.7816 38.4284 89.1229 38.4284H90.58C91.9213 38.4284 92.666 39.3028 92.666 40.5831Z" fill="#9D9D9D"/>
</svg>
