<svg width="176" height="80" viewBox="0 0 176 80" fill="none" xmlns="http://www.w3.org/2000/svg">
<rect width="176" height="80" fill="white"/>
<path fill-rule="evenodd" clip-rule="evenodd" d="M82.8238 48.742C82.6574 48.4496 82.8129 48.2885 82.9538 47.9837C84.2129 45.2605 85.472 42.3121 86.7488 39.6445C86.9423 39.2403 86.8108 39.2556 86.6092 38.9123C85.1325 36.3979 83.5399 33.8736 82.0284 31.326L78.7112 25.7914L80.2108 25.7921L87.2837 37.4903C87.4432 37.7581 87.5687 38.1386 87.9251 38.0738C88.2093 38.0222 88.7871 36.8756 88.9576 36.5954L95.0769 26.4152C95.2341 26.1594 95.3809 25.8729 95.5482 25.6339L97.0994 25.634L95.3753 28.5276C94.1948 30.4256 93.0239 32.4764 91.8439 34.3777C91.2414 35.3485 90.655 36.3194 90.0772 37.3013L83.4714 48.25C83.2775 48.5795 83.2485 48.8534 82.8238 48.742H82.8238ZM46.8408 80L127.853 79.9888L127.832 79.0038L46.8454 79.0077L46.8408 80V80ZM115.034 61.6885C115.851 61.6885 116.683 61.5955 116.683 62.4434V74.1849C116.683 75.1496 115.588 74.8116 115.236 74.9395L115.237 76.0692L127.835 76.0876L127.848 71.3943L125.236 71.3816C125.236 72.5368 125.569 74.9026 124.134 74.9026H122.272C121.845 74.9026 121.514 74.5993 121.514 74.1849L121.515 62.4434C121.516 62.0651 121.73 61.848 122.009 61.7336C122.255 61.6325 122.847 61.7151 123.169 61.6721V60.52C122.687 60.4679 116.092 60.5033 115.033 60.5038L115.034 61.6885V61.6885ZM126.166 64.9105L126.17 65.0956L128.524 65.0952C128.559 63.4939 128.215 61.993 129.736 61.732C130.175 61.6567 130.496 61.6041 130.496 62.0779L130.496 74.1849C130.496 75.0067 129.629 74.8955 128.852 74.9041L128.856 76.0869L136.957 76.0874L136.973 74.9147C136.483 74.8874 135.328 75.1256 135.328 74.1849V62.0779C135.328 61.8184 135.355 61.7097 135.637 61.6919C136.214 61.6554 136.864 61.8743 137.109 62.4544C137.395 63.1285 137.274 64.3064 137.301 65.0956L139.654 65.0953L139.658 60.5069L126.17 60.5037L126.166 64.9105H126.166ZM98.786 61.6808C99.6907 61.7344 100.435 61.4256 100.432 62.7629L100.432 70.9869C100.432 72.7413 100.231 73.9168 101.877 75.1067C104.892 77.2872 112.24 76.79 112.241 72.3575L112.242 62.4434C112.242 61.5374 113.252 61.6885 113.882 61.6885V60.5037H108.925L108.926 61.6885C109.214 61.6885 109.89 61.6418 110.11 61.7451C110.359 61.8631 110.57 62.1231 110.57 62.4891L110.569 72.3575C110.568 75.4206 105.258 75.6062 105.258 72.3118V62.4434C105.258 61.4685 106.431 61.7014 106.898 61.6833V60.5089L98.786 60.5039V61.6808L98.786 61.6808ZM91.6682 69.0255C91.4554 69.2234 89.5383 69.1026 89.0889 69.1057C88.3988 69.1105 88.4673 69.0662 88.6373 68.4972L89.9739 64.0193C90.0314 63.8254 90.0396 63.705 90.1425 63.5718C90.3386 64.4388 90.7026 65.4416 90.9585 66.3218L91.5615 68.3477C91.6234 68.5577 91.769 68.8851 91.6682 69.0256L91.6682 69.0255ZM87.004 61.6885C87.6053 61.6885 88.8021 61.532 88.7337 62.5358C88.7161 62.7955 87.0582 67.7613 86.8898 68.2886C86.4843 69.5579 86.0825 70.8163 85.6651 72.0966C85.5302 72.5102 84.9509 74.6673 84.6243 74.8475C84.3561 74.9955 83.7271 74.8552 83.3816 74.9321L83.3835 76.0742L88.3429 76.0872L88.3433 74.9425C87.8845 74.7833 87.0946 75.128 86.9166 74.6171C86.8401 74.3977 87.1532 73.4937 87.2296 73.2295C87.3252 72.899 87.9013 70.6446 88.0877 70.5614C88.3852 70.4844 90.3725 70.5403 90.856 70.5403C92.4526 70.5403 92.1169 70.2993 92.5148 71.639C92.7246 72.3456 92.9207 73.0502 93.1209 73.7527C93.2246 74.1168 93.4527 74.53 93.1497 74.7817C92.8882 74.9988 92.2345 74.9018 91.8581 74.9108L91.8526 76.0868L99.991 76.0871L100 74.9341C98.3897 74.5399 99.0095 76.0712 97.7526 72.1093L95.388 64.4132C95.153 63.6716 94.3304 61.1061 94.1989 60.5126L87.0065 60.5037L87.0039 61.6885L87.004 61.6885ZM53.6838 61.6885C54.2026 61.6885 55.3313 61.5042 55.3313 62.4434V74.2306C55.3313 74.4742 55.2611 74.5851 55.1181 74.7095C54.7919 74.9931 54.3378 74.9026 53.6983 74.9026L53.7153 76.0881L67.2069 76.0876C67.2557 75.7094 67.2337 72.0559 67.2213 71.3986L64.6165 71.4003C64.5891 72.5646 64.9492 74.9026 63.5457 74.9026H60.8691C60.4797 74.9026 60.1692 74.5765 60.1692 74.1849V69.1594C60.1692 68.5333 60.6508 68.6353 61.3021 68.6353C62.2739 68.6353 62.0755 69.7124 62.0755 70.2566L64.483 70.2524L64.4817 65.5771L62.1417 65.566C62.1108 65.8924 62.1941 66.4465 62.0838 66.7091C61.8357 67.2994 61.2406 67.2204 60.7765 67.2204C60.3258 67.2204 60.1698 67.042 60.1698 66.601V62.3064C60.1698 61.8829 60.5308 61.6885 60.9675 61.6885H63.4503C64.6054 61.6885 64.1606 62.9107 64.2562 64.4981H66.6611L66.6756 60.5038H53.6864L53.6838 61.6886L53.6838 61.6885ZM68.3397 61.6885C69.1559 61.6885 69.988 61.5962 69.988 62.4434V74.1849C69.988 75.029 69.1583 74.8985 68.3557 74.9033L68.36 76.0873L73.6846 76.0869L73.6947 74.9295C73.2408 74.8191 72.0562 75.2007 72.0561 74.1849L72.0618 66.5225L77.4493 76.088L82.1931 76.0848C82.2531 75.6444 82.2076 65.1237 82.2076 64.1338C82.2076 63.8026 82.1679 62.3528 82.2388 62.1462C82.4306 61.5878 83.16 61.7034 83.8397 61.6848V60.5075L78.5013 60.5163L78.5018 61.6719C78.8267 61.7164 79.3733 61.6394 79.6308 61.7186C79.9158 61.8062 80.1397 62.0323 80.1397 62.3977L80.1384 70.3353C79.9959 70.1996 78.8804 68.2487 78.6921 67.9149C77.7382 66.2241 76.753 64.6627 75.7905 62.9708C75.6983 62.8086 74.4396 60.5429 74.2884 60.5038L68.3382 60.5037L68.3397 61.6885L68.3397 61.6885ZM42.5184 61.6884C43.066 61.6884 43.6138 61.6868 44.1614 61.6876C44.8152 61.6885 45.0108 61.8394 45.3304 62.1468C46.2557 63.0366 46.3509 65.8381 45.3091 66.923C44.7408 67.5147 43.5534 67.3328 42.5187 67.3328L42.5184 61.6884ZM36.0386 61.6853C36.6232 61.6986 37.3602 61.5244 37.6361 62.1546C37.7519 62.4192 37.6867 71.3656 37.6867 72.3575C37.6867 72.8047 37.7476 74.0558 37.6737 74.4111C37.5318 75.0946 36.4908 74.8678 36.0555 74.9161L36.0581 76.0808L44.1422 76.0876L44.1595 74.9079C43.8861 74.8968 43.2094 74.9347 43.0102 74.8731C42.4106 74.6878 42.5192 74.091 42.5199 73.591C42.5212 72.5973 42.4787 69.2762 42.5375 68.533C43.66 68.5306 43.5755 68.8186 44.1082 69.9871L46.7072 75.6322C46.78 75.7909 46.8444 76.0876 47.0259 76.0876C48.7515 76.0876 50.865 76.1211 52.5434 76.0838L52.5592 74.9133C51.6608 74.8377 51.8908 74.8949 51.1193 73.6035C50.7653 73.0109 50.4334 72.434 50.082 71.8549L48.5433 69.2611C48.3735 68.9666 48.1712 68.6774 48.0436 68.3944C50.1207 68.2194 51.0336 67.0077 51.1701 65.0891C51.3116 63.0999 50.4609 61.3438 49.0528 60.7782C48.1209 60.4038 47.0914 60.5037 46.0233 60.5037C42.7991 60.5037 39.1702 60.4354 36.0386 60.5069V61.6852V61.6853ZM87.8481 36.9931C87.7 36.8277 87.5108 36.4684 87.3828 36.2527C87.2369 36.0071 87.0832 35.7691 86.9429 35.5321L84.3142 31.1938C84.1374 30.895 80.8037 25.5669 80.8416 25.3597L86.0969 16.6338C86.4612 16.0473 87.5592 14.1376 87.8481 13.7592C87.9833 13.8654 89.4044 16.2891 89.6224 16.6579C90.2097 17.6511 90.7708 18.5779 91.3686 19.5557C91.7157 20.1236 94.8443 25.2746 94.8336 25.3805L89.6067 34.1096C89.3923 34.4658 87.9875 36.8812 87.8481 36.9931H87.8481ZM67.802 25.0829C67.8942 24.6746 68.5068 23.7939 68.731 23.4091C69.0472 22.8666 69.3609 22.3472 69.6901 21.8136C71.6398 18.6537 73.5525 15.3459 75.497 12.1566L81.304 2.49962C81.6254 1.96494 81.9434 1.43662 82.2591 0.899997C82.3841 0.687554 82.4089 0.717732 82.7374 0.720154L84.6969 0.717025C87.3773 0.717025 90.7002 0.662975 93.3018 0.720761C93.6883 1.45456 94.6388 2.93752 95.1285 3.75911C95.7251 4.75996 96.3497 5.77034 96.9458 6.77177C98.1576 8.80756 99.379 10.799 100.602 12.8215C101.817 14.8306 103.011 16.873 104.255 18.8745C104.88 19.8797 105.45 20.8704 106.075 21.8843C106.318 22.2774 107.809 24.6911 107.865 24.9279H97.0629C96.8902 24.8536 96.3104 23.7916 96.165 23.5554C94.1923 20.3507 92.24 17.0298 90.2763 13.7937C89.9956 13.3313 89.6995 12.8452 89.4217 12.3722C88.7624 11.2501 88.7299 11.511 88.9882 10.9485L91.8035 4.82506C92.0366 4.31489 92.2668 3.80991 92.5055 3.30326C92.6296 3.03995 92.7351 2.79523 92.857 2.5436C93.0101 2.2276 93.1083 1.9555 92.609 1.96055C92.3566 2.21677 91.9188 3.02362 91.7147 3.36973C90.6984 5.09337 78.7259 24.7535 78.5973 25.087L67.8021 25.0829L67.802 25.0829ZM82.2262 0.0715451C81.7638 0.208337 81.7164 0.398601 81.5008 0.768604L79.8798 3.46657C79.1569 4.66808 78.4278 5.85019 77.7161 7.06121C75.6277 10.6148 73.3704 14.2861 71.2283 17.8489L67.9847 23.2429C67.6701 23.7509 67.1481 24.4963 67.026 25.1586C66.8983 25.8506 67.5055 26.6784 67.8048 27.164C68.182 27.776 68.529 28.3595 68.8897 28.9585L79.7087 46.8856C79.9805 47.3402 81.7222 50.2974 81.9017 50.4526C82.347 50.8376 83.8582 50.6917 84.6015 50.6917C85.6257 50.6917 93.1173 50.7438 93.4473 50.6681C94.0171 50.5374 94.3067 49.7778 94.7249 49.1044C95.093 48.5118 95.4353 47.9142 95.8073 47.3072C96.5381 46.1146 97.2685 44.9164 97.9731 43.7148C99.3854 41.3063 100.877 38.9525 102.304 36.5279C104.248 33.2236 106.298 29.9371 108.259 26.6475C108.529 26.1961 108.567 26.1936 108.611 25.5726C108.685 24.5175 108.337 24.2507 107.904 23.5152C107.551 22.9156 107.189 22.3137 106.82 21.7195C104.675 18.2654 102.439 14.5003 100.333 10.9772C99.6087 9.76543 98.8708 8.5916 98.1634 7.38858C97.4592 6.19099 96.733 4.98633 95.9946 3.79873C95.6709 3.2781 94.0271 0.447681 93.8003 0.233194C93.4987 -0.0519477 93.0094 0.0222899 92.5271 0.0222899C90.774 0.0223404 82.6453 -0.0524039 82.2263 0.0715697L82.2262 0.0715451Z" fill="#9D9D9D"/>
</svg>
