<svg width="176" height="80" viewBox="0 0 176 80" fill="none" xmlns="http://www.w3.org/2000/svg">
<rect width="176" height="80" fill="white"/>
<path fill-rule="evenodd" clip-rule="evenodd" d="M47.2283 23.1581C46.0553 23.4449 44.944 23.2216 43.9365 22.3887C42.9294 21.5549 42.1908 20.657 42.7284 18.5416C43.2649 16.4251 40.5112 14.6299 39.7051 18.2203C38.899 21.8122 41.1163 23.0298 42.5264 23.9276C43.9365 24.8249 44.5415 26.1075 42.5264 26.1075C40.5112 26.1075 38.2563 25.8192 36.6441 23.286C34.4865 19.897 36.0102 15.9125 37.3534 14.2452C38.697 12.5779 40.3102 10.9112 43.1304 9.88545C45.9516 8.85923 45.7632 7.85489 45.0785 6.74378C44.4766 5.76547 41.9223 6.61482 39.638 8.02632C37.3533 9.43673 33.7496 11.9379 32.6886 15.9904C31.412 20.8633 33.1879 23.5953 34.0626 24.7615C35.1267 26.1804 36.6206 28.0596 40.2422 29.1852C43.3262 30.1435 43.803 29.8902 42.7949 31.1732C41.7877 32.4558 40.0244 34.819 41.9888 35.0193C43.1141 35.1357 44.3405 32.9684 44.944 32.7755C45.0157 32.753 45.0943 32.7276 45.1769 32.7041C45.5475 33.2427 46.0056 33.7058 46.5206 34.0186C46.5347 34.2739 46.5059 34.5717 46.5059 34.9244C46.5059 36.238 45.2958 36.748 44.1176 36.4748C42.4819 36.094 41.0032 35.9817 37.5554 37.0074C34.5064 37.9142 34.3024 38.2126 33.7653 37.3782C33.2267 36.5453 32.0636 34.5073 32.4678 33.3521C32.5049 33.2437 32.5138 33.1623 32.4991 33.1028C32.8472 32.7715 32.832 32.4208 32.3243 32.2844C32.3243 32.2844 32.7138 32.105 33.0017 31.1652C33.2891 30.2254 33.1168 30.1135 33.379 29.9242C33.6407 29.7348 34.8273 29.458 35.5434 29.0937C36.26 28.7305 36.1239 27.4489 34.7928 27.7527C33.4612 28.056 32.5641 28.726 32.4144 28.665C32.2646 28.6041 31.6208 27.8142 31.4508 27.7013C31.2795 27.5894 30.4709 26.3527 30.138 25.7098C29.8062 25.0677 29.4282 24.004 28.6593 24.5352C27.8894 25.0677 27.9978 25.4704 28.4474 26.2459C28.898 27.0213 29.3696 27.9966 29.1048 27.9201C28.8414 27.8432 28.7033 27.6584 28.0255 27.0988C27.4502 26.6246 26.629 24.9188 25.6711 25.3225C25.0692 25.5764 25.0016 26.5436 25.9762 27.455C26.8896 28.3108 27.5648 29.1617 27.5962 29.2387C27.6287 29.315 26.7839 29.0778 26.6232 28.9903C26.463 28.9029 25.3141 28.0251 24.8336 28.061C24.352 28.097 23.8501 28.9018 25.0367 29.7333C25.9066 30.3433 26.4997 30.7101 27.1948 30.9943C27.4952 31.1163 28.0144 32.1965 28.709 32.6371C28.9204 32.7716 29.1985 32.9055 29.3167 32.929C29.3167 32.929 29.0985 33.7998 29.5314 33.9023C29.7025 33.9437 29.9124 33.9557 30.1657 33.9357C30.0657 33.9976 30.0045 34.0367 30.0045 34.0367C30.0045 34.0367 31.19 36.6941 31.6601 37.9772C32.1306 39.2597 32.7347 40.3494 34.8838 40.0926C37.0346 39.8363 37.8909 39.3158 38.7645 39.1238C39.638 38.931 41.3848 38.7391 41.7878 39.5721C41.9087 39.8234 42.2856 40.6593 42.0558 41.7339C41.6821 44.8307 41.6768 53.6367 41.6968 55.8435C41.712 57.7901 41.6591 60.608 41.3052 63.6698C41.0205 66.1554 41.1728 70.6651 41.0942 72.2109C41.0916 72.2125 41.089 72.2125 41.0864 72.2144C40.1783 72.6102 35.233 73.3726 35.579 74.824C35.6836 75.2612 43.3885 75.0323 43.8852 74.6607C44.3955 74.2764 44.0987 73.0388 44.1076 72.7685C44.1102 72.7031 44.1067 72.6446 44.1051 72.5842C44.2086 71.1213 43.9239 69.2846 45.0995 63.7817C45.3188 62.7544 45.8585 61.2911 46.4484 59.8626C47.3283 59.8815 48.2269 59.7936 49.0739 59.7816C49.6402 59.7887 50.2316 59.8296 50.8237 59.8506V23.1332C49.6889 22.8103 48.4662 22.8559 47.2283 23.1581V23.1581ZM59.7742 42.1771H63.8245C65.1964 42.1771 66.0207 42.9321 66.0207 44.2091C66.0207 45.4861 65.1964 46.2711 63.8245 46.2711H59.7742V42.1771ZM59.7742 33.2342H63.5152C64.8875 33.2342 65.6773 33.9547 65.6773 35.1348C65.6773 36.3139 64.8875 37.0339 63.5152 37.0339H59.7742V33.2342ZM54.9692 51.4163H64.4071C69.0404 51.4163 72.0265 48.7293 72.0265 44.5689C72.0265 42.2101 71.1681 40.7692 69.0059 39.4587C70.8938 38.1486 71.6826 36.7072 71.6826 34.6422C71.6826 30.6466 68.6625 28.091 63.892 28.091H54.9692C54.1804 28.091 53.7685 28.5172 53.7685 29.0743V50.4336C53.7685 50.9897 54.3175 51.4163 54.9692 51.4163V51.4163ZM80.3321 68.851L82.5284 62.6271L84.5876 68.851H80.3321ZM84.9996 54.6005C84.7248 53.8811 84.3819 53.7816 83.6963 53.7816H81.0535C80.4348 53.7816 80.0579 53.8811 79.8182 54.4696L71.615 75.9602C71.5465 76.1561 71.5125 76.3525 71.5125 76.4849C71.5125 76.936 71.8789 77.1014 72.4792 77.1064H72.508H76.3515C77.3471 77.1064 77.5868 76.7467 77.793 76.1236L78.6504 73.6345H86.1668L86.9906 76.1236C87.1932 76.7692 87.4288 77.096 88.385 77.1064H88.4311H92.2756H92.3044C92.9043 77.1015 93.2711 76.936 93.2711 76.4849C93.2711 76.3525 93.2372 76.1561 93.1665 75.9602L84.9995 54.6005H84.9996ZM110.161 33.2018C110.88 33.2018 111.19 32.5798 111.19 32.0551V29.2377C111.19 28.6152 110.846 28.0911 110.161 28.0911H95.7795C95.2314 28.0911 94.5787 28.5173 94.5787 29.0743V50.4337C94.5787 50.9897 95.1629 51.4164 95.7795 51.4164H110.161C110.812 51.4164 111.19 50.8913 111.19 50.2697V47.4523C111.19 46.8947 110.811 46.3057 110.161 46.3057H100.585V42.2101H108.615C109.302 42.2101 109.645 41.6206 109.645 41.0645V38.2461C109.645 37.5911 109.336 37.1004 108.615 37.1004H100.585V33.2019H110.161V33.2018ZM103.739 63.6424H100.342V58.9263H103.739C105.248 58.9263 106.347 59.9401 106.347 61.2846C106.347 62.6271 105.248 63.6424 103.739 63.6424V63.6424ZM104.013 53.7816H95.5361C94.7463 53.7816 94.3354 54.2084 94.3354 54.7644V76.1236C94.3354 76.6797 94.885 77.1064 95.5361 77.1064H99.1409C99.792 77.1064 100.342 76.6797 100.342 76.1236V68.7856H104.013C108.888 68.7856 112.353 65.6408 112.353 61.2845C112.353 56.9277 108.851 53.7816 104.013 53.7816V53.7816ZM104.493 11.8346L112.009 3.35034C112.18 3.15347 112.283 2.99012 112.283 2.8262C112.283 2.56788 112.05 2.40557 111.551 2.40051H111.527H106.484H106.342C105.666 2.40404 105.439 2.45796 104.699 3.31788L98.4196 10.6554V3.38331C98.4196 2.8262 98.0066 2.40051 97.2167 2.40051H93.6826C92.8927 2.40051 92.4813 2.8262 92.4813 3.38331V24.7415C92.4813 25.2987 93.0299 25.7243 93.6826 25.7243H97.2167C97.8694 25.7243 98.4196 25.2987 98.4196 24.7415V18.4192L100.477 16.1593L105.522 24.7415C105.762 25.1677 106.107 25.7243 107.205 25.7243H111.666C112.009 25.7243 112.627 25.7243 112.627 25.2332C112.627 25.0693 112.559 24.84 112.352 24.5117L104.493 11.8346V11.8346ZM63.5837 71.9632H59.7742V67.2452H63.5837C65.0938 67.2452 66.0207 68.2605 66.0207 69.6049C66.0207 70.9475 65.0938 71.9632 63.5837 71.9632ZM63.8584 62.102H59.7742V58.8918H69.5548C70.2756 58.8918 70.5845 58.2703 70.5845 57.7452V54.9278C70.5845 54.3062 70.2411 53.7816 69.5548 53.7816H54.9692C54.1804 53.7816 53.7684 54.2084 53.7684 54.7644V76.1236C53.7684 76.6797 54.3175 77.1064 54.9692 77.1064H63.8584C69.0058 77.1064 72.0265 73.9617 72.0265 69.6049C72.0265 65.2487 68.9718 62.102 63.8584 62.102V62.102ZM151.173 50.2697L144.309 39.4587L150.726 29.2377C150.863 29.0414 150.932 28.8449 150.932 28.7136C150.932 28.2874 150.487 28.091 149.869 28.091H145.509C144.516 28.091 144.379 28.4842 144.069 29.0743L141.048 34.6762L137.995 29.0738C137.651 28.4842 137.548 28.091 136.553 28.091H132.265C131.646 28.091 131.199 28.2874 131.199 28.7136C131.199 28.8449 131.233 29.0414 131.37 29.2377L137.788 39.4587L130.925 50.2697C130.788 50.4661 130.719 50.6624 130.719 50.7933C130.719 51.2185 131.199 51.4163 131.817 51.4163H135.936C136.932 51.4163 137.206 51.0222 137.548 50.4336L141.048 44.2421L144.516 50.4336C144.858 51.0222 145.133 51.4163 146.128 51.4163H150.315C150.932 51.4163 151.379 51.2185 151.379 50.8258V50.8183V50.8103C151.375 50.6499 151.306 50.4601 151.173 50.2697V50.2697ZM115.063 25.7243H118.118C118.943 25.7243 119.353 25.331 119.627 24.9059L126.938 13.0147V24.7415C126.938 25.2987 127.453 25.7243 128.105 25.7243H131.743C132.394 25.7243 132.945 25.2987 132.945 24.7415V3.38331C132.945 2.8262 132.532 2.40051 131.743 2.40051H128.723C127.899 2.40051 127.488 2.79274 127.212 3.21939L119.869 15.1112V3.38331C119.869 2.8262 119.319 2.40051 118.668 2.40051H115.063C114.411 2.40051 113.863 2.8262 113.863 3.38331V24.7415C113.863 25.2987 114.276 25.7243 115.063 25.7243V25.7243ZM86.1013 37.034H82.361C80.9886 37.034 80.1997 36.314 80.1997 35.1348C80.1997 33.9547 80.9885 33.2342 82.361 33.2342H86.1013V37.034ZM86.1013 46.2711H82.0522C80.6792 46.2711 79.8559 45.4862 79.8559 44.2092C79.8559 42.9321 80.6792 42.1772 82.0522 42.1772H86.1013V46.2711ZM81.9836 28.0911C77.2136 28.0911 74.193 30.6466 74.193 34.6422C74.193 36.7072 74.9828 38.1486 76.8698 39.4587C74.708 40.7693 73.8501 42.2101 73.8501 44.5689C73.8501 48.7293 76.8358 51.4163 81.4691 51.4163H90.9075C91.5581 51.4163 92.1082 50.9897 92.1082 50.4336V29.0738C92.1082 28.5173 91.6952 28.0911 90.907 28.0911H81.9836V28.0911ZM78.6504 18.3537C78.4107 19.2716 77.8606 20.6141 76.0082 20.6141H75.0126C74.2925 20.6141 73.9831 21.2361 73.9831 21.7603V24.5782C73.9831 25.2002 74.3265 25.7243 75.0126 25.7243H77.3115C80.4348 25.7243 82.4259 23.6933 83.3523 21.6298L91.3832 3.54666C91.4858 3.35035 91.5203 3.15347 91.5203 3.02258C91.5203 2.57091 91.1535 2.40553 90.5536 2.40051H90.5248H86.2694C85.2738 2.40051 85.0682 2.76028 84.8279 3.38331L81.6361 11.9325L78.0329 3.38331C77.7581 2.76028 77.5869 2.40051 76.5913 2.40051H72.404H72.3752C71.7743 2.40557 71.3754 2.57091 71.3754 3.02258C71.3754 3.15347 71.41 3.35035 71.5116 3.54666L78.6505 18.3537H78.6504ZM59.7742 7.54379H63.1712C64.6819 7.54379 65.7799 8.55898 65.7799 9.9025C65.7799 11.2451 64.6819 12.2607 63.1712 12.2607H59.7742V7.54379ZM54.9692 25.7244H58.5735C59.2251 25.7244 59.7742 25.2987 59.7742 24.7416V17.404H63.4465C68.3196 17.404 71.7856 14.2593 71.7856 9.90253C71.7856 5.54528 68.2855 2.40055 63.4465 2.40055H54.9691C54.1803 2.40055 53.7684 2.82624 53.7684 3.38334V24.7416C53.7684 25.2987 54.3175 25.7244 54.9691 25.7244H54.9692ZM123.064 37.9519H119.667V33.2343H123.064C124.576 33.2343 125.672 34.25 125.672 35.5935C125.672 36.9361 124.576 37.9519 123.064 37.9519ZM123.339 28.0911H114.863C114.074 28.0911 113.661 28.5173 113.661 29.0744V50.4337C113.661 50.9898 114.211 51.4164 114.863 51.4164H118.466C119.119 51.4164 119.667 50.9898 119.667 50.4337V43.0956H123.339C128.213 43.0956 131.678 39.9499 131.678 35.5936C131.678 31.2363 128.178 28.0911 123.339 28.0911V28.0911Z" fill="#9D9D9D"/>
</svg>
