<svg width="20" height="20" viewBox="0 0 20 20" fill="none" xmlns="http://www.w3.org/2000/svg">
<path d="M14.0003 9.99984C14.0003 12.209 12.2095 13.9998 10.0003 13.9998C7.79119 13.9998 6.00033 12.209 6.00033 9.99984C6.00033 7.7907 7.79119 5.99984 10.0003 5.99984C12.2095 5.99984 14.0003 7.7907 14.0003 9.99984ZM14.0003 9.99984V11.3332C14.0003 12.8059 15.1942 13.9998 16.667 13.9998C17.6131 13.9998 18.4441 13.5072 18.9174 12.7644C19.181 12.3509 19.3337 11.8599 19.3337 11.3332V9.99984C19.3337 4.84518 15.155 0.666504 10.0003 0.666504C4.84567 0.666504 0.666992 4.84518 0.666992 9.99984C0.666992 15.1545 4.84567 19.3332 10.0003 19.3332C11.9833 19.3332 13.8219 18.7148 15.3337 17.6603" stroke="#1A3C55"/>
</svg>
