<svg width="30" height="30" viewBox="0 0 30 30" fill="none" xmlns="http://www.w3.org/2000/svg">
<path d="M15 30C23.2843 30 30 23.2843 30 15C30 6.71573 23.2843 0 15 0C6.71573 0 0 6.71573 0 15C0 23.2843 6.71573 30 15 30Z" fill="url(#paint0_linear_18_2661)"/>
<path d="M19 10.4286H20.1429M11.5714 7H18.4286C20.9533 7 23 9.0467 23 11.5714V18.4286C23 20.9533 20.9533 23 18.4286 23H11.5714C9.0467 23 7 20.9533 7 18.4286V11.5714C7 9.0467 9.0467 7 11.5714 7ZM15 18.4286C13.1065 18.4286 11.5714 16.8935 11.5714 15C11.5714 13.1065 13.1065 11.5714 15 11.5714C16.8935 11.5714 18.4286 13.1065 18.4286 15C18.4286 16.8935 16.8935 18.4286 15 18.4286Z" stroke="white"/>
<defs>
<linearGradient id="paint0_linear_18_2661" x1="2.5" y1="4.5" x2="25.5" y2="26.5" gradientUnits="userSpaceOnUse">
<stop stop-color="#6825C4"/>
<stop offset="0.370272" stop-color="#AD1589"/>
<stop offset="0.738904" stop-color="#ED4A36"/>
<stop offset="1" stop-color="#F9CF68"/>
</linearGradient>
</defs>
</svg>
