<svg width="30" height="30" viewBox="0 0 30 30" fill="none" xmlns="http://www.w3.org/2000/svg">
<path d="M15 30C23.2843 30 30 23.2843 30 15C30 6.71573 23.2843 0 15 0C6.71573 0 0 6.71573 0 15C0 23.2843 6.71573 30 15 30Z" fill="#25D26A"/>
<path fill-rule="evenodd" clip-rule="evenodd" d="M12.1662 16.0052C12.5507 16.5952 13.5849 17.5496 14.1671 17.9906C14.9383 18.5748 15.7463 18.9941 16.8097 19.3517C18.0972 19.7845 19.034 19.6888 19.9244 18.9577C20.3047 18.6455 20.5169 18.1912 20.5363 17.547C20.5487 17.1338 20.3968 17.1257 20.0924 16.9798C19.9595 16.9161 19.5081 16.7213 19.453 16.6501C19.069 16.5531 18.6724 16.2459 18.2711 16.1292C17.9619 16.0392 17.8763 16.2025 17.7479 16.3822C17.6285 16.5493 17.5252 16.6675 17.3955 16.827C17.0646 17.234 16.9772 17.5221 16.3905 17.2477C15.1734 16.6786 14.4679 16.1957 13.642 15.0796C12.8848 14.0564 13.081 14.1791 13.5868 13.5612C13.7075 13.4137 13.8267 13.2653 13.9006 13.075C14.001 12.8162 13.8812 12.6225 13.7885 12.4058C13.5994 11.9641 13.2377 10.9821 13.0633 10.6738C12.932 10.4415 12.8554 10.4008 12.5149 10.3948C12.2621 10.3904 11.9572 10.3618 11.7625 10.4718C11.4577 10.644 11.1478 11.0286 10.9798 11.3134C10.0393 12.9084 11.0967 14.7582 12.1662 16.0052ZM23.4562 16.7333C23.5334 17.1039 22.814 18.6228 22.652 18.9057C20.6779 22.3538 16.384 24.0174 12.5571 22.455C12.2037 22.3107 11.8696 22.1526 11.5584 21.9735C11.0028 21.6538 11.1398 21.7315 10.4719 21.906C10.062 22.013 9.71047 22.1097 9.3049 22.215C8.98929 22.297 8.42179 22.4857 8.09482 22.5095C8.11436 22.2883 8.64497 20.4646 8.74467 20.0738C8.87888 19.5482 8.94024 19.6189 8.73896 19.2976C8.48737 18.896 8.21254 18.4147 8.04161 17.9316C7.9338 17.6268 7.56716 16.6947 7.61223 16.3566C7.57936 16.3126 7.59952 16.3804 7.55996 16.2595L7.46257 15.3423C7.38629 13.1227 8.03912 11.1801 9.50933 9.51911C10.856 7.99759 12.976 6.74583 15.8027 6.79918C20.1881 6.88191 23.5798 10.47 23.6984 14.6903C23.7054 14.9367 23.6631 16.5054 23.4562 16.7333ZM6.72019 10.6971C6.72244 10.7705 6.37406 11.6071 6.30661 11.8111C5.87498 13.1166 5.67931 14.5951 5.86123 15.9988C6.02988 17.3003 6.37271 18.448 6.97382 19.5473C7.17874 19.922 7.08149 19.8459 6.92958 20.4577C6.91932 20.4991 6.90643 20.5631 6.89303 20.606C6.85845 20.7169 6.88184 20.6831 6.82034 20.7539C6.82814 21.0981 5.80906 24.2807 5.73779 24.8315C5.94482 24.8437 9.70032 23.7903 10.5371 23.5947C10.965 23.4947 10.9137 23.507 11.2577 23.6826C14.6638 25.4212 18.9919 24.8634 21.9109 22.3542C23.1019 21.3303 23.8392 20.3055 24.5126 18.8834C24.602 18.6944 24.6831 18.4221 24.7697 18.2697C24.9498 17.3174 25.1489 17.3697 25.3121 15.7395C25.5292 13.5704 24.9421 11.4688 23.8451 9.68519C23.7154 9.47421 23.2724 8.90858 23.2345 8.79162C23.0831 8.69687 22.9572 8.50304 22.8256 8.35521C21.9264 7.3449 20.8487 6.58294 19.584 5.99091C18.0384 5.26734 16.1003 4.95814 14.1155 5.24014C11.2711 5.64426 8.79945 7.37348 7.32632 9.68367C7.17371 9.92295 6.81359 10.6329 6.72019 10.6971Z" fill="white"/>
</svg>
