<svg width="30" height="30" viewBox="0 0 30 30" fill="none" xmlns="http://www.w3.org/2000/svg">
<path d="M15 30C23.2843 30 30 23.2843 30 15C30 6.71573 23.2843 0 15 0C6.71573 0 0 6.71573 0 15C0 23.2843 6.71573 30 15 30Z" fill="#D1261E"/>
<path fill-rule="evenodd" clip-rule="evenodd" d="M12.0373 9.42702C11.6528 9.47594 11.4036 9.66812 11.2393 9.88257C11.0044 10.1891 11.0093 10.4465 11.0074 10.8963C11.0038 11.7295 11.0084 12.5637 11.0077 13.3971C11.0063 15.0657 10.9911 16.7444 11.0076 18.4127C11.0116 18.8112 11.1743 19.1069 11.3788 19.2871C11.8011 19.6593 12.2769 19.6872 12.775 19.4263L18.9474 16.2015C19.2207 16.0573 19.5042 15.9227 19.7691 15.7732C20.0455 15.6171 20.3643 15.4957 20.5473 15.3009C21.0628 14.7523 20.9248 13.9823 20.4092 13.57C20.2753 13.4629 18.2295 12.4285 17.9436 12.271C17.68 12.1257 17.3891 11.9822 17.1198 11.8448C16.5634 11.5608 16.0199 11.2809 15.4744 10.9896L13.0054 9.70817C12.7145 9.56032 12.4487 9.37464 12.0373 9.42702Z" fill="white"/>
</svg>
