<svg width="116" height="116" viewBox="0 0 116 116" fill="none" xmlns="http://www.w3.org/2000/svg">
<path fill-rule="evenodd" clip-rule="evenodd" d="M12.1743 81.3933C13.5426 81.0546 14.2954 80.8197 15.4034 80.1118C16.6526 79.314 17.1623 78.5238 18.0361 77.9527C20.3123 75.077 21.0644 71.1489 19.4587 67.3398C19.2061 66.7408 19.0016 66.3647 18.6749 65.869C18.2697 65.2529 17.9493 65.0244 17.5853 64.476C16.6862 63.9505 16.1094 63.1857 14.8342 62.5031C13.9395 62.0251 12.0154 61.6268 11.5614 61.3229C8.14557 61.3229 5.69396 61.5743 3.21072 64.0828C1.36128 65.95 0.136761 67.5905 0 70.995V72.255C0.3552 79.6401 8.82936 82.9553 12.1743 81.3933ZM54.3336 28.1817C54.3336 33.8447 61.0975 32.4992 61.0975 29.0833C61.0975 23.4198 54.3336 24.7652 54.3336 28.1817ZM34.0435 7.89101C34.0435 13.5546 40.8068 12.2085 40.8068 8.79262C40.8068 3.12905 34.0435 4.4745 34.0435 7.89101ZM4.73475 102.581C4.73475 108.244 11.4981 106.899 11.4981 103.482C11.4981 97.8186 4.73475 99.1641 4.73475 102.581ZM92.6603 100.326C92.6603 105.989 99.4243 104.644 99.4243 101.228C99.4243 95.5646 92.6603 96.91 92.6603 100.326ZM70.1156 80.0352C70.1156 85.6987 76.8789 84.3533 76.8789 80.9374C76.8789 75.2739 70.1156 76.6193 70.1156 80.0352ZM27.2795 73.2718C27.2795 78.9354 34.0435 77.5899 34.0435 74.1734C34.0435 68.5099 27.2795 69.8553 27.2795 73.2718ZM85.4385 41.7084C84.5705 42.4467 83.4701 42.8462 82.621 43.6155C82.1708 44.0232 81.7884 44.3993 81.4022 44.8761C80.8912 45.5074 80.9311 45.7821 80.2606 46.2247C79.8091 48.133 77.7457 51.0949 80.2562 55.9164C81.5409 58.3832 83.9569 60.4144 87.0246 61.0918C90.8716 61.4382 90.4588 61.2216 93.7879 60.3396C95.3841 59.3709 95.8368 59.0265 97.1171 57.6633C98.1232 56.592 98.8032 55.0509 99.2065 53.4319C99.3021 51.8794 99.5503 51.1956 99.259 49.5513C99.0267 48.2413 98.5297 47.4347 98.3511 46.4432C96.2332 43.2894 93.8082 41.0493 89.5091 41.0215C87.2829 41.0069 87.0695 41.3349 85.4385 41.7084ZM28.6325 95.3867C27.1889 95.7583 26.4146 96.0173 25.2781 96.7467C24.2802 97.3881 23.6446 98.2529 22.7708 98.8032C18.5603 104.091 20.5123 111.203 25.4813 114.074C26.6862 114.769 28.264 115.282 29.9185 115.431H31.8401C32.8075 115.34 33.763 115.102 34.6488 114.684C37.0978 113.528 39.4551 111.501 40.2332 108.668C40.9727 106.116 40.9651 104.44 40.2168 101.904C39.9831 100.946 39.5773 100.368 39.2284 99.568C38.3679 99.0507 37.7556 97.9699 36.723 97.1987C36.35 96.9202 35.682 96.4839 35.2015 96.249L33.6838 95.4778C33.6623 95.4063 33.5958 95.4069 33.5566 95.3658C32.1624 95.3658 29.9279 94.6971 28.6325 95.3867ZM50.2756 101.992C50.4979 102.359 49.8382 104.385 49.8363 105.286C49.835 106.052 50.3769 108.395 50.2756 108.565C52.1092 112.966 55.4555 115.09 58.8853 115.431H60.8917C65.7043 114.956 70.1263 111.114 70.1263 105.286C70.1263 96.9854 61.0127 92.4241 54.3709 96.7555C52.4487 98.0092 51.219 99.7991 50.2756 101.992ZM84.77 15.0817C85.4955 15.542 85.3448 15.7092 85.814 16.3208C86.2008 16.8267 86.6168 17.2072 87.022 17.5928C88.0003 18.5236 89.0241 18.856 89.9054 19.6145C92.2905 20.1172 94.2178 20.9511 97.4349 19.6538C103.825 17.0762 106.802 8.87999 100.611 2.64595C99.0526 1.07573 97.1126 0.227936 95.1074 0H92.8439C87.6565 0.574904 82.8097 5.03295 83.6954 11.6703C83.7493 12.0736 83.9519 13.0462 84.1184 13.5027C84.34 14.1105 84.5946 14.3682 84.77 15.0817ZM25.4826 30.2103C25.8542 29.3866 27.0015 28.6357 27.6669 27.667C28.3451 26.6799 28.8453 25.0413 29.3088 24.4233C29.5633 20.9416 29.7943 19.7139 28.3368 16.9787C23.4413 7.7935 8.35637 11.1613 9.25228 22.9873C9.45742 25.6991 10.7143 27.5125 12.23 29.0276C13.8021 30.6004 15.8675 31.8243 18.2678 32.0079C22.6056 32.3396 23.8743 30.6339 25.4826 30.2103ZM99.1102 72.3702C98.4859 73.282 97.6793 73.7087 96.9214 74.8269C96.161 75.9494 95.8964 77.1759 95.3658 77.961C95.091 81.5472 94.8466 82.5786 96.3402 85.3733C101.056 94.1976 114.529 91.2629 115.431 81.5415V79.4356C115.423 79.3431 115.417 79.2513 115.406 79.1583C115.135 76.6769 113.937 74.8294 112.332 73.2142C108.537 69.3944 103.373 69.4868 99.1102 72.3702Z" fill="#D9D9D9"/>
<path fill-rule="evenodd" clip-rule="evenodd" d="M40.2333 108.668L50.2757 108.565C50.377 108.395 49.8351 106.052 49.8363 105.286C49.8382 104.385 50.498 102.359 50.2757 101.992L40.2168 101.904C40.9652 104.44 40.9728 106.116 40.2333 108.668ZM53.0369 60.0254C51.7345 59.3106 48.7675 56.3968 47.7957 56.1372C48.2927 55.3951 50.7537 53.9401 51.7187 53.2969C53.1927 52.3142 54.5033 51.4443 55.9121 50.5009C56.587 50.8579 59.87 52.2401 60.6468 52.3047L53.0369 60.0254ZM29.3088 24.4231C28.8454 25.0411 28.3451 26.6797 27.667 27.6668C27.0016 28.6355 25.8543 29.3864 25.4826 30.2101C26.2158 30.409 30.0369 33.0999 30.9772 33.7273C32.902 35.0101 34.664 36.1802 36.523 37.4249L38.1015 51.8539C36.7877 51.8241 35.063 51.4936 33.6004 51.3949C30.5733 51.191 22.2548 50.0804 20.0686 50.0349C16.2348 49.9557 16.502 51.966 14.8698 54.7746C13.8941 56.4531 12.2054 59.5455 11.5615 61.3227C12.0155 61.6266 13.9396 62.0249 14.8343 62.5029C16.1094 63.1855 16.6863 63.9503 17.5853 64.4758C18.9029 62.004 20.1059 59.5182 21.4178 57.0388C23.8245 57.5998 35.9189 58.4033 39.6305 58.8914C41.3995 59.1238 45.8912 63.2861 47.992 64.9596C54.8668 70.437 52.8514 69.907 67.1284 55.63C70.4398 52.3186 69.6243 53.4608 71.4421 48.4456C71.9607 47.0147 72.4976 45.5793 73.0465 44.1883L74.6243 39.905C75.576 40.542 79.5617 45.1589 80.2607 46.2245C80.9312 45.7819 80.8913 45.5072 81.4023 44.8759C81.7885 44.3991 82.1709 44.023 82.6211 43.6153C83.4701 42.846 84.5706 42.4465 85.4386 41.7082C84.4579 40.1937 81.3611 37.1305 80.0353 35.3957C79.3122 34.4497 78.8329 34.2769 78.232 33.141C79.896 30.6559 89.1957 20.961 89.9055 19.6143C89.0242 18.8558 88.0003 18.5234 87.0221 17.5926C86.6169 17.207 86.2009 16.8265 85.8141 16.3206C85.3449 15.709 85.4956 15.5418 84.77 15.0815L78.7493 21.9354C78.1282 22.6743 77.9478 22.9137 77.2697 23.612L73.5638 27.7966C69.851 32.2312 70.6988 30.5141 68.2858 37.1729L64.7047 46.6684C63.9399 46.3011 63.0135 45.9915 62.1284 45.6376C59.2133 44.472 55.7855 42.4743 53.6555 43.7356C52.2006 44.5967 50.6651 45.7319 49.1937 46.7133C48.2686 47.3294 45.4891 49.3726 44.6394 49.5992C44.6394 47.9309 44.35 46.5405 44.2095 45.0697L43.2262 35.9073C43.0052 34.0838 42.7988 33.3803 41.4882 32.4597C39.5247 31.0807 37.4043 29.7454 35.396 28.4069L29.3088 24.4231ZM98.3512 46.443C98.5297 47.4345 99.0268 48.2411 99.2591 49.5511C99.5504 51.1954 99.3022 51.8792 99.2066 53.4317L107.194 52.4092C110.477 51.9223 110.429 50.516 111.401 47.3724L114.557 36.7766C114.808 35.9946 115.316 34.6486 115.431 33.4975V32.6737C115.053 29.7359 110.022 27.3489 108.394 33.3177L105.158 44.0604C104.616 46.0707 104.872 45.7851 102.624 46.0352C101.224 46.1903 100.046 46.443 98.3512 46.443ZM87.0247 61.0916C87.0247 62.5903 87.8908 71.2151 88.2517 72.4954C88.757 74.2891 91.6441 75.6143 93.4303 76.7856C94.1894 77.2839 94.594 77.6442 95.3659 77.9608C95.8964 77.1757 96.1611 75.9492 96.9215 74.8267C97.6794 73.7085 98.486 73.2818 99.1103 72.37C98.0168 71.3874 95.9952 70.3129 94.6897 69.4391C94.6897 67.7701 94.4003 66.3804 94.2597 64.9089C94.1192 63.4419 93.788 61.709 93.788 60.3394C90.4589 61.2214 90.8717 61.438 87.0247 61.0916ZM33.5567 95.3656C33.5959 95.4067 33.6624 95.4061 33.6839 95.4776L35.2016 96.2488C35.6821 96.4837 36.3501 96.92 36.7231 97.1985C37.7557 97.9697 38.368 99.0505 39.2285 99.5678C39.4045 99.0265 39.7217 98.6871 40.0655 98.2331L42.8976 94.3006C44.3501 92.3543 51.9378 82.6056 52.0897 80.9284C52.2341 79.3271 51.6275 78.3837 50.774 77.7335C49.8996 77.0674 48.4098 76.7837 47.1746 77.3846C46.1875 77.8645 45.6581 78.8307 44.9933 79.7127C41.264 84.6627 37.2758 90.5454 33.5567 95.3656ZM12.1744 81.3931L22.7709 98.803C23.6446 98.2528 24.2803 97.3879 25.2782 96.7465C26.4147 96.0171 27.189 95.7581 28.6326 95.3865L18.0361 77.9525C17.1624 78.5237 16.6527 79.3138 15.4035 80.1116C14.2955 80.8195 13.5426 81.0544 12.1744 81.3931Z" fill="#F5F5F5"/>
</svg>
