<svg width="38" height="47" viewBox="0 0 38 47" fill="none" xmlns="http://www.w3.org/2000/svg">
<path fill-rule="evenodd" clip-rule="evenodd" d="M8.91251 10.2637L9.56581 10.482C9.59931 12.7998 9.5714 15.14 9.5714 17.4578C9.5714 25.503 8.78966 24.6744 11.8775 25.643L17.143 27.3617C17.5786 27.5073 18.0085 27.5857 18.4385 27.8096C19.6222 28.431 19.6781 28.4534 20.9623 27.8152L24.8933 26.5107C25.8147 26.2028 26.6187 25.9453 27.5289 25.6486C28.3162 25.3966 29.6675 25.2511 29.835 24.4449C30.0137 23.5715 29.8071 12.6095 29.8573 10.4988L30.5274 10.2693L30.4827 25.4974L19.7004 28.8453C19.6557 28.8453 17.5171 28.0895 17.0258 27.944C14.6024 27.2162 11.0958 26.0573 8.87342 25.5142L8.91251 10.2637ZM12.1511 14.6362C11.5201 14.9609 11.5983 15.6439 12.274 15.9294C12.8212 16.1646 13.508 16.3493 14.0943 16.5565C14.7141 16.7748 17.1709 17.7714 17.6288 17.5866C18.271 17.3291 18.176 16.5565 17.5227 16.2598C16.9308 15.991 12.5476 14.4234 12.1511 14.6362ZM12.207 18.0513C11.8998 18.1689 11.6262 18.2248 11.7658 18.8351C11.8496 19.1934 12.0506 19.2718 12.4136 19.4061C13.3349 19.7477 17.2491 21.2425 17.7349 20.9682C18.3603 20.6154 18.0588 19.9044 17.4111 19.6413C16.6405 19.3278 12.6313 17.8833 12.207 18.0513ZM26.5685 21.5056C25.3903 21.9087 24.24 22.3118 23.0674 22.6981C22.5649 22.8605 21.6547 23.0508 21.4649 23.4539C20.4486 25.6094 25.5466 23.3251 26.0715 23.1516C26.5741 22.978 27.4451 22.7821 27.635 22.3734C27.9588 21.6568 27.367 21.2313 26.5685 21.5056ZM26.5964 11.2714C25.9487 11.501 21.6938 12.7103 21.4649 13.1973C21.0461 14.0931 22.0121 14.3059 22.6263 14.1043C23.2573 13.8916 27.3949 12.6263 27.635 12.1224C27.9588 11.4282 27.3949 10.9859 26.5964 11.2714ZM26.7025 14.6418C25.4908 15.0057 24.3517 15.4088 23.1847 15.8231C22.7547 15.9798 21.7664 16.2262 21.5431 16.5229C21.0349 17.1891 21.6659 17.805 22.4756 17.5642C22.9669 17.4187 27.3335 15.991 27.568 15.6663C27.9812 15.0897 27.5512 14.3898 26.7025 14.6418ZM12.0674 11.2994C12.0674 11.2994 11.5034 11.4898 11.8161 12.1616C12.0059 12.5703 13.6197 12.9734 14.2897 13.2085C14.9765 13.4437 17.2994 14.5074 17.8298 14.0651C19.0527 13.0518 16.1156 12.3631 15.5628 12.1672C14.6582 11.8425 12.5755 10.9243 12.0674 11.2994ZM17.8745 24.3497C18.4608 22.95 16.7912 22.8549 15.5684 22.4182C14.9598 22.1998 12.5085 21.1697 12.0115 21.5112C11.7826 21.6624 11.6486 22.0543 11.8217 22.4182C12.0171 22.8269 13.8262 23.314 14.2841 23.4651C15.2725 23.801 16.9197 24.6296 17.8745 24.3497ZM26.8253 18.0233C26.3619 18.1353 21.8334 19.6077 21.5598 19.91C21.0796 20.4307 21.5319 21.1641 22.3192 21.0297C22.6431 20.9737 27.3055 19.4061 27.5401 19.1374C27.9812 18.6112 27.5456 17.8497 26.8253 18.0233ZM33.3695 45.1484L17.1877 45.1652C17.0202 43.368 17.1654 40.8543 17.1654 39.0067C17.1709 36.9913 16.3222 38.0662 12.7318 38.195C10.811 38.2621 8.85109 38.0326 7.88509 36.8793C7.41605 36.3194 7.13128 35.4629 7.21503 34.4607C7.36021 32.7028 7.86276 33.3466 6.67341 32.1373C7.52773 31.4207 8.96276 31.8574 8.76175 30.2506C8.11961 29.7075 8.20895 29.8531 7.34346 29.6179C6.79625 29.4668 6.13736 29.2988 5.65157 29.1533C5.65157 25.3854 6.25462 25.475 2.49114 25.475C2.65307 24.7024 5.35004 19.3838 5.56223 18.6559C5.85817 17.6258 3.88709 14.8601 5.76883 10.2413C7.49422 5.99757 12.0394 2.41448 17.009 1.5747C20.7167 0.947659 25.2172 2.01139 27.9198 3.61818C33.3081 6.83176 37.0995 13.0518 35.1619 22.1271C34.0843 27.177 32.5655 28.8341 32.4538 29.3492C32.2528 30.2618 33.4645 42.9481 33.3695 45.1484ZM15.7694 39.3035C15.7694 40.8375 15.7694 42.3715 15.7694 43.9055C15.7694 46.2401 15.239 46.5928 17.6065 46.5872H31.203C33.6376 46.5872 34.8381 46.9511 34.8493 45.6634L34.0284 32.9547C33.9838 32.2101 33.9168 31.4823 33.8665 30.7433C33.7828 29.6067 33.833 29.7523 34.2909 28.9405C35.296 27.1378 36.1559 24.6184 36.5747 22.2614C37.6467 16.2709 36.999 11.8761 34.1178 7.54278L32.0853 5.04022C26.1609 -0.843884 15.8588 -1.90761 9.15261 3.61818C6.53381 5.77363 2.73682 10.2077 3.64698 15.9742C4.07135 18.6559 4.50689 17.5082 3.61907 19.5069C3.18912 20.4699 0.86067 25.1839 0.922092 25.8221C1.05052 27.2609 2.90992 26.8243 4.25004 26.8914C4.27237 27.6081 4.16628 29.1869 4.28912 29.7691C4.45664 30.5753 5.3668 30.4465 6.06477 30.7601C5.51197 31.1016 4.79166 31.0848 4.80283 32.0197C4.80841 32.8091 5.4338 32.9883 5.90842 33.4194C5.90842 35.0765 5.33888 37.6351 8.46581 38.9676C10.9115 40.0089 13.1339 39.5498 15.7694 39.3035ZM10.9785 9.54706L19.0024 12.5703L18.9913 26.4827L10.9562 23.8626L10.9785 9.54706ZM28.4335 9.57506L28.4279 23.9018C27.1771 24.1873 25.6751 24.792 24.3964 25.1951C23.4751 25.4806 21.208 26.3652 20.4151 26.4268L20.4263 12.5815L28.4335 9.57506ZM9.47647 8.94242C8.73941 8.76886 8.47697 8.46654 7.68407 8.68488C7.26529 9.58066 7.47747 19.2998 7.47747 21.6512C7.47747 26.3148 6.91909 26.3932 8.745 26.9306L17.2491 29.4668C18.3547 29.8027 19.3989 30.6201 20.6552 30.0658C22.5035 29.254 28.0984 27.692 30.667 26.9306C32.2584 26.4659 31.9513 26.5331 31.9513 23.7506V10.5828C31.9513 10.0117 32.1579 8.95362 31.5939 8.66809C31.0579 8.39376 30.4883 8.88643 29.8629 8.91443C29.8071 6.94373 28.0426 8.2314 25.1502 9.28393C24.3908 9.56386 20.0913 11.2938 19.706 11.2882C18.9466 11.277 10.7775 7.77232 10.1912 7.8339C9.52673 7.90668 9.70541 8.51133 9.47647 8.94242Z" fill="#1A3C55"/>
</svg>
