<svg width="48" height="46" viewBox="0 0 48 46" fill="none" xmlns="http://www.w3.org/2000/svg">
<path fill-rule="evenodd" clip-rule="evenodd" d="M30.4716 23.7705C31.4879 23.3562 31.8676 24.8958 31.0412 25.2094C30.5219 25.4053 30.131 25.131 30.0193 24.7727C29.8239 24.1568 30.1143 23.9161 30.4716 23.7705ZM26.6244 25.3941C27.2107 27.4208 27.7523 27.3816 27.0655 28.4397C26.563 29.2235 26.0381 30.2873 25.4406 30.9367C24.4411 30.2817 23.5198 29.3915 22.5761 28.6357C20.7 27.1353 20.968 26.8833 19.4827 27.5944C18.969 27.8463 16.4004 29.1396 16.0989 29.1788C15.7862 29.2235 12.9329 28.0758 12.5644 27.8687L14.3959 26.1163C15.8141 24.9014 15.7639 25.5117 14.7141 20.9041C14.5354 20.1371 14.4238 20.1762 14.8258 19.5548C15.0547 19.1965 15.2948 18.7654 15.5405 18.5303C15.9314 18.8438 16.1938 19.3645 16.5344 19.7732C19.237 23.0091 22.0847 24.7167 26.6244 25.3941ZM14.7253 17.1362C14.4517 17.4329 14.0162 18.1944 13.7649 18.6031C13.4243 19.1517 12.9887 19.5772 13.1618 20.4618C13.4187 21.783 13.9101 23.3114 14.0385 24.6047L11.2075 27.1129C9.45978 28.6357 11.2633 28.91 12.6872 29.4531C14.0552 29.9737 15.7862 30.9479 16.702 30.5224C17.8076 30.0017 19.3654 29.0724 20.4431 28.7477L24.631 32.1684C25.9878 33.2937 26.1051 32.689 27.233 30.8247C27.9254 29.6658 29.098 28.2886 28.8746 27.4544C28.7127 26.8609 28.3554 26.1779 28.1711 25.5341C28.8746 25.4949 28.7574 25.4949 29.1148 25.926C29.3437 26.2115 29.4833 26.3347 29.8351 26.4914C30.6894 26.8665 31.1305 26.5922 31.9234 26.4242C32.4371 29.3075 32.398 31.6309 31.5102 34.3014C31.1361 35.4268 30.6615 36.4121 30.1198 37.3303C29.5168 38.3604 28.8523 39.0882 28.2716 39.8888C27.6462 39.7488 25.932 38.6011 25.3122 38.2428C22.8386 36.7984 23.9665 37.0951 20.8451 38.5284C20.2198 38.8139 19.9406 38.4668 19.3375 38.1701C18.6172 37.8173 16.9532 36.7368 16.1436 36.9552C15.5796 37.4534 14.9542 38.9539 14.4014 39.6481C13.5583 39.7097 11.0735 39.273 10.5263 39.4857C10.1578 39.6257 9.14708 41.4788 8.96282 41.9771C8.04707 41.6804 6.17092 39.6705 5.61812 38.993C4.88106 38.0917 3.66379 36.3001 3.32318 34.8893C4.3841 35.1188 6.50036 36.1434 7.42727 35.9978C7.83489 35.6059 9.14708 32.5155 9.03541 31.6925C8.83439 31.4574 7.05874 30.2705 6.66229 30.1305C7.24301 27.1297 8.209 27.3032 6.72371 25.8868L3.99324 22.8524C4.27801 22.0182 5.25517 20.6745 5.74097 20.1091C6.43894 19.2917 7.02524 18.6814 7.9019 17.9648C9.3146 16.8059 11.4085 15.5182 13.6141 15.0871L14.7253 17.1362ZM11.107 40.8686C11.8329 40.8854 14.6527 41.2325 15.0994 41.0253C15.5294 40.8238 16.3893 39.0546 16.769 38.5116C17.3329 38.6515 18.7624 39.4689 19.371 39.7656C20.8228 40.4823 20.6609 40.1799 22.0457 39.4913C23.6426 38.6963 23.168 38.6011 24.6533 39.4857C25.4741 39.9784 26.2503 40.4487 27.0487 40.9246C26.5797 41.546 24.6645 42.7441 23.6482 43.1976C19.3096 45.1403 13.8096 45.1291 10.141 42.7609C10.3923 42.0835 10.8781 41.5348 11.107 40.8686ZM6.72371 34.4134C6.00899 34.363 4.44552 33.7416 3.66379 33.4952C2.88206 33.2489 2.78155 33.3665 2.61404 32.5659C2.50795 32.062 2.42419 31.491 2.3851 30.9815C2.29018 29.7778 2.42419 25.5061 3.35668 24.3584C3.70846 24.6271 4.4176 25.4109 4.73588 25.7804C5.19375 26.3179 5.52878 26.637 6.02015 27.1409C5.9029 27.8575 5.10441 29.9066 5.15467 30.4104C5.21609 30.9927 6.96382 32.0172 7.48311 32.23C7.36027 32.9914 6.94707 33.6688 6.72371 34.4134ZM13.0557 13.7603C3.3176 16.1509 -2.04843 27.6559 2.64196 36.9664C7.36027 46.3384 19.2928 48.7346 27.2051 42.6825C29.3939 41.0085 31.2087 38.7859 32.5153 35.6507C34.0173 32.0732 33.8386 28.9548 33.0625 25.0918C34.0229 24.8679 37.0661 24.3808 37.3788 23.6362C37.5519 23.2219 38.0432 19.3253 38.1102 18.6366C39.0651 18.6534 44.0961 19.566 45.587 19.7787C46.2068 19.8739 47.0052 20.0923 47.2956 19.5884C47.653 18.9614 47.0052 18.5415 46.7205 18.2895C45.9834 17.6233 45.3189 16.9123 44.5875 16.2349L35.8544 7.8594C35.1453 7.15398 34.263 6.51574 33.6265 5.78792C33.297 5.41282 31.7503 3.9124 31.4097 3.69965C31.0691 3.49251 18.4106 1.29787 16.9644 1.06273C16.0319 0.917163 10.2694 -0.381703 9.85064 0.110971C9.30343 0.754807 10.5765 1.75695 10.9674 2.17125C11.5314 2.75909 12.0004 3.25177 12.5644 3.83402C13.1451 4.44427 13.6365 4.95933 14.2116 5.56398C14.7476 6.12943 15.507 6.56612 15.803 7.23795C15.4289 7.72503 14.9263 8.06654 14.407 8.64319C13.9994 9.09668 13.4801 9.51657 13.0222 9.93646C11.5705 11.2465 12.2796 11.129 13.0557 13.7603ZM34.8549 18.1048L36.664 18.3679C36.7534 18.8718 36.2285 22.4437 36.0219 22.8972L32.8447 23.6698L32.3366 22.9475L34.8549 18.1048ZM13.6811 11.1793C14.6471 10.6307 15.8253 9.0239 16.8416 8.29608C17.1598 8.51443 17.3664 8.79995 17.6512 9.10787C17.9248 9.4046 18.1984 9.60055 18.4832 9.89727C19.2035 10.6419 24.402 16.3244 24.9101 16.5036L33.364 17.8584L31.1138 22.2645C30.4102 22.3037 29.8462 22.3933 29.4051 22.7516C28.8188 23.2331 28.8914 23.4178 28.5731 23.9273C28.562 23.9441 28.5285 24.0225 28.5173 24.0057C28.5117 23.9833 28.4838 24.0561 28.4614 24.0785C22.3863 24.0505 18.2096 20.6297 15.7248 16.0445C15.1776 15.0368 13.8263 12.3271 13.6811 11.1793ZM32.8056 16.3244C31.8061 16.2013 25.703 15.3503 25.3234 15.0424C25.0107 14.7904 24.4802 14.2362 24.2178 13.9394C23.8436 13.5307 23.5365 13.2004 23.1568 12.7861C22.4644 12.0303 21.7386 11.3529 21.0462 10.5971L14.6471 3.96279C14.0329 3.31895 13.0446 2.40638 12.5755 1.75135C13.5806 1.79614 21.1467 3.24057 22.8497 3.54289C24.5472 3.84522 26.2838 4.17553 27.9868 4.44426C31.0523 4.93694 30.2538 4.58423 32.1635 6.31978L44.4646 18.1552C43.9174 18.116 35.1341 16.9011 34.6986 16.4756L29.9132 9.85808C29.4554 9.23664 29.0589 8.26249 28.1488 9.11907C27.9924 9.97006 28.7351 10.6307 29.1036 11.1346L32.8056 16.3244Z" fill="#1A3C55"/>
</svg>
