<svg width="35" height="47" viewBox="0 0 35 47" fill="none" xmlns="http://www.w3.org/2000/svg">
<path fill-rule="evenodd" clip-rule="evenodd" d="M18.781 33.7706C19.4567 33.3339 19.8252 33.1323 20.4227 32.6565C20.9029 32.2702 21.3328 31.7775 22.1425 31.7327C22.9522 31.6879 23.8511 31.9566 24.6831 31.9846C25.9004 32.035 26.04 31.7383 26.7603 31.3632C27.0283 31.951 30.4177 40.5225 30.574 41.3007C25.6715 40.9424 26.2131 39.9738 24.4654 42.0677L22.3658 44.4583L18.781 33.7706ZM12.5607 15.2057C13.4206 15.1161 15.9221 14.909 16.2963 14.4163C16.8044 13.7445 17.2958 12.0425 17.8262 11.4211C18.3623 12.0481 18.8313 13.7221 19.3618 14.4107C19.7582 14.9258 22.176 15.0602 23.1029 15.2113C22.9633 15.6536 21.2491 17.0365 20.8582 17.4787C20.2608 18.1394 20.9811 20.418 21.0983 21.4705C20.3557 21.241 18.3343 19.9085 17.8262 19.9141C17.2902 19.9197 15.3358 21.2466 14.5541 21.4761C14.6602 20.5188 15.3582 18.1786 14.8445 17.5403C14.3308 16.9021 12.8511 15.9167 12.5607 15.2057ZM10.2713 14.3939C10.1987 15.2561 10.584 15.3457 11.0363 15.7712L13.1247 17.8706C13.6551 18.3577 13.644 18.2513 13.4876 19.1751C13.3592 19.9253 12.8622 22.2207 12.8957 22.8366C12.9851 24.3034 14.9171 22.9318 15.4419 22.6574C16.6425 22.0192 17.5414 21.269 18.2283 21.5993C19.0602 22.0024 20.0374 22.5622 20.9029 23.0101C22.4217 23.7995 22.9354 23.8835 22.5948 21.7728C22.511 21.2354 21.9806 18.632 22.0811 18.3353L25.208 15.1945C25.61 14.6683 25.3476 14.1644 24.7501 14.0188C19.9201 12.8711 21.0202 14.769 19.3171 11.1971C18.9988 10.5365 18.3902 8.38666 17.3683 9.19285C17.1729 9.34402 16.1511 11.5219 15.9724 11.8858C15.1181 13.6773 15.6374 13.3246 13.5379 13.6381C12.9516 13.7277 12.3429 13.8341 11.751 13.9125C10.5338 14.0692 10.8744 13.946 10.2713 14.3939ZM16.2963 6.92543C22.3882 6.00727 27.0172 10.3965 27.8491 15.4577C29.3065 24.3426 18.7029 30.7474 11.5444 24.936C4.51444 19.2311 7.66371 8.2243 16.2963 6.92543ZM17.0612 5.43621C10.4277 6.04086 5.90481 11.3987 6.32359 17.8203C6.72563 23.9507 12.0917 28.9726 18.7475 28.4967C24.8004 28.0656 29.7811 22.7078 29.3233 16.0735C28.9156 10.1446 23.5384 4.84836 17.0612 5.43621ZM13.281 44.4583L11.1312 42.0061C9.79672 40.4721 10.2937 40.7072 7.8033 40.9871C6.88756 41.0879 5.9774 41.2279 5.07841 41.3119C5.14542 40.7576 8.45102 32.2478 8.88098 31.3632C11.1759 32.6453 11.1759 31.6655 13.415 31.7383C14.4983 31.7719 15.0678 32.6229 16.0115 33.2723C16.313 33.4795 16.581 33.5914 16.8714 33.7762L13.281 44.4583ZM17.4912 1.47802C19.144 0.97975 19.708 3.94699 23.1252 3.54949C24.5212 3.38714 25.5151 2.93365 26.1684 4.21013C27.542 6.88064 26.4699 6.88624 30.0268 8.38106C31.3558 8.94092 31.5512 9.15366 31.3167 10.8612C31.1324 12.2441 30.9984 13.2182 31.674 14.3044C32.0984 14.9818 33.0979 15.9559 33.2933 16.639C33.7568 18.2737 30.7918 18.8952 31.2162 22.3271C31.4004 23.8219 31.7745 24.6841 30.5461 25.3279C28.0111 26.666 27.8994 25.5743 26.3806 29.1966C25.8055 30.5682 25.6212 30.7474 23.7897 30.4842C22.4161 30.2827 21.6065 30.1147 20.4897 30.8593C19.9313 31.2344 18.7085 32.3262 18.1333 32.4661C16.4414 32.8804 15.8161 29.8852 12.4658 30.3946C11.0196 30.613 10.1262 30.9489 9.50636 29.7732C8.13833 27.1811 9.16016 27.0411 5.6647 25.5799C4.34134 25.0312 4.0789 24.8913 4.31342 23.1445C4.50327 21.7113 4.68754 20.8323 3.98956 19.6846C3.60428 19.0519 2.56011 18.0106 2.35909 17.3668C1.82305 15.6536 4.82714 15.0937 4.43069 11.6786C4.26317 10.2286 3.84997 9.26004 5.05607 8.6274C5.93831 8.15712 6.98248 7.94997 7.74188 7.35652C9.84138 5.71054 8.36727 2.96164 11.7008 3.43752C16.0897 4.06456 15.213 2.16665 17.4912 1.47802ZM26.1908 42.2468C29.1837 42.1684 32.4893 43.6913 32.3776 42.0677C32.3497 41.6534 29.2339 33.7818 28.9603 33.0988C28.67 32.3877 27.609 30.0587 27.7989 29.4597C28.3349 27.7913 28.737 27.5674 30.3172 26.9627C34.9741 25.1936 31.406 22.5287 32.9862 20.2052C33.5334 19.3935 34.7786 18.3353 34.7396 16.8853C34.7005 15.4968 33.4832 14.4779 32.9137 13.6493C31.3837 11.4211 35.0913 8.80655 30.2055 6.91983C28.4131 6.22561 28.4801 6.11364 27.7654 4.35569C25.8892 -0.251935 23.3486 3.39833 20.9755 1.72436C20.1882 1.1645 19.1831 0 17.8262 0C16.3968 0 15.4587 1.1813 14.6211 1.78594C13.2531 2.77129 11.9353 1.74116 10.2769 1.9707C8.84189 2.17225 8.29467 3.31435 7.83122 4.53484C7.15558 6.2872 7.13883 6.24801 5.37435 6.95902C0.549948 8.91852 4.38043 11.4547 2.63828 13.7781C2.0464 14.5619 0.851472 15.7096 0.924062 17.1204C0.991067 18.4193 2.19716 19.4942 2.71646 20.2724C4.34134 22.7246 0.522029 25.1152 5.49719 27.0299C6.117 27.2706 6.7703 27.489 7.13324 27.9537C7.31751 28.1944 7.8368 29.2245 7.89822 29.6332C7.95964 30.0251 4.21291 39.4923 3.89464 40.3153C3.21341 42.0733 2.41493 43.0362 5.0114 42.7283C6.17283 42.5939 8.39518 42.2076 9.45611 42.2524C10.4668 43.305 11.2373 44.3407 12.2424 45.438C12.5328 45.7571 13.2252 46.972 13.9566 46.457C14.5541 46.0371 17.0836 36.7602 17.8262 35.6125C18.312 36.3627 19.0212 38.9773 19.3729 40.0354C19.8755 41.547 20.378 42.9634 20.8806 44.4639C21.0872 45.0853 21.3496 46.3562 21.8466 46.5353C22.5501 46.7873 23.1811 45.6843 23.4659 45.3764C24.4095 44.3687 25.2192 43.2098 26.1908 42.2468Z" fill="#1A3C55"/>
</svg>
