<svg width="48" height="39" viewBox="0 0 48 39" fill="none" xmlns="http://www.w3.org/2000/svg">
<path fill-rule="evenodd" clip-rule="evenodd" d="M2.37244 34.5841L16.6893 34.5897C16.9573 35.771 17.9345 36.7452 19.3025 36.8683C20.732 37.0027 22.7031 36.8907 24.1883 36.8907C27.3823 36.8907 31.0173 37.613 31.6874 34.5897H46.0154C46.0154 37.1315 45.2058 37.529 42.7824 37.529H5.82323C3.25468 37.529 2.37244 37.3162 2.37244 34.5841ZM23.9092 21.1979C23.9873 21.086 23.9929 21.0804 24.0655 20.9908L25.2939 22.3345L23.133 22.3121L23.9092 21.1979ZM20.6315 23.219C20.7711 24.0196 22.3848 23.7621 23.2559 23.7621C23.9147 23.7621 27.3599 23.958 27.7341 23.5102C28.3594 22.7711 27.1254 22.0881 26.6787 21.657C24.8249 19.8711 24.931 17.5757 23.7528 18.4658C23.5127 18.645 23.3787 19.1601 23.2391 19.4736C22.0218 22.1385 20.4584 22.2113 20.6315 23.219ZM24.0711 13.2032C23.3229 12.7889 22.5858 12.1674 22.2396 11.4788C23.6746 11.7308 24.0543 11.8427 25.6569 11.7364C25.4335 12.3634 24.73 12.968 24.0711 13.2032ZM20.9944 9.72648C20.7376 9.86644 20.4416 9.86644 20.5589 10.9917C20.6091 11.4956 20.7655 11.8427 20.9888 12.2122C21.5305 13.1304 23.4848 15.2467 24.7802 14.4909C25.5396 14.0486 26.0422 13.6231 26.6117 12.9568C26.9691 12.5481 28.6442 10.2191 27.4772 9.78805C26.7401 9.51372 26.0198 10.7398 23.4848 10.2919C22.731 10.1576 21.4076 9.49134 20.9944 9.72648ZM20.0005 26.1639C19.5873 26.1639 19.7213 26.2087 19.4254 26.0183C19.4254 25.5368 20.2853 25.7104 20.8046 25.7104H27.5554C28.9011 25.7104 28.8229 25.5872 28.9457 26.0183C28.6554 26.2087 28.7894 26.1639 28.3706 26.1639H20.0005ZM20.6985 24.2436C19.3807 21.7186 21.0838 19.3896 22.8482 17.9172C23.3564 17.4973 24.2609 17.1558 23.9818 16.0081C23.8198 15.3586 22.8706 14.9275 22.3345 14.4741C19.8721 12.3746 19.9614 10.5551 20.5812 7.59341L27.7843 7.59902C28.2478 9.6257 28.499 11.0309 27.4549 12.8617C26.2599 14.9443 24.6295 14.9947 24.3949 16.0081C24.1102 17.195 25.0371 17.5141 25.5787 17.9788C27.332 19.468 29.0072 21.741 27.6726 24.266L20.6985 24.2436ZM20.3467 6.15458C19.2746 6.14899 19.5147 6.1098 19.4198 5.85786C19.8162 5.57233 28.5549 5.57233 28.9513 5.85786C28.8452 6.15458 29.13 6.05941 28.5884 6.15458L21.631 6.16018C21.201 6.16018 20.7711 6.15458 20.3467 6.15458ZM19.1238 7.45905C18.5599 10.9358 18.5655 13.22 21.5081 15.6554C21.8208 15.9185 22.0888 16.0529 22.4518 16.344C22.2843 16.7191 21.4523 17.1838 20.933 17.7436C19.2579 19.5632 18.3421 21.6066 19.1462 24.2716C18.6604 24.7866 18.1523 24.6691 18.0182 25.6768C17.6721 28.2745 21.3239 27.5803 24.1883 27.5803C25.1041 27.5803 28.7559 27.6867 29.3534 27.4683C29.9397 27.25 30.431 26.6118 30.364 25.7888C30.2803 24.6859 29.6828 24.7586 29.2305 24.2716C29.7331 22.6536 29.5432 20.9012 28.7726 19.5576C28.1193 18.4155 26.8742 17.0102 25.8858 16.5119C26.2599 15.8177 27.8513 15.4258 28.9513 13.08C29.9285 10.9861 29.5544 9.69288 29.2417 7.45905C30.7772 6.94958 30.6879 4.87811 29.3589 4.40223C28.8899 4.23427 19.6487 4.21748 19.1071 4.37424C17.7279 4.76054 17.5213 6.91599 19.1238 7.45905ZM6.75573 3.80318L41.5595 3.83678L41.5037 28.2186L6.81156 28.1682L6.75573 3.80318ZM5.38769 3.41128V28.5825C5.38769 29.3943 5.54404 29.6294 6.40953 29.6294H41.9672C42.8271 29.6294 42.9834 29.3999 42.9834 28.5825V3.41128C42.9834 2.59389 42.7936 2.36435 41.9672 2.36435H6.40953C5.57754 2.36435 5.38769 2.58829 5.38769 3.41128ZM30.163 34.5897C29.7331 35.659 28.8285 35.4911 27.5554 35.4911H20.8157C19.5426 35.4911 18.6548 35.6535 18.2081 34.5841L30.163 34.5897ZM36.9641 31.9528H38.7621V33.1621L37.4331 33.1677L36.9641 33.1565V31.9528ZM12.7974 31.9528L35.5681 31.9752L35.5737 33.1397L35.1103 33.1621C29.8894 33.2909 23.1218 33.1509 17.9122 33.1565L12.7974 33.1397V31.9528ZM9.61463 31.9528H10.938L11.4014 31.9584V33.1565L10.938 33.1621H9.62021L9.61463 31.9528ZM5.24252 1.50217C6.04658 1.30622 38.1088 1.45738 39.8732 1.45738C44.424 1.45738 44.3849 0.998298 44.3849 5.62832V27.418C44.3849 28.8456 44.519 30.1948 43.1844 30.4972C42.4139 30.6707 39.8062 30.5364 38.8291 30.5476C28.7838 30.6427 18.5431 30.4244 8.49787 30.542C3.88565 30.5979 3.98058 30.9562 3.98058 26.3654V4.57579C3.98058 3.05857 3.80748 1.84928 5.24252 1.50217ZM8.2131 31.9528V33.1621L2.09883 33.1565C1.32269 33.1621 0.993243 33.2013 0.942988 34.0523C0.859231 35.3959 0.998826 36.5156 1.61863 37.4618C2.05975 38.128 2.98108 38.8222 4.2151 38.9118C6.65522 39.0966 9.81565 38.9286 12.3339 38.9286C20.5086 38.9286 28.6777 38.9286 36.8524 38.9286C38.5108 38.9286 43.5809 39.1302 44.8372 38.7999C47.4672 38.1112 47.8637 34.8864 47.2439 33.3133C46.1941 32.9885 41.6991 33.1621 40.1636 33.1621V31.9528C42.7377 31.9528 44.8317 32.1991 45.6078 30.0101C46.0154 28.8568 45.8088 10.0568 45.8088 7.95732C45.8088 5.96983 46.1829 2.62749 45.1834 1.23904C44.0052 -0.395744 41.3976 0.0577404 38.9463 0.0577404H9.43037C7.06284 0.0577404 4.39936 -0.373353 3.23235 1.16066C2.13234 2.59949 2.55671 5.89145 2.55671 7.95732C2.55671 10.0288 2.36128 28.7952 2.72981 29.9317C3.46687 32.2047 5.61663 31.9528 8.2131 31.9528Z" fill="#1A3C55"/>
</svg>
