<svg width="44" height="47" viewBox="0 0 44 47" fill="none" xmlns="http://www.w3.org/2000/svg">
<path fill-rule="evenodd" clip-rule="evenodd" d="M7.61705 9.38326C7.48304 7.71489 7.76782 6.8639 8.66681 5.99612C9.64397 5.05556 10.6435 5.15634 12.2125 5.16194C15.3729 5.16194 13.7816 5.06116 14.7364 3.10726C15.8197 0.890228 19.0918 0.800651 20.2085 3.16325C21.1019 5.04437 19.5999 5.16194 22.671 5.16194C24.3517 5.15634 25.2395 5.03877 26.2893 6.03531C27.1436 6.84711 27.4507 7.82126 27.2944 9.41125L7.61705 9.38326ZM17.21 30.7026H23.2517C24.8431 30.7026 24.6979 29.303 23.3689 29.303H17.1263C15.842 29.303 15.6912 30.7026 17.21 30.7026ZM17.21 19.4887H23.2517C24.7481 19.4887 24.7928 18.0834 23.3689 18.0834H17.0928C15.842 18.0834 15.6912 19.4887 17.21 19.4887ZM23.3689 41.9166C24.7761 41.9166 24.6923 40.5169 23.3689 40.5169L17.0928 40.4945L16.3501 40.6233C15.9537 41.4519 16.1603 41.9166 17.21 41.9166H23.3689ZM16.2552 37.6728C16.9699 38.0647 21.8613 37.9304 23.2629 37.908C24.0613 37.8968 24.7202 37.4601 24.24 36.7659C23.8938 36.2676 18.6506 36.4747 17.3217 36.4692C16.3334 36.4692 16.0263 36.7267 16.2552 37.6728ZM8.0135 17.4732C7.81249 17.1821 6.88557 16.012 6.24344 16.2527C5.1881 16.639 6.26019 17.6747 6.69572 18.1114C8.37645 19.791 8.06934 19.5279 10.1242 17.4732C10.677 16.9189 11.1293 16.4431 11.6932 15.9C12.9496 14.6739 11.844 14.1756 11.2633 14.4108C10.5932 14.6795 8.83432 17.0701 8.0135 17.4732ZM6.12059 38.7422C5.25511 39.5204 6.65106 40.4385 7.04192 40.8304C8.37087 42.1685 8.02467 42.0621 10.9897 39.0837C11.5592 38.5126 12.5475 37.9752 12.1008 36.9282C11.1851 36.5587 11.0232 37.0402 9.93433 38.1375C9.44296 38.6246 8.61097 39.5652 8.10843 39.9011C7.7399 39.4812 6.92466 38.3783 6.12059 38.7422ZM5.88607 27.8082C5.73531 28.3176 5.82465 28.4296 6.17085 28.7711C8.5328 31.0833 7.65056 31.1897 11.1404 27.6962C11.4643 27.3715 12.3409 26.722 12.246 26.1006C12.1902 25.7143 11.8887 25.4904 11.4531 25.5743C10.7496 25.7143 8.84549 28.3512 7.99117 28.6815C7.54446 28.0601 6.55613 26.8004 5.88607 27.8082ZM16.4953 4.77004C16.1212 3.3704 18.1928 2.9561 18.4273 4.23817C18.6841 5.67141 16.7912 5.87856 16.4953 4.77004ZM16.7689 2.1835C13.6978 3.10726 15.0993 7.72608 18.1816 6.78552C21.141 5.88415 19.8902 1.24294 16.7689 2.1835ZM17.21 15.4801H27.903C29.3045 15.4801 29.5 14.0469 27.7857 14.0469H17.21C15.6856 14.0469 15.7973 15.4801 17.21 15.4801ZM17.21 26.694H27.903C29.3548 26.694 29.4106 25.2608 27.903 25.2608H17.21C15.7303 25.2608 15.7526 26.694 17.21 26.694ZM5.40028 13.0783C6.49471 12.9943 12.0729 12.8712 12.6983 13.1455C12.8435 13.571 12.8491 19.8582 12.7151 20.4068C12.0953 20.6812 6.46679 20.5748 5.35561 20.474L5.40028 13.0783ZM5.03734 11.7403C3.49621 12.2441 3.93174 14.0861 3.93174 15.8384C3.93174 22.2712 3.27844 21.9017 8.14751 21.9017C14.5298 21.9017 14.178 22.5511 14.178 17.7027C14.178 16.8294 14.2729 13.2127 14.0887 12.6752C13.6085 11.27 11.5425 11.6395 10.0069 11.6395C9.00742 11.6395 5.72973 11.5107 5.03734 11.7403ZM5.36678 31.688C5.31653 30.6018 5.23277 25.0145 5.42262 24.2923C6.33836 24.2251 12.246 24.1579 12.6592 24.3482C12.8937 24.5666 12.7597 31.4472 12.7486 31.6432C12.1008 31.8111 6.30486 31.7663 5.36678 31.688ZM5.19927 22.8814C3.52971 23.2621 3.93174 25.1152 3.93174 26.7892C3.93174 27.8809 3.79215 31.0441 3.97641 31.9007C4.31703 33.4907 6.25461 33.1156 7.91299 33.1156C9.01859 33.1156 12.1288 33.2556 13.011 33.0652C14.5186 32.7405 14.178 30.6746 14.178 29.1238C14.178 28.0321 14.3176 24.8969 14.1389 24.0459C13.8095 22.4783 11.8607 22.8478 10.2359 22.8478C9.23077 22.8478 5.91958 22.7191 5.19927 22.8814ZM5.36678 35.5118C6.40537 35.439 12.0059 35.3718 12.7653 35.5566L12.7597 42.8459C12.1064 43.0307 6.30486 42.9859 5.35003 42.9019L5.36678 35.5118ZM14.1222 43.221C14.2729 42.7395 14.178 38.9269 14.178 38.0927C14.178 33.4179 14.474 34.0618 8.03025 34.0618C3.26727 34.0618 3.93174 33.765 3.93174 40.3098C3.93174 41.8774 3.55763 43.932 5.08759 44.2848C5.88049 44.4695 9.08001 44.3351 10.1242 44.3351C11.8049 44.3351 13.6476 44.7158 14.1222 43.221ZM26.8532 40.0578C26.6801 39.7555 26.6355 39.1453 26.5852 38.7086C26.5126 38.0535 26.7192 38.0312 27.0933 37.6281C27.7299 36.945 27.9309 36.4244 28.4837 35.6462L29.338 35.9877C29.1649 36.8275 28.7685 37.5161 28.5731 38.5294C28.4223 39.2964 28.534 39.2013 27.9197 39.5092C27.5289 39.7107 27.2162 39.9179 26.8532 40.0578ZM28.2324 33.9218C28.3609 33.3004 33.699 22.7638 34.4528 21.241L36.5076 17.1597C37.0772 17.3556 38.7914 18.1394 39.199 18.5313L30.9294 35.2095L28.2324 33.9218ZM37.1777 15.8384C37.9818 12.9104 41.6726 14.3492 39.8356 17.1933L37.1777 15.8384ZM32.5208 21.7841C32.4315 22.3328 27.8974 31.4248 26.9091 33.2556C26.4065 34.1849 26.3451 34.4537 27.1827 34.9463C26.7025 36.2788 25.2284 37.3537 25.1167 37.768C24.9827 38.2551 25.2786 39.4084 25.3512 39.9515C25.4573 40.6961 25.4238 41.6646 26.0045 41.8606C26.468 42.0173 28.8802 40.6513 29.3324 40.349C30.1979 39.7723 29.9299 37.6057 30.6893 36.7267C32.035 37.1354 31.8954 36.206 32.504 35.3214C32.5487 36.9674 32.5152 38.6582 32.5152 40.3098C32.5152 41.1831 32.733 44.6767 32.2751 45.0406C31.8898 45.3429 8.65564 45.1805 4.7749 45.1805C4.08809 45.1805 2.96575 45.4045 2.51904 44.8894C2.20635 44.156 2.40178 28.9839 2.40178 26.7892C2.40178 24.3035 2.16726 9.67439 2.55255 8.59386C3.26169 8.33633 5.26069 8.4539 6.19318 8.4539C6.19318 11.2308 5.64039 10.8333 10.5876 10.8333L27.5624 10.8389C29.1147 10.8333 28.7294 9.93752 28.7294 8.49309C29.5502 8.38671 31.6832 8.38112 32.37 8.57147C32.7665 9.76956 32.4705 19.5279 32.5208 21.7841ZM33.9279 32.4158C34.369 31.2457 40.3158 19.3543 40.5782 19.1472L41.9686 19.8022C41.6894 21.2522 38.2386 26.5821 38.5681 27.3939C38.7132 27.7466 39.1432 27.9425 39.534 27.7466C39.9584 27.5394 41.36 24.3426 41.7061 23.6204C42.0468 22.9262 42.4209 22.1928 42.7559 21.5266C44.4925 18.0443 43.3813 19.5111 41.1869 17.8203C41.5833 16.4655 42.3595 15.6481 41.2874 14.0693C40.7178 13.2407 39.3945 12.4457 37.8645 13.0167C35.6645 13.8453 35.2122 17.5964 33.9391 18.996C33.7883 16.2695 33.9167 13.1343 33.9223 10.363C33.9223 8.96897 33.9223 7.73168 32.7609 7.23341C31.1472 6.53919 28.9248 7.55813 28.4055 6.71274C28.0091 6.06331 27.8583 5.18993 26.3563 4.33895C24.9994 3.56634 23.503 3.7455 21.8167 3.7455C21.5319 1.68522 19.7674 -0.011142 17.4445 5.51154e-05C16.1938 0.00565369 15.1943 0.548715 14.5019 1.12537C14.1668 1.4053 13.8877 1.7804 13.6196 2.21709C13.2734 2.78255 13.2958 3.11846 13.0278 3.70631C11.3359 3.93025 10.2749 3.43758 8.69473 4.27176C7.72314 4.78683 6.75156 5.77218 6.41653 7.00387C4.69672 7.12144 2.37945 6.63436 1.46929 7.74848C0.654054 8.75062 0.989082 11.5163 0.989082 13.0447V41.8214C0.989082 43.6185 0.670806 45.7572 2.17843 46.4122C3.08301 46.8097 26.0548 46.5914 30.6893 46.597C32.8391 46.6026 33.9223 46.317 33.9223 44.0384C33.9223 40.237 33.7883 36.1892 33.9279 32.4158Z" fill="#1A3C55"/>
</svg>
