<svg width="48" height="47" viewBox="0 0 48 47" fill="none" xmlns="http://www.w3.org/2000/svg">
<path fill-rule="evenodd" clip-rule="evenodd" d="M21.0526 29.351C22.3033 29.9052 27.0607 29.3622 28.9425 29.5917L28.9592 35.3527C28.2724 35.3135 27.5968 33.4267 25.1176 34.149C22.1191 35.0167 21.9348 39.3556 24.9556 40.4641C25.7095 40.7441 26.6475 40.7049 27.3846 40.3914C28.4734 39.9267 28.3562 39.4452 28.9201 39.2828L28.9648 45.0998L13.453 45.1334L13.4251 39.5572C13.4251 38.807 13.5535 38.3423 13.0622 38.0288C12.6601 37.7936 11.3926 37.76 10.985 38.0456C10.6109 38.3143 10.6109 38.8798 9.76772 39.1597C8.34385 39.6244 7.10424 38.4879 7.24383 37.1162C7.37226 35.8789 8.81288 34.9608 10.0692 35.6942C10.6053 36.0077 10.8398 36.6739 11.2753 36.7915C11.951 36.9762 12.9616 36.8251 13.3302 36.5843C13.6931 35.0111 13.3078 31.484 13.453 29.5749C14.983 29.4965 18.7018 29.8213 19.7348 29.351C20.3993 26.938 19.0424 27.5091 18.6013 26.2102C18.1378 24.8441 19.1708 23.6852 20.3937 23.6852C21.6221 23.6852 22.6384 24.8665 22.1917 26.2158C21.7673 27.4923 20.3714 26.9436 21.0526 29.351ZM45.7832 29.5525L45.8167 45.0718H30.3496L30.3719 38.8518C30.3496 38.0288 30.1598 37.872 29.3445 37.8496C26.9379 37.7936 28.1328 38.8406 26.5303 39.1933C23.5374 39.8427 23.3866 35.0223 26.3795 35.431C26.9826 35.515 27.3734 35.8677 27.647 36.2484C28.1049 36.8867 28.144 36.8139 29.2328 36.7971C30.0592 36.7859 30.3552 36.6739 30.3887 35.8341C30.4166 35.1679 30.3831 34.4121 30.3831 33.7291C30.3831 32.3574 30.344 30.9186 30.3943 29.5469L36.5532 29.5525C37.3796 29.5357 37.5806 29.323 37.6029 28.4944C37.6197 27.5538 37.7202 27.3019 37.1172 26.8652C36.7263 26.5853 36.3913 26.2998 36.2573 25.6279C35.6765 22.6719 40.5009 22.5487 40.0152 25.5552C39.7527 27.1843 38.6248 26.1374 38.6527 28.3768C38.675 29.894 39.5294 29.5413 41.6624 29.5413C43.0025 29.5413 44.4487 29.4909 45.7832 29.5525ZM7.96974 7.16385C8.00324 6.50881 7.68497 6.30726 7.37786 6.00494C6.42303 5.07558 4.63062 6.38005 4.0499 4.32537C3.45802 2.22591 6.23875 0.904643 7.47277 2.75777C8.27126 3.95586 7.07633 4.27498 8.20984 5.4003C9.25401 6.43603 9.49411 5.67463 10.2144 5.0028C11.0241 4.24699 13.0845 1.88999 13.6875 1.68844L18.1992 6.22329C18.6404 6.60959 18.9921 6.51441 19.3663 6.13931C21.1196 4.40935 19.746 5.17075 20.3267 3.49118C21.0749 1.32454 24.5034 2.09714 23.9729 4.5829C23.7607 5.57945 22.9511 6.07772 21.7841 5.98815C20.4495 5.88737 19.7292 7.3262 19.7683 7.63413C19.9916 8.22198 23.8836 11.9394 24.5592 12.6225C24.3582 13.0088 21.9292 15.4553 21.5551 15.6681C21.2089 15.0018 21.3429 14.6995 20.7455 14.0389C20.3825 13.6358 20.0196 13.2943 19.383 13.0647C18.0206 12.5665 16.6246 13.0871 15.8876 13.8317C15.1114 14.6099 14.6033 16.0152 15.1505 17.4316C15.7647 19.0272 17.1439 19.2064 17.7135 19.5199C17.4399 20.0126 14.2571 23.0974 13.6038 23.702L9.82355 19.8446C13.7155 19.2568 13.5982 15.6569 12.1408 14.1621C10.8063 12.796 8.29918 12.8352 7.03724 14.6323C6.88089 14.8563 6.71338 15.2146 6.62404 15.5001C6.54587 15.7633 6.50677 16.1663 6.33367 16.4015C5.80321 15.9424 2.8438 13.0255 2.6707 12.6448C3.50269 11.4579 7.50628 8.02043 7.96974 7.16385ZM9.17583 3.98386C9.19816 0.893446 5.69712 -0.73014 3.54177 1.4533C1.41993 3.59196 2.89964 7.07427 6.05448 7.11346C5.93722 7.47737 5.62454 7.60613 5.37885 7.84127L1.31943 11.9282C0.465111 12.8128 1.16308 13.2719 1.74938 13.8597C2.86614 14.9739 3.89357 16.0096 5.00474 17.1237C5.68597 17.8067 6.7078 19.4247 7.8078 17.7339C8.15958 17.1965 7.8413 17.0061 7.87481 16.3903C7.9809 14.442 10.7002 13.9325 11.5043 15.7297C11.9342 16.687 11.4596 17.706 10.918 18.0531C9.76772 18.7977 9.08649 17.9467 8.29359 18.6913C7.13216 19.783 8.09257 20.2085 10.1251 22.2408C13.9221 26.031 13.2464 26.1038 15.3403 24.0043C16.0048 23.3325 20.0587 19.5647 19.9972 18.932C19.3718 17.2021 18.1434 18.7305 16.9038 17.5436C15.8708 16.5582 16.3343 14.9459 17.4287 14.4476C18.7018 13.8765 20.0642 14.8115 20.1313 16.032C20.1759 16.9278 19.8576 17.2469 20.5389 17.7451C21.2145 18.2434 21.6389 17.6892 22.0186 17.3029L25.5029 13.8038C26.9658 12.3537 26.413 12.5889 23.8724 9.96873C23.5039 9.58803 21.7561 8.00923 21.5216 7.51656C21.946 7.3262 23.8612 7.7349 24.978 5.82019C26.6755 2.90893 23.4648 -0.366233 20.5891 1.18457C19.4165 1.81721 18.8023 2.88654 18.8358 4.68928C18.3668 4.66128 14.9495 0.848657 14.1119 0.182427C13.3023 -0.461408 12.5261 0.725489 11.5266 1.77242C11.0911 2.2371 9.72862 3.69273 9.17583 3.98386ZM38.0552 21.9105C36.408 21.9497 35.3248 23.0358 34.9395 24.3123C34.2527 26.6021 36.0395 27.6042 36.1679 28.1193H30.3999C30.1821 26.171 30.7572 20.5556 30.0202 20.1357C27.4795 19.6095 28.4455 21.0315 26.8821 21.373C25.5308 21.6697 24.4196 20.6788 24.4922 19.4191C24.5648 18.2546 25.7318 17.2637 27.0552 17.7283C27.9095 18.0307 27.781 18.417 28.2166 18.7809C28.5963 19.0944 29.6349 19.0832 30.0313 18.8313C30.478 18.4954 30.3719 18.1202 30.3664 17.4204L30.3943 12.5441C31.7846 12.5441 33.1806 12.5441 34.571 12.5441C37.1227 12.5441 37.6085 12.8576 37.6253 11.3684C37.6532 9.11775 36.503 10.2711 36.2684 8.5075C35.8664 5.53466 40.5959 5.70262 40.004 8.64747C39.669 10.3046 38.6025 9.07296 38.6639 11.4859C38.7141 13.5518 42.4385 12.0794 45.9228 12.5777L45.9005 28.1081L40.0822 28.0857C40.1436 27.873 40.903 27.2067 41.1933 26.5069C42.0532 24.4354 40.5679 21.8489 38.0552 21.9105ZM28.7582 21.8825C28.9313 21.6977 28.546 21.7201 28.9816 21.7257L28.9481 28.0969C28.2389 28.2873 23.5709 28.2033 22.5267 28.1305L22.7836 27.901C22.9399 27.5426 23.4089 27.2907 23.6211 26.2494C24.4364 22.252 18.7409 20.6228 17.3114 24.3459C17.0434 25.0345 17.0211 25.9135 17.2556 26.6301C17.5348 27.4867 17.9201 27.593 18.1602 28.1025C16.8256 28.1529 13.1515 27.9345 12.2302 28.2425C11.7332 29.1942 11.9957 33.8354 11.9957 35.3638C11.2083 35.2239 10.6835 33.4099 8.15959 34.1602C5.0885 35.0671 5.08849 39.462 7.99206 40.4585C10.3708 41.2759 11.4764 39.49 11.9119 39.294C12.1967 39.9435 12.0068 43.5378 12.0012 44.5679C12.0012 46.9361 11.8672 46.5498 15.3962 46.5498C20.2094 46.5498 46.1183 46.7681 47.1624 46.3594C47.5142 45.2341 47.3076 37.6985 47.3076 35.8285L47.3243 14.3916C47.3243 10.9149 47.6817 11.1108 45.2639 11.1108C43.8289 11.1108 41.3944 11.2508 40.0822 11.0716C40.2106 10.7077 40.4116 10.6462 40.6685 10.3662C40.8471 10.1703 41.0593 9.82876 41.1989 9.49845C42.9299 5.34431 36.3131 2.76337 34.9506 7.32061C34.2806 9.56563 36.0451 10.6014 36.1903 11.1052C34.6715 11.1052 30.0313 10.8757 29.0709 11.3124C28.7805 12.2138 28.9536 15.9648 28.9313 17.2581C28.4679 17.0453 28.2222 16.5974 27.3902 16.3567C23.3475 15.1866 21.3876 20.802 24.9556 22.5207C26.4856 23.2541 27.8816 22.6327 28.7582 21.8825Z" fill="#1A3C55"/>
</svg>
