<svg width="20" height="20" viewBox="0 0 20 20" fill="none" xmlns="http://www.w3.org/2000/svg">
<path d="M6.29262 0.666504H3.33366C1.8609 0.666504 0.666992 1.86041 0.666992 3.33317V5.99984C0.666992 13.3636 6.63653 19.3332 14.0003 19.3332H16.667C18.1398 19.3332 19.3337 18.1393 19.3337 16.6665V14.8239C19.3337 14.3189 19.0483 13.8572 18.5966 13.6313L15.3754 12.0207C14.6496 11.6578 13.7708 12.0219 13.5142 12.7916L13.1172 13.9827C12.86 14.7542 12.0686 15.2135 11.2711 15.054C8.07938 14.4156 5.58452 11.9208 4.94617 8.72906C4.78668 7.9316 5.24596 7.14018 6.01747 6.88301L7.49565 6.39029C8.15661 6.16997 8.53651 5.47791 8.36753 4.802L7.58615 1.67646C7.43776 1.0829 6.90445 0.666504 6.29262 0.666504Z" stroke="#1A3C55"/>
</svg>
