<svg width="60" height="60" viewBox="0 0 60 60" fill="none" xmlns="http://www.w3.org/2000/svg">
<path fill-rule="evenodd" clip-rule="evenodd" d="M33.6662 42.7618C34.8018 41.8301 34.7782 41.8597 36.1756 42.5443C35.96 43.0808 33.4707 45.5197 33.0352 45.7501C32.4103 45.4161 32.0027 44.9906 31.5193 44.5263L33.6662 42.7618ZM28.0924 44.0747C28.134 44.1094 28.3094 44.2644 28.3326 44.2865C28.4819 44.4274 28.4578 44.4027 28.5591 44.5263C28.0789 44.9926 27.6669 45.4167 27.0432 45.7501C26.6065 45.5188 24.1186 43.0762 23.9022 42.5443C25.4847 41.7894 25.3369 41.7782 28.0924 44.0747ZM27.226 41.0827C27.5085 40.4799 27.6299 40.1981 27.6922 39.3276C28.4515 39.3913 29.1016 39.7112 30.036 39.7431C31.0292 39.7769 31.5503 39.529 32.319 39.498L32.8673 41.2092C31.9826 41.7664 30.8567 42.9204 30.0392 43.3075C29.5807 43.0803 27.5122 41.452 27.226 41.0827ZM26.1142 26.7084C26.1125 24.1296 28.5482 25.6339 30.4896 25.5857C33.175 25.5192 34.4573 23.8702 34.4533 27.6071C34.4501 30.9764 35.7488 30.1311 37.3712 29.8474L37.2811 31.698C35.6139 32.4271 36.1168 31.2106 35.6776 33.7131C34.8391 38.4901 27.6517 39.6139 25.3435 34.9959C24.9654 34.2396 24.7745 32.4288 24.5641 32.1723C23.6826 31.0989 22.6609 33.2491 22.7034 29.6838C23.5528 29.8293 24.2604 30.4258 25.1672 30.0829C26.3229 29.6462 26.1148 28.03 26.1142 26.7084ZM53.1014 36.0991L53.0211 46.2355C52.3318 46.5196 46.456 46.3801 44.8649 46.377C44.3711 46.3761 44.1992 46.4685 43.9451 46.1724C42.9608 44.3462 41.0863 42.8688 38.9041 41.806C38.2763 41.4999 36.2669 40.5381 35.5521 40.3602C34.6023 40.1235 34.2001 40.5728 34.1309 39.4165C34.0721 38.429 34.4185 38.4772 34.9565 38.062C37.3494 36.2145 37.1327 34.0336 37.6373 33.5524C38.6627 32.5746 39.4168 33.7358 39.054 28.341C39.0413 28.1557 38.9624 24.0754 39.1946 23.8473C39.9685 23.4504 39.9743 23.8441 40.3334 24.3586C42.6029 27.6088 48.2998 26.5165 49.1599 23.6438C53.6647 24.2949 57.8629 27.6754 58.16 32.2673C58.3383 35.0258 58.189 38.272 58.189 41.0827C58.189 44.623 58.8828 46.4754 54.8344 46.2413C54.4854 43.9895 54.9914 38.3767 54.7779 36.434C54.651 35.2788 53.4847 35.1666 53.1014 36.0991ZM23.3499 27.9979C23.1644 27.2668 23.2115 24.9861 23.2761 24.1566C23.6246 19.6783 28.5809 20.3632 31.0878 20.3632C32.1364 20.3632 34.0939 20.0682 34.5015 20.8937C35.1833 22.2735 34.2644 22.5025 36.3151 22.9739C37.6293 23.2757 37.3141 24.4288 37.3141 25.8101C37.3138 27.4829 37.7656 27.9927 36.2284 28.2914C36.0456 26.2313 36.4096 24.8429 34.9436 23.9018C33.2568 22.8195 32.1399 23.8332 30.3386 23.845C28.4968 23.857 27.2946 22.7811 25.6156 23.9313C24.2851 24.8429 24.3729 26.2307 24.3652 28.3155L23.3499 27.9979ZM41.4828 22.9423C41.907 21.9648 42.0956 22.2634 42.207 20.7448C46.0877 21.4182 43.1431 21.2202 46.9041 20.9381C47.0069 22.1954 47.3144 22.1108 47.5876 22.9653C46.33 24.9353 43.3788 25.4362 41.4828 22.9423ZM12.5648 22.8155C12.8323 22.167 13.0964 21.8853 13.1693 20.9304C15.3613 21.1034 14.0351 21.6248 17.8604 21.0704C18.0502 22.1016 18.1995 22.1054 18.4885 22.8155C17.0369 24.727 14.1089 24.6506 12.5648 22.8155ZM37.2199 11.1234C39.616 11.4723 42.1401 11.0993 44.0313 10.1473C47.0135 8.64639 47.3278 7.14119 48.6549 7.64015C49.0269 8.88482 48.8286 10.8772 51.88 11.2149L51.8094 13.1238C50.3612 13.8018 50.5397 12.8151 50.2205 14.9819C50.0807 15.9313 49.703 16.651 49.2173 17.2764C46.4202 20.8788 39.9906 19.9623 39.327 14.4239C39.1501 12.9476 38.4325 13.5473 37.3606 13.1086C37.1915 12.5569 37.1999 11.8088 37.2199 11.1234ZM8.29508 13.0831C8.22504 12.89 7.73389 10.6893 8.80691 10.4422C10.4093 10.0735 10.2367 10.3206 10.2479 8.37754C12.7253 8.54051 15.8884 8.16407 18.2023 8.44124C19.5552 8.60363 19.6586 9.41907 20.338 10.2012C21.2282 11.2261 21.5483 10.9943 22.8685 11.5865L22.8004 13.3264C22.0093 13.5129 21.8973 13.2836 21.4811 13.8222C20.8171 14.8528 21.4604 16.323 19.7662 17.9367C17.4339 20.1586 14.0365 20.1709 11.6161 17.7229C10.1552 16.2455 10.692 15.2407 10.0131 13.6483C9.17234 13.4021 8.86403 13.6759 8.29508 13.0831ZM37.8664 9.43829C37.5371 8.20481 37.4456 4.67279 38.8421 3.16731C40.3472 1.54448 42.0672 1.82021 44.7196 1.82021C45.4556 1.82021 47.8816 1.73098 48.4267 1.88706C49.5012 2.19464 48.8315 3.40115 49.792 4.11961C50.7189 4.8131 51.7471 4.02751 51.8306 5.73412C51.8858 6.86087 51.8424 8.27855 51.8123 9.4205C49.7509 9.17518 51.3039 7.42237 49.5207 6.1843C46.1793 3.86425 46.0981 9.86782 37.8664 9.43829ZM14.6098 6.67637C10.3915 6.67637 7.66528 7.15582 8.22476 2.04487C8.98718 1.86325 18.6131 1.87501 19.5446 2.0354C20.0478 2.71082 19.9706 3.25941 20.6771 3.87458C21.494 4.58586 22.2223 4.23323 22.6632 4.74797C23.1346 5.29943 22.8653 8.71869 22.8653 9.70427C21.9172 9.52466 21.6947 9.08193 21.2268 8.4157C19.6345 6.1493 17.3403 6.67637 14.6098 6.67637ZM22.9491 15.1196C24.8759 14.6812 24.6215 13.199 24.6195 11.1366C24.6175 9.01422 25.0076 4.54884 23.9728 3.42468C23.2973 2.69102 22.9626 2.99315 22.0601 2.62991C21.0089 2.20698 21.7242 0.297798 18.9625 0.21373C17.092 0.156919 9.28831 -0.0189643 7.92909 0.278288C6.29486 0.635793 6.26128 2.35647 6.4226 4.20425C6.58278 6.03568 7.52634 6.97449 8.47478 7.63871C8.47938 8.74537 8.54081 8.52932 8.08525 8.80505C7.71035 9.03172 7.36875 9.06472 6.89453 9.71402C6.42605 10.3556 5.34269 14.2764 8.55975 15.2284C8.9358 16.793 9.30122 17.8807 10.4187 19.0691C10.7922 19.4662 10.9653 19.488 11.3904 19.8946C11.5271 22.3946 10.7529 21.6862 8.65764 22.4083C7.30215 22.8755 5.59932 23.216 6.93185 24.7427C7.8932 24.78 9.49929 23.8435 10.8648 23.6547C11.5736 24.2963 11.6861 24.6836 12.7629 25.2618C15.6599 26.8178 18.2658 25.7708 20.1652 23.622L21.4782 24.0134C21.5474 25.0495 21.5112 26.1228 21.5069 27.1667C21.5023 28.2174 19.2791 32.4747 23.1038 33.6227C23.4081 35.2014 23.7253 35.9238 24.5452 36.9909C24.9654 37.5378 25.5571 37.8895 25.7614 38.1618C26.0379 38.5299 26.1191 39.9459 25.4979 40.1631L25.2536 40.2389C25.2332 40.244 24.9448 40.2851 24.8807 40.2962C24.4524 40.37 24.4769 40.3542 24.0862 40.5149C21.8853 41.419 19.4304 42.5136 17.7508 44.0733C17.0219 44.7499 16.7002 45.3851 16.027 46.2591L7.78297 46.2502C7.33832 43.7996 8.22791 37.3171 7.46836 35.6501C6.17803 35.2714 5.94207 35.7405 5.94436 37.0319C5.94752 38.8912 6.08014 45.2591 5.87317 46.2605C3.01092 46.2605 1.8756 46.4427 1.88852 43.3299C1.89828 40.9843 1.88995 38.637 1.88995 36.2914C1.88995 32.7387 1.54319 30.3839 3.77277 27.5563C3.95247 27.3285 4.50735 26.7696 4.59576 26.5736C4.94339 25.8023 3.88185 23.8562 1.47257 27.8028C-0.627262 31.2424 0.134878 37.6267 0.134591 42.1308C0.134591 45.4055 0.193438 48.0159 4.72293 48.003C8.15529 47.9932 11.7619 47.9017 15.1759 48.0142C15.0519 49.0305 14.7108 49.8046 14.6666 51.1164C14.6253 52.347 14.6566 53.6224 14.6563 54.8576C14.6557 57.309 14.8079 59.3103 17.1086 59.8463C18.2681 60.1163 36.5212 59.9484 39.327 59.9484C41.8755 59.9484 43.8975 60.2853 45.0061 58.2872C45.5326 57.3383 45.4424 56.2167 45.4298 54.9982C45.41 53.1377 43.9477 53.4594 43.7255 54.3009C43.2393 56.1407 45.0001 58.6954 40.2625 58.1397C40.2625 57.0238 40.7932 54.0117 39.3295 54.0645C37.9895 54.1127 38.4873 57.0184 38.4873 58.1847L22.2315 58.1649C22.2315 56.1065 22.621 54.0619 21.3476 54.0559C20.0872 54.0502 20.4767 56.0936 20.4767 58.1844C18.0947 58.1844 16.3973 58.7416 16.3959 56.0606C16.3924 50.1337 15.6616 46.6074 22.0997 43.2949C22.2809 43.4294 22.1715 43.3402 22.3495 43.5204L25.6127 46.8562C27.4846 48.613 28.8177 46.3873 30.0392 45.699C31.3599 46.4433 32.6063 48.6377 34.542 46.7824C35.1574 46.1925 35.6523 45.6674 36.2629 45.0571C36.5919 44.7283 36.8359 44.4968 37.1608 44.1576C37.3566 43.9534 37.4028 43.8805 37.5813 43.6796L37.9786 43.2831C45.1964 46.9692 42.5503 51.1588 44.4297 51.2923C46.1122 51.4116 44.9946 48.8738 44.8996 48.0136C55.9829 47.6687 59.9469 50.0284 59.9438 42.5799C59.9423 39.5287 60.2615 32.0547 59.3943 29.5579C58.2889 26.3756 55.6267 24.0843 52.6178 22.8534C51.7468 22.497 50.9964 22.2471 50.0296 21.9989C48.5903 21.6291 48.6618 21.6885 48.667 20.1285C49.3126 19.5919 49.7526 19.3672 50.412 18.6235C51.6544 17.2216 51.636 16.1537 51.9406 15.3549C52.3362 14.3165 53.6592 15.0528 53.6767 12.4917C53.6905 10.4285 53.584 8.45443 53.5903 6.34469C53.5975 3.98762 52.9947 3.19027 51.0114 2.652C50.6485 2.0136 50.8328 1.77688 50.2604 1.10835C48.9962 -0.368436 47.3525 0.0567833 44.7196 0.0567833C41.2373 0.0567833 39.7707 -0.179641 37.6976 1.87214C35.4316 4.11444 36.3447 5.69768 36.0258 9.0432C35.9598 9.73468 35.1419 10.3653 35.4913 12.896C35.667 14.1679 36.4785 14.685 37.6187 15.0901C38.0309 17.1846 39.0666 19.0465 40.4152 19.6338C40.4442 20.3508 40.4427 21.1 40.2725 21.6928L38.4279 22.1498C37.6881 21.5418 37.47 21.4233 36.3682 21.1674C35.8972 17.7387 31.8542 18.6063 28.5413 18.6012C25.6991 18.5969 23.1791 19.2117 21.9628 22.2342C21.5948 22.1771 20.605 21.9455 20.2425 21.8262C19.5323 21.592 19.5989 21.1295 19.6715 20.2702C21.2185 18.936 22.6397 17.9636 22.9491 15.1196Z" fill="#1A3C55"/>
</svg>
