<svg width="60" height="55" viewBox="0 0 60 55" fill="none" xmlns="http://www.w3.org/2000/svg">
<path fill-rule="evenodd" clip-rule="evenodd" d="M44.1969 48.7433C44.1916 49.1457 44.198 49.5481 44.1848 49.951C44.1652 50.5434 44.1126 51.14 43.9784 51.7189C43.55 53.5656 42.3958 54.6521 40.4283 54.8902C40.2207 54.9152 39.9969 54.921 39.7879 54.9284C39.4117 54.9423 39.035 54.95 38.6586 54.9566C37.4988 54.9771 36.3378 54.9843 35.1777 54.99C31.8957 55.0059 28.6124 55.0001 25.33 54.9915C22.2077 54.9834 19.085 54.9705 15.9624 54.9561C14.1349 54.9477 12.3062 54.9336 10.479 54.9336C8.81478 54.9336 7.15054 54.931 5.48659 54.9342C3.88079 54.9374 2.05565 54.6818 1.01477 53.3431C0.251355 52.3613 0.0751876 51.0143 0.0211615 49.8169C-0.0126048 49.0671 0.000317381 48.3127 0.0167601 47.5626C0.0349645 46.7276 0.0590397 45.8935 0.0590397 45.0582V6.05295C0.0590397 5.61919 0.0669611 5.18486 0.0966167 4.75196C0.167673 3.71492 0.369397 2.60765 0.970437 1.72919C1.76879 0.561764 3.04398 0.133764 4.42722 0.07735C7.751 -0.0585048 11.0865 0.072457 14.4126 0.072457C21.0693 0.072457 27.7266 0.072457 34.3832 0.072457C35.1757 0.072457 35.9688 0.0393566 36.7609 0.0192086C38.6102 -0.0277074 41.2921 -0.0901658 42.7649 1.1829C42.8897 1.29083 43.0059 1.40798 43.1125 1.53347C44.2982 2.93376 44.3252 5.42059 44.2908 7.15331C44.2694 8.23727 44.1969 9.32354 44.191 10.4072C44.6796 10.7371 45.1227 11.1251 45.6127 11.4569C45.7924 11.389 45.9706 11.3182 46.1506 11.2511C46.3021 11.1947 46.4548 11.1435 46.6166 11.1233C46.991 11.0764 47.533 11.2226 47.9006 11.3009C47.9479 11.311 47.9948 11.3124 48.0427 11.3055C48.4323 11.25 48.9142 10.598 49.1913 10.3318C50.0913 9.46745 51.0693 8.66355 51.8219 7.66565C51.2508 6.6168 50.9927 5.43901 51.3001 4.26553C51.5685 3.24202 52.2344 2.37451 53.1279 1.79137C53.5448 1.51908 54.0067 1.31271 54.49 1.18318C56.0926 0.753746 57.7142 1.21744 58.8285 2.42775C60.3025 4.02836 60.4311 6.51693 58.9542 8.16445C58.3129 8.88028 57.5534 9.46975 56.5741 9.63986C55.456 9.83414 54.2445 9.42946 53.2037 9.02391L49.4829 12.5533C49.4817 12.9559 49.571 13.3275 49.5945 13.7276C49.6239 14.2229 49.5184 14.6276 49.2603 15.0559C48.2791 16.6845 46.0396 16.7996 44.8358 15.3452C44.0824 14.4354 44.2914 13.8568 44.3942 12.8555L44.2274 12.7392L44.191 25.2914C47.6833 25.353 50.6183 25.819 53.2647 28.3231C55.4226 30.3652 56.7732 33.0406 57.0671 35.9704C57.2025 37.32 57.1076 38.69 56.7791 40.0077C56.4567 41.3001 55.9108 42.536 55.1495 43.6384C54.6468 44.3657 54.0537 45.0297 53.3801 45.6097C52.6132 46.27 51.801 46.8727 50.9052 47.3563C48.8043 48.4909 46.5543 48.7758 44.1969 48.7433ZM39.9315 9.37333C39.6989 9.42284 39.4684 9.47695 39.2376 9.53595C39.0952 9.57251 38.9493 9.61309 38.8031 9.6318C38.6375 9.65281 38.4722 9.64389 38.3063 9.63065C38.0373 9.60906 37.7681 9.57942 37.4991 9.55178L30.2775 17.8729L30.1733 17.883C29.7511 17.9247 29.2954 17.9279 28.8705 17.9379C28.0927 17.9561 27.314 17.9653 26.5359 17.9725C24.399 17.9918 22.2611 17.9926 20.1241 17.9854C17.8735 17.9777 15.6212 17.9618 13.3709 17.9198C12.5945 17.9051 11.8165 17.8887 11.0407 17.8571C10.7991 17.8473 10.5565 17.8363 10.3155 17.8182C10.1957 17.809 10.0224 17.7989 9.90851 17.7638L9.74086 17.7117L9.63192 16.3359L9.82983 16.2752C9.97576 16.2303 10.1472 16.2081 10.2987 16.1902C10.5342 16.1626 10.7721 16.1451 11.0087 16.1304C11.6955 16.0875 12.387 16.0691 13.0746 16.055C14.9664 16.0161 16.8623 16.0199 18.7544 16.0294C20.4765 16.038 22.1983 16.0558 23.9201 16.0754C25.0367 16.0881 26.156 16.1076 27.2726 16.1076C27.6611 16.1079 28.044 16.1292 28.4312 16.1405C28.6644 16.1474 28.9166 16.1505 29.1439 16.093C29.5579 15.9885 29.9076 15.6477 30.1906 15.3515C30.4836 15.0447 30.7591 14.7151 31.028 14.3884C31.4356 13.8928 31.8343 13.3894 32.2327 12.8868L32.2371 12.8814L36.1934 8.40853C35.9611 7.68263 35.8407 6.86635 36.0651 6.12922C36.2453 5.53658 36.6317 5.06397 37.1908 4.77528C38.2543 4.2261 39.7779 4.4532 40.5586 5.37137C41.3511 6.30364 41.1585 6.93399 41.1159 7.99636C41.5769 8.24994 41.9178 8.63016 42.3462 8.90647C42.3585 8.34089 42.38 7.77588 42.3967 7.2103C42.4155 6.58485 42.4302 5.95422 42.4029 5.32877C42.3647 4.46586 42.2428 3.37154 41.6365 2.69486C41.0701 2.06307 40.1937 1.91571 39.3759 1.91571H4.88116C2.97527 1.91571 1.91325 2.80855 1.91325 4.71829V50.2492C1.91325 52.0562 2.85664 53.0996 4.72993 53.0996H39.5274C42.4824 53.0996 42.3453 50.934 42.3453 48.766C42.3453 48.6973 42.3356 48.6259 42.2966 48.5672C42.202 48.4247 41.8964 48.3225 41.741 48.2695C41.2947 48.117 40.8572 47.9875 40.4174 47.8096C38.7323 47.128 37.3297 46.0003 36.0976 44.6999C34.5335 43.0489 33.5849 40.9863 33.2836 38.7583C32.8972 35.8984 33.5989 32.9125 35.1936 30.491C36.8531 27.9713 39.3554 26.2303 42.3453 25.6054L42.3438 11.201C41.4735 10.6758 40.785 9.91733 39.9315 9.37333ZM23.6822 46.9559L24.2654 46.9372C24.2668 45.6198 24.2527 44.3013 24.2451 42.9842C24.2316 40.7112 24.2193 38.4379 24.214 36.1649C24.2078 33.6784 24.2058 31.1901 24.2369 28.7036C24.2477 27.832 24.2612 26.9582 24.2953 26.0872C24.3062 25.8077 24.3188 25.5268 24.3411 25.2479C24.3529 25.0982 24.3661 24.9051 24.4075 24.7609L24.4427 24.638L24.564 24.5919C25.4683 24.2477 29.2369 24.2503 30.1131 24.632L30.2264 24.6812L30.259 24.7986C30.2943 24.9255 30.3016 25.1152 30.3101 25.2476C30.328 25.5251 30.3383 25.8037 30.348 26.0815C30.3782 26.9801 30.3932 27.8804 30.4064 28.7793C30.4443 31.3907 30.4555 34.0036 30.4572 36.6154C30.459 39.2234 30.4519 41.8331 30.4179 44.4411C30.4061 45.3403 30.3926 46.2406 30.3635 47.1395C30.3544 47.4181 30.3445 47.6979 30.3271 47.9762C30.3189 48.1104 30.3116 48.2983 30.2775 48.4278L30.2438 48.5551L30.1184 48.6023C29.9945 48.6489 29.7672 48.6621 29.6336 48.6722C29.3365 48.695 29.0373 48.7082 28.7395 48.7197C27.7671 48.7583 26.7917 48.7764 25.8183 48.7922C22.9746 48.8386 20.1283 48.8501 17.2843 48.8504C14.4417 48.8504 11.5971 48.8389 8.75518 48.7928C7.78154 48.7767 6.80612 48.7586 5.83336 48.7203C5.53504 48.7085 5.23555 48.6955 4.93782 48.6728C4.80334 48.6624 4.57697 48.6489 4.45188 48.6026L4.32328 48.5548L4.29098 48.4238C4.22815 48.1705 4.21494 47.8297 4.20084 47.5684C4.17442 47.0866 4.16297 46.6024 4.15445 46.12C4.13067 44.8087 4.1333 43.4953 4.13947 42.1843C4.14828 40.2754 4.18264 38.3648 4.18264 36.4562C4.18264 35.4117 3.80004 33.3983 4.5335 32.5737L4.56434 32.5389L4.60603 32.517C5.12545 32.2416 6.6966 32.245 7.2997 32.2536C7.82821 32.2614 8.3626 32.285 8.88877 32.3365C9.19355 32.3662 9.67802 32.4157 9.95813 32.5357L10.053 32.5763L10.0935 32.6701C10.2021 32.9211 10.2383 33.388 10.2612 33.6608C10.309 34.2316 10.3299 34.809 10.346 35.3815C10.3906 36.9611 10.3886 38.547 10.3801 40.1272C10.3724 41.5539 10.3551 42.9807 10.3357 44.4072C10.3243 45.2514 10.307 46.0982 10.3049 46.9427L10.8907 46.9576C10.9001 44.1988 10.8921 41.44 10.8921 38.6811C10.8921 37.4486 10.8754 36.2173 10.8487 34.9854C10.8308 34.1758 10.8046 33.3632 10.8032 32.5536C10.8026 32.0838 10.8023 31.5522 10.8889 31.09C10.9473 30.7779 11.0563 30.4654 11.3211 30.2636C11.6318 30.0267 12.0757 30.0152 12.4524 30.0189C13.0558 30.025 13.6548 30.0676 14.2608 30.0667C15.1197 30.0656 16.3312 29.8013 16.8887 30.6286L16.9316 30.6922L16.9991 46.993L17.6433 46.9743L17.6595 28.1058L17.6677 28.0741C17.6941 27.9748 17.74 27.883 17.8048 27.8024C18.2688 27.2259 19.6232 27.4386 20.3132 27.4391C20.7181 27.4397 21.1233 27.4288 21.5282 27.4265C22.104 27.4236 22.7482 27.4276 23.3117 27.5451L23.4623 27.5764L23.5069 27.7209C23.5489 27.8576 23.5654 28.0335 23.5789 28.1757C23.6027 28.4238 23.617 28.6739 23.6291 28.9229C23.6664 29.6825 23.6819 30.4455 23.6946 31.2057C23.7307 33.3531 23.731 35.5032 23.7271 37.651C23.7236 39.6169 23.7131 41.5827 23.7007 43.5483C23.6937 44.6835 23.6805 45.8204 23.6822 46.9559ZM30.587 11.4192C30.673 11.6267 30.7864 11.8429 30.7875 12.0717C30.789 12.3834 30.5867 12.6241 30.3659 12.8258L30.3251 12.8632L30.2722 12.8811C30.0523 12.9542 29.5455 12.9634 29.3086 12.9735C28.6861 13 28.061 13.01 27.4382 13.0181C25.6556 13.042 23.8716 13.0397 22.0891 13.0348C20.5487 13.0308 19.0084 13.0218 17.4681 13.0121C16.4498 13.0057 15.4309 12.9962 14.4126 12.9962C13.9179 12.9962 13.4214 13.0204 12.9272 13.038C12.2977 13.0601 11.6291 13.084 11.0031 13.0164C10.5577 12.9683 9.93817 12.8529 9.70827 12.4243C9.63428 12.2859 9.61137 12.1345 9.62781 11.9799C9.64924 11.779 9.72559 11.5965 9.87152 11.4517C10.3528 10.9734 11.3608 11.1415 11.9926 11.144C13.2059 11.1487 14.4203 11.1363 15.6335 11.1276C17.3574 11.1153 19.0809 11.102 20.8048 11.094C22.8563 11.0848 24.9099 11.0784 26.9611 11.1046C27.7004 11.1144 28.4424 11.1268 29.1811 11.1587C29.431 11.1694 29.6821 11.182 29.9313 11.2033C30.0849 11.2163 30.257 11.2313 30.407 11.267L30.5368 11.2977L30.587 11.4192ZM10.9327 22.865C9.09753 22.865 9.04791 21.0387 10.9327 21.0387H29.2393C29.6876 21.0387 30.3803 21.0594 30.6534 21.4745C30.8859 21.8274 30.7174 22.2885 30.5488 22.6304L30.4851 22.7591L30.3401 22.7732C29.8482 22.8215 29.3371 22.8348 28.8432 22.8491C28.0619 22.8719 27.2797 22.8831 26.498 22.8915C24.4586 22.9128 22.4179 22.9119 20.3784 22.907C17.2302 22.8995 14.0808 22.865 10.9327 22.865ZM10.9327 8.0522C9.1589 8.0522 9.03353 6.22276 10.8572 6.22276H29.3905C30.5518 6.22276 31.0776 6.70574 30.5667 7.80927L30.5048 7.94283L29.4037 8.0522H10.9327ZM5.48631 12.9962C3.82853 12.9962 3.50554 11.1443 5.63752 11.1443C5.98693 11.1443 6.33369 11.1279 6.68281 11.1219C6.95147 11.1173 7.2216 11.1219 7.48469 11.182C7.73749 11.2399 7.96094 11.3438 8.17704 11.4831L8.27482 11.5461L8.29155 11.6595C8.34264 12.0035 8.37934 12.4387 8.12037 12.7162C7.88078 12.9729 7.47088 13.0023 7.13821 13.0118C6.59295 13.027 6.0342 12.9962 5.48631 12.9962ZM8.15561 22.5579C7.438 22.9968 6.44732 22.865 5.63752 22.865C3.54548 22.865 3.80974 21.0387 5.48631 21.0387C6.03127 21.0387 6.58679 21.0068 7.1294 21.022C7.46765 21.0315 7.88811 21.0623 8.12917 21.3268C8.38726 21.6101 8.33941 22.0441 8.27393 22.388L8.25309 22.4986L8.15561 22.5579ZM5.48631 17.9192C3.73839 17.9192 3.68524 16.1076 5.48631 16.1076C6.28437 16.1076 7.44916 15.9778 8.14709 16.4012L8.24163 16.4585L8.26483 16.5653C8.33941 16.9107 8.35643 17.3076 8.09922 17.5879C7.83643 17.8749 7.38632 17.9221 7.01636 17.9354C6.51074 17.9538 5.99398 17.9192 5.48631 17.9192ZM4.28628 7.64262C4.04903 6.49764 4.5429 6.22276 5.63752 6.22276H5.64398L8.26689 6.34682L8.2895 7.6573L8.17029 7.73472C7.42097 8.22087 5.26315 8.15323 4.44424 7.82856L4.31418 7.77732L4.28628 7.64262ZM6.07854 34.1835L6.07296 46.9521L8.35849 46.9642L8.4322 34.1893L6.07854 34.1835ZM15.08 31.8708C15.0633 31.8651 15.0381 31.8596 14.9899 31.8515L12.7302 31.878C12.7281 31.9028 12.7267 31.9264 12.7249 31.9457C12.7094 32.1316 12.7 32.319 12.6915 32.5055C12.6641 33.1036 12.6503 33.7037 12.6383 34.3027C12.604 36.0245 12.5937 37.7483 12.5916 39.4706C12.5898 41.1677 12.5966 42.8661 12.626 44.5629C12.6363 45.1627 12.6489 45.7634 12.6735 46.3627C12.6815 46.5558 12.6903 46.7492 12.7044 46.9421C12.7064 46.9686 12.7085 46.9968 12.7105 47.0255L15.1584 46.9547C15.1816 46.7098 15.1869 46.4496 15.1951 46.2144C15.2142 45.6578 15.2219 45.1 15.2271 44.543C15.2418 43.0394 15.2351 41.5344 15.2263 40.0305C15.2131 37.851 15.1793 35.6693 15.1799 33.4902C15.1802 33.1488 15.1922 32.8074 15.1884 32.4661L15.08 31.8708ZM19.4494 29.2951C19.2591 29.7271 19.3992 30.8634 19.3992 31.2655C19.3992 33.8068 19.3601 36.3509 19.3443 38.8927C19.3334 40.6484 19.3252 42.4053 19.3405 44.1611C19.3463 44.8119 19.3543 45.4635 19.3757 46.114C19.3848 46.4001 19.391 46.7144 19.4192 47.01L21.8738 46.9887C21.9041 46.7987 21.9217 46.6024 21.9364 46.4151C21.9657 46.0446 21.9804 45.6719 21.9904 45.3003C22.0151 44.3755 22.0083 43.4473 21.9954 42.5219C21.9836 41.6817 21.9643 40.8416 21.9452 40.0014C21.9308 39.3644 21.9132 38.7252 21.9126 38.0882L21.9029 29.3578C21.895 29.3094 21.8885 29.2807 21.8806 29.2594L19.4494 29.2951ZM26.193 46.9593L28.4521 46.9619L28.5058 26.2579L26.1959 26.2444C26.1936 26.2887 26.1921 26.3316 26.1903 26.3664C26.1771 26.6139 26.1698 26.862 26.1627 27.1096C26.1401 27.9192 26.1293 28.7295 26.1196 29.5391C26.092 31.8933 26.0846 34.2483 26.084 36.6024C26.0837 38.9537 26.0902 41.3061 26.1172 43.6577C26.1266 44.4673 26.1372 45.2779 26.1595 46.0875C26.1665 46.3359 26.1742 46.5849 26.1871 46.833C26.1892 46.8693 26.1906 46.9136 26.193 46.9593ZM54.9827 2.95851C51.7614 3.73133 52.8924 8.68657 56.3049 7.7779C57.1376 7.55598 57.7624 7.01832 58.014 6.20031C58.1344 5.808 58.1553 5.38778 58.0889 4.98395C58.0082 4.49493 57.7973 4.02059 57.4658 3.6444C56.824 2.91562 55.9141 2.73515 54.9827 2.95851ZM38.1686 6.41561C37.1488 6.9904 38.0238 8.11926 38.8618 7.79172C39.0691 7.71084 39.2194 7.5675 39.2823 7.35508C39.3286 7.19879 39.3201 7.02753 39.2738 6.87239C39.1196 6.35661 38.6615 6.13786 38.1686 6.41561ZM46.5743 13.1447C46.5332 13.1718 46.461 13.1977 46.4134 13.2259C46.3359 13.272 46.2625 13.331 46.207 13.4015C46.0106 13.6516 46.128 13.9581 46.2772 14.2008C46.4965 14.5568 47.0488 14.6066 47.3976 14.4169C47.5753 14.3205 47.6939 14.172 47.7385 13.9774C47.7693 13.8439 47.7617 13.7023 47.7259 13.5707C47.671 13.3678 47.5421 13.1686 47.3548 13.0601C47.0943 12.9093 46.8113 12.989 46.5743 13.1447ZM36.916 31.3326C37.5296 31.5772 38.1445 31.9678 38.6921 32.3026C39.1633 32.5913 39.6675 32.9082 40.1804 33.1376C41.1934 31.798 42.5752 31.2701 44.1907 30.8511L44.211 27.1467C43.0186 27.1974 41.7252 27.6426 40.6808 28.1469C39.7923 28.5764 38.9097 29.1275 38.1703 29.776C37.707 30.1821 37.1744 30.7425 36.916 31.3326ZM46.1541 27.1427L46.0957 30.7595C46.1166 30.8007 46.1356 30.8418 46.1559 30.8824C46.1829 30.887 46.2105 30.8908 46.2352 30.8954C46.3617 30.9193 46.4871 30.9495 46.6113 30.9835C48.6581 31.5427 50.1515 32.5818 50.973 34.5145L54.6574 33.5926C54.1027 31.914 52.9723 30.4369 51.5744 29.3394C50.0179 28.117 48.1331 27.3565 46.1541 27.1427ZM35.9717 32.8984C34.9793 34.2728 34.922 36.4735 35.1173 38.0588C35.255 39.1782 35.5462 40.3425 36.0099 41.3763C36.3058 42.0369 36.7706 42.8486 37.3822 43.3111L40.0571 40.767C39.5982 40.0192 39.141 39.1756 38.9141 38.3412C38.7505 37.7399 38.7241 37.1997 38.828 36.5875C38.8826 36.2639 38.9666 35.9456 39.0415 35.6261C39.1125 35.3225 39.1733 35.0214 39.2138 34.714C38.0955 34.1801 37.0728 33.4665 35.9717 32.8984ZM43.9643 32.7815C42.3908 33.1983 41.2187 34.2356 40.8232 35.8069C40.6508 36.491 40.647 37.2141 40.7915 37.9034C40.9483 38.6512 41.2812 39.3687 41.7754 39.9605C42.9502 41.3689 44.6813 41.7122 46.4275 41.2509C47.8078 40.8865 48.8616 40.0118 49.3408 38.6794C49.6115 37.927 49.6664 37.1044 49.5355 36.3189C49.3845 35.4151 48.9835 34.5387 48.3498 33.8609C47.1918 32.6218 45.5781 32.3544 43.9643 32.7815ZM55.1653 35.4134L51.4998 36.3206C51.4895 37.0797 51.4525 37.8836 51.2975 38.6204C51.1836 39.1632 51.0047 39.6445 50.6956 40.1102C50.4812 40.4334 50.2225 40.7256 49.9615 41.0131C49.677 41.3263 49.3931 41.6354 49.1197 41.9575L51.0021 45.1262C52.2333 44.4604 53.6914 42.519 54.2742 41.3792C55.2716 39.4289 55.4246 37.5353 55.1653 35.4134ZM41.391 42.0812L38.7065 44.6403C39.7993 45.8947 41.9836 46.5316 43.5535 46.7728C44.7016 46.9493 45.9433 46.9971 47.0964 46.8379C47.8275 46.7371 48.7709 46.5118 49.3708 46.0291C49.1047 45.4454 48.7509 44.8674 48.4182 44.3249C48.1167 43.8332 47.8049 43.3445 47.5168 42.8448C47.0191 42.9162 46.5347 43.0101 46.0423 43.12C45.6846 43.1997 45.3158 43.2898 44.9485 43.308C44.4608 43.3321 44.0183 43.2205 43.5635 43.0578C42.8333 42.7965 42.0913 42.4295 41.391 42.0812Z" fill="#1A3C55"/>
</svg>
