<svg width="52" height="60" viewBox="0 0 52 60" fill="none" xmlns="http://www.w3.org/2000/svg">
<path fill-rule="evenodd" clip-rule="evenodd" d="M25.3949 58.2337C23.0455 58.2337 22.6278 56.7804 21.7004 55.3834L30.2916 55.3986C28.6206 57.913 28.8505 58.2337 25.3949 58.2337ZM48.8574 34.6896L51.7424 34.5491C52.0954 33.8346 52.0704 33.8157 51.7602 33.1101C46.486 32.1227 46.6454 34.6896 48.8574 34.6896ZM0.253076 34.5232L1.32492 34.7261L3.13545 34.6896C5.07653 34.6896 5.01831 32.9426 3.13545 32.9426H1.33068C-0.0175549 32.9426 -0.269158 33.5151 0.253076 34.5232ZM47.3037 38.0308C46.7783 38.213 46.503 38.7309 46.8558 39.3301C47.0158 39.6017 47.6233 39.91 48.0046 40.1543C48.5727 40.5179 49.8857 41.6312 50.6103 41.3766C51.1734 41.1786 51.234 40.4917 50.9636 40.0647C50.7924 39.7942 50.1123 39.4313 49.818 39.2465C49.2949 38.9185 47.9282 37.8141 47.3037 38.0308ZM4.10642 38.111C-0.455918 40.1006 0.743891 41.8514 2.13767 41.3352C2.5792 41.1714 4.03207 40.1379 4.55055 39.8158C5.9524 38.9444 5.12322 37.6678 4.10642 38.111ZM43.589 6.87491C42.7661 7.31979 41.9661 8.02878 41.2167 8.58804C39.8019 9.64449 40.7461 10.7843 41.7536 10.3336C42.2156 10.127 43.6192 9.00073 44.1201 8.6346C45.7782 7.42239 44.5144 6.37486 43.589 6.87491ZM7.4972 6.8775C6.24954 7.69282 7.86034 8.61678 8.48258 9.07574C8.96792 9.43354 10.3476 10.7489 11.0782 10.3351C12.6509 9.44418 9.68037 7.82474 8.96504 7.24536C8.54714 6.9071 8.12664 6.46596 7.4972 6.8775ZM38.6447 2.7115C38.2081 3.04574 36.7452 6.18374 36.9409 6.89618C37.0821 7.41032 37.7297 7.6296 38.2352 7.27755C38.5735 7.04217 40.076 3.80157 39.9624 3.18943C39.8492 2.577 39.1716 2.30772 38.6447 2.7115ZM14.9286 7.10885C15.3506 6.29439 14.509 4.94912 14.1637 4.16023C14.0185 3.82801 13.736 3.04344 13.5415 2.82761C13.1804 2.4267 12.393 2.37439 12.1019 2.96412C11.8036 3.56879 12.68 5.19024 12.9495 5.81761C13.3323 6.70938 13.9116 8.20237 14.9286 7.10885ZM17.4237 51.8358C19.6809 51.7873 28.1692 52.2135 29.3235 51.5031C29.574 50.0974 28.8733 50.0678 27.5023 50.0787C25.0566 50.0986 18.9497 50.2026 17.1522 50.0503L17.1435 48.415L34.751 48.4254L34.7009 50.0727C33.7057 50.0951 32.5359 49.9882 31.6842 50.2377C30.685 52.2526 33.0005 51.8149 34.4476 51.8321C34.0043 53.2389 32.7223 53.5852 30.96 53.5806L20.7314 53.5814C19.0979 53.5814 17.8171 53.213 17.4237 51.8358ZM17.1392 46.6232C17.3588 46.0912 18.2021 45.8561 18.7295 45.5552C19.6034 45.0566 19.5659 44.9669 20.7271 44.9698L31.1127 44.9718C32.7125 44.9609 32.4828 45.1563 34.0544 45.9645C34.5236 46.2059 34.481 46.1013 34.7418 46.5025C34.5254 46.6341 34.9228 46.5002 34.4135 46.6479L17.1392 46.6232ZM23.2899 43.1797C23.5804 42.9311 25.569 41.7626 25.9967 41.7608C26.4728 41.7591 28.403 42.9069 28.7079 43.2139L23.2899 43.1797ZM30.6593 27.6058C30.6593 25.375 32.6226 25.7929 32.8408 26.916C33.2302 28.9194 32.3627 29.0864 30.6859 29.0556L30.6593 28.5056V27.6058ZM21.1715 29.0709C19.9233 29.0456 19.1175 29.126 18.9889 27.8727C18.8509 26.5257 19.2803 25.9423 20.6357 26.1073C21.379 26.5237 21.2427 28.2343 21.1715 29.0709ZM6.05788 24.0778C6.78849 23.4107 6.23599 22.763 5.87458 22.175C1.93621 15.7667 1.2595 16.5542 7.79808 16.5542C9.60285 16.5542 11.4076 16.5542 13.2124 16.5542C15.0967 16.5542 16.9213 16.906 17.9462 15.6782C18.5186 14.9919 22.8685 6.72518 23.7686 5.13966C24.411 4.00792 25.3073 1.80077 25.9961 1.80105C26.687 1.80134 27.5646 3.96653 28.1626 5.04942C29.4405 7.36261 30.8078 9.76806 32.0393 12.1301C34.5738 16.9925 34.1 16.5542 38.63 16.5542C40.4348 16.5542 42.2396 16.5542 44.0446 16.5542C49.0687 16.5542 50.0281 16.0518 48.2695 18.7694C47.868 19.3899 47.5754 19.8977 47.1708 20.5219C46.403 21.7059 45.7445 22.7888 45.0205 23.9315C43.5304 26.2826 42.1689 28.5084 40.6639 30.8314C39.5612 32.533 40.0849 33.265 40.5913 35.244L42.8137 44.1189C43.0007 44.8983 43.2022 45.6547 43.3866 46.4033C43.5544 47.0839 44.042 48.0972 43.5443 48.559C43.0143 49.0663 41.3467 47.9271 40.2382 47.3011L30.6631 42.173C30.6521 40.5722 30.9242 36.7623 30.3968 35.6848C28.3252 35.1526 28.9428 37.3181 28.9067 41.1292C27.9116 40.8349 27.0118 39.9175 25.8457 39.9882C24.9367 40.0431 23.8424 40.8998 22.9985 41.2102L22.9884 30.2739L24.2257 29.3807C24.5407 29.8868 24.9998 30.5891 25.9846 30.5561C27.0371 30.5207 27.2608 29.7847 27.8012 29.4025C29.9769 30.8846 28.311 31.3415 28.9886 33.0331C29.2627 33.7177 30.2518 33.6918 30.5518 33.0552C30.7585 32.6173 30.6121 31.4453 30.7207 30.8234C32.6465 30.7394 33.4627 30.6541 34.2346 29.3726C34.913 28.2461 34.7923 26.2774 33.9902 25.3354C33.2622 24.481 31.7903 23.8283 30.3861 24.6318C29.1509 25.3385 29.0255 26.1694 28.8776 27.8736C26.9821 26.9603 26.9786 28.0722 25.7898 28.6996C25.2295 27.7052 24.4375 27.179 22.9956 27.8845C22.8846 25.8696 22.3546 24.3976 20.2764 24.2993C18.3984 24.2102 17.2231 25.6072 17.2231 27.4557C17.2231 30.0414 18.5436 30.78 21.1577 30.8101L21.1678 42.2764C18.8333 43.3826 14.254 45.94 11.6621 47.3583C10.4652 48.0133 8.98493 49.072 8.448 48.5602C7.86178 48.0141 8.6872 46.1179 8.88376 45.3408C9.17428 44.1924 9.41148 43.2168 9.68671 42.087C12.5668 30.2644 13.0291 33.7973 9.01115 27.1468C8.59786 26.4625 7.72488 24.7842 6.88043 26.1217C6.44321 26.9085 8.11424 29.0395 8.5431 29.7112C9.55586 31.2981 10.3752 32.1175 10.087 33.3406L6.77091 46.5283C6.29738 48.3239 6.28412 49.5804 7.75168 50.2998C9.88846 51.3473 12.6123 48.3033 15.3552 47.4227L15.3901 48.0021C15.4624 50.3995 15.3549 49.8793 14.9229 50.1592C14.5664 50.39 14.7756 49.9931 14.5038 50.5095C13.9505 51.56 15.3102 51.8057 15.5033 52.0204C16.1625 52.7546 15.4912 54.0444 19.1642 55.2555C19.7786 55.4581 19.5751 55.3949 19.951 55.9797L21.5909 58.3938C22.7918 59.9842 24.6113 60 26.5979 60C31.3879 60 31.0017 55.7731 33.0394 55.1704C33.7697 54.9546 33.9645 54.8931 34.5853 54.4675C35.6364 53.7473 35.7465 53.209 36.4474 51.8347C38.26 51.7706 37.928 50.4863 37.2051 50.1744C36.4264 49.8382 36.4598 50.8136 36.4996 47.375C38.1018 47.7776 41.696 50.5463 43.1434 50.5573C44.5086 50.5676 45.5787 49.531 45.5617 48.1555C45.5485 47.0982 41.7459 33.2532 41.8023 32.5667C41.8741 31.6985 50.7403 18.7806 50.8927 17.5055C51.3112 14.0042 46.6235 14.808 43.8942 14.808C42.2897 14.808 40.6855 14.808 39.0814 14.808C36.3754 14.808 35.6788 15.1695 35.0822 14.0461C32.8365 9.81692 30.555 5.68254 28.241 1.52257C27.7228 0.591143 26.6017 -0.48513 25.0194 0.23593C23.97 0.714146 23.5472 1.88986 22.9668 2.98653L16.9631 13.9481C16.5553 14.727 16.5746 14.814 15.4788 14.8155C12.2679 14.8195 9.05438 14.808 5.84288 14.808C4.20239 14.8077 2.66423 14.5476 1.72323 15.5501C0.0948497 17.2842 2.02613 19.3962 3.60782 21.885C4.63182 23.4961 4.90447 24.5965 6.05788 24.0778Z" fill="#1A3C55"/>
</svg>
