<svg width="60" height="54" viewBox="0 0 60 54" fill="none" xmlns="http://www.w3.org/2000/svg">
<path fill-rule="evenodd" clip-rule="evenodd" d="M5.19752 38.0657C5.42497 37.5984 9.95156 31.6663 10.3918 31.3073C10.7608 31.5547 15.3204 37.5015 15.6045 38.0824C12.2062 38.088 12.5799 38.078 12.5804 41.5059C12.5807 43.6036 12.6402 45.7955 12.5678 47.9329L8.26463 47.9443C7.59032 38.4629 10.0159 38.2947 5.19752 38.0657ZM31.3996 27.9622C31.5179 27.558 36.1309 21.571 36.6062 21.1771C37.4442 22.2899 38.3695 23.4897 39.2302 24.5899C40.0691 25.6629 41.1024 26.8523 41.7781 27.9373C39.1527 28.1757 38.7408 27.5977 38.7495 30.6292C38.7627 35.3266 38.9614 44.0565 38.7236 47.9373L34.4193 47.9097C34.2562 44.2212 34.4018 40.1781 34.4018 36.4509C34.4018 27.4377 35.0416 28.0083 31.3996 27.9622ZM29.9401 29.6455C30.7586 29.6235 31.8944 29.4781 32.6511 29.7826C32.9007 31.2089 32.7126 40.7138 32.7126 43.4973C32.7126 44.0254 32.9297 47.652 32.5161 47.9379L27.4517 47.9437C27.2374 44.798 27.4221 37.5643 27.4221 33.6933C27.4221 32.6297 27.8887 30.0711 26.5723 30.0224C25.1849 29.9713 25.6461 32.6324 25.6461 33.8465C25.6461 38.1033 25.7989 44.0424 25.6286 47.9382L21.3255 47.9349C21.1724 45.4318 21.2993 42.5215 21.2993 39.9741V24.3489C21.2993 19.3703 21.7281 19.6823 18.2942 19.6321C18.9143 18.4761 20.028 17.2834 20.8479 16.1964C21.6672 15.1097 22.6901 13.9278 23.3765 12.8499C23.8038 13.0809 23.7717 13.1487 24.1608 13.6448C24.3903 13.9372 24.6132 14.2155 24.8245 14.4988L28.6791 19.6125C26.8965 19.7237 25.7056 19.1845 25.6404 21.276C25.5924 22.8175 25.6372 24.4854 25.639 26.0407C25.6413 28.3624 27.4109 28.0198 27.4301 26.1965C27.4465 24.6155 27.4221 23.0141 27.4221 21.4301C28.8281 21.4301 31.8915 21.7615 30.943 19.586L28.5826 16.477C27.7825 15.4246 26.9801 14.3931 26.207 13.3924C25.3966 12.3432 24.4032 10.6662 23.4337 10.6841C22.4587 10.702 19.0725 15.5738 18.3339 16.5357C18.0131 16.9535 16.0976 19.3506 15.9821 19.6694C15.1605 21.9424 18.5567 21.4069 19.5547 21.4486L19.53 47.9258C18.6796 47.9625 17.6561 47.9942 17.9717 49.0854C18.1897 49.8386 19.1095 49.7335 19.9817 49.7282L58.2285 49.7271L58.3489 52.1236H1.81565L1.826 49.7271L13.9971 49.7326C16.2917 49.7376 15.6435 48.2029 14.8943 48.0168L14.2817 47.9476L14.3302 39.8417L17.1403 39.7806C17.6567 39.5907 18.113 39.1178 17.9703 38.3481C17.8471 37.6835 13.4629 32.259 12.784 31.4018C10.5253 28.5505 10.5546 28.0045 7.93726 31.4907C7.22102 32.4448 6.58088 33.2629 5.82702 34.2357C3.61829 37.0855 1.77889 38.5636 3.59274 39.7853L6.49587 39.8625L6.4775 47.9734L1.25651 47.9907C-0.323284 48.3441 0.0267819 50.234 0.0460232 51.9308C0.0698594 54.0578 1.19963 53.9328 3.04852 53.9293L52.5041 53.929C58.6929 53.929 60.0134 54.6549 59.9999 51.4652C59.9795 46.5596 59.4413 48.313 53.5954 47.9182C53.4107 43.7732 53.9403 21.7386 53.3048 20.3046L52.3163 20.2313C51.5461 21.1551 51.8137 21.8581 51.814 23.2766C51.814 24.4511 51.814 25.6253 51.814 26.7998C51.814 32.4251 52.0975 43.5102 51.783 47.949L47.481 47.8806C47.2449 41.0693 47.4683 33.8136 47.4683 26.953C47.4683 23.4298 47.4683 19.9063 47.4683 16.3831C47.4683 8.3154 48.014 8.98675 44.4305 8.98675C44.6235 8.65152 48.9548 2.7429 49.6567 2.22184C49.9726 2.47694 49.8135 2.35013 50.0619 2.64632L53.6976 7.34902C54.1014 7.88123 54.5474 8.42372 54.8613 8.96826C51.2511 9.14556 51.8275 8.38115 51.8137 15.311C51.8108 16.7198 51.5969 16.7908 52.2982 17.8106L53.3097 17.643C54.0029 16.1485 53.3286 12.7524 53.631 10.7897C54.8765 10.7369 58.2627 11.1675 57.0473 8.8432L51.1153 1.10635C50.7905 0.672477 50.3293 -0.0713831 49.5257 0.00552752C48.655 0.0888963 45.1864 4.99356 44.4271 5.98136C44.0305 6.49743 42.239 8.69408 42.1101 9.12707C41.4639 11.2973 44.7591 10.7354 45.7234 10.7983L45.7082 47.9387L40.4938 47.925L40.5679 29.787C42.0365 29.747 44.5503 30.2261 44.1181 28.21C44.0052 27.6825 39.4445 21.9785 38.5651 20.826C36.7286 18.4198 36.6071 18.1356 34.5376 20.843L30.0449 26.6674C29.4958 27.3487 27.9422 29.3355 29.9401 29.6455Z" fill="#1A3C55"/>
</svg>
