<svg width="116" height="116" viewBox="0 0 116 116" fill="none" xmlns="http://www.w3.org/2000/svg">
<path fill-rule="evenodd" clip-rule="evenodd" d="M72.3702 104.373C73.3142 104.748 73.9835 105.322 75.1308 105.679C76.3236 106.049 77.576 106.195 78.9082 106.171C83.4504 106.304 87.6932 101.927 88.2111 97.8458C88.51 94.5452 88.1814 93.6683 87.1214 91.0825C84.5477 85.7114 76.0526 83.8664 71.4085 88.5429C65.8671 94.1235 67.8045 101.463 72.3702 104.373ZM27.5055 18.9377C27.5055 24.6012 34.2689 23.2558 34.2689 19.8399C34.2689 14.1763 27.5055 15.5218 27.5055 18.9377ZM86.1223 7.6656C86.1223 13.3285 92.8863 11.9831 92.8863 8.56722C92.8863 2.90365 86.1223 4.2491 86.1223 7.6656ZM11.7235 100.1C11.7235 105.764 18.4868 104.419 18.4868 101.002C18.4868 95.3385 11.7235 96.6846 11.7235 100.1ZM25.2508 70.7918C25.2508 76.4553 32.0142 75.1099 32.0142 71.6934C32.0142 66.0304 25.2508 67.3759 25.2508 70.7918ZM99.6497 34.7197C99.6497 40.3832 106.413 39.0378 106.413 35.6213C106.413 29.9577 99.6497 31.3032 99.6497 34.7197ZM32.1111 42.8361C31.8135 46.3767 32.5562 47.0181 33.4812 49.5994C34.6348 51.0019 35.5111 52.1624 37.1238 53.0571C38.6921 53.9277 40.5669 54.5298 43.0615 54.2747C44.4012 54.0733 45.4523 53.8492 46.5584 53.3129C47.7709 52.7253 48.5294 51.8408 49.374 51.4508C49.752 50.8081 49.9451 50.7923 50.4118 50.1851C50.7879 49.6957 50.9791 49.3544 51.2602 48.7801C51.6673 47.9482 52.3188 46.1703 52.2625 45.0901C52.4163 41.6128 51.6268 41.0284 50.6549 38.5522C48.8884 35.7859 44.5602 32.9443 39.5101 34.3239C37.2466 34.9425 36.1829 35.853 34.6601 37.365C33.4109 38.6053 32.1687 40.6998 32.1111 42.8361ZM63.5776 28.9149C61.7142 30.192 58.9182 33.3584 59.1164 36.5229C58.9543 40.0014 59.7242 40.5744 60.7132 43.0615C61.6446 44.4835 63.2927 45.943 64.9287 46.6705C65.6733 47.001 67.1233 47.4898 68.0926 47.5638C69.7148 47.6879 70.7576 47.3688 71.9941 47.3448C72.4646 46.9149 74.195 46.2595 75.0067 45.6967C76.1311 44.9166 76.6218 44.1467 77.5557 43.2957C79.5742 40.2034 80.1447 36.4102 78.2389 32.6834C77.0859 30.4281 73.5466 27.1123 70.1155 27.3282C68.8334 27.2687 67.5595 27.3928 66.4673 27.6898C65.2111 28.031 64.6153 28.5394 63.5776 28.9149ZM48.4724 66.2387C47.555 67.7824 44.1834 70.5474 45.9056 76.5148C46.2646 77.7596 47.0934 78.646 47.3448 79.5799C48.1508 79.9421 48.934 81.1115 49.8881 81.7757C50.9316 82.5013 52.4391 82.9173 53.1293 83.4169C54.9388 83.5486 56.2229 83.8841 58.1565 83.4067C62.2771 82.3886 65.874 78.1294 65.7715 74.6242C65.9861 71.6142 65.3327 70.1827 64.2829 68.0863C62.6583 65.4055 59.419 62.9527 54.785 63.4092C53.2983 63.6757 52.315 63.8574 51.1424 64.4526C50.0515 65.006 49.2822 65.8607 48.4724 66.2387ZM101.994 81.839C99.7681 82.7919 99.2812 83.2048 97.6723 84.8218C96.5896 85.909 95.4975 87.735 95.3119 89.7294C94.9979 92.9927 95.3328 93.9291 96.3851 96.4934C97.6191 98.9462 100.79 101.307 103.958 101.654C109.904 102.306 114.923 98.0389 115.431 92.5489V90.7032C115.362 89.9472 115.207 89.1767 114.957 88.3998C114.079 85.6703 111.641 82.7147 108.668 81.9758C107.636 81.6681 106.34 81.3724 105.063 81.406C104.215 81.4281 102.349 82.0518 101.994 81.839ZM97.4184 55.6866C96.4662 57.7342 95.4962 58.285 95.1942 61.3672C94.934 64.0176 95.7798 65.8329 96.6833 67.6355C97.7793 69.3963 99.6066 71.1818 101.904 71.7915C102.854 72.0631 104.108 72.3582 105.286 72.3582C106.034 72.3582 108.4 71.8162 108.563 71.9194C111.388 70.7481 113.646 68.8815 114.727 66.0298C115.098 65.0516 115.326 64.1031 115.431 63.1907V60.8595C114.525 53.2945 104.838 49.2373 99.0361 54.1708C98.4017 54.7103 98.0763 55.2149 97.4184 55.6866ZM42.1599 95.3696C41.2665 95.4379 39.6247 96.2477 38.9529 96.6682C38.0653 97.2234 37.289 98.0402 36.5754 98.8C31.923 103.755 34.3366 114.135 42.8874 115.38C43.0235 115.4 43.159 115.416 43.2932 115.431H45.6644C50.0458 114.927 53.0476 111.645 54.0853 108.419C55.7182 103.344 52.9893 97.773 48.9232 96.1946C45.9392 95.0416 45.6422 95.165 42.1599 95.3696ZM20.2027 52.3049C20.4762 48.7497 19.7525 48.1331 18.8161 45.5409C17.2212 43.5522 16.3126 42.4606 13.792 41.4438C7.38259 38.858 0.953531 43.506 0 49.426V52.4341C0.358999 54.6431 1.53349 56.8889 3.77613 58.8998C6.96406 61.7579 13.2659 62.1897 17.08 58.3376C18.6502 56.7522 20.0887 54.8065 20.2027 52.3049ZM61.5483 20.2426C65.0611 20.4097 65.5853 19.6075 68.0863 18.6508C76.3654 13.0968 72.3221 1.21312 64.0999 0H61.3198C60.7778 0.0759786 60.2238 0.195645 59.6596 0.365963C50.1781 3.22719 50.0762 15.4357 57.8583 19.246C58.6877 19.6519 60.4739 20.3097 61.5483 20.2426Z" fill="#D9D9D9"/>
<path fill-rule="evenodd" clip-rule="evenodd" d="M42.1599 95.3696C45.6422 95.1651 45.9392 95.0416 48.9232 96.1946C49.4019 95.3823 49.5691 90.2461 49.9091 88.6867C50.1851 87.4216 52.5436 84.7275 53.1293 83.4169C52.4392 82.9174 50.9316 82.5014 49.8882 81.7758C48.934 81.1116 48.1508 79.9422 47.3448 79.58C47.0111 80.8419 43.7789 84.6345 43.3876 85.9983L42.1599 95.3696ZM61.5484 20.2426C61.5712 21.3519 63.204 28.0235 63.5776 28.9149C64.6153 28.5395 65.2112 28.0311 66.4673 27.6898C67.5595 27.3928 68.8334 27.2687 70.1156 27.3283C70.0928 26.2088 68.4637 19.5601 68.0863 18.6509C65.5854 19.6076 65.0611 20.4098 61.5484 20.2426ZM43.0615 54.2747L48.4724 66.2388C49.2822 65.8608 50.0515 65.006 51.1425 64.4527C52.3151 63.8575 53.2983 63.6758 54.785 63.4092L49.3741 51.4508C48.5294 51.8408 47.7709 52.7254 46.5584 53.3129C45.4523 53.8492 44.4013 54.0734 43.0615 54.2747ZM50.6549 38.5522C51.6268 41.0285 52.4164 41.6129 52.2625 45.0902C53.2186 45.0705 59.892 43.3984 60.7132 43.0615C59.7242 40.5745 58.9543 40.0015 59.1164 36.5229C58.1451 36.5432 51.4983 38.2103 50.6549 38.5522ZM18.8161 45.541C19.7525 48.1331 20.4762 48.7498 20.2027 52.305C22.0262 52.1745 32.3707 49.6299 33.4812 49.5995C32.5562 47.0181 31.8135 46.3767 32.1111 42.8361C30.9942 42.9146 29.8482 43.2882 28.8415 43.4959L22.1104 44.8812C21.1911 45.0718 19.8184 45.5137 18.8161 45.541ZM71.9941 47.3448L77.4551 54.8857C78.3624 56.1096 78.5618 56.1868 80.1188 56.7307L89.8725 60.2789C90.5962 60.5227 90.8527 60.6683 91.5061 60.8994L93.1118 61.5484C92.1532 61.5699 90.5291 62.0403 89.549 62.2695C88.4087 62.5367 87.0436 62.8666 85.8786 63.1078L64.2829 68.0863C65.3327 70.1827 65.9861 71.6143 65.7715 74.6243C66.9897 74.6002 68.546 74.1254 69.7952 73.8531L92.9313 68.5821C93.9393 68.3459 95.9856 68.0034 96.6834 67.6355C95.7798 65.8329 94.934 64.0177 95.1942 61.3673C95.4962 58.2851 96.4662 57.7343 97.4185 55.6866C96.5998 55.3156 95.5405 55.0206 94.5946 54.6546C93.5341 54.2443 92.6685 53.9341 91.62 53.5706L82.7065 50.3099L77.5558 43.2958C76.6219 44.1468 76.1312 44.9167 75.0067 45.6967C74.195 46.2596 72.4646 46.9149 71.9941 47.3448ZM101.994 81.8391C102.349 82.0518 104.215 81.4282 105.063 81.406C106.34 81.3725 107.636 81.6681 108.668 81.9758L108.563 71.9195C108.4 71.8162 106.034 72.3582 105.286 72.3582C104.108 72.3582 102.854 72.0632 101.904 71.7916L101.994 81.8391ZM87.1215 91.0825C88.1814 93.6683 88.51 94.5452 88.2111 97.8459C89.266 97.8199 91.2009 97.3748 92.2418 97.2013C93.5809 96.9784 95.1473 96.6226 96.3851 96.4935C95.3328 93.9292 94.9979 92.9928 95.312 89.7295C94.2527 89.7561 92.3203 90.2005 91.2762 90.3746C89.9371 90.5969 88.3606 90.9565 87.1215 91.0825ZM78.9082 106.171C77.576 106.195 76.3237 106.049 75.1308 105.679C73.9835 105.322 73.3143 104.748 72.3702 104.373L70.6411 110.32C69.9054 112.761 70.6316 114.79 72.6881 115.342C72.8204 115.377 72.9489 115.407 73.0743 115.431H74.6319C76.8979 114.883 77.3899 111.763 78.0553 109.393C78.2757 108.608 78.8366 107.058 78.9082 106.171Z" fill="#F5F5F5"/>
</svg>
