<svg width="116" height="107" viewBox="0 0 116 107" fill="none" xmlns="http://www.w3.org/2000/svg">
<path fill-rule="evenodd" clip-rule="evenodd" d="M26.3779 15.8916C27.1662 16.4108 27.8475 17.4789 28.7592 18.1963C29.6 18.8573 30.7688 19.5069 32.0142 19.8729C33.7148 20.8201 35.8594 20.1647 37.7291 20.128C38.2255 19.6861 39.9039 19.0599 40.7378 18.4818C41.8737 17.6954 42.3511 16.9483 43.2863 16.0847C49.5102 6.40566 38.908 -3.81789 29.7653 1.4221C26.578 3.24875 24.7646 6.51646 24.7887 10.4389C24.8051 13.1481 25.5244 14.0801 26.3779 15.8916ZM45.0901 97.4584C45.0901 103.122 51.8535 101.776 51.8535 98.36C51.8535 92.6964 45.0901 94.0419 45.0901 97.4584ZM94.6896 86.4111C94.6896 92.0746 101.453 90.7292 101.453 87.3127C101.453 81.6491 94.6896 82.9952 94.6896 86.4111ZM2.25407 68.375C2.25407 74.0386 9.01806 72.6932 9.01806 69.2766C9.01806 63.6131 2.25407 64.9585 2.25407 68.375ZM45.0901 66.1204C45.0901 71.7839 51.8535 70.4385 51.8535 67.022C51.8535 61.359 45.0901 62.7045 45.0901 66.1204ZM78.9082 54.8477C78.9082 60.5113 85.6715 59.1658 85.6715 55.7499C85.6715 50.0864 78.9082 51.4318 78.9082 54.8477ZM56.8491 56.4261C57.5341 55.9589 59.2551 55.6676 60.2175 55.0914C61.3217 54.4298 62.1074 53.4946 62.9008 53.0793C63.5814 51.9599 64.1436 51.4913 64.6768 50.0857C65.6892 47.4138 65.6854 44.7058 64.4805 41.9953C63.6124 40.0414 63.028 39.9761 62.4499 39.0346C61.5699 38.5737 60.8753 37.7506 59.6356 37.1523C58.3939 36.5533 57.5765 36.4653 56.1374 36.1715C43.6066 35.3902 41.1107 52.2948 51.932 55.8968C53.7915 56.516 54.507 56.4261 56.8491 56.4261ZM25.9271 61.1748C22.7125 61.8263 20.3433 63.9854 19.0073 66.6408C18.2152 68.2149 17.9139 69.5958 18.0329 71.9846C18.1437 74.2032 18.9377 75.2112 19.6139 76.8124C20.4572 77.305 21.1012 78.3694 21.9939 79.0715C22.8436 79.7389 24.0022 80.3752 25.2502 80.7437C28.4267 82.5184 35.5029 80.4778 37.6227 74.8851C39.7615 69.2425 37.3346 64.7597 32.6904 61.9169C29.3176 61.1146 29.8836 60.8544 25.9271 61.1748ZM18.176 50.339C18.6179 49.2772 19.2011 48.7548 19.6614 47.46C20.0539 46.3564 20.2394 45.1319 20.2793 43.801C20.3262 41.3932 19.4587 39.9578 18.7123 38.3318C16.6532 36.9205 18.4938 36.9547 13.7414 34.5722C13.1779 34.2898 13.4558 34.5139 13.0791 34.1062C9.49417 34.1062 7.01409 32.8785 2.75929 37.0915C1.16944 38.6655 0.298216 40.4624 0 42.2878V45.2738C0.964928 51.378 7.61625 56.5933 14.284 53.3503C16.4741 52.2847 16.6045 51.7345 18.176 50.339ZM63.3516 68.7916C63.0572 69.2754 62.8368 69.4666 62.4886 69.9934C61.5078 71.48 60.8911 73.1408 60.8608 75.1308C60.8152 78.1598 61.6446 80.3695 63.0692 81.9587C64.7376 83.8189 65.9297 84.7338 68.5763 85.4702C71.423 86.2623 74.1399 85.512 76.0514 84.4565C82.4513 80.9235 83.0351 71.4338 76.7523 67.1486C74.5793 65.667 72.9509 65.4442 69.4077 65.4442C68.7378 65.9032 66.989 66.2204 66.038 66.7814C64.9123 67.4456 64.1589 68.3529 63.3516 68.7916ZM18.7123 90.1581C17.8385 89.6218 17.2566 88.5644 16.2119 87.7876C14.6316 86.6118 14.2403 86.7859 13.3026 86.1749L13.0455 85.9603C11.7602 85.9603 10.6921 85.6133 9.02437 85.7412C7.97397 85.821 6.40372 86.363 5.5534 86.7796C2.009 88.5151 0.207675 91.7948 0 95.1625V96.4915C0.309613 101.476 4.07563 106.233 10.8289 106.034C15.4946 105.896 19.3986 102.051 20.2059 97.5989C20.8055 94.2913 19.5759 92.1582 18.7123 90.1581ZM97.6103 37.2624C97.1462 38.2578 96.4377 38.9232 95.9502 40.0971C95.4703 41.252 95.2474 42.4151 95.1391 43.801C95.1492 49.1221 98.2916 52.7178 103.021 53.9568C109.962 55.7753 115.175 50.0655 115.431 44.1588V43.2622C115.304 40.2889 113.88 37.36 110.747 35.4086C107.645 33.4775 103.715 33.1545 100.106 35.2389C98.933 35.9164 98.5619 36.6432 97.6103 37.2624ZM96.9442 12.0122C96.9442 17.6758 103.708 16.3297 103.708 12.9139C103.708 7.25028 96.9442 8.59574 96.9442 12.0122ZM6.76338 2.99422C6.76338 8.65716 13.5268 7.3117 13.5268 3.89583C13.5268 -1.76774 6.76338 -0.422283 6.76338 2.99422Z" fill="#D9D9D9"/>
<path fill-rule="evenodd" clip-rule="evenodd" d="M60.8715 14.0953C61.3388 14.7436 61.5787 16.2904 62.0479 17.1572C62.65 18.2703 63.254 18.9801 63.9986 19.7095C65.6398 21.3183 67.2531 22.0654 70.1156 22.5637L72.3879 22.608C73.1116 22.1838 74.6768 21.9901 75.7063 21.4266C76.9004 20.7732 77.6299 19.8943 78.4568 19.4897C79.3204 18.0607 79.8883 18.1703 80.7437 15.4255C82.3367 10.3122 79.6369 4.85818 74.5381 2.85425C69.5533 0.895265 64.0259 3.52855 61.6933 8.32407C60.7879 10.1855 60.8715 11.4867 60.8715 14.0953Z" fill="#D9D9D9"/>
<path fill-rule="evenodd" clip-rule="evenodd" d="M43.2862 16.0848C42.3511 16.9485 41.8737 17.6956 40.7378 18.482C39.9039 19.06 38.2255 19.6862 37.7291 20.1282L42.2498 26.3508C45.9347 31.6908 47.1371 29.1525 52.6772 26.3628L63.3516 20.5796L56.1374 36.1717C57.5765 36.4654 58.3939 36.5535 59.6355 37.1524C60.8753 37.7507 61.5698 38.5739 62.4499 39.0348L64.2563 35.0111C64.5495 34.3526 64.8718 33.7707 65.232 33.0559C65.6379 32.2505 65.8151 31.6826 66.2045 30.8722C67.5538 28.0603 68.8094 25.3226 70.1156 22.5639C67.2531 22.0656 65.6398 21.3185 63.9986 19.7096C63.254 18.9802 62.65 18.2705 62.0479 17.1574C61.5787 16.2906 61.3388 14.7438 60.8715 14.0955L47.1194 21.4812C46.3697 20.0642 45.2775 18.8106 44.3696 17.467L43.3907 16.202C43.3698 16.1785 43.3217 16.1235 43.2862 16.0848ZM13.0791 34.1063C13.4558 34.5141 13.1778 34.2899 13.7414 34.5723C18.4938 36.9549 16.6532 36.9207 18.7122 38.332L30.3452 22.2923C30.9815 21.3679 31.5323 20.855 32.0142 19.873C30.7688 19.507 29.6 18.8574 28.7592 18.1964C27.8474 17.479 27.1661 16.4109 26.3779 15.8917C26.1866 16.535 14.006 33.0281 13.0791 34.1063ZM72.3879 22.6082C72.6121 23.7606 75.1877 28.4693 75.9019 29.8977C80.6658 39.4261 78.1756 37.0093 87.2494 40.6443C88.5163 41.1521 89.8833 41.7339 91.116 42.1892C92.4361 42.6767 94.0019 43.1971 95.1391 43.8012C95.2473 42.4152 95.4702 41.2521 95.9502 40.0972C96.4377 38.9234 97.1462 38.2579 97.6103 37.2626C96.1496 36.915 85.0479 32.5734 84.5433 31.8529L81.4629 25.6898C80.7418 24.2475 78.7822 20.774 78.4567 19.4899C77.6298 19.8945 76.9004 20.7733 75.7063 21.4268C74.6768 21.9903 73.1116 22.184 72.3879 22.6082ZM56.849 56.4263L62.5455 67.1526C62.9381 67.8009 63.1546 68.0073 63.3516 68.7918C64.1588 68.353 64.9123 67.4457 66.038 66.7815C66.989 66.2206 68.7378 65.9033 69.4077 65.4443C68.8885 64.2818 68.3636 63.5138 67.7823 62.3665L62.9007 53.0794C62.1074 53.4948 61.3217 54.4299 60.2174 55.0916C59.255 55.6678 57.5341 55.959 56.849 56.4263ZM18.176 50.3391C19.46 50.845 20.9239 51.2648 22.2909 51.7207C23.2748 52.048 25.5655 52.9579 26.6032 53.0446C26.6032 55.9786 25.927 58.2365 25.927 61.1749C29.8836 60.8546 29.3176 61.1148 32.6904 61.917C32.6904 60.8153 32.9899 59.1881 33.1007 58.1896C33.2501 56.8448 33.3122 55.864 33.4952 54.5262C33.8624 51.8473 34.362 49.4154 32.5106 48.0389C31.7312 47.4589 21.6463 44.1121 20.2793 43.8012C20.2394 45.1321 20.0539 46.3566 19.6613 47.4602C19.201 48.755 18.6179 49.2773 18.176 50.3391ZM13.0455 85.9604L13.3026 86.175C14.2403 86.786 14.6315 86.6119 16.2119 87.7877C17.2566 88.5646 17.8385 89.6219 18.7122 90.1582C19.2112 88.6399 24.9361 81.9994 25.2502 80.7439C24.0022 80.3754 22.8436 79.739 21.9939 79.0717C21.1011 78.3695 20.4572 77.3052 19.6139 76.8126C19.4018 77.4407 18.5793 78.4043 18.1266 79.0622L14.7892 83.6152C14.1561 84.5345 13.6793 85.1227 13.0455 85.9604Z" fill="#F5F5F5"/>
</svg>
