<svg width="106" height="102" viewBox="0 0 106 102" fill="none" xmlns="http://www.w3.org/2000/svg">
<path fill-rule="evenodd" clip-rule="evenodd" d="M11.7768 71.8661C13.0148 71.57 13.6959 71.3646 14.6984 70.7458C15.8286 70.0484 16.2898 69.3576 17.0803 68.8583C19.1397 66.3442 19.8203 62.9103 18.3675 59.5803C18.1389 59.0567 17.9539 58.7279 17.6583 58.2945C17.2917 57.7559 17.0018 57.5561 16.6724 57.0768C15.859 56.6174 15.3371 55.9487 14.1834 55.352C13.3739 54.9341 11.6331 54.586 11.2223 54.3203C8.13177 54.3203 5.91364 54.54 3.6669 56.7331C1.9936 58.3654 0.885699 59.7995 0.761963 62.7757V63.8772C1.08333 70.3334 8.75043 73.2316 11.7768 71.8661ZM49.9209 25.3478C49.9209 30.2984 56.0407 29.1222 56.0407 26.136C56.0407 21.1848 49.9209 22.361 49.9209 25.3478ZM31.5632 7.60936C31.5632 12.5605 37.6824 11.3838 37.6824 8.39757C37.6824 3.4464 31.5632 4.62261 31.5632 7.60936ZM5.04578 90.3883C5.04578 95.3394 11.165 94.1632 11.165 91.1765C11.165 86.2253 5.04578 87.4015 5.04578 90.3883ZM84.5974 88.4172C84.5974 93.3684 90.7172 92.1922 90.7172 89.2054C90.7172 84.2548 84.5974 85.431 84.5974 88.4172ZM64.1999 70.6788C64.1999 75.63 70.3191 74.4538 70.3191 71.4676C70.3191 66.5164 64.1999 67.6926 64.1999 70.6788ZM25.4434 64.7662C25.4434 69.7173 31.5632 68.5411 31.5632 65.5544C31.5632 60.6032 25.4434 61.7794 25.4434 64.7662ZM78.0635 37.173C77.2781 37.8184 76.2825 38.1677 75.5143 38.8402C75.107 39.1967 74.761 39.5255 74.4115 39.9422C73.9492 40.4941 73.9853 40.7343 73.3787 41.1212C72.9702 42.7895 71.1033 45.3788 73.3747 49.5938C74.537 51.7503 76.723 53.526 79.4985 54.1183C82.9791 54.421 82.6057 54.2317 85.6177 53.4607C87.0619 52.6138 87.4715 52.3127 88.6298 51.121C89.5401 50.1844 90.1553 48.8372 90.5202 47.4219C90.6067 46.0647 90.8313 45.4669 90.5678 44.0294C90.3575 42.8842 89.9079 42.179 89.7463 41.3122C87.8301 38.5551 85.6361 36.5968 81.7464 36.5725C79.7322 36.5597 79.5392 36.8465 78.0635 37.173ZM26.6676 84.0993C25.3615 84.4242 24.6609 84.6506 23.6326 85.2882C22.7298 85.8489 22.1547 86.605 21.3641 87.086C17.5546 91.7084 19.3207 97.9266 23.8165 100.436C24.9066 101.044 26.3342 101.492 27.8311 101.622H29.5696C30.445 101.543 31.3094 101.335 32.1108 100.969C34.3266 99.9585 36.4594 98.1867 37.1634 95.7097C37.8325 93.4791 37.8257 92.0139 37.1486 89.7971C36.9372 88.9597 36.57 88.4543 36.2543 87.7547C35.4758 87.3024 34.9218 86.3576 33.9875 85.6834C33.6501 85.4399 33.0457 85.0585 32.6109 84.8531L31.2378 84.179C31.2183 84.1164 31.1582 84.117 31.1227 84.081C29.8613 84.081 27.8396 83.4965 26.6676 84.0993ZM46.2494 89.8735C46.4505 90.1945 45.8536 91.9658 45.8519 92.7534C45.8508 93.4232 46.3411 95.4717 46.2494 95.6201C47.9084 99.4675 50.936 101.324 54.0391 101.622H55.8545C60.2087 101.207 64.2096 97.8485 64.2096 92.7534C64.2096 85.4969 55.9639 81.5094 49.9547 85.296C48.2155 86.3919 47.103 87.9567 46.2494 89.8735ZM77.4586 13.8956C78.1151 14.298 77.9787 14.4441 78.4032 14.9788C78.7532 15.4211 79.1296 15.7537 79.4962 16.0908C80.3812 16.9045 81.3076 17.1951 82.105 17.8582C84.2629 18.2977 86.0067 19.0267 88.9173 17.8925C94.6986 15.6392 97.3927 8.47395 91.7914 3.02407C90.381 1.65136 88.6258 0.910202 86.8115 0.710938H84.7636C80.0702 1.21353 75.685 5.11081 76.4864 10.9133C76.5351 11.2659 76.7185 12.1161 76.8691 12.5151C77.0696 13.0465 77.2999 13.2718 77.4586 13.8956ZM23.8176 27.1212C24.1539 26.4011 25.1919 25.7446 25.794 24.8978C26.4075 24.0349 26.8601 22.6024 27.2794 22.0621C27.5097 19.0184 27.7188 17.9451 26.4 15.5539C21.9707 7.52412 8.32249 10.4683 9.13307 20.8068C9.31868 23.1775 10.4558 24.7627 11.8272 26.0873C13.2496 27.4622 15.1183 28.5321 17.29 28.6927C21.2146 28.9827 22.3626 27.4915 23.8176 27.1212ZM90.4331 63.978C89.8683 64.775 89.1385 65.1481 88.4528 66.1256C87.7648 67.107 87.5253 68.1791 87.0453 68.8655C86.7967 72.0006 86.5755 72.9023 87.9269 75.3455C92.1935 83.0598 104.383 80.4942 105.2 71.9956V70.1546C105.192 70.0738 105.187 69.9936 105.177 69.9122C104.931 67.743 103.848 66.1278 102.396 64.7158C98.9623 61.3765 94.2901 61.4573 90.4331 63.978Z" fill="#D9D9D9"/>
<path fill-rule="evenodd" clip-rule="evenodd" d="M37.1635 95.7097L46.2495 95.62C46.3412 95.4717 45.8509 93.4231 45.852 92.7533C45.8537 91.9657 46.4506 90.1945 46.2495 89.8734L37.1487 89.797C37.8258 92.0139 37.8326 93.479 37.1635 95.7097ZM48.7478 53.186C47.5694 52.5611 44.885 50.0139 44.0057 49.7869C44.4554 49.1382 46.682 47.8662 47.5551 47.3039C48.8887 46.4448 50.0745 45.6843 51.3491 44.8596C51.9598 45.1717 54.93 46.3801 55.6329 46.4365L48.7478 53.186ZM27.2795 22.062C26.8602 22.6023 26.4076 24.0348 25.7941 24.8977C25.192 25.7446 24.154 26.401 23.8177 27.1211C24.4811 27.2949 27.9383 29.6474 28.789 30.1959C30.5304 31.3173 32.1247 32.3402 33.8066 33.4284L35.2347 46.0424C34.0461 46.0164 32.4856 45.7275 31.1623 45.6411C28.4235 45.4629 20.8973 44.492 18.9192 44.4522C15.4506 44.383 15.6924 46.1404 14.2156 48.5958C13.3328 50.0631 11.805 52.7665 11.2224 54.3202C11.6331 54.5859 13.374 54.934 14.1835 55.3519C15.3372 55.9486 15.8591 56.6173 16.6725 57.0767C17.8646 54.9158 18.9531 52.7427 20.14 50.5751C22.3174 51.0655 33.2601 51.7679 36.6181 52.1947C38.2187 52.3978 42.2826 56.0366 44.1833 57.4996C50.4033 62.288 48.5799 61.8247 61.4972 49.3436C64.4932 46.4487 63.7554 47.4472 65.4001 43.0629C65.8693 41.8119 66.355 40.5571 66.8517 39.341L68.2793 35.5965C69.1403 36.1534 72.7463 40.1896 73.3788 41.1211C73.9854 40.7342 73.9493 40.494 74.4116 39.9422C74.7611 39.5254 75.1071 39.1966 75.5144 38.8401C76.2826 38.1676 77.2782 37.8183 78.0636 37.1729C77.1762 35.8489 74.3744 33.171 73.1749 31.6544C72.5207 30.8275 72.087 30.6763 71.5433 29.6833C73.0488 27.5108 81.4629 19.0354 82.1051 17.8581C81.3076 17.195 80.3813 16.9044 79.4963 16.0907C79.1297 15.7536 78.7533 15.421 78.4033 14.9787C77.9788 14.444 78.1152 14.2979 77.4587 13.8955L72.0114 19.8873C71.4494 20.5332 71.2862 20.7425 70.6726 21.353L67.3197 25.0111C63.9605 28.888 64.7275 27.3868 62.5444 33.2081L59.3043 41.5091C58.6123 41.1881 57.7742 40.9174 56.9734 40.608C54.336 39.589 51.2346 37.8427 49.3075 38.9453C47.9911 39.6981 46.6019 40.6905 45.2705 41.5484C44.4336 42.087 41.9188 43.8732 41.15 44.0714C41.15 42.6129 40.8882 41.3973 40.761 40.1115L39.8714 32.1016C39.6715 30.5075 39.4847 29.8926 38.2989 29.0878C36.5225 27.8822 34.604 26.7149 32.7869 25.5447L27.2795 22.062ZM89.7464 41.3121C89.9079 42.1789 90.3576 42.8841 90.5679 44.0293C90.8314 45.4668 90.6068 46.0646 90.5203 47.4218L97.7468 46.5278C100.717 46.1022 100.674 44.8728 101.553 42.1247L104.409 32.8616C104.635 32.178 105.095 31.0013 105.2 29.995V29.2749C104.858 26.7066 100.306 24.6198 98.8324 29.8378L95.9051 39.2292C95.4148 40.9866 95.6462 40.737 93.612 40.9556C92.346 41.0912 91.2794 41.3121 89.7464 41.3121ZM79.4986 54.1182C79.4986 55.4283 80.2822 62.9683 80.6088 64.0875C81.0659 65.6556 83.6781 66.8141 85.2941 67.8381C85.981 68.2737 86.3471 68.5886 87.0454 68.8654C87.5254 68.1791 87.7649 67.1069 88.4529 66.1255C89.1386 65.148 89.8684 64.7749 90.4332 63.9779C89.4439 63.1188 87.6148 62.1795 86.4336 61.4157C86.4336 59.9566 86.1718 58.7417 86.0446 57.4553C85.9174 56.1728 85.6178 54.6578 85.6178 53.4606C82.6058 54.2316 82.9792 54.4209 79.4986 54.1182ZM31.1228 84.0809C31.1583 84.1169 31.2184 84.1163 31.2379 84.1789L32.611 84.8531C33.0458 85.0584 33.6502 85.4398 33.9876 85.6833C34.9219 86.3575 35.4759 87.3024 36.2544 87.7546C36.4137 87.2813 36.7006 86.9846 37.0117 86.5878L39.5741 83.1499C40.8882 81.4484 47.7533 72.926 47.8908 71.4597C48.0214 70.0599 47.4726 69.2351 46.7004 68.6667C45.9093 68.0844 44.5614 67.8364 43.4437 68.3617C42.5506 68.7813 42.0717 69.6259 41.4702 70.397C38.0961 74.7243 34.4877 79.867 31.1228 84.0809ZM11.7769 71.866L21.3642 87.0859C22.1548 86.6049 22.7299 85.8488 23.6327 85.2881C24.661 84.6505 25.3616 84.4241 26.6677 84.0992L17.0804 68.8582C16.2899 69.3575 15.8287 70.0483 14.6985 70.7457C13.696 71.3645 13.0149 71.5699 11.7769 71.866Z" fill="#F5F5F5"/>
</svg>
