<svg width="97" height="116" viewBox="0 0 97 116" fill="none" xmlns="http://www.w3.org/2000/svg">
<path fill-rule="evenodd" clip-rule="evenodd" d="M50.2798 15.7814C50.6161 14.7747 51.1568 14.1257 51.4924 12.8955C51.8286 11.6633 51.8716 10.4072 51.8735 9.01802C51.7481 4.92911 47.5275 0.360898 42.8751 0.00886417C42.8301 0.00506524 42.7852 0.00316577 42.7402 0H41.2466C36.4606 0.314678 32.8858 3.63114 31.9285 7.3066C30.4032 13.1633 33.821 17.7682 37.4711 19.3904C42.2476 21.5133 47.2274 19.9697 50.2798 15.7814ZM4.55721 12.3997C4.55721 18.0633 11.3206 16.7178 11.3206 13.3019C11.3206 7.63838 4.55721 8.98383 4.55721 12.3997ZM85.7194 10.145C85.7194 15.8086 92.4834 14.4632 92.4834 11.0473C92.4834 5.38371 85.7194 6.72917 85.7194 10.145ZM72.1927 107.089C72.1927 112.753 78.9561 111.407 78.9561 107.991C78.9561 102.328 72.1927 103.673 72.1927 107.089ZM78.9561 80.0352C78.9561 85.6987 85.7194 84.3533 85.7194 80.9374C85.7194 75.2739 78.9561 76.6193 78.9561 80.0352ZM0.0478953 66.5085C0.0478953 72.172 6.81124 70.826 6.81124 67.4101C6.81124 61.7465 0.0478953 63.092 0.0478953 66.5085ZM63.1747 50.7265C63.1747 56.39 69.938 55.0446 69.938 51.6287C69.938 45.9651 63.1747 47.3106 63.1747 50.7265ZM20.3386 39.4538C20.3386 45.1173 27.1019 43.7719 27.1019 40.356C27.1019 34.6924 20.3386 36.0379 20.3386 39.4538ZM69.7968 18.9377L68.2013 19.9076C65.6978 21.4228 65.2729 22.8138 64.5271 23.4077C63.3798 25.7985 63.1747 26.1271 63.1747 29.6658C63.509 30.3553 63.6647 31.8629 64.127 32.8721C64.6949 34.1112 65.4382 34.7412 65.9036 35.6213C67.3655 36.6723 67.3345 37.4169 70.3572 38.359C73.402 39.3075 74.7519 38.5313 76.8477 38.3268C76.8882 38.2837 76.9584 38.1666 76.9812 38.209C76.9812 38.2096 79.6399 36.7375 81.0005 35.1819C81.5571 34.5456 81.564 34.2847 82.1123 33.8491C86.136 25.6162 80.4199 18.4805 73.3197 18.4761C71.5241 18.4755 71.0695 18.9047 69.7968 18.9377ZM45.8148 68.0667C47.1381 68.0578 48.3949 67.8906 49.5321 67.5095C50.8459 67.0694 51.3942 66.5218 52.3528 66.0722C54.4562 64.5742 56.4031 61.756 56.4221 58.1717C56.4335 56.0127 56.001 54.5881 55.2906 53.1996C54.4504 51.5553 53.6678 51.1557 52.5782 49.9053C51.5233 49.4658 51.0016 48.8764 49.7056 48.4167C48.6191 48.0311 47.3642 47.8367 46.0402 47.7943C37.083 47.8114 32.8947 58.9486 38.8799 64.8756C39.8733 65.8595 40.3083 66.373 41.674 67.0416C42.7352 67.5614 44.3238 68.1179 45.8148 68.0667ZM10.419 104.138C13.6658 103.921 14.5737 103.121 16.7315 101.823C17.849 100.546 18.5322 100.24 19.3673 98.453C20.0695 96.9499 20.4095 95.5411 20.3481 93.3289C20.2512 89.8187 17.9579 86.986 15.8299 85.4993C13.3764 84.497 12.704 83.7524 9.2913 83.9038C6.69917 83.7993 4.3033 85.5917 2.69382 87.1898C-3.16476 93.0079 1.03877 104.472 10.419 104.138ZM51.4512 85.8608C49.8993 87.0619 48.7178 88.4859 47.9296 90.4917C47.5243 91.5231 47.3819 92.6495 47.3825 94.0133C47.3825 95.7589 47.7289 96.2718 47.8435 97.6014C48.4494 98.044 48.2449 98.106 48.7482 98.9779C50.2039 101.497 51.7031 102.025 52.3654 102.806C58.8857 106.378 65.4325 102.671 67.2097 97.1468C69.3979 90.3436 64.1219 83.881 57.9891 83.8664C54.5486 83.8715 53.6945 84.6977 51.4512 85.8608ZM82.1123 48.9258C77.7081 51.2216 75.5111 56.6414 77.1756 61.2995C81.0201 72.0536 96.944 69.2924 97.0035 58.1717C97.0187 55.3156 96.074 52.9343 94.6855 51.4552C93.266 49.9439 91.1475 48.1305 88.8757 48.0014C85.2996 47.6563 85.0565 47.9127 82.1123 48.9258Z" fill="#D9D9D9"/>
<path fill-rule="evenodd" clip-rule="evenodd" d="M9.29128 83.9038C12.704 83.7525 13.3764 84.4971 15.8299 85.4993C16.118 84.8174 17.3887 79.7579 17.4077 78.9082L23.1004 77.8369C24.8682 77.4836 27.2146 77.2544 28.2973 76.2705C29.6415 75.0479 29.8283 72.8299 28.5227 71.4003C27.0639 69.8041 25.2677 70.3207 23.2112 70.7342C11.4725 73.0927 12.1918 71.8131 10.5538 78.3669C10.1973 79.7927 9.31914 82.5729 9.29128 83.9038ZM50.2798 15.7814C53.1448 16.3924 56.0681 17.1687 59.0357 17.8911C60.599 18.2716 60.3267 18.3875 61.3391 19.6462L63.2063 21.8375C63.6742 22.4163 64.1351 22.8886 64.527 23.4078C65.2729 22.8139 65.6978 21.4228 68.2012 19.9077L69.7968 18.9377C68.6375 17.667 67.7258 16.5684 66.626 15.261C63.0645 11.029 64.781 12.2459 57.4927 10.4161C55.9535 10.0298 53.0701 9.55372 51.8735 9.01807C51.8716 10.4072 51.8285 11.6634 51.4923 12.8955C51.1568 14.1257 50.616 14.7747 50.2798 15.7814ZM46.0402 47.7944C47.3641 47.8368 48.619 48.0312 49.7055 48.4167C51.0016 48.8764 51.5233 49.4659 52.5782 49.9053C53.6241 47.2777 54.6169 43.4591 55.5768 40.8746C55.887 40.0388 55.6496 40.2668 56.3967 39.8907C58.131 39.0176 65.0811 36.2849 65.9035 35.6213C65.4382 34.7412 64.6949 34.1113 64.1269 32.8722C63.6647 31.8629 63.509 30.3554 63.1747 29.6659C62.1445 29.4987 58.0372 31.7097 56.9919 32.144C55.8978 32.5986 55.0697 32.9462 54.0066 33.4426C53.0816 33.8751 51.6651 34.3759 50.956 34.9008C49.6042 35.9012 48.8799 39.16 48.2658 41.0038C47.5902 43.0305 46.5258 45.7157 46.0402 47.7944ZM76.8476 38.3268C78.1792 39.8103 79.2695 41.1253 80.5066 42.6379C81.5748 43.9429 81.2747 43.3496 81.5646 45.4124C81.7445 46.6901 81.8578 47.8266 82.1123 48.9258C85.0565 47.9128 85.2996 47.6563 88.8757 48.0014C88.8757 46.7522 88.4286 44.5811 88.2672 43.4446C87.7315 39.6741 87.5194 40.4346 84.5607 36.78L82.1123 33.8491C81.564 34.2847 81.557 34.5456 81.0005 35.1819C79.6398 36.7376 76.9812 38.2097 76.9812 38.209C76.9584 38.1666 76.8882 38.2837 76.8476 38.3268ZM45.8148 68.0667L51.4512 85.8609C53.6944 84.6978 54.5485 83.8715 57.9891 83.8664C57.499 82.849 53.0847 67.5399 52.3528 66.0723C51.3942 66.5218 50.8458 67.0695 49.532 67.5095C48.3949 67.8907 47.1381 68.0578 45.8148 68.0667ZM16.7315 101.823C14.5737 103.121 13.6657 103.921 10.4189 104.138L12.5438 110.15C15.0308 116.64 14.7377 115.838 22.7882 114.499C25.0613 114.121 27.5648 113.585 29.8378 113.207C31.812 112.879 42.6117 111.071 43.5627 110.474C44.2313 110.054 45.1247 109.183 45.7616 108.615C47.1204 107.405 51.629 103.848 52.3654 102.806C51.7031 102.025 50.2038 101.497 48.7482 98.978C48.2449 98.1061 48.4494 98.0441 47.8434 97.6015C47.4509 98.2201 47.2831 98.322 46.7177 98.7494L44.0635 101.055C43.5285 101.532 43.2733 101.654 42.7149 102.186C42.1571 102.717 41.9013 102.805 41.3631 103.314C39.6992 104.89 39.1363 104.537 35.7312 105.122L19.2116 108.217C18.4334 106.595 17.661 103.48 16.7315 101.823Z" fill="#F5F5F5"/>
</svg>
