<svg width="134" height="135" viewBox="0 0 134 135" fill="none" xmlns="http://www.w3.org/2000/svg">
<path fill-rule="evenodd" clip-rule="evenodd" d="M98.6465 90.8165L99.9264 92.1733C101.442 93.8059 102.363 93.9607 103.789 94.7738L104.087 94.9727C104.792 95.0509 105.098 95.2715 105.852 95.3742C117.528 96.9639 122.233 80.2128 111.049 75.8051C108.824 75.1477 107.236 74.7863 104.354 75.529C103.099 75.6747 101.131 77.0152 100.348 77.7272C98.2727 79.6152 96.8437 82.773 97.066 85.7331C97.3123 89.0139 98.26 89.4786 98.6465 90.8165ZM46.3304 67.6316C51.9032 66.6219 49.373 60.2069 46.0118 60.8158C40.439 61.8255 42.9686 68.2407 46.3304 67.6316ZM45.0935 111.389C50.6657 110.38 48.136 103.964 44.7749 104.573C39.2021 105.583 41.7317 111.998 45.0935 111.389ZM19.1142 56.5243C24.687 55.5146 22.1574 49.0994 18.7962 49.7084C13.2234 50.7181 15.753 57.1332 19.1142 56.5243ZM120.31 109.218C125.883 108.208 123.353 101.792 119.991 102.401C114.419 103.411 116.948 109.827 120.31 109.218ZM90.8912 73.3057C96.4641 72.296 93.9344 65.8809 90.5733 66.4898C85.0004 67.4995 87.5301 73.9147 90.8912 73.3057ZM71.9542 44.6594C77.527 43.6498 74.9968 37.2347 71.6356 37.8437C66.0628 38.8534 68.5924 45.2685 71.9542 44.6594ZM30.0808 30.7087C31.4238 33.2309 32.2772 34.1908 34.6244 35.5499C36.3879 36.5713 39.0914 37.1593 42.0221 36.2661C43.2995 35.8268 44.2933 35.4267 45.29 34.7024C46.3822 33.908 46.9735 32.9026 47.7293 32.3577C47.9902 31.6811 48.1878 31.6067 48.5271 30.9404C48.8322 30.3407 48.9333 29.8295 49.2139 29.3044C49.1522 28.2462 49.4855 27.2805 49.4283 25.9556C49.3596 24.3762 49.0308 23.7369 48.6046 22.3117C48.3823 21.5888 47.4775 20.3204 46.9535 19.7229C45.2001 17.7235 41.8522 16.1043 38.8405 16.3154C33.4245 16.6957 30.4343 20.4387 29.5012 23.9402C29.2446 27.2793 29.0221 27.0957 30.0808 30.7087ZM105.714 43.8334C108.009 44.4858 109.448 44.8981 112.414 44.1387C115.323 43.7133 117.916 40.6202 118.835 38.5573C119.448 37.1832 119.787 35.2712 119.623 33.3454L119.265 31.3673C119.036 30.5666 118.7 29.7959 118.24 29.0962C114.544 23.4696 107.584 22.55 102.213 27.2628C101.566 28.3677 100.921 28.9074 100.337 30.1946C99.8831 31.1957 99.7078 32.7357 99.262 33.514C99.4491 34.6924 99.3258 35.7803 99.7306 37.3292C99.9764 38.2704 100.716 39.61 101.174 40.2836C102.283 41.914 103.904 43.1757 105.714 43.8334ZM75.2369 27.1101C75.8122 28.101 75.3812 27.775 76.477 29.1813C77.8696 30.9687 79.8834 32.1997 82.1003 32.8218C85.8254 33.8668 89.0101 32.4508 91.818 30.0631C92.4533 29.0452 93.0861 28.4319 93.6292 27.2885C94.1309 26.2325 94.381 24.5411 94.759 23.8324C94.3111 21.0225 94.8854 19.3979 92.2322 16.2469C87.4592 10.5761 78.5152 12.0826 75.3203 18.4784C75.0185 19.0819 74.9157 19.5941 74.6295 20.117C74.6828 21.1999 74.3611 22.1198 74.4145 23.462C74.4776 25.0535 74.8486 25.7088 75.2369 27.1101ZM70.7027 85.8078C72.0386 85.2363 72.6707 84.8187 73.6725 83.8735C74.4919 83.1008 75.2825 81.672 75.8443 81.3063C76.9112 77.8861 77.8531 75.0232 75.3446 71.1079C74.2307 69.3703 73.5886 68.959 71.979 67.8492C70.0994 66.5528 69.0607 66.7648 67.4051 66.3428C65.9655 66.5367 65.2215 66.3729 63.7142 66.8789C62.3525 67.3361 61.7953 67.8372 60.6618 68.3289C53.3504 74.7054 56.7285 83.5446 62.8945 85.9903C64.6742 86.6961 68.2495 87.415 70.7027 85.8078ZM95.4847 106.245C94.3572 105.268 94.0215 104.224 91.685 102.942L90.4884 102.389C90.2168 102.243 90.2224 102.242 90.0284 102.102C89.1205 101.988 88.393 101.716 87.3264 101.686C83.3702 102.054 83.959 102.246 80.8068 103.639C77.7707 106.177 76.1035 109.341 76.8814 113.649C78.0002 119.846 83.2833 122.546 88.1667 121.915L89.2115 121.726C93.082 120.831 96.4792 117.782 97.0144 112.66C97.3916 109.049 95.7494 107.17 95.4847 106.245ZM21.6365 31.3223C21.8469 28.0263 22.1728 28.1809 21.0574 24.5531C20.0109 21.1496 15.4314 18.042 10.1719 18.7356L9.08415 18.9326C4.51941 20.0229 1.27132 24.882 1.59917 29.2522C1.60675 29.3544 1.6166 29.4549 1.62645 29.5555L1.93709 31.27C3.12566 35.7526 6.97167 38.5478 10.5662 38.9145C15.8615 39.4557 20.2467 36.2096 21.6365 31.3223Z" fill="#D9D9D9"/>
<path fill-rule="evenodd" clip-rule="evenodd" d="M99.2619 33.5142C99.7077 32.7359 99.8829 31.1959 100.337 30.1948C100.921 28.9076 101.566 28.3679 102.213 27.2629L94.7589 23.8326C94.3809 24.5413 94.1307 26.2326 93.629 27.2887C93.0859 28.4321 92.4532 29.0454 91.8179 30.0633L99.2619 33.5142ZM30.0807 30.7088C29.022 27.0958 29.2444 27.2795 29.5011 23.9404C28.9947 23.8127 22.051 24.3732 21.0573 24.5533C22.1727 28.1811 21.8468 28.0265 21.6364 31.3225C22.1259 31.4493 29.0945 30.8875 30.0807 30.7088ZM75.2368 27.1102C74.8484 25.709 74.4775 25.0536 74.4143 23.4622C74.361 22.1199 74.6827 21.2 74.6293 20.1171C72.5167 20.4999 70.2644 20.6551 68.1485 20.7675L48.6045 22.3118C49.0306 23.7371 49.3594 24.3763 49.4281 25.9558C49.4854 27.2806 49.152 28.2464 49.2138 29.3046C53.3531 28.5547 63.5177 28.202 68.6308 27.6276L75.2368 27.1102ZM60.6617 68.3291C61.7952 67.8374 62.3523 67.3362 63.7141 66.8791C65.2214 66.373 65.9653 66.5368 67.405 66.3429C66.9811 65.7473 66.056 62.1963 65.7683 61.1378C65.3329 59.5373 64.69 57.2176 64.0859 55.73C63.8338 55.1097 63.2007 54.2219 62.8109 53.651L47.7291 32.3579C46.9733 32.9027 46.3821 33.9082 45.2899 34.7025C44.2931 35.4268 43.2994 35.8269 42.0219 36.2662C44.8955 40.4564 49.9167 47.0314 52.3534 50.8278C53.9867 53.3715 55.8709 55.5743 57.4263 58.0613C58.2342 59.3525 58.5232 61.2318 59.0702 62.9653C59.5197 64.3914 60.3726 66.7336 60.6617 68.3291ZM80.8066 103.639C83.9589 102.246 83.3701 102.054 87.3263 101.686C86.8917 99.2877 86.1039 97.166 85.4859 95.0941C83.8449 89.5919 84.3158 90.5142 79.423 85.3721C78.7577 84.6729 78.2911 84.1326 77.652 83.4499C77.2052 82.9729 76.0795 81.8025 75.8442 81.3065C75.2824 81.6721 74.4918 83.101 73.6724 83.8736C72.6706 84.8189 72.0385 85.2365 70.7026 85.808C71.4983 87.6959 77.5224 92.6433 78.2512 94.8972L80.8066 103.639ZM95.4845 106.245C97.4256 103.662 102.475 97.3832 104.087 94.9728L103.789 94.7739C102.363 93.9609 101.442 93.8061 99.9263 92.1735L98.6464 90.8166L90.0283 102.102C90.2223 102.243 90.2167 102.244 90.4883 102.389L91.6849 102.942C94.0214 104.225 94.3571 105.268 95.4845 106.245ZM111.049 75.8052C111.291 75.0356 111.377 69.3279 111.46 67.9725C111.619 65.3738 111.69 62.6229 111.819 60.0746L112.332 48.2095C112.378 46.9013 112.627 45.4632 112.414 44.1389C109.448 44.8982 108.009 44.486 105.714 43.8335L104.392 71.4144C104.347 72.7044 104.157 74.3069 104.354 75.5292C107.236 74.7864 108.824 75.1479 111.049 75.8052Z" fill="#F5F5F5"/>
</svg>
