<svg width="116" height="116" viewBox="0 0 116 116" fill="none" xmlns="http://www.w3.org/2000/svg">
<path fill-rule="evenodd" clip-rule="evenodd" d="M69.8901 69.8616C69.9116 70.8823 70.2086 71.53 70.4308 72.5057C70.6543 73.4877 70.8088 74.212 71.0197 75.0731C71.3337 76.354 72.1156 79.2026 72.1448 80.4796C74.956 79.4248 75.0098 78.8467 78.9081 78.9195C78.8866 77.9179 78.5871 77.2556 78.368 76.292C78.1445 75.3106 77.9894 74.5862 77.7786 73.7252C77.4614 72.4284 76.682 69.5976 76.6535 68.2946C73.8277 69.3798 73.7726 69.9363 69.8901 69.8616ZM9.01801 29.3233C12.7384 29.253 13.0556 29.7538 15.782 30.8853C15.8105 29.6031 16.5747 26.8685 16.8621 25.6541C17.0894 24.6917 17.2269 24.1377 17.4548 23.0911C17.6751 22.0819 18.0138 21.3101 18.036 20.2692C14.0851 20.3356 14.1288 19.7538 11.2727 18.7072C11.2442 19.9969 10.4812 22.7264 10.1925 23.9446C9.96456 24.907 9.82779 25.461 9.59922 26.5083C9.38078 27.5125 9.0408 28.2906 9.01801 29.3233ZM18.9218 44.8647C20.0722 44.8647 25.078 45.9347 26.3968 46.1987L33.8535 47.7956C33.8231 46.4957 33.7813 45.1882 34.0567 43.9764C34.3296 42.7734 34.971 41.8952 35.1825 40.8068C34.1124 40.8068 20.9447 38.1798 20.2565 37.8759C20.2882 39.3847 20.3692 40.4364 20.0083 41.8743C19.7335 42.9697 19.1175 43.8276 18.9218 44.8647ZM25.8631 15.1052C29.2929 15.8086 33.0222 16.3271 36.5235 16.909C38.3299 17.2091 40.1274 17.5105 41.9344 17.8106C43.592 18.086 45.8328 18.6008 47.4606 18.7122C47.0377 15.014 47.7468 14.717 48.5306 11.9489C45.1135 11.2404 41.369 10.7256 37.8759 10.145C36.0695 9.84491 34.272 9.54352 32.465 9.24341C30.8067 8.96799 28.5666 8.45323 26.9382 8.3418C27.358 12.0546 26.6457 12.325 25.8631 15.1052ZM44.8653 36.0835C46.3102 36.2747 47.1801 36.5159 48.3635 37.0737C49.7431 37.724 50.1787 38.3039 51.1779 38.9213C51.3418 38.34 51.5153 38.1355 51.7775 37.5771C52.0656 36.9636 52.1586 36.6052 52.4524 35.9942C52.9551 34.9489 53.2951 34.1232 53.8048 33.0633L56.5888 27.0351C55.2054 26.8692 54.0898 26.5171 52.9526 25.9644C51.6895 25.3509 51.2095 24.7494 50.2756 24.189C50.1123 24.7937 49.9451 24.9773 49.676 25.5503L44.8653 36.0835ZM51.0284 53.6573C52.1726 53.9758 54.5969 55.3668 55.8373 55.9873C57.0333 56.585 59.8274 58.1679 60.9506 58.392C61.58 54.8958 62.5139 54.3911 63.9581 52.3049C62.8216 51.9934 60.377 50.5916 59.1436 49.9749C57.9463 49.3765 55.1509 47.793 54.0245 47.5702C53.7516 49.0144 53.4813 49.8805 52.8741 51.0658C52.2859 52.2144 51.6078 52.7867 51.0284 53.6573ZM84.3368 96.9442C86.1584 97.9547 87.9186 99.1222 89.73 100.1C90.6538 100.599 91.513 101.147 92.4228 101.691C93.2561 102.19 94.2982 102.738 95.141 103.318C95.5183 102.746 95.7735 101.409 96.6074 99.9852C97.2823 98.8323 98.0978 98.2827 98.7284 97.395C96.9087 96.3801 95.1378 95.3018 93.3498 94.2261C92.4735 93.698 91.5491 93.1902 90.6443 92.6482C89.8826 92.1917 88.6562 91.5598 87.9261 90.9837L87.186 92.8211C86.1343 95.4316 85.3821 95.4879 84.3368 96.9442Z" fill="#F5F5F5"/>
<path fill-rule="evenodd" clip-rule="evenodd" d="M9.01803 111.599C9.01803 114.126 10.3654 115.256 11.8571 115.431H12.7118C14.2928 115.251 15.782 114.103 15.782 112.5C15.782 106.837 9.01803 108.183 9.01803 111.599ZM51.8541 97.6204C51.8541 103.284 58.6175 101.939 58.6175 98.5227C58.6175 92.8591 51.8541 94.2046 51.8541 97.6204ZM103.708 77.3297C103.708 82.9933 110.472 81.6478 110.472 78.232C110.472 72.5684 103.708 73.9138 103.708 77.3297ZM36.0727 75.0757C36.0727 80.7386 42.8361 79.3932 42.8361 75.9773C42.8361 70.3137 36.0727 71.6592 36.0727 75.0757ZM9.01803 63.803C9.01803 69.4666 15.782 68.1211 15.782 64.7046C15.782 59.041 9.01803 60.3865 9.01803 63.803ZM94.6902 43.5123C94.6902 49.1759 101.454 47.8304 101.454 44.4139C101.454 38.7503 94.6902 40.0958 94.6902 43.5123ZM81.1628 9.69423C81.1628 15.3578 87.9262 14.0123 87.9262 10.5965C87.9262 4.93291 81.1628 6.27836 81.1628 9.69423ZM35.1825 40.8068C34.971 41.8952 34.3297 42.7734 34.0568 43.9764C33.7813 45.1882 33.8231 46.4957 33.8535 47.7956C34.2879 48.9112 34.3645 50.7454 36.0157 52.5873C38.6243 55.4966 42.0978 57.0992 46.2494 56.169C48.9891 55.5555 49.866 54.2962 51.0285 53.6573C51.6078 52.7867 52.2859 52.2144 52.8741 51.0658C53.4813 49.8806 53.7517 49.0144 54.0245 47.5702C54.3354 45.4257 53.979 43.9992 53.4655 42.5771C53.1863 41.804 52.9127 41.2576 52.4936 40.6181C51.9776 39.8324 51.5856 39.6728 51.1779 38.9213C50.1788 38.304 49.7432 37.724 48.3635 37.0737C47.1802 36.5159 46.3102 36.2747 44.8653 36.0835C42.1105 36.0303 40.7188 36.3576 38.927 37.3492C38.0222 37.85 37.6037 38.2539 36.9167 38.9453C36.4343 39.431 35.539 40.5358 35.1825 40.8068ZM11.2727 18.7072C14.1288 19.7538 14.0852 20.3357 18.036 20.2692C19.7038 20.1976 21.7362 19.2397 22.7777 18.4938C24.0206 17.6036 25.0147 16.3848 25.8631 15.1052C26.6457 12.325 27.358 12.0546 26.9382 8.34181C26.3715 6.49807 26.1892 5.42297 25.0647 4.01927C23.0228 1.47208 20.3559 0.208308 17.6923 0H16.1062C11.21 0.377993 6.75324 4.24024 6.75324 10.145C6.75324 14.5778 8.89646 16.6805 11.2727 18.7072ZM18.9218 44.8647C19.1175 43.8276 19.7335 42.9697 20.0083 41.8743C20.3692 40.4364 20.2882 39.3848 20.2565 37.8759C20.0419 37.3289 19.8589 36.4007 19.648 35.8138C18.8357 33.5578 17.4846 32.3738 15.782 30.8853C13.0556 29.7538 12.7385 29.253 9.01803 29.3233C4.6328 29.5677 0.593266 33.5553 0 38.3331V40.7258C0.179183 42.1668 0.692023 43.6332 1.61516 45.0534C4.81893 49.9793 12.3326 51.5894 17.3048 46.6128C17.7904 46.1266 18.5546 45.1477 18.9218 44.8647ZM48.5307 11.9489C47.7468 14.717 47.0377 15.014 47.4606 18.7123C47.8633 20.0172 47.8703 21.1284 49.2379 22.905C49.7204 23.5318 49.8938 23.5109 50.2756 24.189C51.2095 24.7494 51.6895 25.3509 52.9526 25.9644C54.0898 26.5171 55.2054 26.8692 56.5888 27.0351C59.3899 27.1275 60.4156 26.8755 62.229 25.9315C69.3361 22.2307 69.3665 12.1414 62.8121 8.20568C61.2318 7.25659 59.7305 6.7374 57.26 6.75259C52.8007 6.77982 50.3478 9.28331 48.5307 11.9489ZM63.9581 52.3049C62.5139 54.3912 61.58 54.8958 60.9506 58.3921C60.4935 61.7687 61.6693 64.6223 63.1794 66.2305C64.0651 67.1739 64.7901 67.9521 65.9817 68.6137C66.8896 69.1177 68.6992 69.8256 69.8901 69.8617C73.7726 69.9364 73.8278 69.3798 76.6535 68.2946C78.7765 66.5661 80.1403 65.0915 80.9482 62.0099C82.8704 54.671 75.2859 47.1789 67.3436 50.2092C65.4106 50.9462 64.8306 51.8186 63.9581 52.3049ZM98.7285 97.395C98.0978 98.2827 97.2823 98.8323 96.6074 99.9853C95.7735 101.409 95.5183 102.746 95.141 103.318C95.141 107.032 95.1182 108.152 96.5833 110.607C100.549 117.253 110.266 116.803 113.989 110.608C114.816 109.233 115.277 107.803 115.432 106.392V104.227C114.893 99.3274 110.769 95.1612 105.517 95.1296C101.982 95.1087 100.849 96.0502 98.7285 97.395ZM72.1448 80.4797L71.8985 80.688C71.7561 80.8108 71.7117 80.8418 71.5332 81.002C69.7996 82.5615 68.4092 84.1469 67.8698 86.582C67.11 90.015 68.0053 93.0389 69.528 95.0523C71.0007 96.9999 73.1724 98.5898 76.0621 99.114C79.8573 99.8023 82.3133 98.2339 84.3368 96.9442C85.3822 95.488 86.1344 95.4316 87.186 92.8211L87.9262 90.9837C87.9262 89.0171 88.0478 87.8774 87.5609 86.2629C87.136 84.8554 86.5788 83.6321 85.7285 82.6837C84.1127 80.8817 82.0024 79.1101 78.9082 78.9196C75.0098 78.8467 74.956 79.4248 72.1448 80.4797Z" fill="#D9D9D9"/>
</svg>
