<svg width="41" height="38" viewBox="0 0 41 38" fill="none" xmlns="http://www.w3.org/2000/svg">
<path fill-rule="evenodd" clip-rule="evenodd" d="M5.44841 13.1845C5.69886 12.5688 5.90062 11.6941 6.18585 11.1693C7.91816 11.7991 9.71307 12.3659 11.4662 12.9886C13.3933 13.6743 14.6178 12.1909 17.0319 11.8061C17.0388 12.6317 16.7884 14.0942 17.8667 13.8493C18.5277 13.4504 18.1937 12.2679 18.2911 11.3583L18.9659 11.1204C19.2025 11.4212 19.7034 12.9606 19.7103 13.4154C19.4669 13.5834 19.2651 13.7443 19.0285 13.9612C15.0213 17.6067 11.1184 17.6627 6.80504 14.486C5.57365 13.5834 5.60147 13.3175 5.44841 13.1845ZM33.8123 11.6731C33.6036 12.016 33.0401 13.3035 33.0053 13.6953C32.7896 15.7735 31.0642 18.2645 29.1232 18.3764C26.9318 18.4954 25.2273 16.0324 25.0116 13.9052C24.942 13.2055 24.5733 12.4638 24.3855 11.7361C24.7542 11.8481 25.0742 12.051 25.4569 12.2189C25.8465 12.3868 26.1734 12.5128 26.5769 12.6387C30.3477 13.8423 32.9635 11.8481 33.8123 11.6731ZM22.8689 10.7145C23.1054 11.7851 23.4045 12.6038 23.6689 13.6183C23.9959 14.8848 23.9055 15.4026 24.5455 16.5432C25.3316 17.9566 26.7996 19.7059 29.1232 19.6149C31.1686 19.5449 32.7061 17.6977 33.4366 16.3892C34.2436 14.9548 34.0975 14.1081 34.348 13.4924C34.7724 12.4708 35.1132 11.911 35.315 10.6236C35.6559 10.1897 36.9777 9.16815 37.0751 8.81129C37.1864 8.37047 36.4073 6.69815 36.3099 6.0684C37.8543 5.0818 41.465 5.0888 40.9502 3.76634C40.7693 3.30453 38.5152 2.78674 37.7987 2.58382L28.991 0.001864C28.3371 -0.082102 20.0373 2.69577 18.1172 3.26254C17.7276 3.38149 17.3032 3.41648 17.1293 3.71036C16.8788 4.13019 17.1223 4.48005 17.4215 4.63399L21.7348 6.0754L21.4287 6.98503C20.4756 6.8171 19.0773 6.3203 18.0963 6.01942C16.9484 5.66957 15.8353 5.37569 14.6874 5.01883C12.4472 4.31911 12.7185 4.23515 11.1601 4.71096L1.05852 7.84568C0.557611 8.00662 -0.242458 8.14656 0.0706092 8.88126C0.258449 9.32209 1.0933 9.44803 1.60117 9.61597C2.67951 9.96582 3.86917 10.4696 4.9336 10.7145C4.85707 11.4422 3.98743 13.1145 4.14048 13.6533C4.23788 13.9962 5.7893 15.2767 6.15802 15.5706C6.30412 16.6411 6.67286 17.6697 6.97897 18.6423C7.37552 19.8878 7.22246 20.4686 7.89034 21.749C8.65561 23.2115 10.2835 25.0447 12.6142 25.0167C14.7778 24.9887 16.4684 22.9875 17.2197 21.6231C18.1381 19.9508 17.8876 19.293 18.1868 18.5793C18.639 17.5158 19.0285 16.851 19.2025 15.5216C19.7312 14.8289 20.4478 14.57 21.0531 13.6953C21.1365 12.9676 20.4061 11.5122 20.2321 10.7145C21.9923 10.0218 22.1871 9.91684 22.8689 10.7145ZM17.658 16.5781C17.4563 17.4318 16.8788 17.9846 16.8093 18.8452C16.7327 19.8318 16.4892 20.4406 16.0649 21.1893C15.4944 22.1689 14.1795 23.7362 12.6072 23.7642C10.2975 23.8062 8.55822 21.2033 8.32864 18.9502C8.24515 18.1315 7.77207 17.4598 7.69554 16.6131C9.14956 17.3688 10.5618 18.0336 12.6142 18.0336C13.5812 18.0336 14.5065 17.8796 15.3622 17.5997C16.2179 17.3128 16.9693 16.8091 17.658 16.5781ZM23.335 36.66L1.76119 36.709C1.80293 32.3078 1.55248 28.4943 6.02586 27.0739C7.18768 26.703 7.38247 26.773 8.25906 27.2558C11.1741 28.8512 13.8873 29.0401 16.8371 27.3258C17.7137 26.822 17.7693 26.6681 19.0216 27.0459C19.6964 27.2488 20.42 27.6197 20.8861 27.9555C23.8915 30.1316 23.3419 33.1614 23.335 36.66ZM39.1831 30.6494H24.4064C24.0655 30.3975 23.7246 29.334 23.4811 28.9561C23.0776 28.3474 22.7854 28.0255 22.3053 27.5567C21.5192 26.801 20.3991 26.0383 18.9799 25.7654C19.2512 23.6593 21.5053 21.5531 23.7872 21.3922C24.4481 21.3432 24.8864 21.791 25.4221 22.0499C25.9786 22.3228 26.5213 22.5467 27.1266 22.7077C31.2938 23.8552 33.0052 21.2103 34.4454 21.4202C36.7968 21.763 38.7309 23.6733 39.1066 26.0313C39.2875 27.1718 39.1761 29.383 39.1831 30.6494ZM17.7485 25.5765C17.0388 25.6325 16.8162 25.8914 16.3292 26.1922C15.8422 26.4861 15.4735 26.6751 14.9448 26.864C13.8038 27.2768 12.5098 27.4237 11.2436 27.1369C10.1444 26.892 9.22609 26.4162 8.39125 25.8844C6.83983 24.8978 2.45689 26.4651 1.02374 30.2926C0.460221 31.79 0.564568 34.19 0.53674 35.9673C0.522826 36.9259 0.355859 37.5346 0.842852 37.8355C1.21158 38.0594 23.9402 38.0524 24.2811 37.8285C24.7959 37.4997 24.5942 36.1422 24.5872 35.0367C24.5803 34.0221 24.6151 32.9235 24.5455 31.9159C29.4572 31.9159 34.3688 31.8879 39.2735 31.9159C40.7345 31.9229 40.4423 31.5311 40.4284 29.369C40.4284 28.3474 40.5119 26.6541 40.3241 25.7374C39.8858 23.5893 38.7031 22.1619 37.3743 21.2662C36.7134 20.8254 35.7185 20.3706 34.7376 20.2237C33.0748 19.9648 33.1931 20.4126 32.0452 20.9724C29.9442 21.987 28.2397 21.98 26.1456 21.0143C25.0881 20.5245 24.9212 19.9998 23.4741 20.1817C20.7261 20.5385 18.1868 22.7986 17.7485 25.5765ZM2.79082 8.64336C3.18041 8.41245 12.1689 5.62059 12.5794 5.68356L22.4236 8.60837C21.8253 8.90925 20.3713 9.34308 19.6686 9.55299C17.9641 10.0778 18.0267 10.3787 17.0319 9.87486C16.0927 9.39206 12.5655 7.27192 12.0785 7.88767C11.7724 8.95823 12.8785 9.15415 13.7273 9.58798C14.4995 9.97982 15.2231 10.3227 15.9535 10.7495C15.4109 11.0224 13.282 11.7571 12.6629 11.897C12.0019 12.044 2.90908 8.73432 2.79082 8.64336ZM30.0972 11.6941C27.6622 12.058 24.7751 10.8545 23.6133 9.59498C23.815 9.51801 25.93 9.0422 25.0047 8.14656C24.5872 7.74772 23.2028 7.68475 22.6462 7.29991L22.9662 6.53022L27.9892 8.23752C29.7076 8.86727 31.4677 7.26492 33.1861 7.11798C33.1931 7.8037 32.9913 9.49002 34.0558 9.07019C34.7236 8.81129 34.2923 7.44685 34.4941 6.62818L35.0993 6.47424L35.7324 8.44044C34.661 9.81888 31.9826 11.4072 30.0972 11.6941ZM19.8008 4.08821C20.1139 3.87829 28.6223 1.24736 28.8867 1.26835L38.1604 3.99724C38.0491 4.1022 38.2161 3.99724 37.9656 4.13719L36.8942 4.50804C36.4838 4.64798 36.0803 4.77393 35.6628 4.91387C35.2524 5.06081 34.8489 5.20076 34.4454 5.3477C33.8123 5.57161 33.7218 5.43866 33.1931 5.16577C32.4417 4.76693 31.7321 4.42407 31.0086 4.06022C30.4729 3.78733 29.2693 2.96866 28.6849 3.24855C27.6692 4.03923 29.3876 4.62699 29.8676 4.89988C30.4103 5.20076 31.6904 5.75353 32.0661 6.0684C31.8643 6.21534 29.3458 7.08299 28.9632 7.14597C28.5249 7.22294 20.4687 4.3541 19.8008 4.08821Z" fill="#1A3C55"/>
</svg>
