<svg width="41" height="37" viewBox="0 0 41 37" fill="none" xmlns="http://www.w3.org/2000/svg">
<path fill-rule="evenodd" clip-rule="evenodd" d="M11.0115 32.5927L30.0305 32.5588C30.093 33.1142 30.1556 33.9541 29.9818 34.4282L11.067 34.4621C10.8933 33.9541 10.9559 33.1142 11.0115 32.5927ZM24.0128 18.0165C23.2345 17.7117 21.2263 18.7006 22.0115 19.466C22.4215 19.8656 23.0816 19.3983 23.4708 19.1951C24.0823 18.8835 24.3116 18.748 24.0128 18.0165ZM13.2351 7.59918C12.8598 7.71433 12.4012 8.32392 13.3741 8.82515C14.2774 9.29251 17.0361 11.0874 17.5781 10.8639C18.9332 10.3017 16.4733 9.15704 16.0424 8.91997C15.5213 8.62872 13.7076 7.45694 13.2351 7.59918ZM22.9774 10.0037C22.7342 11.9476 25.2497 10.1256 26.8132 9.27896C27.2092 9.06899 28.0778 8.69646 28.1821 8.4052C28.46 7.64659 27.7096 7.43662 27.1537 7.71433L22.9774 10.0037ZM27.2926 13.1126L22.2686 15.7339C21.4069 16.2351 21.9628 17.1495 22.7828 16.838L27.779 14.2167C28.6685 13.6952 28.1126 12.7198 27.2926 13.1126ZM12.8459 11.1823C13.93 11.9002 16.376 13.0991 17.7518 13.8442C19.2667 14.657 19.2736 13.6071 19.1347 13.3023C18.9748 12.984 16.4385 11.7783 15.8687 11.4871C14.6249 10.8436 12.6514 9.40088 12.8459 11.1823ZM27.4455 10.3491C26.7784 10.5862 24.7702 11.6835 24.0475 12.0763C22.6577 12.8485 21.7335 13.0043 21.8586 13.7155C22.0601 14.8195 23.8738 13.5326 24.4227 13.2413L27.7582 11.5006C28.6685 11.0129 28.1126 10.1053 27.4455 10.3491ZM13.117 13.0856C12.7765 13.2684 12.7139 13.6139 12.9224 13.939C13.0544 14.1354 13.4783 14.3048 13.7493 14.447C14.3469 14.7653 14.8403 15.0159 15.4031 15.3275C15.9521 15.6323 18.3842 17.1089 18.8915 16.838C19.1208 16.716 19.3084 16.3638 19.1069 16.0184C18.9262 15.6933 15.5282 14.0338 14.9862 13.7426C14.5693 13.5258 13.5756 12.8349 13.117 13.0856ZM13.1656 15.8152C12.8668 15.9439 12.6444 16.208 12.9085 16.6551C13.0892 16.9599 16.4871 18.599 17.05 18.9106C17.4461 19.1341 18.4328 19.7979 18.9053 19.5541C19.1625 19.4186 19.3084 19.0799 19.093 18.7277C18.9192 18.4432 16.9944 17.5221 16.6331 17.3256C16.0633 17.0141 13.7007 15.5781 13.1656 15.8152ZM34.6376 30.8994C34.9155 30.6081 35.4853 30.1475 35.9162 29.9917C36.3261 30.6826 38.2718 33.121 38.9876 34.0557C39.2447 34.3876 39.877 35.0582 39.2724 35.5933C38.6054 36.1825 38.0703 35.4375 37.7715 35.0446C37.431 34.5908 37.1114 34.137 36.7292 33.6696L34.6376 30.8994ZM28.599 17.6779C32.0595 17.0479 34.7418 19.4118 35.2699 22.1076C35.9162 25.4468 33.5049 28.0546 30.7601 28.6032C27.3343 29.2805 24.5895 26.8625 24.0614 24.248C23.3804 20.8816 25.8264 18.1791 28.599 17.6779ZM22.762 22.1076L22.7133 23.0897C22.3867 23.3471 21.8169 23.4894 21.4 23.6655C20.6495 23.9838 20.7051 24.1735 19.9129 23.8077C15.5699 21.7825 10.6154 21.2271 10.3791 21.1187C9.60083 20.7665 9.91353 18.7006 9.91353 17.7253V9.73954C9.91353 8.68291 9.48965 6.68478 10.796 6.62382V17.8269C10.7821 22.6088 13.9786 19.1273 19.225 22.6833C20.6843 23.6722 20.2326 23.8145 21.5946 22.8594C21.9629 22.6088 22.4562 22.3582 22.762 22.1076ZM22.8176 24.4308C22.9079 24.6679 23.3596 26.0429 23.3665 26.1648C19.1625 25.9955 12.9154 26.158 8.33614 26.158C7.9609 26.158 3.87497 26.3274 3.61787 26.0023C3.4372 25.6568 3.4372 3.80613 3.61787 3.45392C3.736 3.36586 3.64566 3.4065 3.85413 3.34554C4.00005 3.3049 3.97921 3.31845 4.13208 3.3049L37.3476 3.42005C37.6742 2.88496 37.5769 25.8194 37.431 26.0023L37.1947 26.1174C36.889 26.2122 36.1524 26.1648 35.9579 26.0835C36.6041 23.9703 37.028 22.5005 35.9856 20.3194C35.2421 18.7548 34.033 17.6169 32.3792 16.8989C32.2333 14.7721 32.3583 12.2118 32.3583 10.0376C32.3583 7.7211 32.7961 5.49268 30.0444 5.39108C29.6066 4.86276 29.7247 4.78826 29.1132 4.46314C28.6546 4.2193 28.1682 4.09738 27.5914 4.24639C26.6394 4.497 21.7266 7.97171 20.5244 8.48648L15.7853 5.57396C14.3052 4.61215 13.2629 3.70453 11.8731 4.50378C11.3311 4.81535 11.4075 4.88986 11.0045 5.39108C9.38542 5.44527 8.67663 6.26484 8.67663 7.84302C8.66969 10.2679 8.44037 20.4075 8.93374 21.3354C9.55219 22.5005 10.7126 22.3785 12.2831 22.6562C14.4303 23.0288 17.4461 24.0312 19.4057 24.8982C21.2541 25.7178 20.5453 25.0743 22.8176 24.4308ZM24.1378 27.3434C24.3394 27.4653 24.8049 28.0072 24.9926 28.2104C23.1094 28.1697 2.38097 28.2849 1.94319 28.1494C0.949503 27.8378 1.29 26.0429 1.29 25.0066V2.54629C1.29 0.961339 2.31843 1.25936 3.72905 1.25936H34.45C40.1758 1.25936 39.7589 0.859739 39.7589 3.54874V26.009C39.7589 28.5355 40.1202 28.2578 34.3388 28.2104C34.5055 27.953 34.8321 27.5398 35.1865 27.3501C38.7999 27.3434 38.7443 27.4382 38.7443 23.9093C38.7443 21.5319 38.8694 3.93482 38.6887 3.2033C38.4316 2.16699 37.4935 2.09925 36.2914 2.10603H4.34749C3.13144 2.09925 2.38791 2.42437 2.30453 3.54874C2.22809 4.61215 2.30453 5.95327 2.30453 7.04377V24.3089C2.30453 25.5213 2.11691 26.6051 2.99941 27.1198C3.71515 27.5466 8.66274 27.3501 9.87184 27.3501C14.604 27.3501 19.4196 27.4382 24.1378 27.3434ZM27.2579 29.5108C30.2181 30.1949 30.6976 30.0391 33.3034 28.9419C33.5466 29.2128 33.7759 29.4634 33.9218 29.8021C33.0602 30.8587 32.4348 30.1272 34.2554 32.4843C34.7696 33.1481 35.1448 33.6425 35.659 34.3131C36.1177 34.9227 36.5415 35.512 37.0141 36.0877C38.4594 37.8555 40.5719 36.765 40.7526 35.2614C40.8707 34.2928 40.2453 33.6222 39.7936 33.0736L37.0419 29.3957C40.3773 29.5447 40.9958 29.057 40.9958 26.1106V4.34799C40.9958 1.53707 41.239 0.0537161 38.0356 0.0604894H8.23885C6.7518 0.0604894 2.03352 -0.20367 1.08848 0.372062C0.21987 0.900379 0.0392 1.6048 0.0461488 2.95269C0.0530977 7.08441 -0.14147 27.3163 0.21987 28.1291C0.609006 28.9961 1.33864 29.4092 2.60333 29.4092C5.28559 29.4092 12.0121 29.2467 13.8257 29.4295C13.7146 29.8698 13.242 31.0348 13.0197 31.3532C11.4979 31.3599 9.87184 31.1026 9.74676 32.6875C9.62168 34.2047 9.57998 35.6474 11.3033 35.6949C14.3191 35.7761 17.4878 35.6949 20.5244 35.6949C23.5333 35.6949 26.7576 35.7965 29.7456 35.6949C31.4411 35.6339 31.4064 34.1912 31.2882 32.6875C31.1631 31.0687 29.558 31.3667 28.0292 31.3464C27.8346 31.0687 27.3413 29.9172 27.2579 29.5108ZM31.1214 16.5061L30.2598 16.3638L30.2459 6.62382C31.2465 6.69156 31.1214 7.57209 31.1214 8.43907V16.5061ZM29.009 16.3774C27.3552 16.7228 26.5213 16.9057 25.3956 17.7795C24.9439 18.1317 24.4783 18.5855 24.1239 19.0325C23.7279 19.5405 23.5194 20.1027 23.1858 20.5768C22.3798 20.8342 21.803 21.3964 21.1359 21.6267L21.1498 9.54312L26.5282 6.21065C28.87 4.71375 29.0159 5.37753 29.0159 7.94462C29.0159 10.6268 29.0924 13.8103 29.009 16.3774ZM12.026 6.74574C12.026 5.45204 12.7348 5.1066 13.7632 5.75007L17.8908 8.31715C18.4676 8.69646 19.3153 9.25864 19.906 9.53635V21.6267C19.4335 21.4709 18.6621 20.9223 18.0506 20.631C13.8257 18.6464 12.026 20.543 12.026 18.2197V6.74574ZM15.2016 29.416L25.8403 29.4025L26.6186 31.3193L14.4511 31.3532L15.2016 29.416Z" fill="#1A3C55"/>
</svg>
