<svg width="40" height="41" viewBox="0 0 40 41" fill="none" xmlns="http://www.w3.org/2000/svg">
<path fill-rule="evenodd" clip-rule="evenodd" d="M10.1563 39.1397C9.94961 37.901 11.9954 38.2489 12.9719 38.2489L20.7415 38.242C21.7109 38.235 23.7852 37.8871 23.9563 38.8683C24.1773 40.1 22.0816 39.7381 21.1621 39.7381H13.3925C12.4658 39.7381 10.3131 40.0861 10.1563 39.1397ZM32.011 33.8091C32.2534 33.482 33.3368 32.5495 33.8073 32.4312C34.0425 32.8627 36.1738 35.2983 36.6443 35.8202C37.6422 36.9128 39.581 38.7291 38.2909 39.5503C37.0648 40.3297 36.0812 38.4925 34.8623 37.1494C33.8715 36.0568 32.9448 34.8808 32.011 33.8091ZM24.7261 17.4554C28.896 17.017 32.2819 20.0929 32.6597 23.7116C33.0874 27.9009 30.0009 31.0742 26.3014 31.5265C22.0531 32.0415 18.6173 28.8264 18.2609 25.2704C17.8404 21.0811 20.9482 17.8521 24.7261 17.4554ZM23.607 16.3629L22.5592 16.5925C20.043 15.326 20.2069 14.7693 18.3893 15.0894C17.6408 15.2216 16.4861 15.4861 15.7875 15.5348C15.3242 15.5696 13.8558 15.159 13.5136 14.9432C13.7845 14.6579 14.9393 13.969 15.3741 13.6976C16.3221 13.0852 16.151 13.0017 16.5288 11.7421C17.541 8.42267 17.1204 9.93974 15.6734 7.74765L17.4911 4.58827C19.6937 4.52564 22.2669 5.59732 23.6712 6.54375C24.776 7.2814 27.4419 9.78664 27.4205 10.7818C24.2699 11.0045 24.4552 10.7887 24.4624 12.5842C24.4695 14.7693 24.1773 14.6371 23.607 16.3629ZM21.1264 17.2815C20.7558 17.6503 20.3281 17.8312 19.8933 18.214C19.4941 18.5689 19.2161 18.8472 18.8597 19.2509C18.1398 20.0581 17.8475 20.754 17.3557 21.9022C15.873 21.2829 15.4739 20.3921 14.6684 23.6977C14.0768 23.7046 12.0239 23.4611 11.6461 23.5933C11.2968 23.7116 10.5626 25.1869 10.4771 25.4374C9.21541 25.0686 6.54951 21.9162 6.15747 20.2599C9.137 20.8375 9.02296 22.0762 9.97812 19.7102C10.1848 19.1952 10.862 18.0261 10.5056 17.5598C10.3559 17.358 9.00157 16.516 8.75921 16.3977C9.11562 14.4283 9.89971 14.3448 8.81624 13.1548L6.64931 10.9766C6.6992 9.65442 9.1869 7.42058 10.1991 6.69684C11.475 5.78522 13.813 4.69961 15.9016 4.63002C15.0105 7.17701 13.5208 7.23269 14.7753 8.66624C15.9871 10.058 15.9301 9.45956 15.1674 11.8535C14.9036 12.6885 14.982 12.438 13.9413 13.12C12.9363 13.7881 10.9618 14.7066 11.3111 15.4652C11.7316 15.9175 12.9078 16.1054 13.6491 16.3142C14.6684 16.5995 15.1175 16.9057 16.2651 16.7039C16.928 16.5856 18.5033 16.2376 19.0664 16.2376C19.487 16.2376 20.8484 17.0309 21.1264 17.2815ZM17.0634 23.1409C16.9494 23.9899 16.8781 24.6789 17.0135 25.5557C17.1276 26.2934 17.3985 26.9545 17.4769 27.546C15.8445 27.4207 12.9648 27.2676 11.5392 26.1194C11.6817 25.6879 12.0096 25.2147 12.252 24.8041C12.8935 24.8111 14.8181 25.0825 15.26 24.9712C15.9087 24.8041 15.9514 23.4402 16.3435 22.8139L17.0634 23.1409ZM18.0827 28.7638C18.318 28.9795 18.5532 29.2927 18.6316 29.5641C11.8956 30.0512 5.86521 26.5717 3.78381 20.2182C2.15148 15.2147 3.63412 10.3921 6.89878 6.75948C7.32647 6.2793 9.56469 4.31687 10.4486 4.16377C10.7123 4.42821 10.7408 4.45605 10.8834 4.79008C10.5911 5.00581 10.3345 5.12411 10.0351 5.30505C9.73577 5.49294 9.47202 5.68779 9.17264 5.89656C7.61159 7.01 6.25013 8.69408 5.33061 10.4547C4.01904 12.9599 3.58423 16.8361 4.58929 19.745C6.0648 24.0317 8.96593 26.7596 13.0076 28.1375C15.0248 28.8264 16.0085 28.5968 18.0827 28.7638ZM19.7222 30.7123C19.879 30.8028 19.9147 30.8098 20.0358 30.9072C20.2925 31.116 20.1356 30.9698 20.2639 31.1438C10.8406 32.9462 3.3989 26.7248 1.70954 19.5779C0.640328 15.0407 1.82359 10.4825 3.99052 7.3997C5.15953 5.75042 6.25726 4.6857 7.82544 3.55834C8.52399 3.05729 12.0096 0.976552 13.0788 1.28971C13.0574 1.98561 12.2591 1.81859 10.6767 2.54928C-1.89014 8.36004 -0.863698 26.3142 12.9577 30.3365C16.4932 31.3734 19.0165 30.6149 19.7222 30.7123ZM21.7466 32.0624C22.5663 32.118 23.6213 33.0297 26.4083 32.7583C28.3614 32.5704 29.0315 31.951 30.4072 31.3038C30.7494 31.5404 31.3624 32.2781 31.4764 32.6052C29.4021 33.6977 30.7921 34.2823 33.3368 37.3095C33.9926 38.0958 34.6555 38.9031 35.347 39.6477C36.0027 40.3575 36.7726 41.3666 38.3693 40.8655C39.7664 40.4271 40.8213 38.6247 39.1248 36.7806C38.3764 35.9664 34.2706 31.0185 33.9784 30.9281C33.1444 30.8306 33.0874 31.3874 32.51 31.6518C32.1892 31.4291 31.6261 30.8098 31.4622 30.427C32.9092 28.8752 34.3847 26.5091 33.8857 23.3219C33.5792 21.3525 32.731 19.7937 31.3624 18.5202L30.0223 17.4137C30.5498 10.2111 25.8238 4.71353 19.5084 3.54442C17.6907 3.20343 15.5808 3.27302 13.7774 3.73231C13.1715 3.88541 12.701 4.08722 12.1308 4.21248L11.6104 3.57922C12.5585 2.93899 13.9413 3.08513 14.2906 1.97169C14.7183 0.64252 13.5635 -0.269108 12.2377 0.0718826C9.97812 0.656438 8.01077 1.85338 6.49961 2.98074C1.25334 6.89865 -1.51948 14.4144 0.861297 21.2272C2.27266 25.2634 4.91718 28.4019 8.65942 30.5314C10.6838 31.6796 12.5799 32.1876 15.2529 32.6191C15.3384 34.2684 14.6328 35.8759 13.6277 36.5996C12.1878 37.6435 10.3131 36.2865 9.20116 37.9149C8.48122 38.9587 8.8804 40.956 11.1828 40.9838H22.7445C25.2536 40.9838 25.5601 39.0631 25.0184 38.0471C24.0133 36.1891 21.4187 37.4904 20.4635 36.8502C19.5868 36.2517 19.0237 34.0457 18.988 32.6121C19.9859 32.4242 20.7985 32.2711 21.7466 32.0624ZM28.8105 16.7943C28.2474 16.69 27.7199 16.4534 27.0998 16.335C26.387 16.2028 25.7811 16.2098 25.0611 16.182C25.2037 15.6044 25.5744 14.9989 25.7027 14.4631C25.8238 13.969 25.7312 12.7581 25.7597 12.1736L28.0763 11.9996C28.6608 13.6628 28.8818 14.8597 28.8105 16.7943ZM16.5573 32.6956L17.6693 32.7026C18.1184 35.2635 17.819 34.5954 18.874 37.0033L15.1388 37.0102C16.2366 35.2426 16.2366 35.1035 16.5573 32.6956ZM5.61573 18.7568C5.18804 15.9314 5.15954 14.7693 5.97926 12.1457C6.3428 12.2988 7.76841 13.8229 7.91097 14.0455C8.26737 14.6162 7.25519 16.008 7.42626 16.8918C7.88959 17.4276 8.71645 17.7129 9.22254 18.2279L8.5525 19.6893L5.61573 18.7568Z" fill="#1A3C55"/>
</svg>
