<svg width="41" height="33" viewBox="0 0 41 33" fill="none" xmlns="http://www.w3.org/2000/svg">
<path fill-rule="evenodd" clip-rule="evenodd" d="M1.27694 29.2615H13.8766C14.4875 31.8641 17.778 31.2151 20.4784 31.2151C23.283 31.2151 26.4971 31.824 27.0802 29.2615L39.6938 29.2682C39.6938 31.4159 38.9788 31.7571 36.8476 31.7571H4.31752C2.05444 31.7571 1.27694 31.5764 1.27694 29.2615ZM16.6256 8.39999C17.3476 7.61719 16.8339 7.49676 15.7648 6.44632C14.8971 5.59661 14.4389 6.37942 14.543 6.80762C14.6055 7.04179 15.4177 7.71755 15.7301 8.05208C16.0286 8.37992 16.0564 8.43345 16.6256 8.39999ZM19.7773 4.76028V5.84416C19.7773 7.07524 21.013 7.11539 21.013 5.84416V4.76028C21.013 3.56265 19.7773 3.58941 19.7773 4.76028ZM26.2264 6.83438C26.5596 6.23891 25.8515 5.58992 25.1573 6.21215C24.9768 6.37272 24.0188 7.29604 23.9494 7.42316C23.6162 8.07884 24.3659 8.6141 25.0185 8.05877C25.2337 7.87143 26.1153 7.02841 26.2264 6.83438ZM11.912 11.9594C12.0439 12.5014 12.988 12.3676 13.6267 12.3742C14.2445 12.3742 14.9943 12.3408 14.7999 11.6115C14.6402 11.016 13.7794 11.1632 13.113 11.1565C12.4604 11.1565 11.7107 11.1766 11.912 11.9594ZM26.2611 11.1298C26.1084 11.5513 26.1014 11.6717 26.2819 12.0799C26.872 12.2538 29.267 12.575 29.0587 11.4844C28.9129 10.735 26.8373 10.9759 26.2611 11.1298ZM19.333 20.0484H21.6169C21.6655 21.0922 21.7349 21.982 20.4784 21.9887C19.215 21.9887 19.2775 21.0989 19.333 20.0484ZM22.1098 18.8374L18.854 18.8508C18.6874 17.1648 18.9234 16.5626 17.7849 15.6393C14.7235 13.1504 16.5284 8.36654 20.4784 8.36654C22.9289 8.35985 24.9213 10.3604 24.7061 12.8493C24.595 14.1607 23.8522 15.0773 23.1719 15.6393C22.0265 16.5827 22.2972 17.1648 22.1098 18.8374ZM15.029 13.0433C15.2025 14.2945 15.8551 15.6125 16.7367 16.3552C17.8474 17.2852 17.5211 17.4324 17.5906 18.8642C17.6253 19.7741 17.9863 19.5667 18.0765 20.0618C18.3334 21.3732 17.7988 21.7679 18.8193 22.631C20.0064 23.6279 22.8456 23.4138 22.8665 20.9316C22.8734 19.9481 22.7207 20.2358 23.1788 19.5868C23.4635 19.1853 23.3732 18.5899 23.3732 18.068C23.3732 16.6295 23.9772 16.7098 24.5742 16.0006C27.1913 12.8894 25.8376 8.70776 22.4361 7.51014C18.4236 6.1051 14.4944 9.29654 15.029 13.0433ZM5.18527 3.24819L5.44212 3.21473H35.9243L35.7716 3.24819V23.8354L32.6477 23.8755L5.18527 23.8354V3.24819ZM3.93571 2.88689V24.1833C3.93571 25.1333 4.28281 25.0731 5.2408 25.0731C15.5357 25.0731 25.8307 25.0731 36.1256 25.0731C36.8892 25.0731 37.0211 24.8724 37.0211 24.1833V2.88689C37.0211 2.03049 36.7296 2.00372 35.9243 2.00372H4.83123C4.09538 2.00372 3.93571 2.19106 3.93571 2.88689ZM25.7404 29.2682C25.3656 30.1714 24.5603 30.0309 23.4426 30.0309H17.5142C16.3896 30.0309 15.6052 30.1647 15.2164 29.2615L25.7404 29.2682ZM31.7244 27.0335H33.3072V28.0638H32.1409L31.7244 28.0572V27.0335ZM10.4542 27.0335L30.5026 27.0536V28.0438L30.093 28.0638C25.5113 28.1709 19.5343 28.0505 14.9526 28.0572L10.4542 28.0371V27.0335ZM7.65661 27.0335H8.81592L9.22549 27.0402V28.0572L8.81592 28.0638H7.65661V27.0335ZM3.80381 1.26775C4.51884 1.10048 32.7241 1.2343 34.286 1.2343C38.2915 1.2343 38.2568 0.846239 38.2568 4.76028V23.1997C38.2568 24.4041 38.3748 25.5482 37.2016 25.8024C36.5352 25.9496 7.55248 25.8359 6.67085 25.8426C2.6098 25.8894 2.6931 26.1972 2.6931 22.3099V3.87711C2.6931 2.5925 2.54038 1.56214 3.80381 1.26775ZM6.41399 27.0335V28.0638L1.03397 28.0572C0.353656 28.0572 0.0620938 28.0973 0.020442 28.8132C-0.0559196 29.9506 0.0690358 30.894 0.610509 31.6969C0.99926 32.2656 1.81841 32.8477 2.90136 32.928C5.04643 33.0818 7.83016 32.9413 10.0446 32.9413C17.2365 32.9413 24.4353 32.9413 31.6272 32.9413C33.085 32.9413 37.5487 33.1086 38.6594 32.8276C40.9711 32.2455 41.3182 29.5157 40.7767 28.1843C39.8535 27.91 35.8965 28.0638 34.5429 28.0638V27.0335C40.2422 27.0335 39.5133 26.3711 39.5133 19.2522C39.5133 15.0773 39.5133 10.909 39.5133 6.73402C39.5133 5.05466 39.8396 2.22451 38.9579 1.04696C37.9236 -0.338008 35.6258 0.0500505 33.4668 0.0500505C24.8102 0.0500505 16.1466 0.0500505 7.49 0.0500505C5.40741 0.0500505 3.06102 -0.317936 2.03361 0.980052C1.06868 2.20444 1.4366 4.98107 1.4366 6.73402C1.4366 8.48697 1.27 24.3639 1.58933 25.3274C2.24187 27.2476 4.13703 27.0335 6.41399 27.0335Z" fill="#1A3C55"/>
</svg>
