<svg width="119" height="119" viewBox="0 0 119 119" fill="none" xmlns="http://www.w3.org/2000/svg">
<path fill-rule="evenodd" clip-rule="evenodd" d="M91.9445 48.443C97.6849 60.9124 97.6912 58.0876 94.2331 63.6051C93.4723 64.8193 92.0953 67.3547 91.278 68.0719C90.9007 64.3726 91.8124 60.5726 90.5046 57.32C89.4421 54.6777 88.4613 51.79 87.3044 49.2231C86.1223 46.6123 74.5975 42.1328 73.3904 40.1574L73.3967 36.2631C77.5966 36.9111 82.0167 38.0938 86.2167 39.0061C88.3418 39.459 87.996 39.61 89.637 43.3282C90.3852 45.0143 91.1271 46.6689 91.9445 48.443ZM57.6467 111.048L61.4317 111.016L61.4631 107.078L57.521 107.179L57.6467 111.048ZM69.5425 111.048L73.3463 111.029L73.3841 107.065L69.4104 107.191L69.5425 111.048ZM10.0888 111.048L13.8927 111.029L13.9304 107.065L9.9568 107.191L10.0888 111.048ZM105.205 111.054L108.996 111.01L109.027 107.091L105.047 107.147L105.205 111.054ZM45.7509 111.054L49.5422 111.01L49.5737 107.091L45.6 107.147L45.7509 111.054ZM21.8777 111.06L25.8262 110.941L25.8199 107.091L21.8651 107.059L21.8777 111.06ZM81.3313 111.06L85.2798 110.941L85.2736 107.091L81.3188 107.059L81.3313 111.06ZM33.7294 111.01L37.6905 111.048L37.6653 107.04L33.7231 107.147L33.7294 111.01ZM93.1831 111.01L97.1441 111.048L97.119 107.04L93.1768 107.147L93.1831 111.01ZM115.013 11.922H118.936L118.955 7.93333H115.025L115.013 11.922ZM0.0541459 11.922H3.97748L3.99006 7.93333H0.0478524L0.0541459 11.922ZM69.4419 11.922H111.008L111.02 7.95221L69.4544 7.93333L69.4419 11.922ZM7.98254 11.9094L49.5485 11.922L49.5611 7.93333H7.99513L7.98254 11.9094ZM53.6794 72.5765C52.2521 64.4166 64.0975 62.9193 65.3362 70.2801C66.6942 78.3204 54.9306 79.78 53.6794 72.5765ZM57.2569 61.8372C52.5162 63.0137 48.1716 67.5812 49.9069 73.8599C53.4845 86.82 72.4849 81.1767 69.096 68.9212C67.8134 64.2908 63.2299 60.3462 57.2569 61.8372ZM46.9644 56.0177C50.7494 60.3839 51.0386 60.0379 53.541 58.8803C59.2625 56.2442 56.9237 58.2889 57.5964 51.5698L61.4065 51.6327C62.0856 58.3078 59.8662 56.3071 65.462 58.8803C67.1721 59.673 67.7505 60.214 69.2595 58.8488C70.146 58.0373 71.3092 56.8608 72.0825 55.98L74.8238 58.8111C73.9184 59.7611 72.9502 60.623 72.0386 61.6296C70.6616 63.1458 71.1771 63.7057 72.0008 65.4232C72.5667 66.6186 72.8056 68.5941 73.9499 69.1414C75.1697 69.7328 77.7475 69.3176 79.2879 69.4937L79.2565 73.2999C77.6658 73.5139 75.2703 73.0168 73.9248 73.6208C72.7365 74.1556 72.5289 76.2317 71.9945 77.3453C70.517 80.4406 70.9571 80.0883 74.8742 83.9826L72.07 86.7256C68.3605 83.171 68.6811 82.2839 65.462 83.9008C64.1793 84.5425 62.3182 84.6495 61.7524 85.8448C61.1802 87.0339 61.5637 89.6699 61.3877 91.1924L57.6027 91.1358C57.4455 89.6699 57.8227 87.0339 57.2506 85.8448C56.6784 84.6369 54.8551 84.5614 53.5347 83.9008C50.3596 82.3028 50.6551 83.1081 46.9078 86.757L44.154 83.9511C48.0459 80.1071 48.4671 80.4091 47.0084 77.3515C46.474 76.238 46.2665 74.1619 45.0782 73.6208C43.7327 73.0168 41.3372 73.5139 39.7024 73.2999L39.7716 69.4937C41.2303 69.3176 43.8836 69.7076 45.0593 69.1414C46.1973 68.5941 46.4362 66.6186 47.0084 65.4295C47.832 63.712 48.3351 63.1395 46.9707 61.6233C46.0716 60.623 45.0782 59.7548 44.1477 58.7796L46.9644 56.0177ZM51.7743 55.2313C46.7695 50.7268 48.1087 49.2546 42.7393 54.6148C40.8405 56.5022 38.9606 57.7038 39.4384 59.3207C39.6899 60.1448 42.689 62.8438 43.3554 63.6554C43.0662 64.5802 43.104 65.0206 42.2614 65.4295C35.1504 65.4295 35.7162 64.5802 35.7099 71.6831C35.7099 79.3836 36.4393 76.6343 42.7644 77.4019L43.2611 79.1194C42.45 80.3273 39.583 82.523 39.3818 83.6743C39.0737 85.4296 43.5818 88.9213 44.8141 90.255C47.8635 93.5579 48.4734 90.0537 51.7932 87.5686L53.4781 88.1474C54.2263 94.7596 51.6296 95.1748 59.5014 95.1748C67.3607 95.1748 64.7766 94.747 65.5185 88.1411L67.2287 87.6315C68.3353 88.4179 70.7056 91.3434 71.7745 91.5384C73.5098 91.853 77.0371 87.3296 78.3511 86.0839C81.6457 82.9697 77.9739 82.372 75.6853 79.1068L76.226 77.3956C82.5762 76.6721 83.293 79.3333 83.293 71.6831C83.2867 64.5802 83.8526 65.4295 76.7415 65.4295C75.9053 65.0206 75.9493 64.5928 75.6538 63.668C76.3517 62.8186 79.3068 60.214 79.5645 59.3207C79.9795 57.9114 79.0364 57.3138 78.3636 56.6846C70.5358 49.3615 73.428 49.7642 67.2287 55.2313C66.3422 54.9356 65.8958 54.9986 65.4431 54.1367C65.4431 47.3358 66.3421 47.5685 59.5014 47.5685C52.6608 47.5685 53.5662 47.342 53.5662 54.1367C53.1135 55.0111 52.686 54.9356 51.7743 55.2313ZM8.35977 103.391C11.3337 102.529 33.9935 103.127 38.992 103.127C61.5574 103.127 85.9337 102.825 108.26 103.121C116.905 103.24 116.723 113.067 110.605 114.804C107.657 115.64 84.9591 115.036 80.0109 115.036H18.4825C13.5091 115.036 7.93227 115.98 5.33557 112.797C2.3805 109.173 4.63135 104.473 8.35977 103.391ZM101.143 91.2113L109.021 91.1987L109.008 99.1698L101.143 99.1132V91.2113ZM9.85618 91.1987L16.6969 91.1924L17.86 91.2553L17.8537 99.1509L9.99448 99.1635L9.98197 97.8612L9.85618 91.1987ZM5.98312 100.019C0.079252 103.033 -1.3857 109.179 1.28016 113.885C4.43643 119.447 9.78077 118.981 17.2879 118.981H101.715C109.342 118.981 114.485 119.591 117.717 113.879C120.401 109.148 118.892 103.007 113.02 100.019C113.02 96.7728 113.246 92.6583 113.02 89.5189C112.888 87.6693 112.209 87.2981 110.341 87.2541C108.688 87.2163 106.946 87.2666 105.28 87.2666C95.9118 87.2666 96.8612 85.5114 97.2573 99.1635H21.8777C21.6262 85.7693 23.984 87.2666 13.4275 87.2666C8.2655 87.2666 6.10886 86.4613 5.97682 89.8083C5.84479 93.0861 5.98312 96.7036 5.98312 100.019ZM27.7187 68.0656C26.9202 67.3673 25.3735 64.5676 24.6567 63.4163C23.5879 61.6925 21.972 59.824 22.3807 58.6601C22.9591 57.0244 24.1348 55.0363 24.839 53.3628C25.5935 51.5887 26.3543 49.9781 27.1591 48.2417L30.7555 40.2455C31.3905 39.0816 31.5728 39.2703 33.0441 38.9683C37.2126 38.1064 41.4629 36.9048 45.6189 36.2631L45.5686 40.4594C42.9091 41.3401 40.0168 42.7431 37.3635 43.8881C32.1639 46.1341 32.4091 45.1904 31.1893 49.0029C30.2965 51.7963 29.2905 54.684 28.3411 57.471C27.266 60.6607 28.1022 64.5488 27.7187 68.0656ZM49.6177 31.7144L69.4293 31.727L69.4104 39.6667L68.1215 39.6729L50.8814 39.6792L49.58 39.6604L49.6177 31.7144ZM57.5649 23.8252L61.4757 23.9132L61.3626 27.7698L57.5649 27.7383V23.8252ZM58.376 10.431C60.5955 8.63167 62.6829 12.18 60.52 13.5389C59.6272 14.1051 58.4892 13.7842 57.9799 13.1111C57.1689 12.0227 57.5398 11.1041 58.376 10.431ZM0.0478524 3.94465H57.4204C57.7662 6.77573 57.4455 6.10885 56.1314 7.04626C55.5907 7.42374 55.1631 7.89558 54.7922 8.37372C54.0503 9.33 53.5159 10.582 53.5851 12.1863C53.8051 17.6597 57.5335 14.9167 57.5335 19.805C52.2332 19.805 53.5662 22.158 53.5662 27.7132C46.6437 28.2542 45.7509 26.0271 45.5937 32.1926C41.3057 32.8028 36.0495 34.2436 31.6986 35.2376C27.0208 36.3134 28.4292 35.9045 24.2606 45.0457C22.4184 49.0847 20.6768 52.8218 18.8409 56.8922C16.9798 61.0193 18.3945 60.5349 22.9151 68.1348C23.9903 69.9341 25.1031 71.6265 26.2537 73.4258C27.1402 74.8162 28.3349 78.2135 30.7052 77.0936C32.428 76.282 31.7426 71.7775 31.7426 69.6007C31.7426 56.7035 31.1013 62.3405 34.6851 51.0099C35.2887 49.0973 34.9429 49.1602 36.6154 48.4871C39.0297 47.5245 47.0273 43.6428 49.0958 43.6428H69.9449C71.5104 43.6428 79.2942 48.4367 81.105 49.4748C84.387 51.3433 83.4439 50.4374 84.9906 54.2121C85.6382 55.7913 87.1471 59.0502 87.2603 60.667C87.4678 63.6428 86.3801 75.892 88.1029 76.9929C90.4858 78.5091 91.8564 74.8413 92.6424 73.6082C93.8433 71.7208 94.7738 70.1417 95.9621 68.3047C97.1001 66.5431 98.1878 64.857 99.2818 63.0074C100.954 60.1826 101.791 60.5412 100.25 57.0998L92.1519 39.308C90.5675 35.9107 91.3974 36.1561 87.5621 35.2879C83.1106 34.2813 77.8166 32.8154 73.4155 32.1926C73.3589 30.0724 73.6922 28.1913 71.5985 27.8201C70.0581 27.5559 67.235 27.8516 65.4368 27.7132C65.4368 20.8053 66.3924 19.805 61.4694 19.805C61.4694 16.3322 61.5071 18.0623 63.5254 16.219C65.8203 14.1366 65.9901 10.7581 64.3428 8.54359C62.0605 5.46714 61.2493 7.91446 61.5511 3.94465H118.955V0H0.0478524V3.94465Z" fill="#1A3C55"/>
</svg>
