<svg width="173" height="84" viewBox="0 0 173 84" fill="none" xmlns="http://www.w3.org/2000/svg">
<path fill-rule="evenodd" clip-rule="evenodd" d="M47.5311 79.6622L47.9371 80.0595C49.9225 81.9948 52.1073 83.5327 54.7275 84.4966C59.9827 86.4319 66.9576 85.8579 72.5006 85.6151C82.0441 85.1883 85.6903 79.8241 88.6426 71.4871L88.7976 71.0382L115.959 71.1118L116.122 71.5386C119.052 79.1471 121.775 84.0331 130.47 85.4312C137.083 86.4981 149.904 86.4687 155.093 81.7225C158.34 78.7571 159.167 76.9911 160.606 72.9072C160.724 72.5687 160.946 71.4429 161.138 71.2222C161.359 70.972 162.407 70.6997 162.761 70.5452C163.625 70.1773 164.526 69.9786 165.367 69.5371C167.478 68.426 169.168 66.8954 170.401 64.8498C173.567 59.5739 173.036 51.5385 172.844 45.5783C172.785 43.93 172.74 42.2744 172.74 40.6261C172.74 37.3296 172.918 34.0477 172.962 30.7512C172.991 28.4406 172.94 26.0565 172.298 23.8196C171.471 20.9278 169.744 18.6614 167.633 16.5716C165.182 14.136 162.857 11.5826 160.4 9.16175C158.097 6.89537 155.152 4.05505 152.266 2.59809C144.966 -1.10317 133.481 0.236057 125.422 0.236057C115.93 0.236057 106.445 0.0741734 96.9609 0.0520984C90.7978 0.04474 84.6348 0.0520945 78.4718 0.191903C76.1542 0.243412 73.8366 0.316994 71.5264 0.449445C70.1609 0.530387 68.729 0.589254 67.3931 0.868871C59.311 2.56129 55.1187 6.57896 49.1549 11.8034C46.5273 14.1066 43.789 16.2846 41.25 18.6835C40.63 19.2721 39.9362 19.7504 39.1464 20.0742C37.6924 20.6776 36.0538 20.707 34.5038 20.6849C32.1936 20.6408 29.8908 20.4936 27.588 20.4936C21.7202 20.4936 14.2876 20.5083 9.12837 23.5915C7.61528 24.4892 6.30888 25.6371 5.19437 26.9837C3.22366 29.3678 1.76225 31.8917 0.972504 34.9013C0.359879 37.2412 0.19751 39.6695 0.153229 42.0757C0.101562 45.1368 0.20488 48.1978 0.20488 51.2589C0.20488 52.9587 0.123688 54.6511 0.0720215 56.3509C-0.0534515 59.9344 -0.297012 65.6077 2.17558 68.4775C2.53725 68.9043 2.96535 69.2722 3.4451 69.5665C4.03557 69.9418 5.47484 70.6041 5.86603 71.0603C6.3015 71.568 6.69269 73.5033 6.90674 74.2096C9.18005 81.7667 16.2731 85.5783 23.868 85.6372C26.9384 85.6666 30.0163 85.777 33.0941 85.7328C34.895 85.7034 36.7329 85.6077 38.4748 85.0927C41.5009 84.1949 44.5419 81.855 47.0735 80.0007L47.5311 79.6622ZM143.305 4.9454L144.619 4.96012C151.69 5.05578 159.861 15.4016 164.577 20.0742C165.411 20.891 166.334 21.6857 167.013 22.6423C168.268 24.4009 168.349 26.4907 168.201 28.5731L168.157 29.1912H167.537C165.913 29.1912 157.337 28.941 156.665 30.3465C156.355 30.9866 157.226 32.5098 157.558 33.0838C158.798 35.2545 160.259 37.2928 161.632 39.3899C162.046 40.0301 162.902 41.568 163.507 41.9432C164.223 42.3921 166.695 42.267 167.618 42.267H168.29L168.231 53.9815L167.116 52.9514C166.002 51.9285 165.027 50.7953 164.046 49.6474C162.082 47.3516 160.311 45.8137 157.683 44.2906C153.203 41.6857 148.221 40.5599 143.055 40.788C138.131 41.0087 133.57 42.5908 129.511 45.3428C126.47 47.4031 122.491 51.6636 120.639 54.8277L120.447 55.1589L114.778 55.1662V54.4966C114.778 53.2457 114.572 50.6629 115.081 49.5739C115.494 48.6909 116.742 47.6828 117.45 46.9911C119.008 45.4753 120.572 43.9594 122.093 42.3995C124.078 40.3612 123.65 35.3943 123.51 32.7379C123.392 30.3906 123.207 27.8373 123.643 25.5194L123.739 24.9969L124.27 24.9749C126.167 24.8939 128.145 24.9528 130.049 24.9749C132.994 25.019 135.939 25.0632 138.884 25.1C141.276 25.122 152.487 25.3428 154.273 24.4671L154.303 24.4524L154.333 24.4303C156.148 23.0249 155.152 21.671 154.096 20.2214L143.305 4.9454ZM46.3945 20.2361L47.6049 19.2059C52.2475 15.2324 57.9234 9.1691 63.496 6.75556C69.2383 4.27579 83.9115 3.98882 90.1778 4.93069L91.4031 5.11465L90.5764 6.03444C88.4138 8.45534 85.5796 10.2066 83.2472 12.4656C80.8041 14.8203 78.0511 16.8292 75.5785 19.1544C73.5709 21.0308 68.3526 20.6629 65.7545 20.5746C64.6252 20.5378 63.4886 20.4936 62.3593 20.4936C57.5691 20.4936 52.7568 20.8027 47.9814 20.3759L46.3945 20.2361ZM148.443 20.4642L123.444 20.4274V4.84239L136.626 4.73201L136.707 4.75409C137.976 5.07786 141.918 10.7364 142.826 12.0094C143.94 13.562 145.025 15.1294 146.095 16.7041C146.708 17.6165 147.365 18.5142 147.889 19.4708L148.443 20.4642ZM119.059 4.88654V20.4127L81.0329 20.4053L82.3689 19.2353C84.8858 17.0205 87.3215 14.7247 89.8531 12.5245C91.8902 10.7512 94.0159 9.05137 96.3926 7.74158C103.065 4.04769 111.058 4.23165 118.439 4.83503L119.059 4.88654ZM110.328 55.1662H109.656C106.364 55.1662 103.072 55.2692 99.7804 55.2692C98.5773 55.2619 96.9683 55.2913 95.9423 54.5849C95.3297 54.1581 94.8795 53.4664 94.444 52.8704C93.6838 51.8182 92.8793 50.8174 91.9936 49.8682C90.4288 48.1905 88.9157 46.6673 86.9819 45.387C78.1618 39.5444 66.5959 39.0735 57.6429 44.9013C54.6832 46.8292 49.8413 51.6563 48.1733 54.7541L47.9961 55.0853L47.6123 55.1C40.2314 55.3796 32.8432 55.3281 25.4549 55.2913C18.7457 55.2472 12.0364 55.1662 5.32721 55.1589H4.64079L4.84746 48.036H5.49698C15.1733 48.0286 24.857 48.036 34.5408 48.0433C38.9176 48.0433 42.9993 48.4039 46.8004 45.7475C50.1366 43.4149 51.0223 39.3752 51.0223 35.5415C51.0223 34.5481 50.9263 33.1426 50.0406 32.5098C48.9113 31.7078 45.6933 32.0462 44.2762 32.0462L7.20935 32.0315L7.83672 31.0161C9.69669 27.9918 13.8374 25.6886 17.2916 25.1515C17.8673 25.0558 18.4873 25.0632 19.063 25.0411C20.2514 25.0043 21.4323 24.9822 22.6133 24.9601C26.4735 24.8866 30.3337 24.8571 34.1939 24.8277C45.435 24.7468 56.676 24.7247 67.9097 24.7247C79.0844 24.7247 90.2517 24.7394 101.426 24.8056C105.287 24.8277 109.154 24.8571 113.014 24.9086C114.815 24.9381 116.66 24.8718 118.454 25.0558L119.052 25.122V25.7254C119.052 28.5363 119.044 31.3398 119.059 34.1507C119.074 37.5724 119.871 38.5731 117.148 41.178C115.73 42.5393 114.372 43.9521 112.97 45.3207C110.896 47.3516 110.328 47.1235 110.328 50.3318V55.1662ZM108.955 39.4046L108.911 34.9086L101.626 34.9675L101.663 39.3899L108.955 39.4046ZM168.179 33.5253L168.341 37.9329L167.552 37.8299C165.293 37.5209 164.895 36.4833 163.942 34.629L163.463 33.6945L168.179 33.5253ZM36.5631 43.6062V36.4907H46.638L46.5495 37.2412C45.8261 43.1206 42.4457 43.6062 37.2348 43.6062H36.5631ZM31.7434 36.4833L32.1346 43.6062H4.65555V42.9366C4.65555 41.7593 4.58914 40.5746 4.62604 39.3899C4.64819 38.6467 4.72197 37.7931 5.2534 37.2118C5.98412 36.4098 7.39386 36.4024 8.39766 36.395C10.6193 36.3803 12.841 36.4833 15.0626 36.4833C20.4137 36.4833 25.7575 36.4833 31.1086 36.4833H31.7434ZM167.648 60.295L167.507 60.7071C166.54 63.6651 164.762 65.3428 161.758 66.1523L161.138 66.3215L160.946 65.7107C158.289 57.5503 151.956 51.2295 142.833 52.2891C135.43 53.1427 129.26 58.7571 127.961 66.1081L127.865 66.66L115.657 66.6673L115.494 66.5717C115.406 66.5202 115.317 66.4687 115.214 66.4319L115.199 66.4245L115.184 66.4172C114.8 66.3288 114.572 65.9904 114.66 65.6077L114.668 65.5562V65.5047C114.653 65.4164 114.638 65.3208 114.616 65.2325L114.594 65.1441L114.8 59.6327L122.034 59.2648L122.085 59.2501C123.598 58.6688 124.927 56.3436 125.923 55.0926C130.898 48.8307 136.168 45.1368 144.427 45.1294C150.236 45.1294 154.93 46.9911 159.16 50.9646C160.761 52.4731 162.178 54.1655 163.581 55.8726C164.747 57.2928 165.928 58.7792 167.315 60.0007L167.648 60.295ZM110.069 59.5959L110.365 66.6379L88.8493 66.5496L88.6722 66.1596C86.7974 62.0536 86.7458 59.721 83.0922 56.5349C79.948 53.7976 76.287 52.3406 72.1021 52.3185C63.4369 52.2817 57.3329 57.8299 55.532 66.1228L55.4213 66.6232L54.912 66.6453C47.3761 67.072 39.8107 66.9543 32.2674 66.8807C25.9199 66.8219 19.5649 66.7041 13.21 66.7188C11.0991 66.7262 7.38649 67.1088 5.72578 65.6077C4.23485 64.2611 4.5153 61.8844 4.90649 60.1258L5.01723 59.6033L46.6085 59.618C48.188 59.618 49.797 59.4267 51.0149 58.323C52.1811 57.2707 53.0299 55.5709 53.9525 54.2906C55.687 51.8844 57.761 50.0669 60.2705 48.4922C65.0607 45.5047 70.5521 44.4009 76.1025 45.6224C81.6825 46.8439 86.5908 50.2361 90.1188 54.6585C91.1374 55.9315 92.8128 58.3818 94.2004 59.1397C95.3888 59.7873 97.2118 59.7578 98.5404 59.7578C102.172 59.7431 105.796 59.5959 109.427 59.5959H110.069ZM146.036 56.8071C152.229 57.7564 156.458 62.37 156.562 68.6541C156.606 71.0603 155.993 73.4885 154.746 75.5636C152.126 79.9418 147.461 81.6342 142.516 80.9793C135.806 80.0816 131.304 73.6136 132.337 67.0279C133.356 60.5746 139.497 55.8064 146.036 56.8071ZM145.704 70.788C148.376 66.9101 144.014 66.167 142.685 67.6092C141.829 68.5364 142.56 69.986 143.136 70.8542L143.239 71.0088L145.608 70.9278L145.704 70.788ZM74.309 57.0205C79.4091 58.1831 83.321 61.568 84.0813 66.8807C84.4134 69.1765 84.0813 71.5533 83.1882 73.6872C82.9003 74.3789 82.5534 75.0485 82.1548 75.6813C79.3206 80.1184 74.4861 81.9065 69.3785 80.869C62.5438 79.4856 58.846 73.5327 60.0934 66.7851C60.5805 64.1213 61.85 61.5606 63.8207 59.6769C66.6919 56.9322 70.493 56.1522 74.309 57.0205ZM72.7368 66.9911C69.8804 65.6813 68.6995 70.0007 71.113 70.9131C74.0063 71.9948 75.4973 68.2567 72.7368 66.9911ZM132.101 81.1044L130.876 80.9278C126.78 80.3318 121.067 76.3877 121.251 71.7961L121.274 71.1559L127.518 71.1412L127.688 71.5533C128.285 72.9955 128.662 74.5113 129.297 75.9315C129.924 77.359 130.928 78.5732 131.577 79.986L132.101 81.1044ZM59.9458 81.1265L58.4991 80.9278C53.5761 80.2509 49.7749 76.866 48.6382 72.0316L48.4537 71.2295L49.2878 71.2148C50.572 71.1927 51.8637 71.1191 53.148 71.1265C53.7975 71.1265 54.5651 71.1486 55.0744 71.6122C55.5098 72.0095 55.6649 72.6644 55.8272 73.2089C56.1077 74.1655 56.4546 75.0853 56.8827 75.983C57.5322 77.359 58.322 78.6247 59.1486 79.8977L59.9458 81.1265ZM22.3402 71.1559L43.9071 71.1633L43.9957 71.7225C44.3057 73.5327 45.0807 74.3862 44.1728 76.2185C42.4752 79.6622 37.0724 81.1265 33.5074 81.0088C27.8389 80.8101 23.8606 77.4547 22.5394 71.9801L22.3402 71.1559ZM21.7866 80.9941L20.6278 80.8395C15.7638 80.1626 12.1029 76.7115 10.9514 71.9801L10.7522 71.1559H11.601C12.9812 71.1559 14.354 71.1044 15.7269 71.1559C16.3912 71.178 17.1883 71.2222 17.6681 71.7372C18.1109 72.2082 18.2069 73.1059 18.3692 73.7166C18.7235 75.0559 19.3214 76.3068 20.0226 77.4915C20.5171 78.323 20.9747 79.022 21.3437 79.9197L21.7866 80.9941Z" fill="#1A3C55"/>
</svg>
