<svg width="131" height="128" viewBox="0 0 131 128" fill="none" xmlns="http://www.w3.org/2000/svg">
<path fill-rule="evenodd" clip-rule="evenodd" d="M11.004 52.122C13.4809 51.5306 13.6362 50.7692 15.2628 49.7194C16.9263 50.6657 17.5104 51.4123 19.7433 52.2477L19.7507 58.9379L11.004 58.9896V52.122ZM63.5208 72.1409H67.7425L67.6834 67.7276H63.4542L63.5208 72.1409ZM26.3606 80.8788H30.6267L30.5527 76.4655H26.294L26.3606 80.8788ZM96.2818 72.1409H100.541L100.489 67.7276H96.2079L96.2818 72.1409ZM30.708 72.1409H34.9889L34.915 67.7276H30.6562L30.708 72.1409ZM100.622 80.8788H104.903L104.836 76.4655H100.57L100.622 80.8788ZM63.4321 39.3551H67.7647L67.7425 32.7758H63.5208L63.4321 39.3551ZM54.6928 39.3551H59.0181L59.0033 32.7758H54.7742L54.6928 39.3551ZM99.1875 88.981C104.37 95.2055 105.428 95.4716 110.67 88.981C109.945 87.8574 108.851 86.8372 107.771 85.9575L105.102 88.567C103.801 87.983 103.128 86.8002 102.027 85.9649L99.1875 88.981ZM20.5344 88.981C25.7173 95.2055 26.7746 95.4716 32.0167 88.981C31.2921 87.8574 30.1978 86.8372 29.1258 85.9575L26.4493 88.567C25.148 87.983 24.4826 86.8002 23.3736 85.9649L20.5344 88.981ZM59.8905 80.2431C60.5116 81.3815 63.9348 85.1369 65.5984 85.1369C67.2767 85.1369 70.7 81.3889 71.3654 80.1913L68.2749 77.2122L65.5984 79.7921C64.6003 78.942 64.0087 77.981 62.7518 77.2861L59.8905 80.2431ZM66.7518 130.919C68.5484 128.553 68.127 126.128 70.2342 125.064C72.3636 123.992 72.2231 125.988 72.1196 120.214C68.9477 120.192 67.0402 121.981 65.5984 123.238C64.1493 121.959 62.2639 120.192 59.0477 120.207L59.0181 123.933C59.5208 124.465 59.0846 124.288 59.9497 124.702C64.5041 126.853 61.4802 126.919 64.445 131L66.7518 130.919ZM18.3089 124.886C19.4993 122.255 21.1185 123.09 21.9096 121.841L21.8948 118.004C17.6139 118.307 17.4439 119.667 15.2628 121.02C13.6583 119.638 11.8173 117.723 8.79335 118.174L8.83771 122.188C10.9375 123.245 11.6177 122.698 12.5641 125.249C13.2 126.971 13.2961 129.019 15.5807 128.834C17.6435 128.657 17.5696 126.528 18.3089 124.886ZM118.729 124.997C119.675 122.676 120.37 123.194 122.396 122.188L122.403 118.174C119.394 117.723 117.524 119.653 115.934 121.02C113.753 119.645 113.583 118.307 109.302 118.004L109.295 121.841C109.93 122.292 109.08 121.937 110.315 122.543C115.143 124.886 112.237 128.96 115.927 128.841C118.063 128.767 118.019 126.742 118.729 124.997ZM68.5115 111.831C69.4653 109.495 70.4855 110.227 72.1787 108.904V104.986C68.7333 104.838 67.3063 106.708 65.5984 107.913C63.8905 106.693 62.4709 104.838 59.0255 104.986L59.0181 108.904C60.8147 110.308 61.7981 109.48 62.7888 112.075C63.3951 113.672 63.5726 115.786 65.5984 115.786C67.713 115.786 67.8534 113.413 68.5115 111.831ZM65.5984 100.469C69.31 100.469 66.3377 95.065 72.1787 93.8748V89.6981C68.1418 89.6094 67.7278 91.3097 65.5984 92.6107C63.4616 91.2949 63.1067 89.6094 59.0255 89.6981L59.0181 93.8748C64.8294 95.0576 61.9016 100.476 65.5984 100.469ZM112.171 107.595C113.11 105.333 113.864 105.659 115.853 104.712L115.867 100.587C112.563 100.595 111.136 101.955 109.295 103.566C107.431 101.925 106.064 100.595 102.714 100.587L102.788 104.712C104.725 105.659 105.479 105.341 106.418 107.595C107.202 109.48 107.062 111.373 109.295 111.366C111.52 111.366 111.394 109.473 112.171 107.595ZM24.7857 107.595C25.7247 105.333 26.4714 105.659 28.4677 104.712L28.4751 100.587C25.1776 100.595 23.7432 101.955 21.9022 103.566C20.039 101.925 18.6712 100.595 15.3219 100.587L15.3958 104.712C17.333 105.659 18.0871 105.341 19.0261 107.595C19.8098 109.48 19.6767 111.373 21.9022 111.366C24.1277 111.366 24.002 109.473 24.7857 107.595ZM96.0083 49.2463C90.537 53.3713 90.5296 42.8 96.0896 46.9325L96.0083 49.2463ZM100.282 49.8377C101.494 45.7866 98.6847 42.6226 95.6756 41.7651C92.0527 40.7375 88.5333 43.3397 87.7348 46.1119C85.3319 54.458 97.7383 58.3687 100.282 49.8377ZM47.144 50.4439C52.7113 48.9284 54.3971 57.5407 49.3916 58.8122C43.6838 60.2685 41.2439 52.0481 47.144 50.4439ZM83.0621 58.9896L55.8462 58.9305C56.837 55.5817 56.6152 56.1805 56.7261 52.4621L79.1435 52.4547C79.7867 53.3196 80.1859 54.7981 80.8662 55.8996C81.6573 57.1711 82.3967 57.8955 83.0621 58.9896ZM19.6989 47.3464C16.6749 45.624 17.5474 41.8982 17.5326 37.958C17.5252 36.132 17.2664 33.9438 18.2498 32.5393C19.2479 31.0977 26.3162 26.8544 26.2792 37.958C26.2645 41.9056 27.1295 45.6166 24.0833 47.3464L24.0612 43.7241H19.7507L19.6989 47.3464ZM6.47915 47.339C3.6474 45.7349 4.43854 41.5507 4.42376 37.6031C4.40897 33.8182 4.85259 30.5285 8.95604 30.6542C12.9486 30.7724 13.1777 34.1508 13.1704 37.958C13.1556 41.8538 13.9023 45.7423 11.0484 47.339L10.9819 43.7463L6.60483 43.8202L6.47915 47.339ZM41.547 35.001L45.9684 35.0749L45.9314 37.884L41.5396 39.4882L41.547 35.001ZM41.547 30.5507C41.7614 27.4532 43.5433 26.2482 46.7225 26.2482L80.807 26.2556C80.3856 26.7731 80.6813 26.47 80.1564 26.9357C79.0104 27.9633 78.7664 27.6454 76.2526 30.0776C71.0327 35.134 69.968 40.2422 69.9754 47.9674L55.1143 48.0931C52.6596 48.0931 52.1938 45.9493 48.1199 45.9493C43.0923 45.9493 45.3547 48.0931 39.3807 48.0931L39.4694 45.2987C44.7115 41.7799 50.2788 43.3915 50.2788 38.3054C50.2788 28.3329 50.5968 31.2012 41.547 30.5507ZM69.0364 19.4841C69.3913 17.6508 69.9384 14.2428 70.87 12.8456L73.2656 15.2408C72.711 16.4236 70.0789 18.9075 69.0364 19.4841ZM48.1199 10.9753L51.277 10.9384L52.4969 11.1823L52.5043 15.1521L51.2696 15.2999H48.1199V10.9753ZM71.7499 8.77236L91.7939 8.76497L91.8161 21.8793L73.1546 21.7462L76.5261 18.5379L79.1582 21.1548C80.3856 20.4821 81.6869 19.1884 82.3597 17.9538C80.7479 16.3645 75.2101 10.2878 73.5909 9.58553L70.9144 11.9955L71.7499 8.77236ZM52.4896 4.46253L56.8592 4.40339V0.0344196C47.3066 0.0344196 48.1199 -0.867466 48.1199 6.562C45.4656 6.562 43.7503 6.42154 43.7503 9.64467C43.7503 18.9962 42.8557 19.7207 48.1199 19.7207V21.8793H46.7225C35.6913 21.8793 37.2218 31.0608 37.2218 40.7523C36.4972 42.6078 35.0111 41.3437 35.0111 44.5964C35.0111 52.3733 34.4787 52.2329 39.5212 52.499C39.6173 56.21 39.3733 55.5299 40.3936 58.9379L24.0686 58.9157V52.2477C28.1129 50.7248 30.6414 48.3518 30.6414 42.8518C30.6414 35.8955 31.6913 30.0923 25.7099 27.1575C20.7932 24.7476 18.2719 27.2462 15.2628 28.9835C13.1852 27.6306 9.88023 24.5406 4.8378 27.1871C1.79903 28.7765 0.061513 31.423 0.061513 35.8585C0.061513 42.2456 -1.09188 50.2887 6.59007 52.1294L6.61223 58.9896H2.32395L2.33875 63.403L8.73419 63.4325C7.12239 66.6039 2.03563 72.3701 0.593876 75.3344L4.07623 77.5226L14.0872 63.4103L23.0704 63.4621L0.327672 123.585C1.30363 124.435 2.82671 124.753 4.07623 125.175C5.96899 123.253 25.4807 67.528 27.8467 63.4177H40.9186L24.2904 128.42L28.4086 129.388L45.3473 63.4547L56.5043 63.4621C55.7501 70.6772 47.8686 126.86 48.4674 128.671L52.4969 129.004L60.9552 63.3956L70.249 63.5434L78.722 129.122L83.0473 128.62L74.6925 63.4473L85.7829 63.4769L102.803 129.418L107.054 128.442L90.3078 63.403L103.35 63.5138L109.376 79.112C111.343 84.3607 113.258 89.4246 115.239 94.5771C116.629 98.1921 126.248 124.288 127.143 125.234L130.913 123.571L108.215 63.4103H117.117L127.217 77.6557L130.64 75.3936C129.213 72.4144 124.111 66.6113 122.47 63.4103H128.88L128.858 58.9896L104.955 58.9674C108.378 54.2215 109.612 52.6321 109.058 44.9365L117.62 47.1912L115.978 54.0958L120.148 55.0938L121.901 48.4331L126.278 49.5864L124.865 56.1287C126.011 56.7645 127.453 57.0676 128.947 57.3041C129.486 54.5763 131.298 49.542 130.958 46.9399C128.836 45.3061 112.481 41.3142 108.688 40.2866C107.276 39.9022 107.091 40.0353 106.219 38.9338C105.428 37.9358 105.576 38.0615 104.548 37.1078C99.4537 32.384 95.0693 32.1327 88.4816 33.7812L90.1673 37.7879C104.777 34.1656 109.805 51.6193 99.5202 57.5407C93.7976 60.8451 87.6017 58.1395 85.1175 54.4432C79.9937 46.8437 85.8199 41.3068 86.5149 39.7174L84.2746 36.7678C82.7516 37.2852 82.7146 37.7214 81.8569 38.8377C79.7645 41.5951 78.8625 44.1603 78.722 47.9674L74.3376 48.0931C74.3376 39.4882 76.1565 34.2543 82.9216 30.462C88.3559 27.4163 97.9823 28.4586 104.851 28.4586L104.829 24.0601L96.1857 23.8309C96.1857 20.1494 96.1857 16.468 96.1857 12.7939C96.1857 6.8577 97.1025 4.40339 93.2135 4.40339H70.8404C68.1935 4.40339 68.0457 4.9874 67.5133 7.353C67.1362 9.03849 66.6926 10.517 66.3156 12.1286C65.554 15.3739 64.5633 18.6635 63.9274 21.8645C60.8517 21.8941 55.0773 22.1454 52.4896 21.7018V19.9203C55.691 19.0923 56.8592 20.5264 56.8592 16.2831C56.8592 4.44774 57.2436 7.58956 52.4896 6.35501V4.46253Z" fill="#1A3C55"/>
</svg>
