<svg width="131" height="128" viewBox="0 0 131 128" fill="none" xmlns="http://www.w3.org/2000/svg">
<path fill-rule="evenodd" clip-rule="evenodd" d="M4.50776 122.223L126.674 122.161L126.57 126.48L4.3902 126.549L4.50776 122.223ZM35.0269 65.4469L39.3631 65.5092L39.37 69.7733L34.9992 69.801L35.0269 65.4469ZM33.5193 61.4251C29.4044 62.8857 30.5524 70.0917 30.9397 71.2547C32.309 75.318 39.3562 74.3766 40.7116 73.9474C42.1432 73.4905 43.4433 72.113 43.6923 70.3548C44.211 66.6168 44.2456 61.6051 39.7158 61.1413C37.9523 60.9683 35.0338 60.8921 33.5193 61.4251ZM17.5785 65.4885L21.9078 65.4538L21.9147 69.8218L17.5647 69.6626L17.5785 65.4885ZM16.14 61.3905C11.9768 62.7611 13.0971 70.0986 13.5051 71.3516C14.826 75.3734 22.2051 74.3074 23.36 73.9335C24.9161 73.4352 26.0088 72.1961 26.2508 70.3271C26.7142 66.7068 26.8248 61.6051 22.378 61.1482C20.7182 60.9752 17.5577 60.9198 16.14 61.3905ZM61.196 93.821H65.5322V98.1682H61.196V93.821ZM56.9083 99.1442C57.6483 102.709 62.5653 103.145 66.4727 102.384C70.0897 101.685 70.6153 96.7768 69.7162 92.672C68.9555 89.2178 63.9347 88.7471 60.1587 89.5708C56.7077 90.3253 56.0853 95.1916 56.9083 99.1442ZM17.6269 82.884L21.9216 82.967L21.8455 87.2242L17.5924 87.1826L17.6269 82.884ZM16.4997 78.7376C14.7569 79.2013 13.5881 80.3366 13.3253 82.1987C13.1455 83.417 13.1524 87.4111 13.4152 88.4633C14.2728 91.8759 19.667 92.4158 23.1872 91.4329C27.3435 90.2769 26.6173 83.4031 26.1194 81.6449C24.9852 77.6231 18.526 78.1976 16.4997 78.7376ZM61.362 76.3563H65.4976L65.4423 80.7242H61.2098L61.362 76.3563ZM56.9221 81.7972C57.669 85.1891 62.3164 85.6875 66.3897 84.9606C70.1588 84.2892 70.5461 79.2913 69.7369 75.3111C68.8448 70.8739 58.0493 69.9948 56.929 75.4011C56.7423 76.3009 56.7285 80.9181 56.9221 81.7972ZM35.1237 82.8632L39.3561 82.9116L39.2386 87.2311L35.0476 87.2449L35.1237 82.8632ZM34.3146 78.6337C30.4279 79.2913 30.1029 83.6246 30.746 87.8749C31.3615 91.8897 35.6285 92.1666 39.9924 91.5782C43.9482 91.0383 44.3493 86.2551 43.6646 82.1294C43.0353 78.3638 38.2635 77.9623 34.3146 78.6337ZM17.703 100.335L21.8939 100.376V104.675L17.5647 104.606L17.703 100.335ZM16.9077 96.1123C13.0279 96.8253 12.5577 101.193 13.3392 105.561C14.01 109.327 19.1 109.804 22.9866 108.946C26.5136 108.171 27.0392 103.104 26.154 99.2619C25.3656 95.8423 20.9049 95.3785 16.9077 96.1123ZM112.76 113.792C113.444 114.927 113.534 115.868 113.465 117.682L78.6721 117.772C78.4093 111.992 80.2696 113.452 93.6515 113.452C98.0707 113.452 109.316 112.954 112.76 113.792ZM52.4269 67.6413C58.3952 67.5097 64.4672 67.6274 70.4424 67.6067C74.7439 67.5928 74.2737 68.5965 74.2529 72.6322C74.2045 87.2519 74.737 103.526 74.2252 117.668L52.4753 117.779L52.4269 67.6413ZM34.9992 100.328L39.37 100.356L39.3631 117.723L35.0615 117.786L34.9992 100.328ZM89.5021 59.0231L93.8383 58.9262L93.8798 109.064L89.6335 109.091L89.5021 59.0231ZM30.6146 117.772H8.92C8.76093 115.148 8.47739 60.3245 9.1828 57.431C11.7001 55.9497 28.782 56.718 33.4916 56.718C50.2484 56.718 48.1114 54.6068 48.1114 67.0736C48.1114 75.4703 48.1114 83.8738 48.1114 92.2705C48.1114 100.598 48.395 109.431 48.0838 117.696L43.7753 117.744C43.6162 113.099 43.7476 108.302 43.7476 103.727C43.7614 97.6975 43.3258 95.9946 37.0809 95.9946C27.4403 95.9946 31.7004 102.266 30.6146 117.772ZM83.0152 50.2042C87.0609 49.9896 89.0457 49.7128 90.6709 47.0685C92.4966 44.0989 91.3071 40.6931 91.7981 37.1074C96.6046 36.8651 98.2643 36.256 98.2367 41.2123C98.1399 56.2819 100.353 54.5168 89.3984 54.5306C84.7441 54.5375 83.4716 55.1951 83.0152 50.2042ZM82.538 45.8432C81.3415 45.0403 80.7191 40.5131 80.892 38.9487C81.1686 36.5398 84.6749 36.8236 87.2476 37.1628C87.3997 38.8034 87.3997 41.5169 87.3167 43.192C87.1715 46.1894 85.3388 45.8432 82.538 45.8432ZM89.5021 9.46706C89.4952 7.23118 89.1701 4.37231 91.6875 4.37924C94.2947 4.38616 93.8936 7.515 93.8867 9.79932V32.7118L89.5021 32.6011V9.46706ZM120.028 19.6012L124.385 19.6635V23.9691L120.007 23.9829L120.028 19.6012ZM98.2367 19.6081L101.535 19.6427L104.537 23.9898L98.2228 23.9968L98.2367 19.6081ZM26.4652 23.9898C26.8317 22.7854 27.959 19.6081 29.2384 19.6081L85.1175 19.6565V23.9483L26.4652 23.9898ZM98.2574 9.94469L115.782 17.8983L115.63 23.9968C109.35 23.9968 110.733 24.6682 108.126 21.1656C107.386 20.1688 106.536 19.1581 105.844 18.2167C103.555 15.0879 103.285 15.2956 98.2436 15.2956L98.2574 9.94469ZM85.1244 9.53628L85.0553 15.2956L64.5363 15.1571L85.1244 9.53628ZM32.8415 28.3854C32.8415 30.4344 32.6271 34.0616 32.9245 35.9306C33.4294 39.0941 35.5387 38.6718 36.6521 40.0355C38.2289 41.9668 36.0158 44.6249 33.8305 43.192C33.0628 42.6867 32.9452 41.6968 31.486 41.5584C28.0005 41.2469 28.4984 46.397 33.2426 47.6846C38.3049 49.0551 42.7863 44.4588 41.251 39.3502C40.4004 36.5121 37.641 36.0206 37.1777 34.6708V28.4962L85.1175 28.3854V32.6772C75.1934 33.2379 75.9818 37.7443 77.4687 44.9918C78.8519 51.7756 78.3747 57.7287 85.0899 58.9054L85.1175 109.022L78.6375 109.244C78.5476 97.3444 78.6236 85.2998 78.6375 73.2898C78.6513 60.0684 72.9528 63.751 52.4269 63.2664C52.4269 61.0582 52.7381 58.1855 51.8667 56.2127C51.1821 54.6621 49.5222 53.1185 47.6412 52.5993C45.518 52.0179 21.3683 52.3363 17.1428 52.3363C11.5065 52.3363 7.21874 51.6441 5.1786 56.0881C3.47042 59.7984 5.02646 114.892 4.48703 117.149C4.24498 118.153 2.69584 117.71 1.2712 119.267C-0.31942 121.005 -1.27377 129.92 3.79546 130.793C6.29204 131.215 112.206 130.855 124.06 130.896C127.767 130.91 130.582 130.433 130.893 126.632C131.799 115.612 126.923 117.903 117.864 117.758C117.698 114.837 117.836 110.074 112.483 109.202C109.267 108.676 101.881 109.091 98.2367 109.091L98.2228 58.4417C103.396 56.3719 102.566 52.0386 102.566 45.8017C102.566 36.8582 103.368 36.6367 98.3127 33.0372L98.2159 28.3854L127.677 28.3993C129.288 28.3854 130.499 28.2332 130.824 26.6964C131.218 24.7928 129.925 24.336 128.756 23.8376C128.728 14.8318 127.573 15.5863 121.432 15.3025C119.924 15.2333 118.929 14.5618 117.615 13.9596L99.3847 5.69445C97.0195 4.64228 98.292 4.62844 97.061 2.78713C95.7332 0.800457 92.6488 -0.736272 89.4745 0.371281C88.1328 0.841991 87.13 1.80418 86.4869 2.63484C85.1729 4.34463 86.3278 4.63536 83.8865 5.25836C73.2571 7.97878 61.5003 11.6129 50.6288 14.4857C45.7255 15.787 35.8153 15.3025 30.2136 15.2886C25.7598 15.2748 25.2688 16.3062 23.6228 19.5527C18.6159 29.4099 26.5275 28.3854 32.8415 28.3854Z" fill="#1A3C55"/>
</svg>
