<svg width="139" height="128" viewBox="0 0 139 128" fill="none" xmlns="http://www.w3.org/2000/svg">
<path fill-rule="evenodd" clip-rule="evenodd" d="M99.0723 124.101L118.827 124.013L118.871 126.94L99.065 126.955L99.0723 124.101ZM124.839 44.4321C122.629 46.4788 125.581 48.8044 127.445 47.3812C128.12 46.8603 128.51 45.6572 127.893 44.6962C127.394 43.9259 126.168 43.1996 124.839 44.4321ZM69.224 28.4763H71.3089C75.251 28.4763 75.2803 24.4928 71.3089 24.4928H69.224C65.1278 24.4928 65.1498 28.4763 69.224 28.4763ZM37.9443 27.7867C39.9924 28.9311 42.6351 28.4543 45.0356 28.1242C45.4981 27.0458 45.6156 26.5029 45.2925 25.1971C43.6775 24.2874 42.9434 24.4928 40.7632 24.4928C37.9663 24.4928 37.3423 25.2118 37.9443 27.7867ZM20.2893 124.101L40.0438 124.013L40.1025 126.933L20.2893 126.955V124.101ZM36.6009 120.052L30.295 120C31.3961 118.79 54.432 105.937 56.7371 104.69C57.5593 104.243 60.5764 102.379 61.1637 102.21C62.397 101.858 64.6433 103.568 65.37 104.353C60.7379 106.759 55.9516 109.73 51.2314 112.371C48.6767 113.794 38.7811 120.052 36.6009 120.052ZM97.406 100.523C98.2722 99.4961 98.8815 99.1293 99.7697 98.5498C100.827 99.4888 103.337 102.166 103.829 103.296C102.838 104.397 102.655 104.595 101.502 105.38C100.577 104.741 97.8097 101.712 97.406 100.523ZM81.7697 99.5181C83.605 98.6525 86.0201 96.7158 88.0022 96.2976C88.8758 97.7795 89.5952 98.205 90.6743 99.5475C93.0748 102.533 97.5454 107.038 99.1384 109.524C97.472 108.93 82.6506 100.435 81.7697 99.5181ZM65.0397 84.7654L74.1425 84.7948L74.025 90.3848C72.9239 90.935 70.127 92.7323 69.3635 92.6223C68.8497 92.5416 67.5944 91.6833 66.963 91.3385C65.9867 90.803 65.5462 90.9203 65.0177 89.7686L65.0397 84.7654ZM73.724 94.9258C77.2404 93.4146 90.2779 84.7654 92.8472 84.7654L98.7126 85.1983C98.6539 85.2423 98.5732 85.323 98.5144 85.3743L79.9785 96.0042C78.8407 96.6718 78.0258 97.5301 76.6898 96.9139L73.724 94.9258ZM78.0993 84.7508L83.1425 84.8241C82.1515 85.8732 79.4206 87.3184 78.0919 87.7952L78.0993 84.7508ZM61.0462 87.7952C59.4532 87.201 56.928 85.9905 56.025 84.7874L61.0462 84.7654L61.0609 86.306L61.0462 87.7952ZM40.0658 84.8388C48.5373 84.362 47.4875 84.8315 54.5788 88.8002C57.3317 90.3408 59.7175 91.7713 62.3015 93.2165L108.873 119.964L102.545 120.03C98.6686 120.03 88.2885 110.816 85.5503 112.261C82.2763 114.513 87.3342 116.574 88.9932 117.535C90.4541 118.386 94.9908 120.727 95.9378 121.68C95.2183 123.551 95.1376 124.321 95.1009 126.764C92.6784 127.204 47.5903 127.212 44.0372 126.815C44.0152 124.453 43.8684 123.426 43.2077 121.68C44.4337 120.506 50.211 117.513 52.1563 116.413L65.6196 108.717C66.8896 107.955 69.0552 106.385 70.2077 106.825C73.9149 108.226 76.6898 112.019 80.1107 111.006C81.3439 108.182 79.9051 107.749 77.5413 106.436C71.4924 103.083 40.8806 85.8805 40.0658 84.8388ZM69.6351 67.8559L72.0209 69.6826L70.6188 69.712L68.534 69.7193L67.0511 69.5432L69.6351 67.8559ZM67.5944 61.6644L69.224 61.569L69.9214 61.547L71.6319 61.7891L69.5397 63.0729L67.5944 61.6644ZM55.1661 54.7465L84.0454 54.8492L84.0748 57.4828L84.8456 57.6149L55.0707 57.4828L55.1661 54.7465ZM29.304 42.8035C37.7828 41.1162 40.3007 53.8442 32.0128 55.7295C27.9826 56.6465 24.6498 53.6901 24.1139 50.5577C23.4312 46.5302 25.9638 43.4711 29.304 42.8035ZM100.445 42.8035C108.748 41.1822 111.464 53.5361 103.455 55.6562C99.366 56.7346 95.9818 53.9102 95.2697 50.8731C94.3227 46.7943 97.105 43.4491 100.445 42.8035ZM88.7803 48.863C88.5234 44.9163 89.1621 41.6151 91.4671 38.4679C96.2975 31.8802 116.727 30.523 114.51 50.7777L112.33 50.7997C111.919 46.8603 111.897 44.6668 109.526 42.224C104.894 37.4556 98.3236 37.4996 93.7061 42.4367C90.432 45.9286 91.702 49.1125 90.7477 50.7997L89.3529 50.8071L88.7803 48.863ZM17.7199 50.8071C17.7199 45.0483 17.5071 42.1433 20.4948 38.2992C25.4133 31.9756 45.5788 30.523 43.3619 50.7704L41.189 50.8071C40.8366 46.5375 40.6164 44.5788 38.2012 42.0406C36.2779 40.0232 33.6351 38.4973 29.6563 38.776C19.8855 39.4583 20.0177 49.9048 20.0177 49.9194C19.7754 50.631 20.3994 50.8071 17.7199 50.8071ZM4.13919 33.0833L6.92141 33.0906C6.43691 35.4602 6.09188 36.4505 4.14653 37.0961L4.13919 35.6656V33.0833ZM134.948 37.1695C133.399 37.3969 128.921 37.4776 127.629 36.9494C126.359 36.4285 123.951 34.037 123.378 33.1567C125.896 32.9806 132.643 32.7532 134.882 33.3181L134.948 37.1695ZM86.2477 17.3182C90.8285 16.9294 93.6988 17.8024 93.7869 22.4754L92.4802 22.5708L87.6205 22.5855L86.255 22.4754L86.2477 17.3182ZM4.14653 28.9458C3.96301 16.8414 3.90428 18.6827 15.7746 18.6827C24.8627 18.6827 78.1139 18.3159 82.2983 18.7708C82.4965 26.8991 82.2542 26.5029 90.3953 26.5029C97.8758 26.5102 98.118 26.0407 97.2958 18.7194C103.514 18.9688 110.392 21.221 116.294 22.6075C121.47 23.8326 130.374 25.6813 132.657 29.0338C129.258 29.4006 125.118 29.0265 121.616 29.1145C117.85 29.2172 116.617 32.3277 119.187 34.9833C120.251 36.0837 121.11 36.5752 122.16 37.5729C128.348 43.5078 128.855 40.0672 134.984 41.3657C135.263 49.1125 135.704 50.7997 131.718 50.8218C127.555 50.8511 122.747 50.9978 118.643 50.7631C118.196 47.5719 118.908 45.107 117.946 41.7691C115.854 34.4918 109.922 30.2296 101.502 30.2589C95.6074 30.2736 90.8358 32.7385 88.5087 35.849C83.4068 42.6641 85.587 45.6425 84.7575 50.8071L62.0886 50.7704C61.4353 45.4078 63.0723 26.7303 61.2518 23.9133C57.6767 23.1137 58.0218 25.4759 58.0438 28.3809C58.0805 33.23 58.3154 47.7186 57.9557 50.7997L47.5242 50.7631C46.7167 44.0433 48.1849 40.7201 43.6775 35.8783C40.5063 32.4744 37.4231 30.2736 30.6987 30.2589C24.7379 30.2443 20.0837 32.4964 17.5217 35.6729C12.963 41.329 14.5927 42.9576 13.6237 50.4696C11.4214 49.692 10.078 47.77 8.48503 46.4275C6.87737 45.0703 4.77785 43.9259 4.27133 41.1456C8.52174 40.4927 9.4834 38.1231 10.8488 34.1837C13.1612 27.5079 6.69384 29.5473 4.14653 28.9458ZM38.5682 7.10652C42.87 4.19413 52.1417 3.39451 58.0511 4.14278L57.9263 14.6993L38.5536 14.5819L38.5682 7.10652ZM28.4377 14.6626C29.5682 13.5182 30.2509 13.0927 31.4182 12.1023C32.3798 11.288 33.481 10.2903 34.5087 9.68146C34.5968 11.6475 34.7289 12.7919 34.3912 14.6993L28.4377 14.6626ZM62.0079 4.09876C68.1229 3.64393 76.1392 3.78331 81.3807 5.83006C84.7648 7.15787 91.2469 11.6622 93.8236 14.4939C90.5862 13.4081 90.1898 13.1367 86.2257 13.2541C83.7885 13.3275 84.4712 13.7383 83.047 14.4279C81.7697 15.0441 64.1588 14.7433 62.0152 14.6626L62.0079 4.09876ZM111.222 54.7465C117.469 54.7465 123.716 54.7318 129.963 54.7465C137.759 54.7612 139 53.0666 138.985 45.3784C138.948 23.5905 138.332 24.016 111.222 17.2816C108.799 16.68 106.083 15.9831 103.631 15.5062C94.7852 13.8043 90.711 0.892929 73.034 0.129985C66.9557 -0.134111 60.4222 0.0859686 54.2999 0.0859686C40.6384 0.0786326 37.056 2.38947 27.432 10.2023C26.3896 11.0533 25.6775 11.6035 24.7599 12.3811C20.7738 15.763 22.0658 14.6919 13.6898 14.6919C9.07231 14.6919 1.95159 13.5255 0.395308 20.2673C-0.331446 23.4071 0.167739 34.4771 0.160398 38.4386C0.138375 46.2808 3.44914 46.831 6.93609 50.3963C11.3627 54.9373 12.919 54.7465 20.9793 54.7465C22.3007 55.2454 23.4092 57.2848 25.0756 58.2825C33.7673 63.4984 39.3537 54.8859 40.0731 54.7392L51.0992 54.7832C51.3782 60.8941 50.4019 61.6424 57.0821 61.5617C60.4002 61.525 59.7689 61.4956 62.0519 62.9482C63.1678 63.6598 64.9222 64.6134 65.6784 65.4938C64.1221 67.1737 59.8937 69.7266 57.4418 69.7266L32.4385 69.712C29.304 69.712 22.0217 68.5235 23.3137 72.4189C24.3415 74.2603 26.9769 73.6294 29.3113 73.6294H135.021L134.823 80.826H4.13919L4.13185 73.6294C6.9728 73.6294 9.81374 73.6221 12.6547 73.6294C15.7819 73.6441 18.0209 74.2529 17.5144 70.5849C15.0845 68.8977 8.69058 69.7193 5.35779 69.7046C-0.793925 69.6753 0.160398 72.1402 0.160398 77.6348C0.153057 83.6797 -0.221332 84.7874 6.05518 84.7654C9.68895 84.7508 30.3757 84.362 32.2036 85.1322L40.587 89.9447C43.3766 91.5146 46.1514 93.0845 48.9851 94.7277C51.5324 96.2023 54.8945 98.3517 57.3904 99.4961C56.4435 100.56 42.7746 108.167 40.3668 109.488C37.4524 111.087 34.5894 112.745 31.7338 114.396C28.8415 116.068 24.6645 117.807 23.901 120.052C17.4116 120.052 16.4426 120.44 16.2591 126.955C13.8292 126.955 9.74034 126.177 9.46872 128.649C9.15306 131.554 12.6841 130.909 15.0772 130.902H121.286C123.833 130.902 126.748 131.496 128.047 129.764C128.928 126.551 125.529 126.955 122.886 126.955C122.703 120.433 121.734 120.052 115.244 120.052C114.679 118.401 113.776 118.005 112.279 117.154C108.204 114.843 107.485 112.305 103.925 108.945C104.872 107.155 107.742 106.377 108.131 103.949C108.535 101.448 105.98 99.5988 104.864 98.2123C101.84 94.4563 99.6963 91.8447 94.6825 97.7575C93.6988 97.2293 92.0544 95.2999 91.3937 94.2802C91.4524 94.2215 91.5405 94.1409 91.5772 94.1042L102.765 87.5605C104.483 86.5628 106.942 84.8168 109.115 84.7434C117.271 84.4793 127.467 85.2423 135.498 84.7581C138.824 84.56 139.007 82.748 138.992 79.3735C138.948 69.6239 139.844 69.712 131.005 69.712H86.9231C84.2069 69.712 80.463 70.1815 78.5691 68.9784C77.4019 68.2448 74.2893 66.3741 73.4744 65.4938C74.2306 64.6208 76.22 63.513 77.2917 62.8014C79.5161 61.3342 79.2738 61.5323 82.4157 61.569C88.8391 61.6424 87.782 60.5566 88.0536 54.7612C95.9524 54.7318 91.056 55.2087 96.2094 58.2971C104.659 63.3517 110.399 55.0766 111.222 54.7465Z" fill="#1A3C55"/>
</svg>
