<svg width="139" height="128" viewBox="0 0 139 128" fill="none" xmlns="http://www.w3.org/2000/svg">
<path fill-rule="evenodd" clip-rule="evenodd" d="M75.8972 110.528C77.1744 109.744 78.7599 109.352 80.1986 108.693C82.276 107.739 82.5917 108.412 84.4635 109.448C100.774 118.483 89.176 130.411 84.9039 131.085C84.9039 129.79 84.8231 128.206 84.8818 126.956C85.014 124.188 90.0275 122.324 86.9225 117.469C84.3901 113.518 77.3359 111.92 75.8972 110.528ZM67.3529 86.043C68.3952 84.0451 71.3314 84.7185 71.6617 86.043L71.6177 98.3191C68.8357 99.1404 70.1863 99.133 67.3602 98.3191L67.3529 86.043ZM75.8825 87.227C78.202 88.4775 81.4319 89.5431 82.1733 91.9924C81.2704 94.0199 78.2461 95.6182 75.7577 96.4987L75.8825 87.227ZM63.1909 96.4987C61.2384 95.7958 56.746 93.6203 56.9736 91.689C57.1865 89.8465 61.3631 88.226 63.2276 87.2344L63.1909 96.4987ZM61.8916 101.834C61.4365 102.019 61.0915 102.108 60.6218 102.278C60.0639 102.485 58.3756 103.262 57.8911 103.336C56.4965 103.551 47.798 99.0738 47.7319 91.9924C47.6585 85.0219 56.0413 80.1825 57.9792 80.4489C58.6839 80.5525 62.5303 82.0916 63.1909 82.543C62.1486 83.4088 58.2728 84.9997 56.6873 86.0652C47.8714 91.9628 55.1898 97.9417 63.3303 100.99L61.8916 101.834ZM67.3602 20.9706L71.6617 20.8744L71.6177 70.3262C68.6962 70.9922 70.3111 70.9922 67.3529 70.3262L67.3602 20.9706ZM75.8972 73.1011C77.2551 72.2131 80.2794 71.3474 83.6927 69.2089C85.6966 67.9583 88.743 65.3167 87.6859 61.7574C87.0033 59.4487 82.4522 58.879 83.9423 54.084C84.7351 51.5237 88.2291 49.6294 91.18 51.5903C95.5108 54.4614 92.171 57.3546 92.4719 60.0629C93.294 67.5365 91.936 70.119 83.8249 74.5884C81.7035 75.7501 81.7769 75.7797 79.6262 74.7882C78.393 74.2258 76.8588 73.9298 75.8972 73.1011ZM46.6676 66.3748C45.9996 64.6581 45.9115 63.1708 46.2785 61.269C46.8804 58.1464 46.5648 59.5449 45.8161 57.103C44.8324 53.9212 47.2402 51.1241 49.8093 50.8059C52.9804 50.4212 55.6008 52.9962 55.2485 56.2669C54.8228 60.2627 51.2627 59.1971 51.1452 62.9636C50.7709 74.5588 84.7498 74.7882 90.6442 88.5441C97.0964 103.595 64.7765 107.717 53.942 115.486C52.2463 116.707 50.0442 119.571 51.6811 122.878C53.8979 127.333 54.1034 122.264 54.1034 131.085C51.5049 130.633 44.1131 124.862 46.5501 117.477C50.9397 104.194 85.9316 103.129 86.2252 91.9924C86.3647 86.746 78.7526 83.9638 74.1501 82.062C68.9531 79.9087 63.8662 77.933 58.7426 75.8981C53.7804 73.9372 48.7376 71.7099 46.6676 66.3748ZM75.7577 46.6399C79.105 46.6769 80.5069 47.6759 81.9457 49.2816C80.8593 51.9085 79.1417 52.8261 79.7876 57.14C80.4336 61.3948 82.8633 61.713 83.7294 63.6517C82.7678 65.7828 78.7747 67.5957 75.7651 68.5281L75.7577 46.6399ZM57.0617 49.2816C58.493 47.6685 59.9097 46.6769 63.2496 46.6399L63.2202 68.5281C60.2473 67.6031 56.3423 65.7236 55.2852 63.6517C56.1294 61.7204 58.5737 61.38 59.2197 57.14C59.8803 52.7447 58.148 51.9381 57.0617 49.2816ZM81.909 33.9126C83.5239 34.7413 86.9372 39.5363 93.3454 37.6568C98.425 36.1695 99.4453 32.9876 100.921 29.532L126.245 29.5468C127.009 37.5606 108.518 32.1071 103.468 34.5193C101.75 40.5278 109.282 37.013 117.973 38.16C117.444 41.5712 115.572 42.437 111.851 42.437C108.489 42.437 105.127 42.437 101.765 42.4148C99.9224 42.4074 98.4397 42.2742 97.8818 43.6431C96.0761 48.0015 105.795 46.5586 109.861 46.5586C109.957 52.6115 101.361 50.9613 96.2449 50.9317C93.595 47.8239 91.503 46.1664 85.4691 47.1135C82.4889 44.6272 82.2393 42.9771 75.8164 42.4962L75.7577 38.4633C76.1101 36.754 78.7159 38.1526 81.909 33.9126ZM21.0347 38.1526C29.6744 37.0352 37.2645 40.4982 35.5395 34.5267C30.5113 32.1071 11.9766 37.5606 12.7694 29.532L38.0866 29.5616C39.5914 33.1282 40.7879 36.4062 45.9262 37.7308C48.2458 38.3302 50.5139 38.0342 52.5839 37.1462C54.8154 36.1917 55.5201 34.7191 57.0983 33.9126C58.4416 35.7107 60.1079 37.0204 63.2423 37.827L63.0955 42.4962C56.746 43.0067 56.4891 44.6346 53.5382 47.1135C47.5264 46.1886 45.405 47.8017 42.7624 50.9317C37.6461 50.9613 29.0359 52.6189 29.146 46.5586C32.3758 46.5586 43.68 47.9719 41.0154 43.4137C40.0098 41.6896 30.3204 42.4592 26.8117 42.437C23.2736 42.4148 21.5192 41.3788 21.0347 38.1526ZM67.5291 4.48418C71.4049 3.13745 74.5025 5.57933 75.4935 8.2876C76.8808 12.0762 74.4732 15.6132 71.7352 16.5604C63.668 19.3575 59.2932 7.34785 67.5291 4.48418ZM95.342 91.6372C95.2025 83.2386 88.9925 80.5303 86.4894 77.9922C89.2054 75.4542 91.0992 75.6835 94.4464 70.9552C98.4396 65.3241 96.3183 61.1507 96.8321 59.0418C97.823 54.9941 96.4504 55.0015 100.378 55.0607C106.184 55.1495 112.93 55.8081 114.097 46.6621C118.787 45.2266 121.525 43.6357 122.076 38.234C127.743 36.4432 128.565 36.754 130.686 29.5098C139.517 28.7846 140.119 18.7433 137.931 17.3818C136.984 16.7898 116.982 16.331 115.932 17.7961C113.003 21.8881 121.533 21.0816 123.647 21.0816C127.324 21.0816 131.009 21.0668 134.687 21.0816C134.797 24.6482 131.912 25.4844 128.513 25.4696C122.744 25.4474 100.121 25.0774 97.5295 25.81C96.5899 27.9633 97.0376 29.9612 95.1952 31.8259C89.3742 37.6938 80.8227 30.1091 85.4178 23.7233C88.0383 20.0826 93.9033 21.0816 99.3499 21.0816C103.005 21.0816 114.023 22.4653 109.693 17.2338C107.065 16.627 100.018 16.9896 96.9202 16.9896C93.0151 16.9896 88.7577 16.6196 85.5939 18.2919C77.079 22.7835 82.8266 31.3523 75.7651 33.4982L75.7871 18.8395C78.5691 16.9896 81.2043 12.054 79.2958 6.91127C77.9231 3.21145 74.4952 0 69.5037 0C59.0729 0 55.6302 13.7041 63.2496 18.8395L63.1909 33.4982C55.9019 31.2783 62.4569 21.3554 51.7325 17.5594C50.147 16.997 33.6236 16.0942 32.3537 17.8479C28.7349 22.7983 42.3367 20.6376 48.6495 21.1038C58.0966 21.8141 55.8357 35.8069 47.0786 33.7868C42.0724 32.6324 42.278 27.6377 41.4852 25.8026C38.7692 25.0552 16.0947 25.4622 10.1489 25.4696C6.88242 25.477 4.21046 24.4558 4.32056 21.0816C8.68812 21.0594 23.6406 21.5774 26.5401 20.6598C26.7383 20.1714 27.0613 19.6387 27.0172 18.9061C26.9291 17.6407 26.6722 17.8405 26.1144 17.4262C24.9252 16.6714 2.50019 16.6418 1.07615 17.3744C-0.993855 18.8987 0.342068 23.8195 1.58994 25.7582C3.02133 27.9855 5.03998 29.2434 8.32115 29.5098C10.4058 36.7688 11.3454 36.4728 16.9315 38.234C17.4673 43.6357 20.2347 45.234 24.9105 46.6621C25.4611 51.0353 27.7733 54.0988 31.7298 54.8758C38.3289 56.1559 41.1402 53.3736 41.6174 56.3039C41.8302 57.5914 42.0431 58.25 42.2413 59.2933C42.5863 61.0767 41.5219 63.0746 42.3587 66.175C44.392 73.6708 50.0735 75.6318 52.5326 77.9922C51.5783 78.969 50.1322 79.7607 49.2147 80.6339C43.1442 86.376 41.4925 94.0495 46.6308 100.354C49.2807 103.595 50.2057 103.588 52.5252 105.637L48.3045 108.753C39.9804 115.501 39.7015 125.483 48.3926 132.513C49.6698 133.541 51.3214 134.518 52.8776 135.347C54.9035 136.427 55.6155 137.175 57.7443 136.124C58.4343 133.971 58.1407 129.634 58.1627 126.97C58.2068 121.073 56.0413 123.67 55.1972 120.326C56.2762 117.884 60.2253 116.33 63.1395 115.198C63.5946 118.868 63.2496 124.802 63.2496 128.724C63.2496 141.748 61.8109 139.883 71.948 139.935C74.5172 139.942 75.655 139.875 75.7798 137.145C75.8752 134.962 76.0733 132.328 74.2676 131.906C71.7058 131.314 71.6545 133.726 71.6545 135.798H67.3456L67.4557 113.4C70.0909 112.741 68.9165 112.741 71.5517 113.4C71.8086 115.59 71.6618 118.416 71.6545 120.681C71.6545 122.804 71.1406 125.942 72.8949 126.711C76.8661 128.458 75.7577 119.941 75.7577 115.212C78.782 116.093 83.3477 118.069 83.7955 120.681C81.9971 124.114 80.8079 121.258 80.852 127.326C80.874 129.938 80.5804 134 81.2631 136.124C84.0451 137.5 88.6696 134.163 90.8056 132.35C93.2059 130.315 95.5622 127.784 96.5972 123.863C99.5628 112.689 88.1557 107.398 86.4894 105.637C89.822 102.648 95.4741 99.873 95.342 91.6372Z" fill="#1A3C55"/>
</svg>
